# MagicaVoxel @ Ephtracy

# group
g VikingViewModel-5

# material
mtllib VikingViewModel-5.mtl
usemtl palette

# normals
vn -1 0 0
vn 1 0 0
vn 0 0 1
vn 0 0 -1
vn 0 -1 0
vn 0 1 0

# texcoords
vt 0.0175781 0.5
vt 0.0253906 0.5
vt 0.0527344 0.5
vt 0.0566406 0.5

# verts
v -2 0 1
v -2 0 -1
v -2 1 1
v -2 1 -1
v -2 2 1
v -2 2 -1
v 2 0 1
v 2 0 -0
v 2 0 -1
v 2 1 1
v 2 1 -0
v 2 1 -1
v 2 2 1
v 2 2 -1
v -2 0 1
v -2 1 1
v -2 2 1
v -1 0 1
v -1 1 1
v 1 0 1
v 1 1 1
v 2 0 1
v 2 1 1
v 2 2 1
v -2 0 -1
v -2 1 -1
v -2 2 -1
v -1 0 -1
v -1 1 -1
v 1 0 -1
v 1 1 -1
v 2 0 -1
v 2 1 -1
v 2 2 -1
v -2 0 1
v -1 0 1
v 1 0 1
v 2 0 1
v 1 0 -0
v 2 0 -0
v -2 0 -1
v -1 0 -1
v 1 0 -1
v 2 0 -1
v -2 2 1
v 2 2 1
v -2 2 -1
v 2 2 -1

# faces
f 3/3/1 2/3/1 1/3/1
f 4/3/1 2/3/1 3/3/1
f 5/4/1 4/4/1 3/4/1
f 6/4/1 4/4/1 5/4/1
f 7/3/2 8/3/2 10/3/2
f 8/1/2 9/1/2 11/1/2
f 10/3/2 8/3/2 11/3/2
f 11/1/2 9/1/2 12/1/2
f 10/4/2 11/4/2 13/4/2
f 11/4/2 12/4/2 13/4/2
f 13/4/2 12/4/2 14/4/2
f 18/3/3 16/3/3 15/3/3
f 19/4/3 17/4/3 16/4/3
f 19/3/3 16/3/3 18/3/3
f 20/2/3 19/2/3 18/2/3
f 21/4/3 17/4/3 19/4/3
f 21/2/3 19/2/3 20/2/3
f 22/3/3 21/3/3 20/3/3
f 23/4/3 17/4/3 21/4/3
f 23/3/3 21/3/3 22/3/3
f 24/4/3 17/4/3 23/4/3
f 25/3/4 26/3/4 28/3/4
f 26/4/4 27/4/4 29/4/4
f 28/3/4 26/3/4 29/3/4
f 28/2/4 29/2/4 30/2/4
f 29/4/4 27/4/4 31/4/4
f 30/2/4 29/2/4 31/2/4
f 30/1/4 31/1/4 32/1/4
f 31/4/4 27/4/4 33/4/4
f 32/1/4 31/1/4 33/1/4
f 33/4/4 27/4/4 34/4/4
f 39/2/5 37/2/5 36/2/5
f 39/3/5 38/3/5 37/3/5
f 40/3/5 38/3/5 39/3/5
f 41/3/5 36/3/5 35/3/5
f 42/2/5 39/2/5 36/2/5
f 42/3/5 36/3/5 41/3/5
f 43/1/5 40/1/5 39/1/5
f 43/2/5 39/2/5 42/2/5
f 44/1/5 40/1/5 43/1/5
f 45/4/6 46/4/6 47/4/6
f 47/4/6 46/4/6 48/4/6
