# MagicaVoxel @ Ephtracy

# group
g VikingViewModel-4

# material
mtllib VikingViewModel-4.mtl
usemtl palette

# normals
vn -1 0 0
vn 1 0 0
vn 0 0 1
vn 0 0 -1
vn 0 -1 0
vn 0 1 0

# texcoords
vt 0.0253906 0.5
vt 0.0566406 0.5
vt 0.0605469 0.5

# verts
v -3 0 1
v -3 0 -1
v -3 2 1
v -3 2 -1
v 3 0 1
v 3 0 -1
v 3 2 1
v 3 2 -1
v -3 0 1
v -3 2 1
v -1 1 1
v -1 2 1
v 0 0 1
v 0 1 1
v 0 2 1
v 3 0 1
v 3 2 1
v -3 0 -1
v -3 2 -1
v -1 1 -1
v -1 2 -1
v 0 0 -1
v 0 1 -1
v 0 2 -1
v 3 0 -1
v 3 2 -1
v -3 0 1
v 0 0 1
v 3 0 1
v -3 0 -1
v 0 0 -1
v 3 0 -1
v -3 2 1
v -1 2 1
v 0 2 1
v 3 2 1
v -3 2 -1
v -1 2 -1
v 0 2 -1
v 3 2 -1

# faces
f 3/3/1 2/3/1 1/3/1
f 4/3/1 2/3/1 3/3/1
f 5/1/2 6/1/2 7/1/2
f 7/1/2 6/1/2 8/1/2
f 11/3/3 10/3/3 9/3/3
f 12/3/3 10/3/3 11/3/3
f 13/3/3 11/3/3 9/3/3
f 14/2/3 12/2/3 11/2/3
f 14/3/3 11/3/3 13/3/3
f 15/2/3 12/2/3 14/2/3
f 16/1/3 14/1/3 13/1/3
f 16/1/3 15/1/3 14/1/3
f 17/1/3 15/1/3 16/1/3
f 18/3/4 19/3/4 20/3/4
f 20/3/4 19/3/4 21/3/4
f 18/3/4 20/3/4 22/3/4
f 20/2/4 21/2/4 23/2/4
f 22/3/4 20/3/4 23/3/4
f 23/2/4 21/2/4 24/2/4
f 22/1/4 23/1/4 25/1/4
f 23/1/4 24/1/4 25/1/4
f 25/1/4 24/1/4 26/1/4
f 30/3/5 28/3/5 27/3/5
f 31/1/5 29/1/5 28/1/5
f 31/3/5 28/3/5 30/3/5
f 32/1/5 29/1/5 31/1/5
f 33/3/6 34/3/6 37/3/6
f 34/2/6 35/2/6 38/2/6
f 37/3/6 34/3/6 38/3/6
f 35/1/6 36/1/6 39/1/6
f 38/2/6 35/2/6 39/2/6
f 39/1/6 36/1/6 40/1/6
