# MagicaVoxel @ Ephtracy

# group
g ResearchCenter-0

# material
mtllib ResearchCenter-0.mtl
usemtl palette

# normals
vn -1 0 0
vn 1 0 0
vn 0 0 1
vn 0 0 -1
vn 0 -1 0
vn 0 1 0

# texcoords
vt 0.970703 0.5
vt 0.974609 0.5
vt 0.978516 0.5

# verts
v -14 1 14
v -14 1 13
v -14 1 9
v -14 1 8
v -14 1 7
v -14 1 -7
v -14 1 -8
v -14 1 -9
v -14 1 -13
v -14 1 -15
v -14 2 14
v -14 2 13
v -14 2 9
v -14 2 8
v -14 2 7
v -14 2 -7
v -14 2 -8
v -14 2 -9
v -14 2 -13
v -14 2 -15
v 15 1 14
v 15 1 -14
v 15 1 -15
v 15 2 14
v 15 2 -14
v 15 2 -15
v -14 1 14
v -14 2 14
v -13 1 14
v -13 2 14
v -9 1 14
v -9 2 14
v -8 1 14
v -8 2 14
v -7 1 14
v -7 2 14
v 7 1 14
v 7 2 14
v 8 1 14
v 8 2 14
v 9 1 14
v 9 2 14
v 13 1 14
v 13 2 14
v 15 1 14
v 15 2 14
v -14 1 -15
v -14 2 -15
v 14 1 -15
v 14 2 -15
v 15 1 -15
v 15 2 -15
v -14 1 14
v -13 1 14
v -9 1 14
v -8 1 14
v -7 1 14
v 7 1 14
v 8 1 14
v 9 1 14
v 13 1 14
v 15 1 14
v -14 1 13
v -13 1 13
v 13 1 13
v 14 1 13
v -10 1 10
v -9 1 10
v 9 1 10
v 10 1 10
v -14 1 9
v -10 1 9
v -9 1 9
v -8 1 9
v 8 1 9
v 9 1 9
v 10 1 9
v 14 1 9
v -14 1 8
v -9 1 8
v -8 1 8
v -7 1 8
v 7 1 8
v 8 1 8
v 9 1 8
v 14 1 8
v -14 1 7
v -8 1 7
v 8 1 7
v 14 1 7
v -14 1 -7
v -8 1 -7
v 8 1 -7
v 14 1 -7
v -14 1 -8
v -9 1 -8
v -8 1 -8
v -7 1 -8
v 7 1 -8
v 8 1 -8
v 9 1 -8
v 14 1 -8
v -14 1 -9
v -10 1 -9
v -9 1 -9
v -8 1 -9
v 8 1 -9
v 9 1 -9
v 10 1 -9
v 14 1 -9
v -10 1 -10
v -9 1 -10
v 9 1 -10
v 10 1 -10
v -14 1 -13
v -13 1 -13
v 13 1 -13
v 14 1 -13
v -13 1 -14
v -9 1 -14
v -8 1 -14
v -7 1 -14
v 7 1 -14
v 8 1 -14
v 9 1 -14
v 13 1 -14
v 14 1 -14
v 15 1 -14
v -14 1 -15
v 14 1 -15
v 15 1 -15
v -14 2 14
v -13 2 14
v -9 2 14
v -8 2 14
v -7 2 14
v 7 2 14
v 8 2 14
v 9 2 14
v 13 2 14
v 15 2 14
v -14 2 13
v -13 2 13
v 13 2 13
v 14 2 13
v -10 2 10
v -9 2 10
v 9 2 10
v 10 2 10
v -14 2 9
v -10 2 9
v -9 2 9
v -8 2 9
v 8 2 9
v 9 2 9
v 10 2 9
v 14 2 9
v -14 2 8
v -9 2 8
v -8 2 8
v -7 2 8
v 7 2 8
v 8 2 8
v 9 2 8
v 14 2 8
v -14 2 7
v -8 2 7
v 8 2 7
v 14 2 7
v -14 2 -7
v -8 2 -7
v 8 2 -7
v 14 2 -7
v -14 2 -8
v -9 2 -8
v -8 2 -8
v -7 2 -8
v 7 2 -8
v 8 2 -8
v 9 2 -8
v 14 2 -8
v -14 2 -9
v -10 2 -9
v -9 2 -9
v -8 2 -9
v 8 2 -9
v 9 2 -9
v 10 2 -9
v 14 2 -9
v -10 2 -10
v -9 2 -10
v 9 2 -10
v 10 2 -10
v -14 2 -13
v -13 2 -13
v 13 2 -13
v 14 2 -13
v -13 2 -14
v -9 2 -14
v -8 2 -14
v -7 2 -14
v 7 2 -14
v 8 2 -14
v 9 2 -14
v 13 2 -14
v 14 2 -14
v 15 2 -14
v -14 2 -15
v 14 2 -15
v 15 2 -15

# faces
f 11/1/1 2/1/1 1/1/1
f 12/2/1 3/2/1 2/2/1
f 12/1/1 2/1/1 11/1/1
f 13/3/1 4/3/1 3/3/1
f 13/2/1 3/2/1 12/2/1
f 14/1/1 5/1/1 4/1/1
f 14/3/1 4/3/1 13/3/1
f 15/2/1 6/2/1 5/2/1
f 15/1/1 5/1/1 14/1/1
f 16/1/1 7/1/1 6/1/1
f 16/2/1 6/2/1 15/2/1
f 17/3/1 8/3/1 7/3/1
f 17/1/1 7/1/1 16/1/1
f 18/2/1 9/2/1 8/2/1
f 18/3/1 8/3/1 17/3/1
f 19/1/1 10/1/1 9/1/1
f 19/2/1 9/2/1 18/2/1
f 20/1/1 10/1/1 19/1/1
f 21/1/2 22/1/2 24/1/2
f 22/3/2 23/3/2 25/3/2
f 24/1/2 22/1/2 25/1/2
f 25/3/2 23/3/2 26/3/2
f 29/1/3 28/1/3 27/1/3
f 30/1/3 28/1/3 29/1/3
f 31/2/3 30/2/3 29/2/3
f 32/2/3 30/2/3 31/2/3
f 33/3/3 32/3/3 31/3/3
f 34/3/3 32/3/3 33/3/3
f 35/1/3 34/1/3 33/1/3
f 36/1/3 34/1/3 35/1/3
f 37/2/3 36/2/3 35/2/3
f 38/2/3 36/2/3 37/2/3
f 39/1/3 38/1/3 37/1/3
f 40/1/3 38/1/3 39/1/3
f 41/3/3 40/3/3 39/3/3
f 42/3/3 40/3/3 41/3/3
f 43/2/3 42/2/3 41/2/3
f 44/2/3 42/2/3 43/2/3
f 45/1/3 44/1/3 43/1/3
f 46/1/3 44/1/3 45/1/3
f 47/1/4 48/1/4 49/1/4
f 49/1/4 48/1/4 50/1/4
f 49/3/4 50/3/4 51/3/4
f 51/3/4 50/3/4 52/3/4
f 63/1/5 54/1/5 53/1/5
f 64/2/5 55/2/5 54/2/5
f 64/1/5 54/1/5 63/1/5
f 65/1/5 62/1/5 61/1/5
f 65/2/5 61/2/5 60/2/5
f 66/1/5 62/1/5 65/1/5
f 67/2/5 55/2/5 64/2/5
f 67/2/5 64/2/5 63/2/5
f 68/3/5 56/3/5 55/3/5
f 68/2/5 55/2/5 67/2/5
f 69/3/5 60/3/5 59/3/5
f 69/2/5 66/2/5 65/2/5
f 69/2/5 65/2/5 60/2/5
f 70/2/5 66/2/5 69/2/5
f 71/2/5 67/2/5 63/2/5
f 72/3/5 68/3/5 67/3/5
f 72/2/5 67/2/5 71/2/5
f 73/3/5 56/3/5 68/3/5
f 73/3/5 68/3/5 72/3/5
f 74/1/5 57/1/5 56/1/5
f 74/3/5 56/3/5 73/3/5
f 75/1/5 59/1/5 58/1/5
f 75/3/5 69/3/5 59/3/5
f 75/3/5 70/3/5 69/3/5
f 76/3/5 70/3/5 75/3/5
f 77/2/5 66/2/5 70/2/5
f 77/3/5 70/3/5 76/3/5
f 78/1/5 62/1/5 66/1/5
f 78/2/5 66/2/5 77/2/5
f 79/3/5 73/3/5 72/3/5
f 79/3/5 72/3/5 71/3/5
f 80/1/5 74/1/5 73/1/5
f 80/3/5 73/3/5 79/3/5
f 81/1/5 57/1/5 74/1/5
f 81/1/5 74/1/5 80/1/5
f 82/2/5 58/2/5 57/2/5
f 82/1/5 57/1/5 81/1/5
f 83/1/5 76/1/5 75/1/5
f 83/2/5 58/2/5 82/2/5
f 83/1/5 75/1/5 58/1/5
f 84/1/5 76/1/5 83/1/5
f 85/3/5 77/3/5 76/3/5
f 85/1/5 76/1/5 84/1/5
f 85/3/5 78/3/5 77/3/5
f 86/1/5 62/1/5 78/1/5
f 86/3/5 78/3/5 85/3/5
f 87/1/5 81/1/5 80/1/5
f 87/1/5 80/1/5 79/1/5
f 88/2/5 84/2/5 83/2/5
f 88/1/5 81/1/5 87/1/5
f 88/2/5 82/2/5 81/2/5
f 88/2/5 83/2/5 82/2/5
f 89/1/5 85/1/5 84/1/5
f 89/2/5 84/2/5 88/2/5
f 89/1/5 86/1/5 85/1/5
f 90/1/5 62/1/5 86/1/5
f 90/1/5 86/1/5 89/1/5
f 91/2/5 88/2/5 87/2/5
f 91/2/5 89/2/5 88/2/5
f 91/2/5 90/2/5 89/2/5
f 92/2/5 90/2/5 91/2/5
f 93/2/5 90/2/5 92/2/5
f 94/1/5 62/1/5 90/1/5
f 94/2/5 90/2/5 93/2/5
f 95/1/5 92/1/5 91/1/5
f 96/1/5 92/1/5 95/1/5
f 97/2/5 93/2/5 92/2/5
f 97/1/5 92/1/5 96/1/5
f 98/2/5 93/2/5 97/2/5
f 99/2/5 93/2/5 98/2/5
f 100/1/5 94/1/5 93/1/5
f 100/2/5 93/2/5 99/2/5
f 101/1/5 94/1/5 100/1/5
f 102/1/5 62/1/5 94/1/5
f 102/1/5 94/1/5 101/1/5
f 103/3/5 96/3/5 95/3/5
f 104/3/5 96/3/5 103/3/5
f 105/1/5 97/1/5 96/1/5
f 105/3/5 96/3/5 104/3/5
f 105/1/5 98/1/5 97/1/5
f 106/1/5 98/1/5 105/1/5
f 107/1/5 101/1/5 100/1/5
f 107/1/5 100/1/5 99/1/5
f 108/3/5 102/3/5 101/3/5
f 108/1/5 101/1/5 107/1/5
f 109/3/5 102/3/5 108/3/5
f 110/1/5 62/1/5 102/1/5
f 110/3/5 102/3/5 109/3/5
f 111/2/5 104/2/5 103/2/5
f 111/3/5 106/3/5 105/3/5
f 111/3/5 105/3/5 104/3/5
f 112/3/5 106/3/5 111/3/5
f 113/3/5 109/3/5 108/3/5
f 113/3/5 108/3/5 107/3/5
f 114/2/5 110/2/5 109/2/5
f 114/3/5 109/3/5 113/3/5
f 115/2/5 112/2/5 111/2/5
f 115/2/5 111/2/5 103/2/5
f 116/2/5 112/2/5 115/2/5
f 117/2/5 110/2/5 114/2/5
f 117/2/5 114/2/5 113/2/5
f 118/1/5 62/1/5 110/1/5
f 118/2/5 110/2/5 117/2/5
f 119/2/5 112/2/5 116/2/5
f 119/1/5 116/1/5 115/1/5
f 120/3/5 106/3/5 112/3/5
f 120/2/5 112/2/5 119/2/5
f 121/1/5 98/1/5 106/1/5
f 121/3/5 106/3/5 120/3/5
f 122/2/5 99/2/5 98/2/5
f 122/1/5 98/1/5 121/1/5
f 123/1/5 107/1/5 99/1/5
f 123/2/5 99/2/5 122/2/5
f 124/3/5 113/3/5 107/3/5
f 124/1/5 107/1/5 123/1/5
f 125/2/5 117/2/5 113/2/5
f 125/3/5 113/3/5 124/3/5
f 126/1/5 118/1/5 117/1/5
f 126/2/5 117/2/5 125/2/5
f 127/1/5 62/1/5 118/1/5
f 127/1/5 118/1/5 126/1/5
f 128/1/5 62/1/5 127/1/5
f 129/1/5 119/1/5 115/1/5
f 129/1/5 120/1/5 119/1/5
f 129/1/5 121/1/5 120/1/5
f 129/1/5 127/1/5 126/1/5
f 129/1/5 124/1/5 123/1/5
f 129/1/5 125/1/5 124/1/5
f 129/1/5 126/1/5 125/1/5
f 129/1/5 122/1/5 121/1/5
f 129/1/5 123/1/5 122/1/5
f 130/3/5 128/3/5 127/3/5
f 130/1/5 127/1/5 129/1/5
f 131/3/5 128/3/5 130/3/5
f 132/1/6 133/1/6 142/1/6
f 133/2/6 134/2/6 143/2/6
f 142/1/6 133/1/6 143/1/6
f 140/1/6 141/1/6 144/1/6
f 139/2/6 140/2/6 144/2/6
f 144/1/6 141/1/6 145/1/6
f 143/2/6 134/2/6 146/2/6
f 142/2/6 143/2/6 146/2/6
f 134/3/6 135/3/6 147/3/6
f 146/2/6 134/2/6 147/2/6
f 138/3/6 139/3/6 148/3/6
f 144/2/6 145/2/6 148/2/6
f 139/2/6 144/2/6 148/2/6
f 148/2/6 145/2/6 149/2/6
f 142/2/6 146/2/6 150/2/6
f 146/3/6 147/3/6 151/3/6
f 150/2/6 146/2/6 151/2/6
f 147/3/6 135/3/6 152/3/6
f 151/3/6 147/3/6 152/3/6
f 135/1/6 136/1/6 153/1/6
f 152/3/6 135/3/6 153/3/6
f 137/1/6 138/1/6 154/1/6
f 138/3/6 148/3/6 154/3/6
f 148/3/6 149/3/6 154/3/6
f 154/3/6 149/3/6 155/3/6
f 149/2/6 145/2/6 156/2/6
f 155/3/6 149/3/6 156/3/6
f 145/1/6 141/1/6 157/1/6
f 156/2/6 145/2/6 157/2/6
f 151/3/6 152/3/6 158/3/6
f 150/3/6 151/3/6 158/3/6
f 152/1/6 153/1/6 159/1/6
f 158/3/6 152/3/6 159/3/6
f 153/1/6 136/1/6 160/1/6
f 159/1/6 153/1/6 160/1/6
f 136/2/6 137/2/6 161/2/6
f 160/1/6 136/1/6 161/1/6
f 154/1/6 155/1/6 162/1/6
f 161/2/6 137/2/6 162/2/6
f 137/1/6 154/1/6 162/1/6
f 162/1/6 155/1/6 163/1/6
f 155/3/6 156/3/6 164/3/6
f 163/1/6 155/1/6 164/1/6
f 156/3/6 157/3/6 164/3/6
f 157/1/6 141/1/6 165/1/6
f 164/3/6 157/3/6 165/3/6
f 159/1/6 160/1/6 166/1/6
f 158/1/6 159/1/6 166/1/6
f 162/2/6 163/2/6 167/2/6
f 166/1/6 160/1/6 167/1/6
f 160/2/6 161/2/6 167/2/6
f 161/2/6 162/2/6 167/2/6
f 163/1/6 164/1/6 168/1/6
f 167/2/6 163/2/6 168/2/6
f 164/1/6 165/1/6 168/1/6
f 165/1/6 141/1/6 169/1/6
f 168/1/6 165/1/6 169/1/6
f 166/2/6 167/2/6 170/2/6
f 167/2/6 168/2/6 170/2/6
f 168/2/6 169/2/6 170/2/6
f 170/2/6 169/2/6 171/2/6
f 171/2/6 169/2/6 172/2/6
f 169/1/6 141/1/6 173/1/6
f 172/2/6 169/2/6 173/2/6
f 170/1/6 171/1/6 174/1/6
f 174/1/6 171/1/6 175/1/6
f 171/2/6 172/2/6 176/2/6
f 175/1/6 171/1/6 176/1/6
f 176/2/6 172/2/6 177/2/6
f 177/2/6 172/2/6 178/2/6
f 172/1/6 173/1/6 179/1/6
f 178/2/6 172/2/6 179/2/6
f 179/1/6 173/1/6 180/1/6
f 173/1/6 141/1/6 181/1/6
f 180/1/6 173/1/6 181/1/6
f 174/3/6 175/3/6 182/3/6
f 182/3/6 175/3/6 183/3/6
f 175/1/6 176/1/6 184/1/6
f 183/3/6 175/3/6 184/3/6
f 176/1/6 177/1/6 184/1/6
f 184/1/6 177/1/6 185/1/6
f 179/1/6 180/1/6 186/1/6
f 178/1/6 179/1/6 186/1/6
f 180/3/6 181/3/6 187/3/6
f 186/1/6 180/1/6 187/1/6
f 187/3/6 181/3/6 188/3/6
f 181/1/6 141/1/6 189/1/6
f 188/3/6 181/3/6 189/3/6
f 182/2/6 183/2/6 190/2/6
f 184/3/6 185/3/6 190/3/6
f 183/3/6 184/3/6 190/3/6
f 190/3/6 185/3/6 191/3/6
f 187/3/6 188/3/6 192/3/6
f 186/3/6 187/3/6 192/3/6
f 188/2/6 189/2/6 193/2/6
f 192/3/6 188/3/6 193/3/6
f 190/2/6 191/2/6 194/2/6
f 182/2/6 190/2/6 194/2/6
f 194/2/6 191/2/6 195/2/6
f 193/2/6 189/2/6 196/2/6
f 192/2/6 193/2/6 196/2/6
f 189/1/6 141/1/6 197/1/6
f 196/2/6 189/2/6 197/2/6
f 195/2/6 191/2/6 198/2/6
f 194/1/6 195/1/6 198/1/6
f 191/3/6 185/3/6 199/3/6
f 198/2/6 191/2/6 199/2/6
f 185/1/6 177/1/6 200/1/6
f 199/3/6 185/3/6 200/3/6
f 177/2/6 178/2/6 201/2/6
f 200/1/6 177/1/6 201/1/6
f 178/1/6 186/1/6 202/1/6
f 201/2/6 178/2/6 202/2/6
f 186/3/6 192/3/6 203/3/6
f 202/1/6 186/1/6 203/1/6
f 192/2/6 196/2/6 204/2/6
f 203/3/6 192/3/6 204/3/6
f 196/1/6 197/1/6 205/1/6
f 204/2/6 196/2/6 205/2/6
f 197/1/6 141/1/6 206/1/6
f 205/1/6 197/1/6 206/1/6
f 206/1/6 141/1/6 207/1/6
f 194/1/6 198/1/6 208/1/6
f 198/1/6 199/1/6 208/1/6
f 199/1/6 200/1/6 208/1/6
f 205/1/6 206/1/6 208/1/6
f 202/1/6 203/1/6 208/1/6
f 203/1/6 204/1/6 208/1/6
f 204/1/6 205/1/6 208/1/6
f 200/1/6 201/1/6 208/1/6
f 201/1/6 202/1/6 208/1/6
f 206/3/6 207/3/6 209/3/6
f 208/1/6 206/1/6 209/1/6
f 209/3/6 207/3/6 210/3/6
