# MagicaVoxel @ Ephtracy

# group
g ResearchCenter-2

# material
mtllib ResearchCenter-2.mtl
usemtl palette

# normals
vn -1 0 0
vn 1 0 0
vn 0 0 1
vn 0 0 -1
vn 0 -1 0
vn 0 1 0

# texcoords
vt 0.912109 0.5
vt 0.939453 0.5
vt 0.970703 0.5
vt 0.974609 0.5
vt 0.978516 0.5
vt 0.982422 0.5

# verts
v -13 0 1.5
v -13 0 0.5
v -13 0 -0.5
v -13 1 1.5
v -13 1 0.5
v -13 1 -0.5
v -13 1 -1.5
v -13 2 1.5
v -13 2 0.5
v -13 7 1.5
v -13 7 0.5
v -13 8 1.5
v -13 8 0.5
v -13 12 1.5
v -13 12 0.5
v -13 13 1.5
v -13 13 0.5
v -13 19 1.5
v -13 19 0.5
v -13 20 1.5
v -13 20 0.5
v -13 20 -0.5
v -13 20 -1.5
v -11 4 1.5
v -11 4 0.5
v -11 4 -0.5
v -11 5 1.5
v -11 5 0.5
v -11 5 -0.5
v -11 9 1.5
v -11 9 -0.5
v -11 11 1.5
v -11 11 -0.5
v -9 3 0.5
v -9 3 -0.5
v -9 4 0.5
v -9 5 0.5
v -9 6 0.5
v -9 6 -0.5
v -9 8 0.5
v -9 8 -0.5
v -9 9 0.5
v -9 11 0.5
v -9 12 0.5
v -9 12 -0.5
v -7 4 0.5
v -7 4 -0.5
v -7 5 0.5
v -7 5 -0.5
v -5 3 0.5
v -5 3 -0.5
v -5 6 0.5
v -5 6 -0.5
v 6 4 1.5
v 6 4 0.5
v 6 4 -0.5
v 6 5 1.5
v 6 5 0.5
v 6 5 -0.5
v 8 3 0.5
v 8 3 -0.5
v 8 4 0.5
v 8 5 0.5
v 8 6 0.5
v 8 6 -0.5
v 10 4 0.5
v 10 4 -0.5
v 10 5 0.5
v 10 5 -0.5
v 10 9 0.5
v 10 9 -0.5
v 10 11 0.5
v 10 11 -0.5
v 12 3 0.5
v 12 3 -0.5
v 12 6 0.5
v 12 6 -0.5
v 12 8 0.5
v 12 8 -0.5
v 12 12 0.5
v 12 12 -0.5
v 13 0 -0.5
v 13 0 -1.5
v 13 1 -0.5
v 13 1 -1.5
v 13 2 1.5
v 13 2 0.5
v 13 7 1.5
v 13 7 0.5
v 13 8 1.5
v 13 8 0.5
v 13 12 1.5
v 13 12 0.5
v 13 13 1.5
v 13 13 0.5
v 13 19 1.5
v 13 19 0.5
v -12 3 0.5
v -12 3 -0.5
v -12 6 0.5
v -12 6 -0.5
v -12 8 0.5
v -12 8 -0.5
v -12 12 0.5
v -12 12 -0.5
v -10 4 0.5
v -10 4 -0.5
v -10 5 0.5
v -10 5 -0.5
v -10 9 0.5
v -10 9 -0.5
v -10 11 0.5
v -10 11 -0.5
v -8 3 0.5
v -8 3 -0.5
v -8 4 0.5
v -8 5 0.5
v -8 6 0.5
v -8 6 -0.5
v -6 4 1.5
v -6 4 0.5
v -6 4 -0.5
v -6 5 1.5
v -6 5 0.5
v -6 5 -0.5
v 5 3 0.5
v 5 3 -0.5
v 5 6 0.5
v 5 6 -0.5
v 7 4 0.5
v 7 4 -0.5
v 7 5 0.5
v 7 5 -0.5
v 9 3 0.5
v 9 3 -0.5
v 9 4 0.5
v 9 5 0.5
v 9 6 0.5
v 9 6 -0.5
v 9 8 0.5
v 9 8 -0.5
v 9 9 0.5
v 9 11 0.5
v 9 12 0.5
v 9 12 -0.5
v 11 4 1.5
v 11 4 0.5
v 11 4 -0.5
v 11 5 1.5
v 11 5 0.5
v 11 5 -0.5
v 11 9 1.5
v 11 9 -0.5
v 11 11 1.5
v 11 11 -0.5
v 16 0 1.5
v 16 0 0.5
v 16 0 -0.5
v 16 0 -1.5
v 16 1 0.5
v 16 1 -0.5
v 16 5 0.5
v 16 5 -0.5
v 16 16 0.5
v 16 16 -0.5
v 16 20 1.5
v 16 20 0.5
v 16 20 -0.5
v 16 20 -1.5
v -13 0 1.5
v -13 1 1.5
v -13 2 1.5
v -13 7 1.5
v -13 8 1.5
v -13 12 1.5
v -13 13 1.5
v -13 19 1.5
v -13 20 1.5
v -11 4 1.5
v -11 5 1.5
v -11 9 1.5
v -11 11 1.5
v -10 4 1.5
v -10 5 1.5
v -8 9 1.5
v -8 11 1.5
v -7 4 1.5
v -7 5 1.5
v -6 4 1.5
v -6 5 1.5
v -6 9 1.5
v -6 11 1.5
v -1 9 1.5
v -1 11 1.5
v 1 9 1.5
v 1 11 1.5
v 6 4 1.5
v 6 5 1.5
v 6 9 1.5
v 6 11 1.5
v 7 4 1.5
v 7 5 1.5
v 8 9 1.5
v 8 11 1.5
v 10 4 1.5
v 10 5 1.5
v 11 4 1.5
v 11 5 1.5
v 11 9 1.5
v 11 11 1.5
v 13 1 1.5
v 13 2 1.5
v 13 7 1.5
v 13 8 1.5
v 13 12 1.5
v 13 13 1.5
v 13 19 1.5
v 13 20 1.5
v 14 1 1.5
v 14 5 1.5
v 14 16 1.5
v 14 20 1.5
v 15 0 1.5
v 15 1 1.5
v 15 5 1.5
v 15 16 1.5
v 15 20 1.5
v 16 0 1.5
v 16 20 1.5
v -13 2 0.5
v -13 7 0.5
v -13 8 0.5
v -13 12 0.5
v -13 13 0.5
v -13 19 0.5
v -12 3 0.5
v -12 6 0.5
v -12 8 0.5
v -12 12 0.5
v -10 15 0.5
v -10 16 0.5
v -9 3 0.5
v -9 4 0.5
v -9 5 0.5
v -9 6 0.5
v -9 8 0.5
v -9 9 0.5
v -9 11 0.5
v -9 12 0.5
v -9 15 0.5
v -9 16 0.5
v -8 3 0.5
v -8 4 0.5
v -8 5 0.5
v -8 6 0.5
v -8 9 0.5
v -8 11 0.5
v -6 9 0.5
v -6 11 0.5
v -5 3 0.5
v -5 6 0.5
v -3 4 0.5
v -3 5 0.5
v -3 15 0.5
v -3 16 0.5
v -2 4 0.5
v -2 5 0.5
v -2 15 0.5
v -2 16 0.5
v -1 9 0.5
v -1 11 0.5
v 1 9 0.5
v 1 11 0.5
v 2 4 0.5
v 2 5 0.5
v 2 15 0.5
v 2 16 0.5
v 3 4 0.5
v 3 5 0.5
v 3 15 0.5
v 3 16 0.5
v 5 3 0.5
v 5 6 0.5
v 6 9 0.5
v 6 11 0.5
v 8 3 0.5
v 8 4 0.5
v 8 5 0.5
v 8 6 0.5
v 8 9 0.5
v 8 11 0.5
v 9 3 0.5
v 9 4 0.5
v 9 5 0.5
v 9 6 0.5
v 9 8 0.5
v 9 9 0.5
v 9 11 0.5
v 9 12 0.5
v 9 15 0.5
v 9 16 0.5
v 10 15 0.5
v 10 16 0.5
v 12 3 0.5
v 12 6 0.5
v 12 8 0.5
v 12 12 0.5
v 13 2 0.5
v 13 7 0.5
v 13 8 0.5
v 13 12 0.5
v 13 13 0.5
v 13 19 0.5
v -12 3 -0.5
v -12 6 -0.5
v -12 8 -0.5
v -12 12 -0.5
v -11 4 -0.5
v -11 5 -0.5
v -11 9 -0.5
v -11 11 -0.5
v -10 4 -0.5
v -10 5 -0.5
v -10 9 -0.5
v -10 11 -0.5
v -9 3 -0.5
v -9 6 -0.5
v -9 8 -0.5
v -9 12 -0.5
v -8 3 -0.5
v -8 6 -0.5
v -7 4 -0.5
v -7 5 -0.5
v -6 4 -0.5
v -6 5 -0.5
v -5 3 -0.5
v -5 6 -0.5
v 5 3 -0.5
v 5 6 -0.5
v 6 4 -0.5
v 6 5 -0.5
v 7 4 -0.5
v 7 5 -0.5
v 8 3 -0.5
v 8 6 -0.5
v 9 3 -0.5
v 9 6 -0.5
v 9 8 -0.5
v 9 12 -0.5
v 10 4 -0.5
v 10 5 -0.5
v 10 9 -0.5
v 10 11 -0.5
v 11 4 -0.5
v 11 5 -0.5
v 11 9 -0.5
v 11 11 -0.5
v 12 3 -0.5
v 12 6 -0.5
v 12 8 -0.5
v 12 12 -0.5
v -10 4 0.5
v -10 5 0.5
v -10 9 0.5
v -10 11 0.5
v -9 4 0.5
v -9 5 0.5
v -9 9 0.5
v -9 11 0.5
v -8 4 0.5
v -8 5 0.5
v -7 4 0.5
v -7 5 0.5
v 7 4 0.5
v 7 5 0.5
v 8 4 0.5
v 8 5 0.5
v 9 4 0.5
v 9 5 0.5
v 9 9 0.5
v 9 11 0.5
v 10 4 0.5
v 10 5 0.5
v 10 9 0.5
v 10 11 0.5
v -13 0 -0.5
v -13 1 -0.5
v 13 0 -0.5
v 13 1 -0.5
v -13 1 -1.5
v -13 20 -1.5
v -11 9 -1.5
v -11 11 -1.5
v -10 9 -1.5
v -10 11 -1.5
v 10 9 -1.5
v 10 11 -1.5
v 11 9 -1.5
v 11 11 -1.5
v 13 0 -1.5
v 13 1 -1.5
v 13 20 -1.5
v 14 0 -1.5
v 14 20 -1.5
v 15 0 -1.5
v 15 20 -1.5
v 16 0 -1.5
v 16 20 -1.5
v -13 0 1.5
v 15 0 1.5
v 16 0 1.5
v -13 0 0.5
v 14 0 0.5
v 15 0 0.5
v 16 0 0.5
v -13 0 -0.5
v 13 0 -0.5
v 14 0 -0.5
v 15 0 -0.5
v 16 0 -0.5
v 13 0 -1.5
v 14 0 -1.5
v 15 0 -1.5
v 16 0 -1.5
v -13 1 -0.5
v 13 1 -0.5
v -13 1 -1.5
v 13 1 -1.5
v -11 4 1.5
v -10 4 1.5
v -7 4 1.5
v -6 4 1.5
v 6 4 1.5
v 7 4 1.5
v 10 4 1.5
v 11 4 1.5
v -11 4 0.5
v -10 4 0.5
v -9 4 0.5
v -8 4 0.5
v -7 4 0.5
v -6 4 0.5
v 6 4 0.5
v 7 4 0.5
v 8 4 0.5
v 9 4 0.5
v 10 4 0.5
v 11 4 0.5
v -11 4 -0.5
v -10 4 -0.5
v -7 4 -0.5
v -6 4 -0.5
v 6 4 -0.5
v 7 4 -0.5
v 10 4 -0.5
v 11 4 -0.5
v -12 6 0.5
v -9 6 0.5
v -8 6 0.5
v -5 6 0.5
v 5 6 0.5
v 8 6 0.5
v 9 6 0.5
v 12 6 0.5
v -12 6 -0.5
v -9 6 -0.5
v -8 6 -0.5
v -5 6 -0.5
v 5 6 -0.5
v 8 6 -0.5
v 9 6 -0.5
v 12 6 -0.5
v -13 7 1.5
v 13 7 1.5
v -13 7 0.5
v 13 7 0.5
v -11 9 1.5
v -8 9 1.5
v -6 9 1.5
v -1 9 1.5
v 1 9 1.5
v 6 9 1.5
v 8 9 1.5
v 11 9 1.5
v -10 9 0.5
v -9 9 0.5
v -8 9 0.5
v -6 9 0.5
v -1 9 0.5
v 1 9 0.5
v 6 9 0.5
v 8 9 0.5
v 9 9 0.5
v 10 9 0.5
v -11 9 -0.5
v -10 9 -0.5
v 10 9 -0.5
v 11 9 -0.5
v -13 12 1.5
v 13 12 1.5
v -13 12 0.5
v -12 12 0.5
v -9 12 0.5
v 9 12 0.5
v 12 12 0.5
v 13 12 0.5
v -12 12 -0.5
v -9 12 -0.5
v 9 12 -0.5
v 12 12 -0.5
v -13 19 1.5
v 13 19 1.5
v -13 19 0.5
v 13 19 0.5
v -13 2 1.5
v 13 2 1.5
v -13 2 0.5
v 13 2 0.5
v -12 3 0.5
v -9 3 0.5
v -8 3 0.5
v -5 3 0.5
v 5 3 0.5
v 8 3 0.5
v 9 3 0.5
v 12 3 0.5
v -12 3 -0.5
v -9 3 -0.5
v -8 3 -0.5
v -5 3 -0.5
v 5 3 -0.5
v 8 3 -0.5
v 9 3 -0.5
v 12 3 -0.5
v -11 5 1.5
v -10 5 1.5
v -7 5 1.5
v -6 5 1.5
v 6 5 1.5
v 7 5 1.5
v 10 5 1.5
v 11 5 1.5
v -11 5 0.5
v -10 5 0.5
v -9 5 0.5
v -8 5 0.5
v -7 5 0.5
v -6 5 0.5
v 6 5 0.5
v 7 5 0.5
v 8 5 0.5
v 9 5 0.5
v 10 5 0.5
v 11 5 0.5
v -11 5 -0.5
v -10 5 -0.5
v -7 5 -0.5
v -6 5 -0.5
v 6 5 -0.5
v 7 5 -0.5
v 10 5 -0.5
v 11 5 -0.5
v -13 8 1.5
v 13 8 1.5
v -13 8 0.5
v -12 8 0.5
v -9 8 0.5
v 9 8 0.5
v 12 8 0.5
v 13 8 0.5
v -12 8 -0.5
v -9 8 -0.5
v 9 8 -0.5
v 12 8 -0.5
v -11 11 1.5
v -8 11 1.5
v -6 11 1.5
v -1 11 1.5
v 1 11 1.5
v 6 11 1.5
v 8 11 1.5
v 11 11 1.5
v -10 11 0.5
v -9 11 0.5
v -8 11 0.5
v -6 11 0.5
v -1 11 0.5
v 1 11 0.5
v 6 11 0.5
v 8 11 0.5
v 9 11 0.5
v 10 11 0.5
v -11 11 -0.5
v -10 11 -0.5
v 10 11 -0.5
v 11 11 -0.5
v -13 13 1.5
v 13 13 1.5
v -13 13 0.5
v 13 13 0.5
v -13 20 1.5
v 13 20 1.5
v 14 20 1.5
v 15 20 1.5
v 16 20 1.5
v -13 20 0.5
v 13 20 0.5
v 14 20 0.5
v 15 20 0.5
v 16 20 0.5
v -13 20 -0.5
v 13 20 -0.5
v 14 20 -0.5
v 15 20 -0.5
v 16 20 -0.5
v -13 20 -1.5
v 13 20 -1.5
v 14 20 -1.5
v 15 20 -1.5
v 16 20 -1.5

# faces
f 4/4/1 2/4/1 1/4/1
f 5/3/1 3/3/1 2/3/1
f 5/4/1 2/4/1 4/4/1
f 6/3/1 3/3/1 5/3/1
f 8/5/1 5/5/1 4/5/1
f 9/4/1 6/4/1 5/4/1
f 9/5/1 5/5/1 8/5/1
f 11/4/1 6/4/1 9/4/1
f 12/1/1 11/1/1 10/1/1
f 13/4/1 6/4/1 11/4/1
f 13/1/1 11/1/1 12/1/1
f 15/4/1 6/4/1 13/4/1
f 16/1/1 15/1/1 14/1/1
f 17/4/1 6/4/1 15/4/1
f 17/1/1 15/1/1 16/1/1
f 19/4/1 6/4/1 17/4/1
f 20/5/1 19/5/1 18/5/1
f 21/4/1 6/4/1 19/4/1
f 21/5/1 19/5/1 20/5/1
f 22/6/1 7/6/1 6/6/1
f 22/4/1 6/4/1 21/4/1
f 23/6/1 7/6/1 22/6/1
f 27/3/1 25/3/1 24/3/1
f 28/4/1 26/4/1 25/4/1
f 28/3/1 25/3/1 27/3/1
f 29/4/1 26/4/1 28/4/1
f 32/3/1 31/3/1 30/3/1
f 33/3/1 31/3/1 32/3/1
f 36/4/1 35/4/1 34/4/1
f 37/4/1 35/4/1 36/4/1
f 38/4/1 35/4/1 37/4/1
f 39/4/1 35/4/1 38/4/1
f 42/4/1 41/4/1 40/4/1
f 43/4/1 41/4/1 42/4/1
f 44/4/1 41/4/1 43/4/1
f 45/4/1 41/4/1 44/4/1
f 48/4/1 47/4/1 46/4/1
f 49/4/1 47/4/1 48/4/1
f 52/4/1 51/4/1 50/4/1
f 53/4/1 51/4/1 52/4/1
f 57/3/1 55/3/1 54/3/1
f 58/4/1 56/4/1 55/4/1
f 58/3/1 55/3/1 57/3/1
f 59/4/1 56/4/1 58/4/1
f 62/4/1 61/4/1 60/4/1
f 63/4/1 61/4/1 62/4/1
f 64/4/1 61/4/1 63/4/1
f 65/4/1 61/4/1 64/4/1
f 68/4/1 67/4/1 66/4/1
f 69/4/1 67/4/1 68/4/1
f 72/3/1 71/3/1 70/3/1
f 73/3/1 71/3/1 72/3/1
f 76/4/1 75/4/1 74/4/1
f 77/4/1 75/4/1 76/4/1
f 80/4/1 79/4/1 78/4/1
f 81/4/1 79/4/1 80/4/1
f 84/3/1 83/3/1 82/3/1
f 85/3/1 83/3/1 84/3/1
f 88/3/1 87/3/1 86/3/1
f 89/3/1 87/3/1 88/3/1
f 92/3/1 91/3/1 90/3/1
f 93/3/1 91/3/1 92/3/1
f 96/3/1 95/3/1 94/3/1
f 97/3/1 95/3/1 96/3/1
f 98/4/2 99/4/2 100/4/2
f 100/4/2 99/4/2 101/4/2
f 102/4/2 103/4/2 104/4/2
f 104/4/2 103/4/2 105/4/2
f 106/4/2 107/4/2 108/4/2
f 108/4/2 107/4/2 109/4/2
f 110/3/2 111/3/2 112/3/2
f 112/3/2 111/3/2 113/3/2
f 114/4/2 115/4/2 116/4/2
f 116/4/2 115/4/2 117/4/2
f 117/4/2 115/4/2 118/4/2
f 118/4/2 115/4/2 119/4/2
f 120/3/2 121/3/2 123/3/2
f 121/4/2 122/4/2 124/4/2
f 123/3/2 121/3/2 124/3/2
f 124/4/2 122/4/2 125/4/2
f 126/4/2 127/4/2 128/4/2
f 128/4/2 127/4/2 129/4/2
f 130/4/2 131/4/2 132/4/2
f 132/4/2 131/4/2 133/4/2
f 134/4/2 135/4/2 136/4/2
f 136/4/2 135/4/2 137/4/2
f 137/4/2 135/4/2 138/4/2
f 138/4/2 135/4/2 139/4/2
f 140/4/2 141/4/2 142/4/2
f 142/4/2 141/4/2 143/4/2
f 143/4/2 141/4/2 144/4/2
f 144/4/2 141/4/2 145/4/2
f 146/3/2 147/3/2 149/3/2
f 147/4/2 148/4/2 150/4/2
f 149/3/2 147/3/2 150/3/2
f 150/4/2 148/4/2 151/4/2
f 152/3/2 153/3/2 154/3/2
f 154/3/2 153/3/2 155/3/2
f 156/3/2 157/3/2 160/3/2
f 157/5/2 158/5/2 160/5/2
f 158/3/2 159/3/2 161/3/2
f 160/5/2 158/5/2 161/5/2
f 156/3/2 160/3/2 162/3/2
f 160/2/2 161/2/2 162/2/2
f 161/3/2 159/3/2 163/3/2
f 162/2/2 161/2/2 163/2/2
f 156/3/2 162/3/2 164/3/2
f 162/5/2 163/5/2 164/5/2
f 163/3/2 159/3/2 165/3/2
f 164/5/2 163/5/2 165/5/2
f 156/3/2 164/3/2 166/3/2
f 164/2/2 165/2/2 167/2/2
f 166/3/2 164/3/2 167/3/2
f 165/3/2 159/3/2 168/3/2
f 167/2/2 165/2/2 168/2/2
f 168/3/2 159/3/2 169/3/2
f 183/3/3 180/3/3 179/3/3
f 184/3/3 180/3/3 183/3/3
f 185/3/3 182/3/3 181/3/3
f 186/3/3 182/3/3 185/3/3
f 187/5/3 184/5/3 183/5/3
f 188/5/3 184/5/3 187/5/3
f 189/3/3 188/3/3 187/3/3
f 190/3/3 188/3/3 189/3/3
f 191/5/3 186/5/3 185/5/3
f 192/5/3 186/5/3 191/5/3
f 193/3/3 192/3/3 191/3/3
f 194/3/3 192/3/3 193/3/3
f 195/5/3 194/5/3 193/5/3
f 196/5/3 194/5/3 195/5/3
f 199/3/3 196/3/3 195/3/3
f 200/3/3 196/3/3 199/3/3
f 201/3/3 198/3/3 197/3/3
f 202/3/3 198/3/3 201/3/3
f 203/5/3 200/5/3 199/5/3
f 204/5/3 200/5/3 203/5/3
f 205/5/3 202/5/3 201/5/3
f 206/5/3 202/5/3 205/5/3
f 207/3/3 206/3/3 205/3/3
f 208/3/3 206/3/3 207/3/3
f 209/3/3 204/3/3 203/3/3
f 210/3/3 204/3/3 209/3/3
f 211/4/3 171/4/3 170/4/3
f 211/5/3 172/5/3 171/5/3
f 212/5/3 172/5/3 211/5/3
f 213/1/3 174/1/3 173/1/3
f 214/1/3 174/1/3 213/1/3
f 215/1/3 176/1/3 175/1/3
f 216/1/3 176/1/3 215/1/3
f 217/5/3 178/5/3 177/5/3
f 218/5/3 178/5/3 217/5/3
f 219/3/3 214/3/3 213/3/3
f 219/3/3 212/3/3 211/3/3
f 219/3/3 218/3/3 217/3/3
f 219/3/3 217/3/3 216/3/3
f 219/3/3 213/3/3 212/3/3
f 219/3/3 215/3/3 214/3/3
f 219/3/3 216/3/3 215/3/3
f 219/4/3 211/4/3 170/4/3
f 220/3/3 218/3/3 219/3/3
f 221/3/3 218/3/3 220/3/3
f 222/3/3 218/3/3 221/3/3
f 223/4/3 219/4/3 170/4/3
f 224/2/3 220/2/3 219/2/3
f 224/4/3 219/4/3 223/4/3
f 225/5/3 221/5/3 220/5/3
f 225/2/3 220/2/3 224/2/3
f 226/2/3 222/2/3 221/2/3
f 226/5/3 221/5/3 225/5/3
f 227/2/3 222/2/3 226/2/3
f 228/3/3 224/3/3 223/3/3
f 228/3/3 225/3/3 224/3/3
f 228/3/3 227/3/3 226/3/3
f 228/3/3 226/3/3 225/3/3
f 229/3/3 227/3/3 228/3/3
f 236/4/3 231/4/3 230/4/3
f 237/4/3 231/4/3 236/4/3
f 238/4/3 233/4/3 232/4/3
f 239/4/3 233/4/3 238/4/3
f 240/4/3 235/4/3 234/4/3
f 241/4/3 235/4/3 240/4/3
f 242/4/3 236/4/3 230/4/3
f 245/4/3 231/4/3 237/4/3
f 250/4/3 240/4/3 234/4/3
f 250/5/3 241/5/3 240/5/3
f 251/4/3 235/4/3 241/4/3
f 251/5/3 241/5/3 250/5/3
f 252/4/3 243/4/3 242/4/3
f 252/4/3 242/4/3 230/4/3
f 253/4/3 243/4/3 252/4/3
f 254/4/3 245/4/3 244/4/3
f 255/4/3 231/4/3 245/4/3
f 255/4/3 245/4/3 254/4/3
f 256/4/3 247/4/3 246/4/3
f 257/4/3 249/4/3 248/4/3
f 258/4/3 256/4/3 246/4/3
f 259/4/3 249/4/3 257/4/3
f 260/4/3 252/4/3 230/4/3
f 261/4/3 231/4/3 255/4/3
f 262/4/3 261/4/3 260/4/3
f 263/4/3 261/4/3 262/4/3
f 264/4/3 250/4/3 234/4/3
f 264/3/3 251/3/3 250/3/3
f 265/4/3 235/4/3 251/4/3
f 265/3/3 251/3/3 264/3/3
f 266/5/3 263/5/3 262/5/3
f 266/4/3 262/4/3 260/4/3
f 267/4/3 261/4/3 263/4/3
f 267/5/3 263/5/3 266/5/3
f 268/4/3 264/4/3 234/4/3
f 268/5/3 265/5/3 264/5/3
f 269/4/3 235/4/3 265/4/3
f 269/5/3 265/5/3 268/5/3
f 270/4/3 258/4/3 246/4/3
f 271/4/3 249/4/3 259/4/3
f 272/4/3 270/4/3 246/4/3
f 273/4/3 249/4/3 271/4/3
f 274/4/3 266/4/3 260/4/3
f 274/2/3 267/2/3 266/2/3
f 275/4/3 261/4/3 267/4/3
f 275/2/3 267/2/3 274/2/3
f 276/4/3 268/4/3 234/4/3
f 276/2/3 269/2/3 268/2/3
f 277/4/3 235/4/3 269/4/3
f 277/2/3 269/2/3 276/2/3
f 278/4/3 274/4/3 260/4/3
f 278/5/3 275/5/3 274/5/3
f 279/4/3 261/4/3 275/4/3
f 279/5/3 275/5/3 278/5/3
f 280/4/3 276/4/3 234/4/3
f 280/5/3 277/5/3 276/5/3
f 281/4/3 235/4/3 277/4/3
f 281/5/3 277/5/3 280/5/3
f 282/4/3 260/4/3 230/4/3
f 282/4/3 278/4/3 260/4/3
f 282/4/3 279/4/3 278/4/3
f 283/4/3 261/4/3 279/4/3
f 283/4/3 279/4/3 282/4/3
f 283/4/3 231/4/3 261/4/3
f 284/4/3 272/4/3 246/4/3
f 285/4/3 249/4/3 273/4/3
f 286/4/3 282/4/3 230/4/3
f 289/4/3 231/4/3 283/4/3
f 290/4/3 284/4/3 246/4/3
f 291/4/3 249/4/3 285/4/3
f 292/4/3 287/4/3 286/4/3
f 292/4/3 286/4/3 230/4/3
f 293/4/3 287/4/3 292/4/3
f 294/4/3 289/4/3 288/4/3
f 295/4/3 231/4/3 289/4/3
f 295/4/3 289/4/3 294/4/3
f 296/4/3 290/4/3 246/4/3
f 297/4/3 290/4/3 296/4/3
f 298/4/3 249/4/3 291/4/3
f 299/4/3 249/4/3 298/4/3
f 300/4/3 280/4/3 234/4/3
f 300/3/3 281/3/3 280/3/3
f 301/4/3 235/4/3 281/4/3
f 301/3/3 281/3/3 300/3/3
f 302/5/3 301/5/3 300/5/3
f 302/4/3 300/4/3 234/4/3
f 303/4/3 235/4/3 301/4/3
f 303/5/3 301/5/3 302/5/3
f 304/4/3 292/4/3 230/4/3
f 305/4/3 231/4/3 295/4/3
f 308/4/3 304/4/3 230/4/3
f 308/4/3 305/4/3 304/4/3
f 309/4/3 231/4/3 305/4/3
f 309/4/3 305/4/3 308/4/3
f 310/4/3 307/4/3 306/4/3
f 311/4/3 307/4/3 310/4/3
f 312/4/3 302/4/3 234/4/3
f 312/4/3 303/4/3 302/4/3
f 313/4/3 235/4/3 303/4/3
f 313/4/3 303/4/3 312/4/3
f 318/6/3 315/6/3 314/6/3
f 319/6/3 315/6/3 318/6/3
f 320/6/3 317/6/3 316/6/3
f 321/6/3 317/6/3 320/6/3
f 322/6/3 318/6/3 314/6/3
f 323/6/3 315/6/3 319/6/3
f 324/6/3 320/6/3 316/6/3
f 325/6/3 317/6/3 321/6/3
f 326/6/3 322/6/3 314/6/3
f 326/6/3 323/6/3 322/6/3
f 327/6/3 315/6/3 323/6/3
f 327/6/3 323/6/3 326/6/3
f 328/6/3 325/6/3 324/6/3
f 328/6/3 324/6/3 316/6/3
f 329/6/3 317/6/3 325/6/3
f 329/6/3 325/6/3 328/6/3
f 332/6/3 331/6/3 330/6/3
f 333/6/3 331/6/3 332/6/3
f 334/6/3 332/6/3 330/6/3
f 335/6/3 331/6/3 333/6/3
f 336/6/3 334/6/3 330/6/3
f 336/6/3 335/6/3 334/6/3
f 337/6/3 331/6/3 335/6/3
f 337/6/3 335/6/3 336/6/3
f 340/6/3 339/6/3 338/6/3
f 341/6/3 339/6/3 340/6/3
f 342/6/3 340/6/3 338/6/3
f 343/6/3 339/6/3 341/6/3
f 344/6/3 342/6/3 338/6/3
f 344/6/3 343/6/3 342/6/3
f 345/6/3 339/6/3 343/6/3
f 345/6/3 343/6/3 344/6/3
f 350/6/3 347/6/3 346/6/3
f 351/6/3 347/6/3 350/6/3
f 352/6/3 349/6/3 348/6/3
f 353/6/3 349/6/3 352/6/3
f 354/6/3 350/6/3 346/6/3
f 355/6/3 347/6/3 351/6/3
f 356/6/3 352/6/3 348/6/3
f 357/6/3 349/6/3 353/6/3
f 358/6/3 354/6/3 346/6/3
f 358/6/3 355/6/3 354/6/3
f 359/6/3 347/6/3 355/6/3
f 359/6/3 355/6/3 358/6/3
f 360/6/3 357/6/3 356/6/3
f 360/6/3 356/6/3 348/6/3
f 361/6/3 349/6/3 357/6/3
f 361/6/3 357/6/3 360/6/3
f 362/5/4 363/5/4 366/5/4
f 366/5/4 363/5/4 367/5/4
f 364/3/4 365/3/4 368/3/4
f 368/3/4 365/3/4 369/3/4
f 370/5/4 371/5/4 372/5/4
f 372/5/4 371/5/4 373/5/4
f 374/5/4 375/5/4 376/5/4
f 376/5/4 375/5/4 377/5/4
f 378/5/4 379/5/4 382/5/4
f 382/5/4 379/5/4 383/5/4
f 380/3/4 381/3/4 384/3/4
f 384/3/4 381/3/4 385/3/4
f 386/3/4 387/3/4 388/3/4
f 388/3/4 387/3/4 389/3/4
f 390/6/4 391/6/4 392/6/4
f 392/6/4 391/6/4 393/6/4
f 390/6/4 392/6/4 394/6/4
f 392/4/4 393/4/4 394/4/4
f 393/6/4 391/6/4 395/6/4
f 394/4/4 393/4/4 395/4/4
f 390/6/4 394/6/4 396/6/4
f 394/6/4 395/6/4 396/6/4
f 395/6/4 391/6/4 397/6/4
f 396/6/4 395/6/4 397/6/4
f 390/6/4 396/6/4 398/6/4
f 396/4/4 397/4/4 398/4/4
f 397/6/4 391/6/4 399/6/4
f 398/4/4 397/4/4 399/4/4
f 390/6/4 398/6/4 401/6/4
f 398/6/4 399/6/4 401/6/4
f 399/6/4 391/6/4 402/6/4
f 401/6/4 399/6/4 402/6/4
f 400/3/4 401/3/4 403/3/4
f 401/3/4 402/3/4 403/3/4
f 403/3/4 402/3/4 404/3/4
f 403/5/4 404/5/4 405/5/4
f 405/5/4 404/5/4 406/5/4
f 405/3/4 406/3/4 407/3/4
f 407/3/4 406/3/4 408/3/4
f 412/4/5 410/4/5 409/4/5
f 413/4/5 410/4/5 412/4/5
f 414/3/5 411/3/5 410/3/5
f 414/4/5 410/4/5 413/4/5
f 415/3/5 411/3/5 414/3/5
f 416/3/5 413/3/5 412/3/5
f 417/3/5 413/3/5 416/3/5
f 418/2/5 414/2/5 413/2/5
f 418/3/5 413/3/5 417/3/5
f 419/5/5 415/5/5 414/5/5
f 419/2/5 414/2/5 418/2/5
f 420/5/5 415/5/5 419/5/5
f 421/3/5 418/3/5 417/3/5
f 422/5/5 419/5/5 418/5/5
f 422/3/5 418/3/5 421/3/5
f 423/3/5 420/3/5 419/3/5
f 423/5/5 419/5/5 422/5/5
f 424/3/5 420/3/5 423/3/5
f 427/6/5 426/6/5 425/6/5
f 428/6/5 426/6/5 427/6/5
f 437/3/5 430/3/5 429/3/5
f 438/5/5 431/5/5 430/5/5
f 438/3/5 430/3/5 437/3/5
f 439/5/5 431/5/5 438/5/5
f 440/5/5 431/5/5 439/5/5
f 441/3/5 432/3/5 431/3/5
f 441/5/5 431/5/5 440/5/5
f 442/3/5 432/3/5 441/3/5
f 443/3/5 434/3/5 433/3/5
f 444/5/5 435/5/5 434/5/5
f 444/3/5 434/3/5 443/3/5
f 445/5/5 435/5/5 444/5/5
f 446/5/5 435/5/5 445/5/5
f 447/3/5 436/3/5 435/3/5
f 447/5/5 435/5/5 446/5/5
f 448/3/5 436/3/5 447/3/5
f 449/4/5 438/4/5 437/4/5
f 450/4/5 438/4/5 449/4/5
f 451/4/5 442/4/5 441/4/5
f 452/4/5 442/4/5 451/4/5
f 453/4/5 444/4/5 443/4/5
f 454/4/5 444/4/5 453/4/5
f 455/4/5 448/4/5 447/4/5
f 456/4/5 448/4/5 455/4/5
f 465/4/5 458/4/5 457/4/5
f 466/4/5 458/4/5 465/4/5
f 467/4/5 460/4/5 459/4/5
f 468/4/5 460/4/5 467/4/5
f 469/4/5 462/4/5 461/4/5
f 470/4/5 462/4/5 469/4/5
f 471/4/5 464/4/5 463/4/5
f 472/4/5 464/4/5 471/4/5
f 475/1/5 474/1/5 473/1/5
f 476/1/5 474/1/5 475/1/5
f 485/3/5 478/3/5 477/3/5
f 486/3/5 478/3/5 485/3/5
f 487/5/5 479/5/5 478/5/5
f 487/3/5 478/3/5 486/3/5
f 488/3/5 480/3/5 479/3/5
f 488/5/5 479/5/5 487/5/5
f 489/5/5 481/5/5 480/5/5
f 489/3/5 480/3/5 488/3/5
f 490/3/5 482/3/5 481/3/5
f 490/5/5 481/5/5 489/5/5
f 491/5/5 483/5/5 482/5/5
f 491/3/5 482/3/5 490/3/5
f 492/3/5 484/3/5 483/3/5
f 492/5/5 483/5/5 491/5/5
f 493/3/5 484/3/5 492/3/5
f 494/3/5 484/3/5 493/3/5
f 495/3/5 485/3/5 477/3/5
f 496/3/5 485/3/5 495/3/5
f 497/3/5 484/3/5 494/3/5
f 498/3/5 484/3/5 497/3/5
f 501/1/5 500/1/5 499/1/5
f 502/1/5 500/1/5 501/1/5
f 503/1/5 500/1/5 502/1/5
f 504/1/5 500/1/5 503/1/5
f 505/1/5 500/1/5 504/1/5
f 506/1/5 500/1/5 505/1/5
f 507/4/5 503/4/5 502/4/5
f 508/4/5 503/4/5 507/4/5
f 509/4/5 505/4/5 504/4/5
f 510/4/5 505/4/5 509/4/5
f 513/5/5 512/5/5 511/5/5
f 514/5/5 512/5/5 513/5/5
f 515/5/6 516/5/6 517/5/6
f 517/5/6 516/5/6 518/5/6
f 519/4/6 520/4/6 527/4/6
f 527/4/6 520/4/6 528/4/6
f 521/4/6 522/4/6 529/4/6
f 529/4/6 522/4/6 530/4/6
f 523/4/6 524/4/6 531/4/6
f 531/4/6 524/4/6 532/4/6
f 525/4/6 526/4/6 533/4/6
f 533/4/6 526/4/6 534/4/6
f 535/3/6 536/3/6 543/3/6
f 536/5/6 537/5/6 544/5/6
f 543/3/6 536/3/6 544/3/6
f 544/5/6 537/5/6 545/5/6
f 545/5/6 537/5/6 546/5/6
f 537/3/6 538/3/6 547/3/6
f 546/5/6 537/5/6 547/5/6
f 547/3/6 538/3/6 548/3/6
f 539/3/6 540/3/6 549/3/6
f 540/5/6 541/5/6 550/5/6
f 549/3/6 540/3/6 550/3/6
f 550/5/6 541/5/6 551/5/6
f 551/5/6 541/5/6 552/5/6
f 541/3/6 542/3/6 553/3/6
f 552/5/6 541/5/6 553/5/6
f 553/3/6 542/3/6 554/3/6
f 543/4/6 544/4/6 555/4/6
f 555/4/6 544/4/6 556/4/6
f 547/4/6 548/4/6 557/4/6
f 557/4/6 548/4/6 558/4/6
f 549/4/6 550/4/6 559/4/6
f 559/4/6 550/4/6 560/4/6
f 553/4/6 554/4/6 561/4/6
f 561/4/6 554/4/6 562/4/6
f 563/1/6 564/1/6 565/1/6
f 565/1/6 564/1/6 566/1/6
f 566/1/6 564/1/6 567/1/6
f 567/1/6 564/1/6 568/1/6
f 568/1/6 564/1/6 569/1/6
f 569/1/6 564/1/6 570/1/6
f 566/4/6 567/4/6 571/4/6
f 571/4/6 567/4/6 572/4/6
f 568/4/6 569/4/6 573/4/6
f 573/4/6 569/4/6 574/4/6
f 575/3/6 576/3/6 583/3/6
f 583/3/6 576/3/6 584/3/6
f 576/5/6 577/5/6 585/5/6
f 584/3/6 576/3/6 585/3/6
f 577/3/6 578/3/6 586/3/6
f 585/5/6 577/5/6 586/5/6
f 578/5/6 579/5/6 587/5/6
f 586/3/6 578/3/6 587/3/6
f 579/3/6 580/3/6 588/3/6
f 587/5/6 579/5/6 588/5/6
f 580/5/6 581/5/6 589/5/6
f 588/3/6 580/3/6 589/3/6
f 581/3/6 582/3/6 590/3/6
f 589/5/6 581/5/6 590/5/6
f 590/3/6 582/3/6 591/3/6
f 591/3/6 582/3/6 592/3/6
f 575/3/6 583/3/6 593/3/6
f 593/3/6 583/3/6 594/3/6
f 592/3/6 582/3/6 595/3/6
f 595/3/6 582/3/6 596/3/6
f 597/1/6 598/1/6 599/1/6
f 599/1/6 598/1/6 600/1/6
f 601/5/6 602/5/6 606/5/6
f 602/3/6 603/3/6 607/3/6
f 606/5/6 602/5/6 607/5/6
f 603/2/6 604/2/6 608/2/6
f 607/3/6 603/3/6 608/3/6
f 604/3/6 605/3/6 609/3/6
f 608/2/6 604/2/6 609/2/6
f 609/3/6 605/3/6 610/3/6
f 607/4/6 608/4/6 611/4/6
f 606/4/6 607/4/6 611/4/6
f 611/4/6 608/4/6 612/4/6
f 608/3/6 609/3/6 613/3/6
f 612/4/6 608/4/6 613/4/6
f 609/2/6 610/2/6 614/2/6
f 613/3/6 609/3/6 614/3/6
f 614/2/6 610/2/6 615/2/6
f 611/6/6 612/6/6 616/6/6
f 612/3/6 613/3/6 617/3/6
f 616/6/6 612/6/6 617/6/6
f 613/5/6 614/5/6 618/5/6
f 617/3/6 613/3/6 618/3/6
f 614/3/6 615/3/6 619/3/6
f 618/5/6 614/5/6 619/5/6
f 619/3/6 615/3/6 620/3/6
