# MagicaVoxel @ Ephtracy

# group
g Foundry-5

# material
mtllib Foundry-5.mtl
usemtl palette

# normals
vn -1 0 0
vn 1 0 0
vn 0 0 1
vn 0 0 -1
vn 0 -1 0
vn 0 1 0

# texcoords
vt 0.939453 0.5
vt 0.943359 0.5
vt 0.970703 0.5
vt 0.974609 0.5
vt 0.978516 0.5
vt 0.982422 0.5

# verts
v -13 0 1.5
v -13 0 0.5
v -13 0 -0.5
v -13 0 -1.5
v -13 1 1.5
v -13 1 0.5
v -13 1 -0.5
v -13 1 -1.5
v -13 2 1.5
v -13 2 0.5
v -13 2 -0.5
v -13 2 -1.5
v -13 4 0.5
v -13 4 -0.5
v -13 7 0.5
v -13 7 -0.5
v -13 8 0.5
v -13 8 -0.5
v -13 15 0.5
v -13 15 -0.5
v -13 16 0.5
v -13 16 -0.5
v -13 19 1.5
v -13 19 0.5
v -13 19 -0.5
v -13 19 -1.5
v -13 20 1.5
v -13 20 0.5
v -13 20 -0.5
v -13 20 -1.5
v -10 2 1.5
v -10 2 0.5
v -10 2 -0.5
v -10 2 -1.5
v -10 3 1.5
v -10 3 0.5
v -10 3 -0.5
v -10 3 -1.5
v -10 4 1.5
v -10 4 0.5
v -10 4 -0.5
v -10 4 -1.5
v -7 7 1.5
v -7 7 0.5
v -7 7 -0.5
v -7 7 -1.5
v -7 8 1.5
v -7 8 0.5
v -7 8 -0.5
v -7 8 -1.5
v -7 15 1.5
v -7 15 0.5
v -7 15 -0.5
v -7 15 -1.5
v -7 16 1.5
v -7 16 0.5
v -7 16 -0.5
v -7 16 -1.5
v -4 2 1.5
v -4 2 0.5
v -4 2 -0.5
v -4 2 -1.5
v -4 3 1.5
v -4 3 0.5
v -4 3 -0.5
v -4 3 -1.5
v -4 4 1.5
v -4 4 0.5
v -4 4 -0.5
v -4 4 -1.5
v 2 2 1.5
v 2 2 0.5
v 2 2 -0.5
v 2 2 -1.5
v 2 3 1.5
v 2 3 0.5
v 2 3 -0.5
v 2 3 -1.5
v 2 4 1.5
v 2 4 0.5
v 2 4 -0.5
v 2 4 -1.5
v 6 8 1.5
v 6 8 0.5
v 6 8 -0.5
v 6 8 -1.5
v 6 15 1.5
v 6 15 0.5
v 6 15 -0.5
v 6 15 -1.5
v 8 2 1.5
v 8 2 0.5
v 8 2 -0.5
v 8 2 -1.5
v 8 3 1.5
v 8 3 0.5
v 8 3 -0.5
v 8 3 -1.5
v 8 4 1.5
v 8 4 0.5
v 8 4 -0.5
v 8 4 -1.5
v 13 2 1.5
v 13 2 0.5
v 13 2 -0.5
v 13 2 -1.5
v 13 4 0.5
v 13 4 -0.5
v 13 7 0.5
v 13 7 -0.5
v 13 8 0.5
v 13 8 -0.5
v 13 15 0.5
v 13 15 -0.5
v 13 16 0.5
v 13 16 -0.5
v 13 19 1.5
v 13 19 0.5
v 13 19 -0.5
v 13 19 -1.5
v 15 1 0.5
v 15 1 -0.5
v 15 4 0.5
v 15 4 -0.5
v -8 2 1.5
v -8 2 0.5
v -8 2 -0.5
v -8 2 -1.5
v -8 3 1.5
v -8 3 0.5
v -8 3 -0.5
v -8 3 -1.5
v -8 4 1.5
v -8 4 0.5
v -8 4 -0.5
v -8 4 -1.5
v -6 8 1.5
v -6 8 0.5
v -6 8 -0.5
v -6 8 -1.5
v -6 15 1.5
v -6 15 0.5
v -6 15 -0.5
v -6 15 -1.5
v -2 2 1.5
v -2 2 0.5
v -2 2 -0.5
v -2 2 -1.5
v -2 3 1.5
v -2 3 0.5
v -2 3 -0.5
v -2 3 -1.5
v -2 4 1.5
v -2 4 0.5
v -2 4 -0.5
v -2 4 -1.5
v 4 2 1.5
v 4 2 0.5
v 4 2 -0.5
v 4 2 -1.5
v 4 3 1.5
v 4 3 0.5
v 4 3 -0.5
v 4 3 -1.5
v 4 4 1.5
v 4 4 0.5
v 4 4 -0.5
v 4 4 -1.5
v 7 7 1.5
v 7 7 0.5
v 7 7 -0.5
v 7 7 -1.5
v 7 8 1.5
v 7 8 0.5
v 7 8 -0.5
v 7 8 -1.5
v 7 15 1.5
v 7 15 0.5
v 7 15 -0.5
v 7 15 -1.5
v 7 16 1.5
v 7 16 0.5
v 7 16 -0.5
v 7 16 -1.5
v 10 2 1.5
v 10 2 0.5
v 10 2 -0.5
v 10 2 -1.5
v 10 3 1.5
v 10 3 0.5
v 10 3 -0.5
v 10 3 -1.5
v 10 4 1.5
v 10 4 0.5
v 10 4 -0.5
v 10 4 -1.5
v 14 1 0.5
v 14 1 -0.5
v 14 4 0.5
v 14 4 -0.5
v 16 0 1.5
v 16 0 0.5
v 16 0 -0.5
v 16 0 -1.5
v 16 20 1.5
v 16 20 0.5
v 16 20 -0.5
v 16 20 -1.5
v -13 0 1.5
v -13 1 1.5
v -13 2 1.5
v -13 19 1.5
v -13 20 1.5
v -10 2 1.5
v -10 3 1.5
v -10 4 1.5
v -8 2 1.5
v -8 3 1.5
v -8 4 1.5
v -7 7 1.5
v -7 8 1.5
v -7 15 1.5
v -7 16 1.5
v -6 7 1.5
v -6 8 1.5
v -6 15 1.5
v -6 16 1.5
v -4 2 1.5
v -4 3 1.5
v -4 4 1.5
v -2 2 1.5
v -2 3 1.5
v -2 4 1.5
v 2 2 1.5
v 2 3 1.5
v 2 4 1.5
v 4 2 1.5
v 4 3 1.5
v 4 4 1.5
v 6 7 1.5
v 6 8 1.5
v 6 15 1.5
v 6 16 1.5
v 7 7 1.5
v 7 8 1.5
v 7 15 1.5
v 7 16 1.5
v 8 2 1.5
v 8 3 1.5
v 8 4 1.5
v 10 2 1.5
v 10 3 1.5
v 10 4 1.5
v 13 1 1.5
v 13 2 1.5
v 13 19 1.5
v 13 20 1.5
v 14 1 1.5
v 14 20 1.5
v 15 0 1.5
v 15 1 1.5
v 15 20 1.5
v 16 0 1.5
v 16 20 1.5
v -13 2 0.5
v -13 4 0.5
v -13 7 0.5
v -13 8 0.5
v -13 15 0.5
v -13 16 0.5
v -13 19 0.5
v -10 2 0.5
v -10 3 0.5
v -10 4 0.5
v -8 2 0.5
v -8 3 0.5
v -8 4 0.5
v -7 7 0.5
v -7 8 0.5
v -7 15 0.5
v -7 16 0.5
v -6 7 0.5
v -6 16 0.5
v -4 2 0.5
v -4 3 0.5
v -4 4 0.5
v -2 2 0.5
v -2 3 0.5
v -2 4 0.5
v 2 2 0.5
v 2 3 0.5
v 2 4 0.5
v 4 2 0.5
v 4 3 0.5
v 4 4 0.5
v 6 7 0.5
v 6 16 0.5
v 7 7 0.5
v 7 8 0.5
v 7 15 0.5
v 7 16 0.5
v 8 2 0.5
v 8 3 0.5
v 8 4 0.5
v 10 2 0.5
v 10 3 0.5
v 10 4 0.5
v 13 2 0.5
v 13 4 0.5
v 13 7 0.5
v 13 8 0.5
v 13 15 0.5
v 13 16 0.5
v 13 19 0.5
v 14 1 -0.5
v 14 4 -0.5
v 15 1 -0.5
v 15 4 -0.5
v 14 1 0.5
v 14 4 0.5
v 15 1 0.5
v 15 4 0.5
v -13 2 -0.5
v -13 4 -0.5
v -13 7 -0.5
v -13 8 -0.5
v -13 15 -0.5
v -13 16 -0.5
v -13 19 -0.5
v -10 2 -0.5
v -10 3 -0.5
v -10 4 -0.5
v -8 2 -0.5
v -8 3 -0.5
v -8 4 -0.5
v -7 7 -0.5
v -7 8 -0.5
v -7 15 -0.5
v -7 16 -0.5
v -6 7 -0.5
v -6 16 -0.5
v -4 2 -0.5
v -4 3 -0.5
v -4 4 -0.5
v -2 2 -0.5
v -2 3 -0.5
v -2 4 -0.5
v 2 2 -0.5
v 2 3 -0.5
v 2 4 -0.5
v 4 2 -0.5
v 4 3 -0.5
v 4 4 -0.5
v 6 7 -0.5
v 6 16 -0.5
v 7 7 -0.5
v 7 8 -0.5
v 7 15 -0.5
v 7 16 -0.5
v 8 2 -0.5
v 8 3 -0.5
v 8 4 -0.5
v 10 2 -0.5
v 10 3 -0.5
v 10 4 -0.5
v 13 2 -0.5
v 13 4 -0.5
v 13 7 -0.5
v 13 8 -0.5
v 13 15 -0.5
v 13 16 -0.5
v 13 19 -0.5
v -13 0 -1.5
v -13 1 -1.5
v -13 2 -1.5
v -13 19 -1.5
v -13 20 -1.5
v -10 2 -1.5
v -10 3 -1.5
v -10 4 -1.5
v -8 2 -1.5
v -8 3 -1.5
v -8 4 -1.5
v -7 7 -1.5
v -7 8 -1.5
v -7 15 -1.5
v -7 16 -1.5
v -6 7 -1.5
v -6 8 -1.5
v -6 15 -1.5
v -6 16 -1.5
v -4 2 -1.5
v -4 3 -1.5
v -4 4 -1.5
v -2 2 -1.5
v -2 3 -1.5
v -2 4 -1.5
v 2 2 -1.5
v 2 3 -1.5
v 2 4 -1.5
v 4 2 -1.5
v 4 3 -1.5
v 4 4 -1.5
v 6 7 -1.5
v 6 8 -1.5
v 6 15 -1.5
v 6 16 -1.5
v 7 7 -1.5
v 7 8 -1.5
v 7 15 -1.5
v 7 16 -1.5
v 8 2 -1.5
v 8 3 -1.5
v 8 4 -1.5
v 10 2 -1.5
v 10 3 -1.5
v 10 4 -1.5
v 13 0 -1.5
v 13 1 -1.5
v 13 2 -1.5
v 13 19 -1.5
v 13 20 -1.5
v 14 0 -1.5
v 14 20 -1.5
v 15 0 -1.5
v 15 20 -1.5
v 16 0 -1.5
v 16 20 -1.5
v -13 0 1.5
v 15 0 1.5
v 16 0 1.5
v -13 0 0.5
v 13 0 0.5
v 15 0 0.5
v 16 0 0.5
v -13 0 -0.5
v 13 0 -0.5
v 14 0 -0.5
v 15 0 -0.5
v 16 0 -0.5
v -13 0 -1.5
v 13 0 -1.5
v 14 0 -1.5
v 15 0 -1.5
v 16 0 -1.5
v 14 4 0.5
v 15 4 0.5
v 14 4 -0.5
v 15 4 -0.5
v -7 7 1.5
v -6 7 1.5
v 6 7 1.5
v 7 7 1.5
v -7 7 0.5
v -6 7 0.5
v 6 7 0.5
v 7 7 0.5
v -7 7 -0.5
v -6 7 -0.5
v 6 7 -0.5
v 7 7 -0.5
v -7 7 -1.5
v -6 7 -1.5
v 6 7 -1.5
v 7 7 -1.5
v -6 15 1.5
v 6 15 1.5
v -6 15 0.5
v 6 15 0.5
v -6 15 -0.5
v 6 15 -0.5
v -6 15 -1.5
v 6 15 -1.5
v -13 19 1.5
v 13 19 1.5
v -13 19 0.5
v 13 19 0.5
v -13 19 -0.5
v 13 19 -0.5
v -13 19 -1.5
v 13 19 -1.5
v 14 1 0.5
v 15 1 0.5
v 14 1 -0.5
v 15 1 -0.5
v -13 2 1.5
v -10 2 1.5
v -8 2 1.5
v -4 2 1.5
v -2 2 1.5
v 2 2 1.5
v 4 2 1.5
v 8 2 1.5
v 10 2 1.5
v 13 2 1.5
v -13 2 0.5
v -10 2 0.5
v -8 2 0.5
v -4 2 0.5
v -2 2 0.5
v 2 2 0.5
v 4 2 0.5
v 8 2 0.5
v 10 2 0.5
v 13 2 0.5
v -13 2 -0.5
v -10 2 -0.5
v -8 2 -0.5
v -4 2 -0.5
v -2 2 -0.5
v 2 2 -0.5
v 4 2 -0.5
v 8 2 -0.5
v 10 2 -0.5
v 13 2 -0.5
v -13 2 -1.5
v -10 2 -1.5
v -8 2 -1.5
v -4 2 -1.5
v -2 2 -1.5
v 2 2 -1.5
v 4 2 -1.5
v 8 2 -1.5
v 10 2 -1.5
v 13 2 -1.5
v -10 4 1.5
v -8 4 1.5
v -4 4 1.5
v -2 4 1.5
v 2 4 1.5
v 4 4 1.5
v 8 4 1.5
v 10 4 1.5
v -10 4 0.5
v -8 4 0.5
v -4 4 0.5
v -2 4 0.5
v 2 4 0.5
v 4 4 0.5
v 8 4 0.5
v 10 4 0.5
v -10 4 -0.5
v -8 4 -0.5
v -4 4 -0.5
v -2 4 -0.5
v 2 4 -0.5
v 4 4 -0.5
v 8 4 -0.5
v 10 4 -0.5
v -10 4 -1.5
v -8 4 -1.5
v -4 4 -1.5
v -2 4 -1.5
v 2 4 -1.5
v 4 4 -1.5
v 8 4 -1.5
v 10 4 -1.5
v -6 8 1.5
v 6 8 1.5
v -6 8 0.5
v 6 8 0.5
v -6 8 -0.5
v 6 8 -0.5
v -6 8 -1.5
v 6 8 -1.5
v -7 16 1.5
v -6 16 1.5
v 6 16 1.5
v 7 16 1.5
v -7 16 0.5
v -6 16 0.5
v 6 16 0.5
v 7 16 0.5
v -7 16 -0.5
v -6 16 -0.5
v 6 16 -0.5
v 7 16 -0.5
v -7 16 -1.5
v -6 16 -1.5
v 6 16 -1.5
v 7 16 -1.5
v -13 20 1.5
v 13 20 1.5
v 14 20 1.5
v 15 20 1.5
v 16 20 1.5
v -13 20 0.5
v 13 20 0.5
v 14 20 0.5
v 15 20 0.5
v 16 20 0.5
v -13 20 -0.5
v 13 20 -0.5
v 14 20 -0.5
v 15 20 -0.5
v 16 20 -0.5
v -13 20 -1.5
v 13 20 -1.5
v 14 20 -1.5
v 15 20 -1.5
v 16 20 -1.5

# faces
f 5/4/1 2/4/1 1/4/1
f 6/1/1 3/1/1 2/1/1
f 6/4/1 2/4/1 5/4/1
f 7/4/1 4/4/1 3/4/1
f 7/1/1 3/1/1 6/1/1
f 8/4/1 4/4/1 7/4/1
f 9/5/1 6/5/1 5/5/1
f 10/2/1 7/2/1 6/2/1
f 10/5/1 6/5/1 9/5/1
f 11/5/1 8/5/1 7/5/1
f 11/2/1 7/2/1 10/2/1
f 12/5/1 8/5/1 11/5/1
f 13/2/1 11/2/1 10/2/1
f 14/2/1 11/2/1 13/2/1
f 15/4/1 14/4/1 13/4/1
f 16/4/1 14/4/1 15/4/1
f 17/6/1 16/6/1 15/6/1
f 18/6/1 16/6/1 17/6/1
f 19/4/1 18/4/1 17/4/1
f 20/4/1 18/4/1 19/4/1
f 21/6/1 20/6/1 19/6/1
f 22/6/1 20/6/1 21/6/1
f 24/4/1 22/4/1 21/4/1
f 25/4/1 22/4/1 24/4/1
f 27/5/1 24/5/1 23/5/1
f 28/4/1 25/4/1 24/4/1
f 28/5/1 24/5/1 27/5/1
f 29/5/1 26/5/1 25/5/1
f 29/4/1 25/4/1 28/4/1
f 30/5/1 26/5/1 29/5/1
f 35/3/1 32/3/1 31/3/1
f 36/3/1 32/3/1 35/3/1
f 37/3/1 34/3/1 33/3/1
f 38/3/1 34/3/1 37/3/1
f 39/5/1 36/5/1 35/5/1
f 40/5/1 36/5/1 39/5/1
f 41/5/1 38/5/1 37/5/1
f 42/5/1 38/5/1 41/5/1
f 47/6/1 44/6/1 43/6/1
f 48/6/1 44/6/1 47/6/1
f 49/6/1 46/6/1 45/6/1
f 50/6/1 46/6/1 49/6/1
f 51/3/1 48/3/1 47/3/1
f 52/3/1 48/3/1 51/3/1
f 53/3/1 50/3/1 49/3/1
f 54/3/1 50/3/1 53/3/1
f 55/6/1 52/6/1 51/6/1
f 56/6/1 52/6/1 55/6/1
f 57/6/1 54/6/1 53/6/1
f 58/6/1 54/6/1 57/6/1
f 63/3/1 60/3/1 59/3/1
f 64/3/1 60/3/1 63/3/1
f 65/3/1 62/3/1 61/3/1
f 66/3/1 62/3/1 65/3/1
f 67/5/1 64/5/1 63/5/1
f 68/5/1 64/5/1 67/5/1
f 69/5/1 66/5/1 65/5/1
f 70/5/1 66/5/1 69/5/1
f 75/3/1 72/3/1 71/3/1
f 76/3/1 72/3/1 75/3/1
f 77/3/1 74/3/1 73/3/1
f 78/3/1 74/3/1 77/3/1
f 79/5/1 76/5/1 75/5/1
f 80/5/1 76/5/1 79/5/1
f 81/5/1 78/5/1 77/5/1
f 82/5/1 78/5/1 81/5/1
f 87/3/1 84/3/1 83/3/1
f 88/4/1 85/4/1 84/4/1
f 88/3/1 84/3/1 87/3/1
f 89/3/1 86/3/1 85/3/1
f 89/4/1 85/4/1 88/4/1
f 90/3/1 86/3/1 89/3/1
f 95/3/1 92/3/1 91/3/1
f 96/3/1 92/3/1 95/3/1
f 97/3/1 94/3/1 93/3/1
f 98/3/1 94/3/1 97/3/1
f 99/5/1 96/5/1 95/5/1
f 100/5/1 96/5/1 99/5/1
f 101/5/1 98/5/1 97/5/1
f 102/5/1 98/5/1 101/5/1
f 107/3/1 104/3/1 103/3/1
f 108/3/1 106/3/1 105/3/1
f 109/3/1 107/3/1 103/3/1
f 110/3/1 106/3/1 108/3/1
f 111/3/1 109/3/1 103/3/1
f 112/3/1 106/3/1 110/3/1
f 113/3/1 111/3/1 103/3/1
f 114/3/1 106/3/1 112/3/1
f 115/3/1 113/3/1 103/3/1
f 116/3/1 106/3/1 114/3/1
f 117/3/1 115/3/1 103/3/1
f 118/3/1 115/3/1 117/3/1
f 119/3/1 106/3/1 116/3/1
f 120/3/1 106/3/1 119/3/1
f 123/5/1 122/5/1 121/5/1
f 124/5/1 122/5/1 123/5/1
f 125/3/2 126/3/2 129/3/2
f 129/3/2 126/3/2 130/3/2
f 127/3/2 128/3/2 131/3/2
f 131/3/2 128/3/2 132/3/2
f 129/5/2 130/5/2 133/5/2
f 133/5/2 130/5/2 134/5/2
f 131/5/2 132/5/2 135/5/2
f 135/5/2 132/5/2 136/5/2
f 137/3/2 138/3/2 141/3/2
f 138/4/2 139/4/2 142/4/2
f 141/3/2 138/3/2 142/3/2
f 139/3/2 140/3/2 143/3/2
f 142/4/2 139/4/2 143/4/2
f 143/3/2 140/3/2 144/3/2
f 145/3/2 146/3/2 149/3/2
f 149/3/2 146/3/2 150/3/2
f 147/3/2 148/3/2 151/3/2
f 151/3/2 148/3/2 152/3/2
f 149/5/2 150/5/2 153/5/2
f 153/5/2 150/5/2 154/5/2
f 151/5/2 152/5/2 155/5/2
f 155/5/2 152/5/2 156/5/2
f 157/3/2 158/3/2 161/3/2
f 161/3/2 158/3/2 162/3/2
f 159/3/2 160/3/2 163/3/2
f 163/3/2 160/3/2 164/3/2
f 161/5/2 162/5/2 165/5/2
f 165/5/2 162/5/2 166/5/2
f 163/5/2 164/5/2 167/5/2
f 167/5/2 164/5/2 168/5/2
f 169/6/2 170/6/2 173/6/2
f 173/6/2 170/6/2 174/6/2
f 171/6/2 172/6/2 175/6/2
f 175/6/2 172/6/2 176/6/2
f 173/3/2 174/3/2 177/3/2
f 177/3/2 174/3/2 178/3/2
f 175/3/2 176/3/2 179/3/2
f 179/3/2 176/3/2 180/3/2
f 177/6/2 178/6/2 181/6/2
f 181/6/2 178/6/2 182/6/2
f 179/6/2 180/6/2 183/6/2
f 183/6/2 180/6/2 184/6/2
f 185/3/2 186/3/2 189/3/2
f 189/3/2 186/3/2 190/3/2
f 187/3/2 188/3/2 191/3/2
f 191/3/2 188/3/2 192/3/2
f 189/5/2 190/5/2 193/5/2
f 193/5/2 190/5/2 194/5/2
f 191/5/2 192/5/2 195/5/2
f 195/5/2 192/5/2 196/5/2
f 197/3/2 198/3/2 199/3/2
f 199/3/2 198/3/2 200/3/2
f 201/3/2 202/3/2 205/3/2
f 202/5/2 203/5/2 206/5/2
f 205/3/2 202/3/2 206/3/2
f 203/3/2 204/3/2 207/3/2
f 206/5/2 203/5/2 207/5/2
f 207/3/2 204/3/2 208/3/2
f 214/5/3 211/5/3 210/5/3
f 217/5/3 214/5/3 210/5/3
f 217/3/3 215/3/3 214/3/3
f 218/5/3 216/5/3 215/5/3
f 218/3/3 215/3/3 217/3/3
f 219/5/3 216/5/3 218/5/3
f 224/6/3 221/6/3 220/6/3
f 225/3/3 222/3/3 221/3/3
f 225/6/3 221/6/3 224/6/3
f 226/6/3 223/6/3 222/6/3
f 226/3/3 222/3/3 225/3/3
f 227/6/3 223/6/3 226/6/3
f 228/5/3 217/5/3 210/5/3
f 231/5/3 228/5/3 210/5/3
f 231/3/3 229/3/3 228/3/3
f 232/5/3 230/5/3 229/5/3
f 232/3/3 229/3/3 231/3/3
f 233/5/3 230/5/3 232/5/3
f 234/5/3 231/5/3 210/5/3
f 237/5/3 234/5/3 210/5/3
f 237/3/3 235/3/3 234/3/3
f 238/5/3 236/5/3 235/5/3
f 238/3/3 235/3/3 237/3/3
f 239/5/3 236/5/3 238/5/3
f 240/3/3 225/3/3 224/3/3
f 241/3/3 225/3/3 240/3/3
f 242/3/3 227/3/3 226/3/3
f 243/3/3 227/3/3 242/3/3
f 244/6/3 241/6/3 240/6/3
f 245/3/3 242/3/3 241/3/3
f 245/6/3 241/6/3 244/6/3
f 246/6/3 243/6/3 242/6/3
f 246/3/3 242/3/3 245/3/3
f 247/6/3 243/6/3 246/6/3
f 248/5/3 237/5/3 210/5/3
f 251/5/3 248/5/3 210/5/3
f 251/3/3 249/3/3 248/3/3
f 252/5/3 250/5/3 249/5/3
f 252/3/3 249/3/3 251/3/3
f 253/5/3 250/5/3 252/5/3
f 254/4/3 210/4/3 209/4/3
f 254/5/3 251/5/3 210/5/3
f 255/5/3 251/5/3 254/5/3
f 256/5/3 213/5/3 212/5/3
f 257/5/3 213/5/3 256/5/3
f 258/3/3 255/3/3 254/3/3
f 258/4/3 254/4/3 209/4/3
f 258/3/3 257/3/3 256/3/3
f 258/3/3 256/3/3 255/3/3
f 259/3/3 257/3/3 258/3/3
f 260/4/3 258/4/3 209/4/3
f 261/5/3 259/5/3 258/5/3
f 261/4/3 258/4/3 260/4/3
f 262/5/3 259/5/3 261/5/3
f 263/3/3 261/3/3 260/3/3
f 263/3/3 262/3/3 261/3/3
f 264/3/3 262/3/3 263/3/3
f 272/2/3 266/2/3 265/2/3
f 273/2/3 266/2/3 272/2/3
f 274/4/3 267/4/3 266/4/3
f 274/2/3 266/2/3 273/2/3
f 277/4/3 267/4/3 274/4/3
f 278/6/3 268/6/3 267/6/3
f 278/4/3 267/4/3 277/4/3
f 279/4/3 269/4/3 268/4/3
f 279/6/3 268/6/3 278/6/3
f 280/6/3 270/6/3 269/6/3
f 280/4/3 269/4/3 279/4/3
f 281/4/3 271/4/3 270/4/3
f 281/6/3 270/6/3 280/6/3
f 282/4/3 278/4/3 277/4/3
f 283/4/3 271/4/3 281/4/3
f 284/2/3 276/2/3 275/2/3
f 284/2/3 277/2/3 276/2/3
f 285/2/3 277/2/3 284/2/3
f 286/4/3 282/4/3 277/4/3
f 286/2/3 277/2/3 285/2/3
f 289/4/3 282/4/3 286/4/3
f 290/2/3 288/2/3 287/2/3
f 290/2/3 289/2/3 288/2/3
f 291/2/3 289/2/3 290/2/3
f 292/4/3 282/4/3 289/4/3
f 292/2/3 289/2/3 291/2/3
f 295/4/3 282/4/3 292/4/3
f 296/4/3 282/4/3 295/4/3
f 297/4/3 271/4/3 283/4/3
f 298/4/3 296/4/3 295/4/3
f 301/4/3 271/4/3 297/4/3
f 302/2/3 294/2/3 293/2/3
f 302/2/3 295/2/3 294/2/3
f 303/2/3 295/2/3 302/2/3
f 304/4/3 298/4/3 295/4/3
f 304/2/3 295/2/3 303/2/3
f 307/4/3 298/4/3 304/4/3
f 308/2/3 306/2/3 305/2/3
f 308/2/3 307/2/3 306/2/3
f 309/4/3 298/4/3 307/4/3
f 309/2/3 307/2/3 308/2/3
f 310/6/3 299/6/3 298/6/3
f 310/4/3 298/4/3 309/4/3
f 311/4/3 300/4/3 299/4/3
f 311/6/3 299/6/3 310/6/3
f 312/6/3 301/6/3 300/6/3
f 312/4/3 300/4/3 311/4/3
f 313/4/3 271/4/3 301/4/3
f 313/6/3 301/6/3 312/6/3
f 314/4/3 271/4/3 313/4/3
f 317/5/3 316/5/3 315/5/3
f 318/5/3 316/5/3 317/5/3
f 319/5/4 320/5/4 321/5/4
f 321/5/4 320/5/4 322/5/4
f 323/2/4 324/2/4 330/2/4
f 330/2/4 324/2/4 331/2/4
f 324/4/4 325/4/4 332/4/4
f 331/2/4 324/2/4 332/2/4
f 332/4/4 325/4/4 335/4/4
f 325/6/4 326/6/4 336/6/4
f 335/4/4 325/4/4 336/4/4
f 326/4/4 327/4/4 337/4/4
f 336/6/4 326/6/4 337/6/4
f 327/6/4 328/6/4 338/6/4
f 337/4/4 327/4/4 338/4/4
f 328/4/4 329/4/4 339/4/4
f 338/6/4 328/6/4 339/6/4
f 335/4/4 336/4/4 340/4/4
f 339/4/4 329/4/4 341/4/4
f 333/2/4 334/2/4 342/2/4
f 334/2/4 335/2/4 342/2/4
f 342/2/4 335/2/4 343/2/4
f 335/4/4 340/4/4 344/4/4
f 343/2/4 335/2/4 344/2/4
f 344/4/4 340/4/4 347/4/4
f 345/2/4 346/2/4 348/2/4
f 346/2/4 347/2/4 348/2/4
f 348/2/4 347/2/4 349/2/4
f 347/4/4 340/4/4 350/4/4
f 349/2/4 347/2/4 350/2/4
f 350/4/4 340/4/4 353/4/4
f 353/4/4 340/4/4 354/4/4
f 341/4/4 329/4/4 355/4/4
f 353/4/4 354/4/4 356/4/4
f 355/4/4 329/4/4 359/4/4
f 351/2/4 352/2/4 360/2/4
f 352/2/4 353/2/4 360/2/4
f 360/2/4 353/2/4 361/2/4
f 353/4/4 356/4/4 362/4/4
f 361/2/4 353/2/4 362/2/4
f 362/4/4 356/4/4 365/4/4
f 363/2/4 364/2/4 366/2/4
f 364/2/4 365/2/4 366/2/4
f 365/4/4 356/4/4 367/4/4
f 366/2/4 365/2/4 367/2/4
f 356/6/4 357/6/4 368/6/4
f 367/4/4 356/4/4 368/4/4
f 357/4/4 358/4/4 369/4/4
f 368/6/4 357/6/4 369/6/4
f 358/6/4 359/6/4 370/6/4
f 369/4/4 358/4/4 370/4/4
f 359/4/4 329/4/4 371/4/4
f 370/6/4 359/6/4 371/6/4
f 371/4/4 329/4/4 372/4/4
f 374/5/4 375/5/4 378/5/4
f 374/5/4 378/5/4 381/5/4
f 378/3/4 379/3/4 381/3/4
f 379/5/4 380/5/4 382/5/4
f 381/3/4 379/3/4 382/3/4
f 382/5/4 380/5/4 383/5/4
f 384/6/4 385/6/4 388/6/4
f 385/3/4 386/3/4 389/3/4
f 388/6/4 385/6/4 389/6/4
f 386/6/4 387/6/4 390/6/4
f 389/3/4 386/3/4 390/3/4
f 390/6/4 387/6/4 391/6/4
f 374/5/4 381/5/4 392/5/4
f 374/5/4 392/5/4 395/5/4
f 392/3/4 393/3/4 395/3/4
f 393/5/4 394/5/4 396/5/4
f 395/3/4 393/3/4 396/3/4
f 396/5/4 394/5/4 397/5/4
f 374/5/4 395/5/4 398/5/4
f 374/5/4 398/5/4 401/5/4
f 398/3/4 399/3/4 401/3/4
f 399/5/4 400/5/4 402/5/4
f 401/3/4 399/3/4 402/3/4
f 402/5/4 400/5/4 403/5/4
f 388/3/4 389/3/4 404/3/4
f 404/3/4 389/3/4 405/3/4
f 390/3/4 391/3/4 406/3/4
f 406/3/4 391/3/4 407/3/4
f 404/6/4 405/6/4 408/6/4
f 405/3/4 406/3/4 409/3/4
f 408/6/4 405/6/4 409/6/4
f 406/6/4 407/6/4 410/6/4
f 409/3/4 406/3/4 410/3/4
f 410/6/4 407/6/4 411/6/4
f 374/5/4 401/5/4 412/5/4
f 374/5/4 412/5/4 415/5/4
f 412/3/4 413/3/4 415/3/4
f 413/5/4 414/5/4 416/5/4
f 415/3/4 413/3/4 416/3/4
f 416/5/4 414/5/4 417/5/4
f 373/4/4 374/4/4 418/4/4
f 374/5/4 415/5/4 419/5/4
f 418/4/4 374/4/4 419/4/4
f 419/5/4 415/5/4 420/5/4
f 376/5/4 377/5/4 421/5/4
f 421/5/4 377/5/4 422/5/4
f 419/3/4 420/3/4 423/3/4
f 418/3/4 419/3/4 423/3/4
f 421/3/4 422/3/4 423/3/4
f 420/3/4 421/3/4 423/3/4
f 423/3/4 422/3/4 424/3/4
f 423/5/4 424/5/4 425/5/4
f 425/5/4 424/5/4 426/5/4
f 425/3/4 426/3/4 427/3/4
f 427/3/4 426/3/4 428/3/4
f 432/4/5 430/4/5 429/4/5
f 433/4/5 430/4/5 432/4/5
f 434/3/5 431/3/5 430/3/5
f 434/4/5 430/4/5 433/4/5
f 435/3/5 431/3/5 434/3/5
f 436/1/5 433/1/5 432/1/5
f 437/3/5 434/3/5 433/3/5
f 437/1/5 433/1/5 436/1/5
f 438/3/5 434/3/5 437/3/5
f 439/5/5 435/5/5 434/5/5
f 439/3/5 434/3/5 438/3/5
f 440/5/5 435/5/5 439/5/5
f 441/4/5 437/4/5 436/4/5
f 442/3/5 438/3/5 437/3/5
f 442/4/5 437/4/5 441/4/5
f 443/5/5 439/5/5 438/5/5
f 443/3/5 438/3/5 442/3/5
f 444/3/5 440/3/5 439/3/5
f 444/5/5 439/5/5 443/5/5
f 445/3/5 440/3/5 444/3/5
f 448/3/5 447/3/5 446/3/5
f 449/3/5 447/3/5 448/3/5
f 454/6/5 451/6/5 450/6/5
f 455/3/5 452/3/5 451/3/5
f 455/6/5 451/6/5 454/6/5
f 456/6/5 453/6/5 452/6/5
f 456/3/5 452/3/5 455/3/5
f 457/6/5 453/6/5 456/6/5
f 462/6/5 459/6/5 458/6/5
f 463/3/5 460/3/5 459/3/5
f 463/6/5 459/6/5 462/6/5
f 464/6/5 461/6/5 460/6/5
f 464/3/5 460/3/5 463/3/5
f 465/6/5 461/6/5 464/6/5
f 468/3/5 467/3/5 466/3/5
f 469/3/5 467/3/5 468/3/5
f 470/4/5 469/4/5 468/4/5
f 471/4/5 469/4/5 470/4/5
f 472/3/5 471/3/5 470/3/5
f 473/3/5 471/3/5 472/3/5
f 476/5/5 475/5/5 474/5/5
f 477/5/5 475/5/5 476/5/5
f 480/5/5 479/5/5 478/5/5
f 481/5/5 479/5/5 480/5/5
f 482/3/6 483/3/6 484/3/6
f 484/3/6 483/3/6 485/3/6
f 486/5/6 487/5/6 496/5/6
f 496/5/6 487/5/6 497/5/6
f 488/5/6 489/5/6 498/5/6
f 498/5/6 489/5/6 499/5/6
f 490/5/6 491/5/6 500/5/6
f 500/5/6 491/5/6 501/5/6
f 492/5/6 493/5/6 502/5/6
f 502/5/6 493/5/6 503/5/6
f 494/5/6 495/5/6 504/5/6
f 504/5/6 495/5/6 505/5/6
f 506/5/6 507/5/6 516/5/6
f 516/5/6 507/5/6 517/5/6
f 508/5/6 509/5/6 518/5/6
f 518/5/6 509/5/6 519/5/6
f 510/5/6 511/5/6 520/5/6
f 520/5/6 511/5/6 521/5/6
f 512/5/6 513/5/6 522/5/6
f 522/5/6 513/5/6 523/5/6
f 514/5/6 515/5/6 524/5/6
f 524/5/6 515/5/6 525/5/6
f 526/5/6 527/5/6 534/5/6
f 534/5/6 527/5/6 535/5/6
f 528/5/6 529/5/6 536/5/6
f 536/5/6 529/5/6 537/5/6
f 530/5/6 531/5/6 538/5/6
f 538/5/6 531/5/6 539/5/6
f 532/5/6 533/5/6 540/5/6
f 540/5/6 533/5/6 541/5/6
f 542/5/6 543/5/6 550/5/6
f 550/5/6 543/5/6 551/5/6
f 544/5/6 545/5/6 552/5/6
f 552/5/6 545/5/6 553/5/6
f 546/5/6 547/5/6 554/5/6
f 554/5/6 547/5/6 555/5/6
f 548/5/6 549/5/6 556/5/6
f 556/5/6 549/5/6 557/5/6
f 558/3/6 559/3/6 560/3/6
f 560/3/6 559/3/6 561/3/6
f 560/4/6 561/4/6 562/4/6
f 562/4/6 561/4/6 563/4/6
f 562/3/6 563/3/6 564/3/6
f 564/3/6 563/3/6 565/3/6
f 566/6/6 567/6/6 570/6/6
f 567/3/6 568/3/6 571/3/6
f 570/6/6 567/6/6 571/6/6
f 568/6/6 569/6/6 572/6/6
f 571/3/6 568/3/6 572/3/6
f 572/6/6 569/6/6 573/6/6
f 574/6/6 575/6/6 578/6/6
f 575/3/6 576/3/6 579/3/6
f 578/6/6 575/6/6 579/6/6
f 576/6/6 577/6/6 580/6/6
f 579/3/6 576/3/6 580/3/6
f 580/6/6 577/6/6 581/6/6
f 582/5/6 583/5/6 587/5/6
f 583/3/6 584/3/6 588/3/6
f 587/5/6 583/5/6 588/5/6
f 584/5/6 585/5/6 589/5/6
f 588/3/6 584/3/6 589/3/6
f 585/3/6 586/3/6 590/3/6
f 589/5/6 585/5/6 590/5/6
f 590/3/6 586/3/6 591/3/6
f 588/4/6 589/4/6 592/4/6
f 587/4/6 588/4/6 592/4/6
f 592/4/6 589/4/6 593/4/6
f 589/3/6 590/3/6 594/3/6
f 593/4/6 589/4/6 594/4/6
f 590/5/6 591/5/6 595/5/6
f 594/3/6 590/3/6 595/3/6
f 595/5/6 591/5/6 596/5/6
f 592/5/6 593/5/6 597/5/6
f 593/3/6 594/3/6 598/3/6
f 597/5/6 593/5/6 598/5/6
f 594/5/6 595/5/6 599/5/6
f 598/3/6 594/3/6 599/3/6
f 595/3/6 596/3/6 600/3/6
f 599/5/6 595/5/6 600/5/6
f 600/3/6 596/3/6 601/3/6
