# MagicaVoxel @ Ephtracy

# group
g Foundry-0

# material
mtllib Foundry-0.mtl
usemtl palette

# normals
vn -1 0 0
vn 1 0 0
vn 0 0 1
vn 0 0 -1
vn 0 -1 0
vn 0 1 0

# texcoords
vt 0.939453 0.5
vt 0.970703 0.5
vt 0.974609 0.5
vt 0.978516 0.5
vt 0.982422 0.5

# verts
v -13 0 1.5
v -13 0 0.5
v -13 0 -0.5
v -13 1 1.5
v -13 1 0.5
v -13 1 -0.5
v -13 1 -1.5
v -13 2 1.5
v -13 2 0.5
v -13 4 0.5
v -13 4 -0.5
v -13 4 -1.5
v -13 7 0.5
v -13 7 -0.5
v -13 8 0.5
v -13 8 -0.5
v -13 15 0.5
v -13 15 -0.5
v -13 16 0.5
v -13 16 -0.5
v -13 19 1.5
v -13 19 0.5
v -13 20 1.5
v -13 20 0.5
v -13 20 -1.5
v -10 2 1.5
v -10 2 0.5
v -10 3 1.5
v -10 3 0.5
v -10 4 0.5
v -10 5 1.5
v -10 5 0.5
v -10 6 1.5
v -10 6 0.5
v -4 2 1.5
v -4 2 0.5
v -4 3 1.5
v -4 3 0.5
v -4 4 0.5
v -4 5 1.5
v -4 5 0.5
v -4 6 1.5
v -4 6 0.5
v 2 2 1.5
v 2 2 0.5
v 2 3 1.5
v 2 3 0.5
v 2 4 0.5
v 2 5 1.5
v 2 5 0.5
v 2 6 1.5
v 2 6 0.5
v 8 2 1.5
v 8 2 0.5
v 8 3 1.5
v 8 3 0.5
v 8 4 0.5
v 8 5 1.5
v 8 5 0.5
v 8 6 1.5
v 8 6 0.5
v 13 0 -0.5
v 13 0 -1.5
v 13 1 0.5
v 13 1 -0.5
v 13 1 -1.5
v 13 2 1.5
v 13 2 0.5
v 13 4 0.5
v 13 4 -0.5
v 13 7 0.5
v 13 8 0.5
v 13 15 0.5
v 13 16 0.5
v 13 19 1.5
v 13 19 0.5
v 15 1 0.5
v 15 1 -0.5
v 15 4 0.5
v 15 4 -0.5
v -8 2 1.5
v -8 2 0.5
v -8 3 1.5
v -8 3 0.5
v -8 4 0.5
v -8 5 1.5
v -8 5 0.5
v -8 6 1.5
v -8 6 0.5
v -2 2 1.5
v -2 2 0.5
v -2 3 1.5
v -2 3 0.5
v -2 4 0.5
v -2 5 1.5
v -2 5 0.5
v -2 6 1.5
v -2 6 0.5
v 4 2 1.5
v 4 2 0.5
v 4 3 1.5
v 4 3 0.5
v 4 4 0.5
v 4 5 1.5
v 4 5 0.5
v 4 6 1.5
v 4 6 0.5
v 10 2 1.5
v 10 2 0.5
v 10 3 1.5
v 10 3 0.5
v 10 4 0.5
v 10 5 1.5
v 10 5 0.5
v 10 6 1.5
v 10 6 0.5
v 14 1 0.5
v 14 1 -0.5
v 14 4 0.5
v 14 4 -0.5
v 16 0 1.5
v 16 0 0.5
v 16 0 -0.5
v 16 0 -1.5
v 16 20 1.5
v 16 20 0.5
v 16 20 -0.5
v 16 20 -1.5
v -13 0 1.5
v -13 1 1.5
v -13 2 1.5
v -13 19 1.5
v -13 20 1.5
v -10 2 1.5
v -10 3 1.5
v -10 5 1.5
v -10 6 1.5
v -8 2 1.5
v -8 3 1.5
v -8 5 1.5
v -8 6 1.5
v -4 2 1.5
v -4 3 1.5
v -4 5 1.5
v -4 6 1.5
v -2 2 1.5
v -2 3 1.5
v -2 5 1.5
v -2 6 1.5
v 2 2 1.5
v 2 3 1.5
v 2 5 1.5
v 2 6 1.5
v 4 2 1.5
v 4 3 1.5
v 4 5 1.5
v 4 6 1.5
v 8 2 1.5
v 8 3 1.5
v 8 5 1.5
v 8 6 1.5
v 10 2 1.5
v 10 3 1.5
v 10 5 1.5
v 10 6 1.5
v 13 1 1.5
v 13 2 1.5
v 13 19 1.5
v 13 20 1.5
v 14 1 1.5
v 14 20 1.5
v 15 0 1.5
v 15 1 1.5
v 15 20 1.5
v 16 0 1.5
v 16 20 1.5
v -13 4 0.5
v -13 7 0.5
v -13 8 0.5
v -13 15 0.5
v -13 16 0.5
v -13 19 0.5
v -10 4 0.5
v -10 5 0.5
v -10 6 0.5
v -8 4 0.5
v -8 5 0.5
v -8 6 0.5
v -4 4 0.5
v -4 5 0.5
v -4 6 0.5
v -2 4 0.5
v -2 5 0.5
v -2 6 0.5
v 2 4 0.5
v 2 5 0.5
v 2 6 0.5
v 4 4 0.5
v 4 5 0.5
v 4 6 0.5
v 8 4 0.5
v 8 5 0.5
v 8 6 0.5
v 10 4 0.5
v 10 5 0.5
v 10 6 0.5
v 13 4 0.5
v 13 7 0.5
v 13 8 0.5
v 13 15 0.5
v 13 16 0.5
v 13 19 0.5
v -13 1 -0.5
v -13 4 -0.5
v 13 1 -0.5
v 13 4 -0.5
v 14 1 -0.5
v 14 4 -0.5
v 15 1 -0.5
v 15 4 -0.5
v -13 1 0.5
v -13 2 0.5
v -10 2 0.5
v -10 3 0.5
v -10 4 0.5
v -8 2 0.5
v -8 3 0.5
v -8 4 0.5
v -4 2 0.5
v -4 3 0.5
v -4 4 0.5
v -2 2 0.5
v -2 3 0.5
v -2 4 0.5
v 2 2 0.5
v 2 3 0.5
v 2 4 0.5
v 4 2 0.5
v 4 3 0.5
v 4 4 0.5
v 8 2 0.5
v 8 3 0.5
v 8 4 0.5
v 10 2 0.5
v 10 3 0.5
v 10 4 0.5
v 13 1 0.5
v 13 2 0.5
v 14 1 0.5
v 14 4 0.5
v 15 1 0.5
v 15 4 0.5
v -13 0 -0.5
v -13 1 -0.5
v 13 0 -0.5
v 13 1 -0.5
v -13 1 -1.5
v -13 4 -1.5
v -13 20 -1.5
v 13 0 -1.5
v 13 1 -1.5
v 13 4 -1.5
v 13 20 -1.5
v 14 0 -1.5
v 14 20 -1.5
v 15 0 -1.5
v 15 20 -1.5
v 16 0 -1.5
v 16 20 -1.5
v -13 0 1.5
v 15 0 1.5
v 16 0 1.5
v -13 0 0.5
v 13 0 0.5
v 15 0 0.5
v 16 0 0.5
v -13 0 -0.5
v 13 0 -0.5
v 14 0 -0.5
v 15 0 -0.5
v 16 0 -0.5
v 13 0 -1.5
v 14 0 -1.5
v 15 0 -1.5
v 16 0 -1.5
v -13 1 -0.5
v 13 1 -0.5
v -13 1 -1.5
v 13 1 -1.5
v -13 4 0.5
v -10 4 0.5
v -8 4 0.5
v -4 4 0.5
v -2 4 0.5
v 2 4 0.5
v 4 4 0.5
v 8 4 0.5
v 10 4 0.5
v 13 4 0.5
v 14 4 0.5
v 15 4 0.5
v -13 4 -0.5
v 13 4 -0.5
v 14 4 -0.5
v 15 4 -0.5
v -13 19 1.5
v 13 19 1.5
v -13 19 0.5
v 13 19 0.5
v -13 1 0.5
v 13 1 0.5
v 14 1 0.5
v 15 1 0.5
v -13 1 -0.5
v 13 1 -0.5
v 14 1 -0.5
v 15 1 -0.5
v -13 2 1.5
v -10 2 1.5
v -8 2 1.5
v -4 2 1.5
v -2 2 1.5
v 2 2 1.5
v 4 2 1.5
v 8 2 1.5
v 10 2 1.5
v 13 2 1.5
v -13 2 0.5
v -10 2 0.5
v -8 2 0.5
v -4 2 0.5
v -2 2 0.5
v 2 2 0.5
v 4 2 0.5
v 8 2 0.5
v 10 2 0.5
v 13 2 0.5
v -10 6 1.5
v -8 6 1.5
v -4 6 1.5
v -2 6 1.5
v 2 6 1.5
v 4 6 1.5
v 8 6 1.5
v 10 6 1.5
v -10 6 0.5
v -8 6 0.5
v -4 6 0.5
v -2 6 0.5
v 2 6 0.5
v 4 6 0.5
v 8 6 0.5
v 10 6 0.5
v -13 20 1.5
v 13 20 1.5
v 14 20 1.5
v 15 20 1.5
v 16 20 1.5
v -13 20 0.5
v 13 20 0.5
v 14 20 0.5
v 15 20 0.5
v 16 20 0.5
v 13 20 -0.5
v 14 20 -0.5
v 15 20 -0.5
v 16 20 -0.5
v -13 20 -1.5
v 13 20 -1.5
v 14 20 -1.5
v 15 20 -1.5
v 16 20 -1.5

# faces
f 4/3/1 2/3/1 1/3/1
f 5/1/1 3/1/1 2/1/1
f 5/3/1 2/3/1 4/3/1
f 6/1/1 3/1/1 5/1/1
f 8/4/1 5/4/1 4/4/1
f 9/4/1 5/4/1 8/4/1
f 11/1/1 7/1/1 6/1/1
f 12/1/1 7/1/1 11/1/1
f 13/3/1 11/3/1 10/3/1
f 13/3/1 12/3/1 11/3/1
f 14/3/1 12/3/1 13/3/1
f 15/5/1 14/5/1 13/5/1
f 16/3/1 12/3/1 14/3/1
f 16/5/1 14/5/1 15/5/1
f 17/3/1 16/3/1 15/3/1
f 18/3/1 12/3/1 16/3/1
f 18/3/1 16/3/1 17/3/1
f 19/5/1 18/5/1 17/5/1
f 20/3/1 12/3/1 18/3/1
f 20/5/1 18/5/1 19/5/1
f 22/3/1 20/3/1 19/3/1
f 23/4/1 22/4/1 21/4/1
f 24/3/1 20/3/1 22/3/1
f 24/4/1 22/4/1 23/4/1
f 25/3/1 12/3/1 20/3/1
f 25/3/1 20/3/1 24/3/1
f 28/2/1 27/2/1 26/2/1
f 29/2/1 27/2/1 28/2/1
f 30/4/1 29/4/1 28/4/1
f 31/4/1 30/4/1 28/4/1
f 32/4/1 30/4/1 31/4/1
f 33/2/1 32/2/1 31/2/1
f 34/2/1 32/2/1 33/2/1
f 37/2/1 36/2/1 35/2/1
f 38/2/1 36/2/1 37/2/1
f 39/4/1 38/4/1 37/4/1
f 40/4/1 39/4/1 37/4/1
f 41/4/1 39/4/1 40/4/1
f 42/2/1 41/2/1 40/2/1
f 43/2/1 41/2/1 42/2/1
f 46/2/1 45/2/1 44/2/1
f 47/2/1 45/2/1 46/2/1
f 48/4/1 47/4/1 46/4/1
f 49/4/1 48/4/1 46/4/1
f 50/4/1 48/4/1 49/4/1
f 51/2/1 50/2/1 49/2/1
f 52/2/1 50/2/1 51/2/1
f 55/2/1 54/2/1 53/2/1
f 56/2/1 54/2/1 55/2/1
f 57/4/1 56/4/1 55/4/1
f 58/4/1 57/4/1 55/4/1
f 59/4/1 57/4/1 58/4/1
f 60/2/1 59/2/1 58/2/1
f 61/2/1 59/2/1 60/2/1
f 65/2/1 63/2/1 62/2/1
f 66/2/1 63/2/1 65/2/1
f 68/2/1 65/2/1 64/2/1
f 69/2/1 65/2/1 68/2/1
f 69/2/1 68/2/1 67/2/1
f 70/2/1 65/2/1 69/2/1
f 71/2/1 69/2/1 67/2/1
f 72/2/1 71/2/1 67/2/1
f 73/2/1 72/2/1 67/2/1
f 74/2/1 73/2/1 67/2/1
f 75/2/1 74/2/1 67/2/1
f 76/2/1 74/2/1 75/2/1
f 79/4/1 78/4/1 77/4/1
f 80/4/1 78/4/1 79/4/1
f 81/2/2 82/2/2 83/2/2
f 83/2/2 82/2/2 84/2/2
f 83/4/2 84/4/2 85/4/2
f 83/4/2 85/4/2 86/4/2
f 86/4/2 85/4/2 87/4/2
f 86/2/2 87/2/2 88/2/2
f 88/2/2 87/2/2 89/2/2
f 90/2/2 91/2/2 92/2/2
f 92/2/2 91/2/2 93/2/2
f 92/4/2 93/4/2 94/4/2
f 92/4/2 94/4/2 95/4/2
f 95/4/2 94/4/2 96/4/2
f 95/2/2 96/2/2 97/2/2
f 97/2/2 96/2/2 98/2/2
f 99/2/2 100/2/2 101/2/2
f 101/2/2 100/2/2 102/2/2
f 101/4/2 102/4/2 103/4/2
f 101/4/2 103/4/2 104/4/2
f 104/4/2 103/4/2 105/4/2
f 104/2/2 105/2/2 106/2/2
f 106/2/2 105/2/2 107/2/2
f 108/2/2 109/2/2 110/2/2
f 110/2/2 109/2/2 111/2/2
f 110/4/2 111/4/2 112/4/2
f 110/4/2 112/4/2 113/4/2
f 113/4/2 112/4/2 114/4/2
f 113/2/2 114/2/2 115/2/2
f 115/2/2 114/2/2 116/2/2
f 117/2/2 118/2/2 119/2/2
f 119/2/2 118/2/2 120/2/2
f 121/2/2 122/2/2 125/2/2
f 122/4/2 123/4/2 126/4/2
f 125/2/2 122/2/2 126/2/2
f 123/2/2 124/2/2 127/2/2
f 126/4/2 123/4/2 127/4/2
f 127/2/2 124/2/2 128/2/2
f 134/4/3 131/4/3 130/4/3
f 138/4/3 134/4/3 130/4/3
f 138/2/3 135/2/3 134/2/3
f 139/4/3 136/4/3 135/4/3
f 139/2/3 135/2/3 138/2/3
f 140/2/3 137/2/3 136/2/3
f 140/4/3 136/4/3 139/4/3
f 141/2/3 137/2/3 140/2/3
f 142/4/3 138/4/3 130/4/3
f 146/4/3 142/4/3 130/4/3
f 146/2/3 143/2/3 142/2/3
f 147/4/3 144/4/3 143/4/3
f 147/2/3 143/2/3 146/2/3
f 148/2/3 145/2/3 144/2/3
f 148/4/3 144/4/3 147/4/3
f 149/2/3 145/2/3 148/2/3
f 150/4/3 146/4/3 130/4/3
f 154/4/3 150/4/3 130/4/3
f 154/2/3 151/2/3 150/2/3
f 155/4/3 152/4/3 151/4/3
f 155/2/3 151/2/3 154/2/3
f 156/2/3 153/2/3 152/2/3
f 156/4/3 152/4/3 155/4/3
f 157/2/3 153/2/3 156/2/3
f 158/4/3 154/4/3 130/4/3
f 162/4/3 158/4/3 130/4/3
f 162/2/3 159/2/3 158/2/3
f 163/4/3 160/4/3 159/4/3
f 163/2/3 159/2/3 162/2/3
f 164/2/3 161/2/3 160/2/3
f 164/4/3 160/4/3 163/4/3
f 165/2/3 161/2/3 164/2/3
f 166/3/3 130/3/3 129/3/3
f 166/4/3 162/4/3 130/4/3
f 167/4/3 162/4/3 166/4/3
f 168/4/3 133/4/3 132/4/3
f 169/4/3 133/4/3 168/4/3
f 170/2/3 167/2/3 166/2/3
f 170/3/3 166/3/3 129/3/3
f 170/2/3 169/2/3 168/2/3
f 170/2/3 168/2/3 167/2/3
f 171/2/3 169/2/3 170/2/3
f 172/3/3 170/3/3 129/3/3
f 173/4/3 171/4/3 170/4/3
f 173/3/3 170/3/3 172/3/3
f 174/4/3 171/4/3 173/4/3
f 175/2/3 173/2/3 172/2/3
f 175/2/3 174/2/3 173/2/3
f 176/2/3 174/2/3 175/2/3
f 183/3/3 178/3/3 177/3/3
f 184/3/3 178/3/3 183/3/3
f 185/3/3 178/3/3 184/3/3
f 188/3/3 178/3/3 185/3/3
f 189/3/3 187/3/3 186/3/3
f 189/3/3 188/3/3 187/3/3
f 190/3/3 188/3/3 189/3/3
f 191/3/3 178/3/3 188/3/3
f 191/3/3 188/3/3 190/3/3
f 194/3/3 178/3/3 191/3/3
f 195/3/3 193/3/3 192/3/3
f 195/3/3 194/3/3 193/3/3
f 196/3/3 194/3/3 195/3/3
f 197/3/3 178/3/3 194/3/3
f 197/3/3 194/3/3 196/3/3
f 200/3/3 178/3/3 197/3/3
f 201/3/3 199/3/3 198/3/3
f 201/3/3 200/3/3 199/3/3
f 202/3/3 200/3/3 201/3/3
f 203/3/3 178/3/3 200/3/3
f 203/3/3 200/3/3 202/3/3
f 206/3/3 178/3/3 203/3/3
f 207/3/3 205/3/3 204/3/3
f 207/3/3 206/3/3 205/3/3
f 208/5/3 179/5/3 178/5/3
f 208/3/3 206/3/3 207/3/3
f 208/3/3 178/3/3 206/3/3
f 209/3/3 180/3/3 179/3/3
f 209/5/3 179/5/3 208/5/3
f 210/5/3 181/5/3 180/5/3
f 210/3/3 180/3/3 209/3/3
f 211/3/3 182/3/3 181/3/3
f 211/5/3 181/5/3 210/5/3
f 212/3/3 182/3/3 211/3/3
f 215/1/3 214/1/3 213/1/3
f 216/1/3 214/1/3 215/1/3
f 219/4/3 218/4/3 217/4/3
f 220/4/3 218/4/3 219/4/3
f 221/4/4 222/4/4 223/4/4
f 221/4/4 223/4/4 226/4/4
f 223/2/4 224/2/4 226/2/4
f 224/4/4 225/4/4 227/4/4
f 226/2/4 224/2/4 227/2/4
f 227/4/4 225/4/4 228/4/4
f 221/4/4 226/4/4 229/4/4
f 221/4/4 229/4/4 232/4/4
f 229/2/4 230/2/4 232/2/4
f 230/4/4 231/4/4 233/4/4
f 232/2/4 230/2/4 233/2/4
f 233/4/4 231/4/4 234/4/4
f 221/4/4 232/4/4 235/4/4
f 221/4/4 235/4/4 238/4/4
f 235/2/4 236/2/4 238/2/4
f 236/4/4 237/4/4 239/4/4
f 238/2/4 236/2/4 239/2/4
f 239/4/4 237/4/4 240/4/4
f 221/4/4 238/4/4 241/4/4
f 221/4/4 241/4/4 244/4/4
f 241/2/4 242/2/4 244/2/4
f 242/4/4 243/4/4 245/4/4
f 244/2/4 242/2/4 245/2/4
f 245/4/4 243/4/4 246/4/4
f 221/4/4 244/4/4 247/4/4
f 247/4/4 244/4/4 248/4/4
f 249/4/4 250/4/4 251/4/4
f 251/4/4 250/4/4 252/4/4
f 253/1/4 254/1/4 255/1/4
f 255/1/4 254/1/4 256/1/4
f 257/1/4 258/1/4 261/1/4
f 258/3/4 259/3/4 262/3/4
f 261/1/4 258/1/4 262/1/4
f 262/3/4 259/3/4 263/3/4
f 260/2/4 261/2/4 264/2/4
f 261/2/4 262/2/4 264/2/4
f 262/2/4 263/2/4 264/2/4
f 264/2/4 263/2/4 265/2/4
f 264/4/4 265/4/4 266/4/4
f 266/4/4 265/4/4 267/4/4
f 266/2/4 267/2/4 268/2/4
f 268/2/4 267/2/4 269/2/4
f 273/3/5 271/3/5 270/3/5
f 274/3/5 271/3/5 273/3/5
f 275/2/5 272/2/5 271/2/5
f 275/3/5 271/3/5 274/3/5
f 276/2/5 272/2/5 275/2/5
f 277/1/5 274/1/5 273/1/5
f 278/2/5 275/2/5 274/2/5
f 278/1/5 274/1/5 277/1/5
f 279/2/5 275/2/5 278/2/5
f 280/4/5 276/4/5 275/4/5
f 280/2/5 275/2/5 279/2/5
f 281/4/5 276/4/5 280/4/5
f 282/2/5 279/2/5 278/2/5
f 283/4/5 280/4/5 279/4/5
f 283/2/5 279/2/5 282/2/5
f 284/2/5 281/2/5 280/2/5
f 284/4/5 280/4/5 283/4/5
f 285/2/5 281/2/5 284/2/5
f 288/1/5 287/1/5 286/1/5
f 289/1/5 287/1/5 288/1/5
f 302/3/5 291/3/5 290/3/5
f 302/3/5 292/3/5 291/3/5
f 302/3/5 299/3/5 298/3/5
f 302/3/5 298/3/5 297/3/5
f 302/3/5 297/3/5 296/3/5
f 302/3/5 296/3/5 295/3/5
f 302/3/5 295/3/5 294/3/5
f 302/3/5 294/3/5 293/3/5
f 302/3/5 293/3/5 292/3/5
f 303/3/5 299/3/5 302/3/5
f 304/2/5 301/2/5 300/2/5
f 305/2/5 301/2/5 304/2/5
f 308/4/5 307/4/5 306/4/5
f 309/4/5 307/4/5 308/4/5
f 310/1/6 311/1/6 314/1/6
f 314/1/6 311/1/6 315/1/6
f 312/2/6 313/2/6 316/2/6
f 316/2/6 313/2/6 317/2/6
f 318/4/6 319/4/6 328/4/6
f 328/4/6 319/4/6 329/4/6
f 320/4/6 321/4/6 330/4/6
f 330/4/6 321/4/6 331/4/6
f 322/4/6 323/4/6 332/4/6
f 332/4/6 323/4/6 333/4/6
f 324/4/6 325/4/6 334/4/6
f 334/4/6 325/4/6 335/4/6
f 326/4/6 327/4/6 336/4/6
f 336/4/6 327/4/6 337/4/6
f 338/2/6 339/2/6 346/2/6
f 346/2/6 339/2/6 347/2/6
f 340/2/6 341/2/6 348/2/6
f 348/2/6 341/2/6 349/2/6
f 342/2/6 343/2/6 350/2/6
f 350/2/6 343/2/6 351/2/6
f 344/2/6 345/2/6 352/2/6
f 352/2/6 345/2/6 353/2/6
f 354/4/6 355/4/6 359/4/6
f 355/2/6 356/2/6 360/2/6
f 359/4/6 355/4/6 360/4/6
f 356/4/6 357/4/6 361/4/6
f 360/2/6 356/2/6 361/2/6
f 357/2/6 358/2/6 362/2/6
f 361/4/6 357/4/6 362/4/6
f 362/2/6 358/2/6 363/2/6
f 360/3/6 361/3/6 364/3/6
f 359/3/6 360/3/6 364/3/6
f 361/2/6 362/2/6 365/2/6
f 364/3/6 361/3/6 365/3/6
f 362/4/6 363/4/6 366/4/6
f 365/2/6 362/2/6 366/2/6
f 366/4/6 363/4/6 367/4/6
f 359/3/6 364/3/6 368/3/6
f 364/2/6 365/2/6 369/2/6
f 368/3/6 364/3/6 369/3/6
f 365/4/6 366/4/6 370/4/6
f 369/2/6 365/2/6 370/2/6
f 366/2/6 367/2/6 371/2/6
f 370/4/6 366/4/6 371/4/6
f 371/2/6 367/2/6 372/2/6
