# MagicaVoxel @ Ephtracy

# group
g Foundry-1

# material
mtllib Foundry-1.mtl
usemtl palette

# normals
vn -1 0 0
vn 1 0 0
vn 0 0 1
vn 0 0 -1
vn 0 -1 0
vn 0 1 0

# texcoords
vt 0.943359 0.5
vt 0.970703 0.5
vt 0.974609 0.5
vt 0.978516 0.5

# verts
v -14 1 14
v -14 1 13
v -14 1 7
v -14 1 6
v -14 1 -6
v -14 1 -7
v -14 1 -13
v -14 1 -15
v -14 2 14
v -14 2 13
v -14 2 7
v -14 2 6
v -14 2 -6
v -14 2 -7
v -14 2 -13
v -14 2 -15
v 15 1 14
v 15 1 -14
v 15 1 -15
v 15 2 14
v 15 2 -14
v 15 2 -15
v -14 1 14
v -14 2 14
v -13 1 14
v -13 2 14
v -7 1 14
v -7 2 14
v -6 1 14
v -6 2 14
v 6 1 14
v 6 2 14
v 7 1 14
v 7 2 14
v 13 1 14
v 13 2 14
v 15 1 14
v 15 2 14
v -14 1 -15
v -14 2 -15
v 14 1 -15
v 14 2 -15
v 15 1 -15
v 15 2 -15
v -14 1 14
v -13 1 14
v -7 1 14
v -6 1 14
v 6 1 14
v 7 1 14
v 13 1 14
v 15 1 14
v -14 1 13
v -13 1 13
v 13 1 13
v 14 1 13
v -8 1 8
v -7 1 8
v 7 1 8
v 8 1 8
v -14 1 7
v -8 1 7
v -7 1 7
v -6 1 7
v 6 1 7
v 7 1 7
v 8 1 7
v 14 1 7
v -14 1 6
v -7 1 6
v 7 1 6
v 14 1 6
v -14 1 -6
v -7 1 -6
v 7 1 -6
v 14 1 -6
v -14 1 -7
v -8 1 -7
v -7 1 -7
v -6 1 -7
v 6 1 -7
v 7 1 -7
v 8 1 -7
v 14 1 -7
v -8 1 -8
v -7 1 -8
v 7 1 -8
v 8 1 -8
v -14 1 -13
v -13 1 -13
v 13 1 -13
v 14 1 -13
v -13 1 -14
v -7 1 -14
v -6 1 -14
v 6 1 -14
v 7 1 -14
v 13 1 -14
v 14 1 -14
v 15 1 -14
v -14 1 -15
v 14 1 -15
v 15 1 -15
v -14 2 14
v -13 2 14
v -7 2 14
v -6 2 14
v 6 2 14
v 7 2 14
v 13 2 14
v 15 2 14
v -14 2 13
v -13 2 13
v 13 2 13
v 14 2 13
v -8 2 8
v -7 2 8
v 7 2 8
v 8 2 8
v -14 2 7
v -8 2 7
v -7 2 7
v -6 2 7
v 6 2 7
v 7 2 7
v 8 2 7
v 14 2 7
v -14 2 6
v -7 2 6
v 7 2 6
v 14 2 6
v -14 2 -6
v -7 2 -6
v 7 2 -6
v 14 2 -6
v -14 2 -7
v -8 2 -7
v -7 2 -7
v -6 2 -7
v 6 2 -7
v 7 2 -7
v 8 2 -7
v 14 2 -7
v -8 2 -8
v -7 2 -8
v 7 2 -8
v 8 2 -8
v -14 2 -13
v -13 2 -13
v 13 2 -13
v 14 2 -13
v -13 2 -14
v -7 2 -14
v -6 2 -14
v 6 2 -14
v 7 2 -14
v 13 2 -14
v 14 2 -14
v 15 2 -14
v -14 2 -15
v 14 2 -15
v 15 2 -15

# faces
f 9/2/1 2/2/1 1/2/1
f 10/3/1 3/3/1 2/3/1
f 10/2/1 2/2/1 9/2/1
f 11/1/1 4/1/1 3/1/1
f 11/3/1 3/3/1 10/3/1
f 12/3/1 5/3/1 4/3/1
f 12/1/1 4/1/1 11/1/1
f 13/1/1 6/1/1 5/1/1
f 13/3/1 5/3/1 12/3/1
f 14/3/1 7/3/1 6/3/1
f 14/1/1 6/1/1 13/1/1
f 15/2/1 8/2/1 7/2/1
f 15/3/1 7/3/1 14/3/1
f 16/2/1 8/2/1 15/2/1
f 17/2/2 18/2/2 20/2/2
f 18/4/2 19/4/2 21/4/2
f 20/2/2 18/2/2 21/2/2
f 21/4/2 19/4/2 22/4/2
f 25/2/3 24/2/3 23/2/3
f 26/2/3 24/2/3 25/2/3
f 27/3/3 26/3/3 25/3/3
f 28/3/3 26/3/3 27/3/3
f 29/1/3 28/1/3 27/1/3
f 30/1/3 28/1/3 29/1/3
f 31/3/3 30/3/3 29/3/3
f 32/3/3 30/3/3 31/3/3
f 33/1/3 32/1/3 31/1/3
f 34/1/3 32/1/3 33/1/3
f 35/3/3 34/3/3 33/3/3
f 36/3/3 34/3/3 35/3/3
f 37/2/3 36/2/3 35/2/3
f 38/2/3 36/2/3 37/2/3
f 39/2/4 40/2/4 41/2/4
f 41/2/4 40/2/4 42/2/4
f 41/4/4 42/4/4 43/4/4
f 43/4/4 42/4/4 44/4/4
f 53/2/5 46/2/5 45/2/5
f 54/3/5 47/3/5 46/3/5
f 54/2/5 46/2/5 53/2/5
f 55/2/5 52/2/5 51/2/5
f 55/3/5 51/3/5 50/3/5
f 56/2/5 52/2/5 55/2/5
f 57/3/5 47/3/5 54/3/5
f 57/3/5 54/3/5 53/3/5
f 58/1/5 48/1/5 47/1/5
f 58/3/5 47/3/5 57/3/5
f 59/1/5 50/1/5 49/1/5
f 59/3/5 56/3/5 55/3/5
f 59/3/5 55/3/5 50/3/5
f 60/3/5 56/3/5 59/3/5
f 61/3/5 57/3/5 53/3/5
f 62/1/5 58/1/5 57/1/5
f 62/3/5 57/3/5 61/3/5
f 63/1/5 48/1/5 58/1/5
f 63/1/5 58/1/5 62/1/5
f 64/3/5 49/3/5 48/3/5
f 64/1/5 48/1/5 63/1/5
f 65/1/5 59/1/5 49/1/5
f 65/3/5 49/3/5 64/3/5
f 65/1/5 60/1/5 59/1/5
f 66/1/5 60/1/5 65/1/5
f 67/3/5 56/3/5 60/3/5
f 67/1/5 60/1/5 66/1/5
f 68/2/5 52/2/5 56/2/5
f 68/3/5 56/3/5 67/3/5
f 69/1/5 63/1/5 62/1/5
f 69/1/5 62/1/5 61/1/5
f 70/3/5 66/3/5 65/3/5
f 70/1/5 63/1/5 69/1/5
f 70/3/5 64/3/5 63/3/5
f 70/3/5 65/3/5 64/3/5
f 71/1/5 67/1/5 66/1/5
f 71/3/5 66/3/5 70/3/5
f 71/1/5 68/1/5 67/1/5
f 72/2/5 52/2/5 68/2/5
f 72/1/5 68/1/5 71/1/5
f 73/3/5 70/3/5 69/3/5
f 73/3/5 71/3/5 70/3/5
f 73/3/5 72/3/5 71/3/5
f 74/3/5 72/3/5 73/3/5
f 75/3/5 72/3/5 74/3/5
f 76/2/5 52/2/5 72/2/5
f 76/3/5 72/3/5 75/3/5
f 77/1/5 74/1/5 73/1/5
f 78/1/5 74/1/5 77/1/5
f 79/3/5 75/3/5 74/3/5
f 79/1/5 74/1/5 78/1/5
f 80/3/5 75/3/5 79/3/5
f 81/3/5 75/3/5 80/3/5
f 82/1/5 76/1/5 75/1/5
f 82/3/5 75/3/5 81/3/5
f 83/1/5 76/1/5 82/1/5
f 84/2/5 52/2/5 76/2/5
f 84/1/5 76/1/5 83/1/5
f 85/3/5 78/3/5 77/3/5
f 85/1/5 79/1/5 78/1/5
f 85/1/5 80/1/5 79/1/5
f 86/1/5 80/1/5 85/1/5
f 87/1/5 83/1/5 82/1/5
f 87/1/5 82/1/5 81/1/5
f 88/3/5 84/3/5 83/3/5
f 88/1/5 83/1/5 87/1/5
f 89/3/5 86/3/5 85/3/5
f 89/3/5 85/3/5 77/3/5
f 90/3/5 86/3/5 89/3/5
f 91/3/5 84/3/5 88/3/5
f 91/3/5 88/3/5 87/3/5
f 92/2/5 52/2/5 84/2/5
f 92/3/5 84/3/5 91/3/5
f 93/3/5 86/3/5 90/3/5
f 93/2/5 90/2/5 89/2/5
f 94/1/5 80/1/5 86/1/5
f 94/3/5 86/3/5 93/3/5
f 95/3/5 81/3/5 80/3/5
f 95/1/5 80/1/5 94/1/5
f 96/1/5 87/1/5 81/1/5
f 96/3/5 81/3/5 95/3/5
f 97/3/5 91/3/5 87/3/5
f 97/1/5 87/1/5 96/1/5
f 98/2/5 92/2/5 91/2/5
f 98/3/5 91/3/5 97/3/5
f 99/2/5 52/2/5 92/2/5
f 99/2/5 92/2/5 98/2/5
f 100/2/5 52/2/5 99/2/5
f 101/2/5 96/2/5 95/2/5
f 101/2/5 93/2/5 89/2/5
f 101/2/5 94/2/5 93/2/5
f 101/2/5 99/2/5 98/2/5
f 101/2/5 95/2/5 94/2/5
f 101/2/5 97/2/5 96/2/5
f 101/2/5 98/2/5 97/2/5
f 102/4/5 100/4/5 99/4/5
f 102/2/5 99/2/5 101/2/5
f 103/4/5 100/4/5 102/4/5
f 104/2/6 105/2/6 112/2/6
f 105/3/6 106/3/6 113/3/6
f 112/2/6 105/2/6 113/2/6
f 110/2/6 111/2/6 114/2/6
f 109/3/6 110/3/6 114/3/6
f 114/2/6 111/2/6 115/2/6
f 113/3/6 106/3/6 116/3/6
f 112/3/6 113/3/6 116/3/6
f 106/1/6 107/1/6 117/1/6
f 116/3/6 106/3/6 117/3/6
f 108/1/6 109/1/6 118/1/6
f 114/3/6 115/3/6 118/3/6
f 109/3/6 114/3/6 118/3/6
f 118/3/6 115/3/6 119/3/6
f 112/3/6 116/3/6 120/3/6
f 116/1/6 117/1/6 121/1/6
f 120/3/6 116/3/6 121/3/6
f 117/1/6 107/1/6 122/1/6
f 121/1/6 117/1/6 122/1/6
f 107/3/6 108/3/6 123/3/6
f 122/1/6 107/1/6 123/1/6
f 108/1/6 118/1/6 124/1/6
f 123/3/6 108/3/6 124/3/6
f 118/1/6 119/1/6 124/1/6
f 124/1/6 119/1/6 125/1/6
f 119/3/6 115/3/6 126/3/6
f 125/1/6 119/1/6 126/1/6
f 115/2/6 111/2/6 127/2/6
f 126/3/6 115/3/6 127/3/6
f 121/1/6 122/1/6 128/1/6
f 120/1/6 121/1/6 128/1/6
f 124/3/6 125/3/6 129/3/6
f 128/1/6 122/1/6 129/1/6
f 122/3/6 123/3/6 129/3/6
f 123/3/6 124/3/6 129/3/6
f 125/1/6 126/1/6 130/1/6
f 129/3/6 125/3/6 130/3/6
f 126/1/6 127/1/6 130/1/6
f 127/2/6 111/2/6 131/2/6
f 130/1/6 127/1/6 131/1/6
f 128/3/6 129/3/6 132/3/6
f 129/3/6 130/3/6 132/3/6
f 130/3/6 131/3/6 132/3/6
f 132/3/6 131/3/6 133/3/6
f 133/3/6 131/3/6 134/3/6
f 131/2/6 111/2/6 135/2/6
f 134/3/6 131/3/6 135/3/6
f 132/1/6 133/1/6 136/1/6
f 136/1/6 133/1/6 137/1/6
f 133/3/6 134/3/6 138/3/6
f 137/1/6 133/1/6 138/1/6
f 138/3/6 134/3/6 139/3/6
f 139/3/6 134/3/6 140/3/6
f 134/1/6 135/1/6 141/1/6
f 140/3/6 134/3/6 141/3/6
f 141/1/6 135/1/6 142/1/6
f 135/2/6 111/2/6 143/2/6
f 142/1/6 135/1/6 143/1/6
f 136/3/6 137/3/6 144/3/6
f 137/1/6 138/1/6 144/1/6
f 138/1/6 139/1/6 144/1/6
f 144/1/6 139/1/6 145/1/6
f 141/1/6 142/1/6 146/1/6
f 140/1/6 141/1/6 146/1/6
f 142/3/6 143/3/6 147/3/6
f 146/1/6 142/1/6 147/1/6
f 144/3/6 145/3/6 148/3/6
f 136/3/6 144/3/6 148/3/6
f 148/3/6 145/3/6 149/3/6
f 147/3/6 143/3/6 150/3/6
f 146/3/6 147/3/6 150/3/6
f 143/2/6 111/2/6 151/2/6
f 150/3/6 143/3/6 151/3/6
f 149/3/6 145/3/6 152/3/6
f 148/2/6 149/2/6 152/2/6
f 145/1/6 139/1/6 153/1/6
f 152/3/6 145/3/6 153/3/6
f 139/3/6 140/3/6 154/3/6
f 153/1/6 139/1/6 154/1/6
f 140/1/6 146/1/6 155/1/6
f 154/3/6 140/3/6 155/3/6
f 146/3/6 150/3/6 156/3/6
f 155/1/6 146/1/6 156/1/6
f 150/2/6 151/2/6 157/2/6
f 156/3/6 150/3/6 157/3/6
f 151/2/6 111/2/6 158/2/6
f 157/2/6 151/2/6 158/2/6
f 158/2/6 111/2/6 159/2/6
f 154/2/6 155/2/6 160/2/6
f 148/2/6 152/2/6 160/2/6
f 152/2/6 153/2/6 160/2/6
f 157/2/6 158/2/6 160/2/6
f 153/2/6 154/2/6 160/2/6
f 155/2/6 156/2/6 160/2/6
f 156/2/6 157/2/6 160/2/6
f 158/4/6 159/4/6 161/4/6
f 160/2/6 158/2/6 161/2/6
f 161/4/6 159/4/6 162/4/6
