# MagicaVoxel @ Ephtracy

# group
g Foundry-4

# material
mtllib Foundry-4.mtl
usemtl palette

# normals
vn -1 0 0
vn 1 0 0
vn 0 0 1
vn 0 0 -1
vn 0 -1 0
vn 0 1 0

# texcoords
vt 0.939453 0.5
vt 0.943359 0.5
vt 0.970703 0.5
vt 0.974609 0.5
vt 0.978516 0.5
vt 0.982422 0.5

# verts
v -13 0 1.5
v -13 0 0.5
v -13 0 -0.5
v -13 1 1.5
v -13 1 0.5
v -13 1 -0.5
v -13 1 -1.5
v -13 2 1.5
v -13 2 0.5
v -13 4 0.5
v -13 4 -0.5
v -13 4 -1.5
v -13 7 0.5
v -13 7 -0.5
v -13 8 0.5
v -13 8 -0.5
v -13 15 0.5
v -13 15 -0.5
v -13 16 0.5
v -13 16 -0.5
v -13 19 1.5
v -13 19 0.5
v -13 20 1.5
v -13 20 0.5
v -13 20 -1.5
v -10 2 1.5
v -10 2 0.5
v -10 3 1.5
v -10 3 0.5
v -10 4 0.5
v -10 5 1.5
v -10 5 0.5
v -10 6 1.5
v -10 6 0.5
v -4 2 1.5
v -4 2 0.5
v -4 3 1.5
v -4 3 0.5
v -4 4 0.5
v -4 5 1.5
v -4 5 0.5
v -4 6 1.5
v -4 6 0.5
v 2 2 1.5
v 2 2 0.5
v 2 3 1.5
v 2 3 0.5
v 2 4 0.5
v 2 5 1.5
v 2 5 0.5
v 2 6 1.5
v 2 6 0.5
v 2 17 1.5
v 2 17 -0.5
v 2 18 1.5
v 2 18 -0.5
v 4 16 0.5
v 4 16 -0.5
v 4 17 0.5
v 4 18 0.5
v 4 19 0.5
v 4 19 -0.5
v 6 17 0.5
v 6 17 -0.5
v 6 18 0.5
v 6 18 -0.5
v 8 2 1.5
v 8 2 0.5
v 8 3 1.5
v 8 3 0.5
v 8 4 0.5
v 8 5 1.5
v 8 5 0.5
v 8 6 1.5
v 8 6 0.5
v 8 16 0.5
v 8 16 -0.5
v 8 19 0.5
v 8 19 -0.5
v 13 0 -0.5
v 13 0 -1.5
v 13 1 0.5
v 13 1 -0.5
v 13 1 -1.5
v 13 2 1.5
v 13 2 0.5
v 13 4 0.5
v 13 4 -0.5
v 13 7 0.5
v 13 8 0.5
v 13 15 0.5
v 13 16 0.5
v 13 19 1.5
v 13 19 0.5
v 15 1 0.5
v 15 1 -0.5
v 15 4 0.5
v 15 4 -0.5
v -8 2 1.5
v -8 2 0.5
v -8 3 1.5
v -8 3 0.5
v -8 4 0.5
v -8 5 1.5
v -8 5 0.5
v -8 6 1.5
v -8 6 0.5
v -2 2 1.5
v -2 2 0.5
v -2 3 1.5
v -2 3 0.5
v -2 4 0.5
v -2 5 1.5
v -2 5 0.5
v -2 6 1.5
v -2 6 0.5
v 1 16 0.5
v 1 16 -0.5
v 1 19 0.5
v 1 19 -0.5
v 3 17 0.5
v 3 17 -0.5
v 3 18 0.5
v 3 18 -0.5
v 4 2 1.5
v 4 2 0.5
v 4 3 1.5
v 4 3 0.5
v 4 4 0.5
v 4 5 1.5
v 4 5 0.5
v 4 6 1.5
v 4 6 0.5
v 5 16 0.5
v 5 16 -0.5
v 5 17 0.5
v 5 18 0.5
v 5 19 0.5
v 5 19 -0.5
v 7 17 1.5
v 7 17 -0.5
v 7 18 1.5
v 7 18 -0.5
v 10 2 1.5
v 10 2 0.5
v 10 3 1.5
v 10 3 0.5
v 10 4 0.5
v 10 5 1.5
v 10 5 0.5
v 10 6 1.5
v 10 6 0.5
v 14 1 0.5
v 14 1 -0.5
v 14 4 0.5
v 14 4 -0.5
v 16 0 1.5
v 16 0 0.5
v 16 0 -0.5
v 16 0 -1.5
v 16 20 1.5
v 16 20 0.5
v 16 20 -0.5
v 16 20 -1.5
v -13 0 1.5
v -13 1 1.5
v -13 2 1.5
v -13 19 1.5
v -13 20 1.5
v -10 2 1.5
v -10 3 1.5
v -10 5 1.5
v -10 6 1.5
v -8 2 1.5
v -8 3 1.5
v -8 5 1.5
v -8 6 1.5
v -4 2 1.5
v -4 3 1.5
v -4 5 1.5
v -4 6 1.5
v -2 2 1.5
v -2 3 1.5
v -2 5 1.5
v -2 6 1.5
v 2 2 1.5
v 2 3 1.5
v 2 5 1.5
v 2 6 1.5
v 2 17 1.5
v 2 18 1.5
v 4 2 1.5
v 4 3 1.5
v 4 5 1.5
v 4 6 1.5
v 7 17 1.5
v 7 18 1.5
v 8 2 1.5
v 8 3 1.5
v 8 5 1.5
v 8 6 1.5
v 10 2 1.5
v 10 3 1.5
v 10 5 1.5
v 10 6 1.5
v 13 1 1.5
v 13 2 1.5
v 13 19 1.5
v 13 20 1.5
v 14 1 1.5
v 14 20 1.5
v 15 0 1.5
v 15 1 1.5
v 15 20 1.5
v 16 0 1.5
v 16 20 1.5
v -13 4 0.5
v -13 7 0.5
v -13 8 0.5
v -13 15 0.5
v -13 16 0.5
v -13 19 0.5
v -11 9 0.5
v -11 14 0.5
v -10 4 0.5
v -10 5 0.5
v -10 6 0.5
v -10 9 0.5
v -10 11 0.5
v -10 12 0.5
v -10 13 0.5
v -9 11 0.5
v -9 12 0.5
v -8 4 0.5
v -8 5 0.5
v -8 6 0.5
v -8 13 0.5
v -8 14 0.5
v -7 11 0.5
v -7 12 0.5
v -5 11 0.5
v -5 12 0.5
v -4 4 0.5
v -4 5 0.5
v -4 6 0.5
v -4 9 0.5
v -4 10 0.5
v -4 11 0.5
v -4 14 0.5
v -3 12 0.5
v -3 13 0.5
v -2 4 0.5
v -2 5 0.5
v -2 6 0.5
v -2 10 0.5
v -2 11 0.5
v -2 12 0.5
v -2 13 0.5
v -1 9 0.5
v -1 14 0.5
v 0 9 0.5
v 0 14 0.5
v 1 10 0.5
v 1 13 0.5
v 1 16 0.5
v 1 19 0.5
v 2 4 0.5
v 2 5 0.5
v 2 6 0.5
v 2 10 0.5
v 2 13 0.5
v 3 9 0.5
v 3 14 0.5
v 4 4 0.5
v 4 5 0.5
v 4 6 0.5
v 4 16 0.5
v 4 17 0.5
v 4 18 0.5
v 4 19 0.5
v 5 16 0.5
v 5 17 0.5
v 5 18 0.5
v 5 19 0.5
v 8 4 0.5
v 8 5 0.5
v 8 6 0.5
v 8 16 0.5
v 8 19 0.5
v 10 4 0.5
v 10 5 0.5
v 10 6 0.5
v 13 4 0.5
v 13 7 0.5
v 13 8 0.5
v 13 15 0.5
v 13 16 0.5
v 13 19 0.5
v -13 1 -0.5
v -13 4 -0.5
v 1 16 -0.5
v 1 19 -0.5
v 2 17 -0.5
v 2 18 -0.5
v 3 17 -0.5
v 3 18 -0.5
v 4 16 -0.5
v 4 19 -0.5
v 5 16 -0.5
v 5 19 -0.5
v 6 17 -0.5
v 6 18 -0.5
v 7 17 -0.5
v 7 18 -0.5
v 8 16 -0.5
v 8 19 -0.5
v 13 1 -0.5
v 13 4 -0.5
v 14 1 -0.5
v 14 4 -0.5
v 15 1 -0.5
v 15 4 -0.5
v -13 1 0.5
v -13 2 0.5
v -10 2 0.5
v -10 3 0.5
v -10 4 0.5
v -8 2 0.5
v -8 3 0.5
v -8 4 0.5
v -4 2 0.5
v -4 3 0.5
v -4 4 0.5
v -2 2 0.5
v -2 3 0.5
v -2 4 0.5
v 2 2 0.5
v 2 3 0.5
v 2 4 0.5
v 3 17 0.5
v 3 18 0.5
v 4 2 0.5
v 4 3 0.5
v 4 4 0.5
v 4 17 0.5
v 4 18 0.5
v 5 17 0.5
v 5 18 0.5
v 6 17 0.5
v 6 18 0.5
v 8 2 0.5
v 8 3 0.5
v 8 4 0.5
v 10 2 0.5
v 10 3 0.5
v 10 4 0.5
v 13 1 0.5
v 13 2 0.5
v 14 1 0.5
v 14 4 0.5
v 15 1 0.5
v 15 4 0.5
v -13 0 -0.5
v -13 1 -0.5
v 13 0 -0.5
v 13 1 -0.5
v -13 1 -1.5
v -13 4 -1.5
v -13 20 -1.5
v 1 16 -1.5
v 1 19 -1.5
v 8 16 -1.5
v 8 19 -1.5
v 13 0 -1.5
v 13 1 -1.5
v 13 4 -1.5
v 13 20 -1.5
v 14 0 -1.5
v 14 20 -1.5
v 15 0 -1.5
v 15 20 -1.5
v 16 0 -1.5
v 16 20 -1.5
v -13 0 1.5
v 15 0 1.5
v 16 0 1.5
v -13 0 0.5
v 13 0 0.5
v 15 0 0.5
v 16 0 0.5
v -13 0 -0.5
v 13 0 -0.5
v 14 0 -0.5
v 15 0 -0.5
v 16 0 -0.5
v 13 0 -1.5
v 14 0 -1.5
v 15 0 -1.5
v 16 0 -1.5
v -13 1 -0.5
v 13 1 -0.5
v -13 1 -1.5
v 13 1 -1.5
v -13 4 0.5
v -10 4 0.5
v -8 4 0.5
v -4 4 0.5
v -2 4 0.5
v 2 4 0.5
v 4 4 0.5
v 8 4 0.5
v 10 4 0.5
v 13 4 0.5
v 14 4 0.5
v 15 4 0.5
v -13 4 -0.5
v 13 4 -0.5
v 14 4 -0.5
v 15 4 -0.5
v 2 17 1.5
v 7 17 1.5
v 3 17 0.5
v 4 17 0.5
v 5 17 0.5
v 6 17 0.5
v 2 17 -0.5
v 3 17 -0.5
v 6 17 -0.5
v 7 17 -0.5
v -13 19 1.5
v 13 19 1.5
v -13 19 0.5
v 1 19 0.5
v 4 19 0.5
v 5 19 0.5
v 8 19 0.5
v 13 19 0.5
v 1 19 -0.5
v 4 19 -0.5
v 5 19 -0.5
v 8 19 -0.5
v -13 1 0.5
v 13 1 0.5
v 14 1 0.5
v 15 1 0.5
v -13 1 -0.5
v 13 1 -0.5
v 14 1 -0.5
v 15 1 -0.5
v -13 2 1.5
v -10 2 1.5
v -8 2 1.5
v -4 2 1.5
v -2 2 1.5
v 2 2 1.5
v 4 2 1.5
v 8 2 1.5
v 10 2 1.5
v 13 2 1.5
v -13 2 0.5
v -10 2 0.5
v -8 2 0.5
v -4 2 0.5
v -2 2 0.5
v 2 2 0.5
v 4 2 0.5
v 8 2 0.5
v 10 2 0.5
v 13 2 0.5
v -10 6 1.5
v -8 6 1.5
v -4 6 1.5
v -2 6 1.5
v 2 6 1.5
v 4 6 1.5
v 8 6 1.5
v 10 6 1.5
v -10 6 0.5
v -8 6 0.5
v -4 6 0.5
v -2 6 0.5
v 2 6 0.5
v 4 6 0.5
v 8 6 0.5
v 10 6 0.5
v 1 16 0.5
v 4 16 0.5
v 5 16 0.5
v 8 16 0.5
v 1 16 -0.5
v 4 16 -0.5
v 5 16 -0.5
v 8 16 -0.5
v 2 18 1.5
v 7 18 1.5
v 3 18 0.5
v 4 18 0.5
v 5 18 0.5
v 6 18 0.5
v 2 18 -0.5
v 3 18 -0.5
v 6 18 -0.5
v 7 18 -0.5
v -13 20 1.5
v 13 20 1.5
v 14 20 1.5
v 15 20 1.5
v 16 20 1.5
v -13 20 0.5
v 13 20 0.5
v 14 20 0.5
v 15 20 0.5
v 16 20 0.5
v 13 20 -0.5
v 14 20 -0.5
v 15 20 -0.5
v 16 20 -0.5
v -13 20 -1.5
v 13 20 -1.5
v 14 20 -1.5
v 15 20 -1.5
v 16 20 -1.5

# faces
f 4/4/1 2/4/1 1/4/1
f 5/1/1 3/1/1 2/1/1
f 5/4/1 2/4/1 4/4/1
f 6/1/1 3/1/1 5/1/1
f 8/5/1 5/5/1 4/5/1
f 9/5/1 5/5/1 8/5/1
f 11/1/1 7/1/1 6/1/1
f 12/1/1 7/1/1 11/1/1
f 13/4/1 11/4/1 10/4/1
f 13/4/1 12/4/1 11/4/1
f 14/4/1 12/4/1 13/4/1
f 15/6/1 14/6/1 13/6/1
f 16/4/1 12/4/1 14/4/1
f 16/6/1 14/6/1 15/6/1
f 17/4/1 16/4/1 15/4/1
f 18/4/1 12/4/1 16/4/1
f 18/4/1 16/4/1 17/4/1
f 19/6/1 18/6/1 17/6/1
f 20/4/1 12/4/1 18/4/1
f 20/6/1 18/6/1 19/6/1
f 22/4/1 20/4/1 19/4/1
f 23/5/1 22/5/1 21/5/1
f 24/4/1 20/4/1 22/4/1
f 24/5/1 22/5/1 23/5/1
f 25/4/1 12/4/1 20/4/1
f 25/4/1 20/4/1 24/4/1
f 28/3/1 27/3/1 26/3/1
f 29/3/1 27/3/1 28/3/1
f 30/5/1 29/5/1 28/5/1
f 31/5/1 30/5/1 28/5/1
f 32/5/1 30/5/1 31/5/1
f 33/3/1 32/3/1 31/3/1
f 34/3/1 32/3/1 33/3/1
f 37/3/1 36/3/1 35/3/1
f 38/3/1 36/3/1 37/3/1
f 39/5/1 38/5/1 37/5/1
f 40/5/1 39/5/1 37/5/1
f 41/5/1 39/5/1 40/5/1
f 42/3/1 41/3/1 40/3/1
f 43/3/1 41/3/1 42/3/1
f 46/3/1 45/3/1 44/3/1
f 47/3/1 45/3/1 46/3/1
f 48/5/1 47/5/1 46/5/1
f 49/5/1 48/5/1 46/5/1
f 50/5/1 48/5/1 49/5/1
f 51/3/1 50/3/1 49/3/1
f 52/3/1 50/3/1 51/3/1
f 55/3/1 54/3/1 53/3/1
f 56/3/1 54/3/1 55/3/1
f 59/4/1 58/4/1 57/4/1
f 60/4/1 58/4/1 59/4/1
f 61/4/1 58/4/1 60/4/1
f 62/4/1 58/4/1 61/4/1
f 65/3/1 64/3/1 63/3/1
f 66/3/1 64/3/1 65/3/1
f 69/3/1 68/3/1 67/3/1
f 70/3/1 68/3/1 69/3/1
f 71/5/1 70/5/1 69/5/1
f 72/5/1 71/5/1 69/5/1
f 73/5/1 71/5/1 72/5/1
f 74/3/1 73/3/1 72/3/1
f 75/3/1 73/3/1 74/3/1
f 78/4/1 77/4/1 76/4/1
f 79/4/1 77/4/1 78/4/1
f 83/3/1 81/3/1 80/3/1
f 84/3/1 81/3/1 83/3/1
f 86/3/1 83/3/1 82/3/1
f 87/3/1 83/3/1 86/3/1
f 87/3/1 86/3/1 85/3/1
f 88/3/1 83/3/1 87/3/1
f 89/3/1 87/3/1 85/3/1
f 90/3/1 89/3/1 85/3/1
f 91/3/1 90/3/1 85/3/1
f 92/3/1 91/3/1 85/3/1
f 93/3/1 92/3/1 85/3/1
f 94/3/1 92/3/1 93/3/1
f 97/5/1 96/5/1 95/5/1
f 98/5/1 96/5/1 97/5/1
f 99/3/2 100/3/2 101/3/2
f 101/3/2 100/3/2 102/3/2
f 101/5/2 102/5/2 103/5/2
f 101/5/2 103/5/2 104/5/2
f 104/5/2 103/5/2 105/5/2
f 104/3/2 105/3/2 106/3/2
f 106/3/2 105/3/2 107/3/2
f 108/3/2 109/3/2 110/3/2
f 110/3/2 109/3/2 111/3/2
f 110/5/2 111/5/2 112/5/2
f 110/5/2 112/5/2 113/5/2
f 113/5/2 112/5/2 114/5/2
f 113/3/2 114/3/2 115/3/2
f 115/3/2 114/3/2 116/3/2
f 117/4/2 118/4/2 119/4/2
f 119/4/2 118/4/2 120/4/2
f 121/3/2 122/3/2 123/3/2
f 123/3/2 122/3/2 124/3/2
f 125/3/2 126/3/2 127/3/2
f 127/3/2 126/3/2 128/3/2
f 127/5/2 128/5/2 129/5/2
f 127/5/2 129/5/2 130/5/2
f 130/5/2 129/5/2 131/5/2
f 130/3/2 131/3/2 132/3/2
f 132/3/2 131/3/2 133/3/2
f 134/4/2 135/4/2 136/4/2
f 136/4/2 135/4/2 137/4/2
f 137/4/2 135/4/2 138/4/2
f 138/4/2 135/4/2 139/4/2
f 140/3/2 141/3/2 142/3/2
f 142/3/2 141/3/2 143/3/2
f 144/3/2 145/3/2 146/3/2
f 146/3/2 145/3/2 147/3/2
f 146/5/2 147/5/2 148/5/2
f 146/5/2 148/5/2 149/5/2
f 149/5/2 148/5/2 150/5/2
f 149/3/2 150/3/2 151/3/2
f 151/3/2 150/3/2 152/3/2
f 153/3/2 154/3/2 155/3/2
f 155/3/2 154/3/2 156/3/2
f 157/3/2 158/3/2 161/3/2
f 158/5/2 159/5/2 162/5/2
f 161/3/2 158/3/2 162/3/2
f 159/3/2 160/3/2 163/3/2
f 162/5/2 159/5/2 163/5/2
f 163/3/2 160/3/2 164/3/2
f 170/5/3 167/5/3 166/5/3
f 174/5/3 170/5/3 166/5/3
f 174/3/3 171/3/3 170/3/3
f 175/5/3 172/5/3 171/5/3
f 175/3/3 171/3/3 174/3/3
f 176/3/3 173/3/3 172/3/3
f 176/5/3 172/5/3 175/5/3
f 177/3/3 173/3/3 176/3/3
f 178/5/3 174/5/3 166/5/3
f 182/5/3 178/5/3 166/5/3
f 182/3/3 179/3/3 178/3/3
f 183/5/3 180/5/3 179/5/3
f 183/3/3 179/3/3 182/3/3
f 184/3/3 181/3/3 180/3/3
f 184/5/3 180/5/3 183/5/3
f 185/3/3 181/3/3 184/3/3
f 186/5/3 182/5/3 166/5/3
f 192/5/3 186/5/3 166/5/3
f 192/3/3 187/3/3 186/3/3
f 193/5/3 188/5/3 187/5/3
f 193/3/3 187/3/3 192/3/3
f 194/3/3 189/3/3 188/3/3
f 194/5/3 188/5/3 193/5/3
f 195/3/3 189/3/3 194/3/3
f 196/3/3 191/3/3 190/3/3
f 197/3/3 191/3/3 196/3/3
f 198/5/3 192/5/3 166/5/3
f 202/5/3 198/5/3 166/5/3
f 202/3/3 199/3/3 198/3/3
f 203/5/3 200/5/3 199/5/3
f 203/3/3 199/3/3 202/3/3
f 204/3/3 201/3/3 200/3/3
f 204/5/3 200/5/3 203/5/3
f 205/3/3 201/3/3 204/3/3
f 206/4/3 166/4/3 165/4/3
f 206/5/3 202/5/3 166/5/3
f 207/5/3 202/5/3 206/5/3
f 208/5/3 169/5/3 168/5/3
f 209/5/3 169/5/3 208/5/3
f 210/3/3 207/3/3 206/3/3
f 210/4/3 206/4/3 165/4/3
f 210/3/3 209/3/3 208/3/3
f 210/3/3 208/3/3 207/3/3
f 211/3/3 209/3/3 210/3/3
f 212/4/3 210/4/3 165/4/3
f 213/5/3 211/5/3 210/5/3
f 213/4/3 210/4/3 212/4/3
f 214/5/3 211/5/3 213/5/3
f 215/3/3 213/3/3 212/3/3
f 215/3/3 214/3/3 213/3/3
f 216/3/3 214/3/3 215/3/3
f 223/4/3 220/4/3 219/4/3
f 224/4/3 220/4/3 223/4/3
f 225/4/3 218/4/3 217/4/3
f 226/4/3 218/4/3 225/4/3
f 227/4/3 218/4/3 226/4/3
f 228/4/3 223/4/3 219/4/3
f 228/2/3 224/2/3 223/2/3
f 229/2/3 224/2/3 228/2/3
f 230/2/3 224/2/3 229/2/3
f 231/2/3 224/2/3 230/2/3
f 232/4/3 229/4/3 228/4/3
f 232/2/3 230/2/3 229/2/3
f 233/4/3 231/4/3 230/4/3
f 233/2/3 230/2/3 232/2/3
f 236/4/3 218/4/3 227/4/3
f 237/2/3 224/2/3 231/2/3
f 237/4/3 233/4/3 232/4/3
f 237/4/3 231/4/3 233/4/3
f 238/4/3 220/4/3 224/4/3
f 238/2/3 224/2/3 237/2/3
f 239/4/3 237/4/3 232/4/3
f 239/4/3 232/4/3 228/4/3
f 239/4/3 238/4/3 237/4/3
f 240/4/3 238/4/3 239/4/3
f 241/4/3 239/4/3 228/4/3
f 241/2/3 240/2/3 239/2/3
f 242/4/3 238/4/3 240/4/3
f 242/2/3 240/2/3 241/2/3
f 243/4/3 235/4/3 234/4/3
f 243/4/3 236/4/3 235/4/3
f 244/4/3 236/4/3 243/4/3
f 245/4/3 218/4/3 236/4/3
f 245/4/3 236/4/3 244/4/3
f 246/4/3 242/4/3 241/4/3
f 246/4/3 228/4/3 219/4/3
f 246/4/3 241/4/3 228/4/3
f 247/4/3 242/4/3 246/4/3
f 248/4/3 242/4/3 247/4/3
f 249/4/3 220/4/3 238/4/3
f 249/4/3 242/4/3 248/4/3
f 249/4/3 238/4/3 242/4/3
f 250/2/3 249/2/3 248/2/3
f 251/2/3 249/2/3 250/2/3
f 254/4/3 218/4/3 245/4/3
f 255/4/3 248/4/3 247/4/3
f 255/2/3 247/2/3 246/2/3
f 256/2/3 250/2/3 248/2/3
f 256/4/3 248/4/3 255/4/3
f 257/4/3 251/4/3 250/4/3
f 257/2/3 250/2/3 256/2/3
f 258/2/3 249/2/3 251/2/3
f 258/4/3 251/4/3 257/4/3
f 259/4/3 246/4/3 219/4/3
f 259/2/3 255/2/3 246/2/3
f 259/2/3 258/2/3 257/2/3
f 259/2/3 256/2/3 255/2/3
f 259/2/3 257/2/3 256/2/3
f 260/4/3 220/4/3 249/4/3
f 260/2/3 258/2/3 259/2/3
f 260/2/3 249/2/3 258/2/3
f 261/4/3 259/4/3 219/4/3
f 261/4/3 260/4/3 259/4/3
f 262/4/3 220/4/3 260/4/3
f 262/4/3 260/4/3 261/4/3
f 263/2/3 262/2/3 261/2/3
f 264/2/3 262/2/3 263/2/3
f 265/4/3 222/4/3 221/4/3
f 265/6/3 221/6/3 220/6/3
f 266/4/3 222/4/3 265/4/3
f 267/4/3 254/4/3 253/4/3
f 267/4/3 253/4/3 252/4/3
f 268/4/3 254/4/3 267/4/3
f 269/4/3 218/4/3 254/4/3
f 269/4/3 254/4/3 268/4/3
f 270/4/3 264/4/3 263/4/3
f 270/2/3 263/2/3 261/2/3
f 271/2/3 262/2/3 264/2/3
f 271/4/3 264/4/3 270/4/3
f 272/2/3 270/2/3 261/2/3
f 272/2/3 271/2/3 270/2/3
f 272/4/3 261/4/3 219/4/3
f 273/2/3 262/2/3 271/2/3
f 273/2/3 271/2/3 272/2/3
f 273/4/3 220/4/3 262/4/3
f 276/4/3 218/4/3 269/4/3
f 277/6/3 265/6/3 220/6/3
f 281/6/3 277/6/3 220/6/3
f 281/4/3 278/4/3 277/4/3
f 282/4/3 278/4/3 281/4/3
f 283/4/3 280/4/3 279/4/3
f 284/4/3 280/4/3 283/4/3
f 285/4/3 275/4/3 274/4/3
f 285/4/3 276/4/3 275/4/3
f 286/4/3 276/4/3 285/4/3
f 287/4/3 218/4/3 276/4/3
f 287/4/3 276/4/3 286/4/3
f 288/6/3 281/6/3 220/6/3
f 292/4/3 218/4/3 287/4/3
f 293/4/3 291/4/3 290/4/3
f 293/4/3 292/4/3 291/4/3
f 294/6/3 219/6/3 218/6/3
f 294/4/3 292/4/3 293/4/3
f 294/4/3 218/4/3 292/4/3
f 295/4/3 272/4/3 219/4/3
f 295/6/3 219/6/3 294/6/3
f 295/4/3 273/4/3 272/4/3
f 296/6/3 288/6/3 220/6/3
f 296/4/3 273/4/3 295/4/3
f 296/4/3 220/4/3 273/4/3
f 297/4/3 289/4/3 288/4/3
f 297/6/3 288/6/3 296/6/3
f 298/4/3 289/4/3 297/4/3
f 303/5/3 302/5/3 301/5/3
f 304/5/3 302/5/3 303/5/3
f 305/5/3 303/5/3 301/5/3
f 306/5/3 302/5/3 304/5/3
f 307/5/3 305/5/3 301/5/3
f 307/5/3 306/5/3 305/5/3
f 308/5/3 302/5/3 306/5/3
f 308/5/3 306/5/3 307/5/3
f 311/5/3 310/5/3 309/5/3
f 312/5/3 310/5/3 311/5/3
f 313/5/3 311/5/3 309/5/3
f 314/5/3 310/5/3 312/5/3
f 315/5/3 313/5/3 309/5/3
f 315/5/3 314/5/3 313/5/3
f 316/5/3 310/5/3 314/5/3
f 316/5/3 314/5/3 315/5/3
f 317/1/3 300/1/3 299/1/3
f 318/1/3 300/1/3 317/1/3
f 321/5/3 320/5/3 319/5/3
f 322/5/3 320/5/3 321/5/3
f 323/5/4 324/5/4 325/5/4
f 323/5/4 325/5/4 328/5/4
f 325/3/4 326/3/4 328/3/4
f 326/5/4 327/5/4 329/5/4
f 328/3/4 326/3/4 329/3/4
f 329/5/4 327/5/4 330/5/4
f 323/5/4 328/5/4 331/5/4
f 323/5/4 331/5/4 334/5/4
f 331/3/4 332/3/4 334/3/4
f 332/5/4 333/5/4 335/5/4
f 334/3/4 332/3/4 335/3/4
f 335/5/4 333/5/4 336/5/4
f 323/5/4 334/5/4 337/5/4
f 337/3/4 338/3/4 342/3/4
f 323/5/4 337/5/4 342/5/4
f 338/5/4 339/5/4 343/5/4
f 342/3/4 338/3/4 343/3/4
f 343/5/4 339/5/4 344/5/4
f 340/3/4 341/3/4 345/3/4
f 345/3/4 341/3/4 346/3/4
f 347/3/4 348/3/4 349/3/4
f 349/3/4 348/3/4 350/3/4
f 323/5/4 342/5/4 351/5/4
f 323/5/4 351/5/4 354/5/4
f 351/3/4 352/3/4 354/3/4
f 352/5/4 353/5/4 355/5/4
f 354/3/4 352/3/4 355/3/4
f 355/5/4 353/5/4 356/5/4
f 323/5/4 354/5/4 357/5/4
f 357/5/4 354/5/4 358/5/4
f 359/5/4 360/5/4 361/5/4
f 361/5/4 360/5/4 362/5/4
f 363/1/4 364/1/4 365/1/4
f 365/1/4 364/1/4 366/1/4
f 368/4/4 369/4/4 370/4/4
f 370/4/4 369/4/4 371/4/4
f 368/4/4 370/4/4 372/4/4
f 370/5/4 371/5/4 372/5/4
f 371/4/4 369/4/4 373/4/4
f 372/5/4 371/5/4 373/5/4
f 367/1/4 368/1/4 375/1/4
f 368/4/4 372/4/4 376/4/4
f 372/4/4 373/4/4 376/4/4
f 375/1/4 368/1/4 376/1/4
f 373/4/4 369/4/4 377/4/4
f 376/4/4 373/4/4 377/4/4
f 375/3/4 376/3/4 378/3/4
f 374/3/4 375/3/4 378/3/4
f 376/3/4 377/3/4 378/3/4
f 378/3/4 377/3/4 379/3/4
f 378/5/4 379/5/4 380/5/4
f 380/5/4 379/5/4 381/5/4
f 380/3/4 381/3/4 382/3/4
f 382/3/4 381/3/4 383/3/4
f 387/4/5 385/4/5 384/4/5
f 388/4/5 385/4/5 387/4/5
f 389/3/5 386/3/5 385/3/5
f 389/4/5 385/4/5 388/4/5
f 390/3/5 386/3/5 389/3/5
f 391/1/5 388/1/5 387/1/5
f 392/3/5 389/3/5 388/3/5
f 392/1/5 388/1/5 391/1/5
f 393/3/5 389/3/5 392/3/5
f 394/5/5 390/5/5 389/5/5
f 394/3/5 389/3/5 393/3/5
f 395/5/5 390/5/5 394/5/5
f 396/3/5 393/3/5 392/3/5
f 397/5/5 394/5/5 393/5/5
f 397/3/5 393/3/5 396/3/5
f 398/3/5 395/3/5 394/3/5
f 398/5/5 394/5/5 397/5/5
f 399/3/5 395/3/5 398/3/5
f 402/1/5 401/1/5 400/1/5
f 403/1/5 401/1/5 402/1/5
f 416/4/5 405/4/5 404/4/5
f 416/4/5 406/4/5 405/4/5
f 416/4/5 413/4/5 412/4/5
f 416/4/5 412/4/5 411/4/5
f 416/4/5 411/4/5 410/4/5
f 416/4/5 410/4/5 409/4/5
f 416/4/5 409/4/5 408/4/5
f 416/4/5 408/4/5 407/4/5
f 416/4/5 407/4/5 406/4/5
f 417/4/5 413/4/5 416/4/5
f 418/3/5 415/3/5 414/3/5
f 419/3/5 415/3/5 418/3/5
f 422/3/5 421/3/5 420/3/5
f 423/3/5 421/3/5 422/3/5
f 424/3/5 421/3/5 423/3/5
f 425/3/5 421/3/5 424/3/5
f 426/3/5 422/3/5 420/3/5
f 427/3/5 422/3/5 426/3/5
f 428/3/5 421/3/5 425/3/5
f 429/3/5 421/3/5 428/3/5
f 432/5/5 431/5/5 430/5/5
f 433/5/5 431/5/5 432/5/5
f 434/5/5 431/5/5 433/5/5
f 435/5/5 431/5/5 434/5/5
f 436/5/5 431/5/5 435/5/5
f 437/5/5 431/5/5 436/5/5
f 438/4/5 434/4/5 433/4/5
f 439/4/5 434/4/5 438/4/5
f 440/4/5 436/4/5 435/4/5
f 441/4/5 436/4/5 440/4/5
f 442/1/6 443/1/6 446/1/6
f 446/1/6 443/1/6 447/1/6
f 444/3/6 445/3/6 448/3/6
f 448/3/6 445/3/6 449/3/6
f 450/5/6 451/5/6 460/5/6
f 460/5/6 451/5/6 461/5/6
f 452/5/6 453/5/6 462/5/6
f 462/5/6 453/5/6 463/5/6
f 454/5/6 455/5/6 464/5/6
f 464/5/6 455/5/6 465/5/6
f 456/5/6 457/5/6 466/5/6
f 466/5/6 457/5/6 467/5/6
f 458/5/6 459/5/6 468/5/6
f 468/5/6 459/5/6 469/5/6
f 470/3/6 471/3/6 478/3/6
f 478/3/6 471/3/6 479/3/6
f 472/3/6 473/3/6 480/3/6
f 480/3/6 473/3/6 481/3/6
f 474/3/6 475/3/6 482/3/6
f 482/3/6 475/3/6 483/3/6
f 476/3/6 477/3/6 484/3/6
f 484/3/6 477/3/6 485/3/6
f 486/6/6 487/6/6 490/6/6
f 490/6/6 487/6/6 491/6/6
f 488/6/6 489/6/6 492/6/6
f 492/6/6 489/6/6 493/6/6
f 494/3/6 495/3/6 496/3/6
f 496/3/6 495/3/6 497/3/6
f 497/3/6 495/3/6 498/3/6
f 498/3/6 495/3/6 499/3/6
f 494/3/6 496/3/6 500/3/6
f 500/3/6 496/3/6 501/3/6
f 499/3/6 495/3/6 502/3/6
f 502/3/6 495/3/6 503/3/6
f 504/5/6 505/5/6 509/5/6
f 505/3/6 506/3/6 510/3/6
f 509/5/6 505/5/6 510/5/6
f 506/5/6 507/5/6 511/5/6
f 510/3/6 506/3/6 511/3/6
f 507/3/6 508/3/6 512/3/6
f 511/5/6 507/5/6 512/5/6
f 512/3/6 508/3/6 513/3/6
f 510/4/6 511/4/6 514/4/6
f 509/4/6 510/4/6 514/4/6
f 511/3/6 512/3/6 515/3/6
f 514/4/6 511/4/6 515/4/6
f 512/5/6 513/5/6 516/5/6
f 515/3/6 512/3/6 516/3/6
f 516/5/6 513/5/6 517/5/6
f 509/4/6 514/4/6 518/4/6
f 514/3/6 515/3/6 519/3/6
f 518/4/6 514/4/6 519/4/6
f 515/5/6 516/5/6 520/5/6
f 519/3/6 515/3/6 520/3/6
f 516/3/6 517/3/6 521/3/6
f 520/5/6 516/5/6 521/5/6
f 521/3/6 517/3/6 522/3/6
