# MagicaVoxel @ Ephtracy

# group
g ResearchCenter-3

# material
mtllib ResearchCenter-3.mtl
usemtl palette

# normals
vn -1 0 0
vn 1 0 0
vn 0 0 1
vn 0 0 -1
vn 0 -1 0
vn 0 1 0

# texcoords
vt 0.912109 0.5
vt 0.939453 0.5
vt 0.970703 0.5
vt 0.974609 0.5
vt 0.978516 0.5

# verts
v -13 0 1.5
v -13 0 0.5
v -13 0 -0.5
v -13 1 1.5
v -13 1 0.5
v -13 1 -0.5
v -13 1 -1.5
v -13 2 1.5
v -13 2 0.5
v -13 2 -0.5
v -13 2 -1.5
v -13 7 1.5
v -13 7 0.5
v -13 7 -0.5
v -13 7 -1.5
v -13 8 1.5
v -13 8 0.5
v -13 8 -0.5
v -13 8 -1.5
v -13 12 1.5
v -13 12 0.5
v -13 12 -0.5
v -13 12 -1.5
v -13 13 1.5
v -13 13 0.5
v -13 13 -0.5
v -13 13 -1.5
v -13 19 1.5
v -13 19 0.5
v -13 19 -0.5
v -13 19 -1.5
v -13 20 1.5
v -13 20 0.5
v -13 20 -0.5
v -13 20 -1.5
v -10 5 1.5
v -10 5 0.5
v -10 5 -0.5
v -10 5 -1.5
v -10 6 1.5
v -10 6 0.5
v -10 6 -0.5
v -10 6 -1.5
v -10 7 1.5
v -10 7 0.5
v -10 7 -0.5
v -10 7 -1.5
v -10 8 1.5
v -10 8 0.5
v -10 8 -0.5
v -10 8 -1.5
v -10 12 1.5
v -10 12 0.5
v -10 12 -0.5
v -10 12 -1.5
v -10 13 1.5
v -10 13 0.5
v -10 13 -0.5
v -10 13 -1.5
v -10 15 1.5
v -10 15 0.5
v -10 15 -0.5
v -10 15 -1.5
v -10 16 1.5
v -10 16 0.5
v -10 16 -0.5
v -10 16 -1.5
v 9 6 1.5
v 9 6 0.5
v 9 6 -0.5
v 9 6 -1.5
v 9 15 1.5
v 9 15 0.5
v 9 15 -0.5
v 9 15 -1.5
v 13 0 -0.5
v 13 0 -1.5
v 13 1 -0.5
v 13 1 -1.5
v 13 2 1.5
v 13 2 0.5
v 13 2 -0.5
v 13 2 -1.5
v 13 7 1.5
v 13 7 0.5
v 13 7 -0.5
v 13 7 -1.5
v 13 8 1.5
v 13 8 0.5
v 13 8 -0.5
v 13 8 -1.5
v 13 12 1.5
v 13 12 0.5
v 13 12 -0.5
v 13 12 -1.5
v 13 13 1.5
v 13 13 0.5
v 13 13 -0.5
v 13 13 -1.5
v 13 19 1.5
v 13 19 0.5
v 13 19 -0.5
v 13 19 -1.5
v -9 6 1.5
v -9 6 0.5
v -9 6 -0.5
v -9 6 -1.5
v -9 15 1.5
v -9 15 0.5
v -9 15 -0.5
v -9 15 -1.5
v 10 5 1.5
v 10 5 0.5
v 10 5 -0.5
v 10 5 -1.5
v 10 6 1.5
v 10 6 0.5
v 10 6 -0.5
v 10 6 -1.5
v 10 7 1.5
v 10 7 0.5
v 10 7 -0.5
v 10 7 -1.5
v 10 8 1.5
v 10 8 0.5
v 10 8 -0.5
v 10 8 -1.5
v 10 12 1.5
v 10 12 0.5
v 10 12 -0.5
v 10 12 -1.5
v 10 13 1.5
v 10 13 0.5
v 10 13 -0.5
v 10 13 -1.5
v 10 15 1.5
v 10 15 0.5
v 10 15 -0.5
v 10 15 -1.5
v 10 16 1.5
v 10 16 0.5
v 10 16 -0.5
v 10 16 -1.5
v 16 0 1.5
v 16 0 0.5
v 16 0 -0.5
v 16 0 -1.5
v 16 1 0.5
v 16 1 -0.5
v 16 5 0.5
v 16 5 -0.5
v 16 16 0.5
v 16 16 -0.5
v 16 20 1.5
v 16 20 0.5
v 16 20 -0.5
v 16 20 -1.5
v -13 0 1.5
v -13 1 1.5
v -13 2 1.5
v -13 7 1.5
v -13 8 1.5
v -13 12 1.5
v -13 13 1.5
v -13 19 1.5
v -13 20 1.5
v -10 5 1.5
v -10 6 1.5
v -10 7 1.5
v -10 8 1.5
v -10 12 1.5
v -10 13 1.5
v -10 15 1.5
v -10 16 1.5
v -9 5 1.5
v -9 6 1.5
v -9 15 1.5
v -9 16 1.5
v 9 5 1.5
v 9 6 1.5
v 9 15 1.5
v 9 16 1.5
v 10 5 1.5
v 10 6 1.5
v 10 7 1.5
v 10 8 1.5
v 10 12 1.5
v 10 13 1.5
v 10 15 1.5
v 10 16 1.5
v 13 1 1.5
v 13 2 1.5
v 13 7 1.5
v 13 8 1.5
v 13 12 1.5
v 13 13 1.5
v 13 19 1.5
v 13 20 1.5
v 14 0 1.5
v 14 1 1.5
v 14 5 1.5
v 14 16 1.5
v 14 20 1.5
v 15 0 1.5
v 15 5 1.5
v 15 16 1.5
v 15 20 1.5
v 16 0 1.5
v 16 20 1.5
v -13 2 0.5
v -13 7 0.5
v -13 8 0.5
v -13 12 0.5
v -13 13 0.5
v -13 19 0.5
v -10 5 0.5
v -10 6 0.5
v -10 7 0.5
v -10 8 0.5
v -10 12 0.5
v -10 13 0.5
v -10 15 0.5
v -10 16 0.5
v -9 5 0.5
v -9 16 0.5
v 9 5 0.5
v 9 16 0.5
v 10 5 0.5
v 10 6 0.5
v 10 7 0.5
v 10 8 0.5
v 10 12 0.5
v 10 13 0.5
v 10 15 0.5
v 10 16 0.5
v 13 2 0.5
v 13 7 0.5
v 13 8 0.5
v 13 12 0.5
v 13 13 0.5
v 13 19 0.5
v -13 0 -0.5
v -13 1 -0.5
v -13 2 -0.5
v -13 7 -0.5
v -13 8 -0.5
v -13 12 -0.5
v -13 13 -0.5
v -13 19 -0.5
v -10 5 -0.5
v -10 6 -0.5
v -10 7 -0.5
v -10 8 -0.5
v -10 12 -0.5
v -10 13 -0.5
v -10 15 -0.5
v -10 16 -0.5
v -9 5 -0.5
v -9 16 -0.5
v 9 5 -0.5
v 9 16 -0.5
v 10 5 -0.5
v 10 6 -0.5
v 10 7 -0.5
v 10 8 -0.5
v 10 12 -0.5
v 10 13 -0.5
v 10 15 -0.5
v 10 16 -0.5
v 13 0 -0.5
v 13 1 -0.5
v 13 2 -0.5
v 13 7 -0.5
v 13 8 -0.5
v 13 12 -0.5
v 13 13 -0.5
v 13 19 -0.5
v -13 1 -1.5
v -13 2 -1.5
v -13 7 -1.5
v -13 8 -1.5
v -13 12 -1.5
v -13 13 -1.5
v -13 19 -1.5
v -13 20 -1.5
v -10 5 -1.5
v -10 6 -1.5
v -10 7 -1.5
v -10 8 -1.5
v -10 12 -1.5
v -10 13 -1.5
v -10 15 -1.5
v -10 16 -1.5
v -9 5 -1.5
v -9 6 -1.5
v -9 15 -1.5
v -9 16 -1.5
v 9 5 -1.5
v 9 6 -1.5
v 9 15 -1.5
v 9 16 -1.5
v 10 5 -1.5
v 10 6 -1.5
v 10 7 -1.5
v 10 8 -1.5
v 10 12 -1.5
v 10 13 -1.5
v 10 15 -1.5
v 10 16 -1.5
v 13 0 -1.5
v 13 1 -1.5
v 13 2 -1.5
v 13 7 -1.5
v 13 8 -1.5
v 13 12 -1.5
v 13 13 -1.5
v 13 19 -1.5
v 13 20 -1.5
v 14 0 -1.5
v 14 5 -1.5
v 14 16 -1.5
v 14 18 -1.5
v 14 19 -1.5
v 14 20 -1.5
v 15 0 -1.5
v 15 5 -1.5
v 15 16 -1.5
v 15 18 -1.5
v 15 19 -1.5
v 15 20 -1.5
v 16 0 -1.5
v 16 20 -1.5
v -13 0 1.5
v 14 0 1.5
v 15 0 1.5
v 16 0 1.5
v -13 0 0.5
v 14 0 0.5
v 15 0 0.5
v 16 0 0.5
v -13 0 -0.5
v 13 0 -0.5
v 15 0 -0.5
v 16 0 -0.5
v 13 0 -1.5
v 14 0 -1.5
v 15 0 -1.5
v 16 0 -1.5
v -13 1 -0.5
v 13 1 -0.5
v -13 1 -1.5
v 13 1 -1.5
v -10 5 1.5
v -9 5 1.5
v 9 5 1.5
v 10 5 1.5
v -10 5 0.5
v -9 5 0.5
v 9 5 0.5
v 10 5 0.5
v -10 5 -0.5
v -9 5 -0.5
v 9 5 -0.5
v 10 5 -0.5
v -10 5 -1.5
v -9 5 -1.5
v 9 5 -1.5
v 10 5 -1.5
v -13 7 1.5
v -10 7 1.5
v 10 7 1.5
v 13 7 1.5
v -13 7 0.5
v -10 7 0.5
v 10 7 0.5
v 13 7 0.5
v -13 7 -0.5
v -10 7 -0.5
v 10 7 -0.5
v 13 7 -0.5
v -13 7 -1.5
v -10 7 -1.5
v 10 7 -1.5
v 13 7 -1.5
v -13 12 1.5
v -10 12 1.5
v 10 12 1.5
v 13 12 1.5
v -13 12 0.5
v -10 12 0.5
v 10 12 0.5
v 13 12 0.5
v -13 12 -0.5
v -10 12 -0.5
v 10 12 -0.5
v 13 12 -0.5
v -13 12 -1.5
v -10 12 -1.5
v 10 12 -1.5
v 13 12 -1.5
v -9 15 1.5
v 9 15 1.5
v -9 15 0.5
v 9 15 0.5
v -9 15 -0.5
v 9 15 -0.5
v -9 15 -1.5
v 9 15 -1.5
v -13 19 1.5
v 13 19 1.5
v -13 19 0.5
v 13 19 0.5
v -13 19 -0.5
v 13 19 -0.5
v -13 19 -1.5
v 13 19 -1.5
v -13 2 1.5
v 13 2 1.5
v -13 2 0.5
v 13 2 0.5
v -13 2 -0.5
v 13 2 -0.5
v -13 2 -1.5
v 13 2 -1.5
v -9 6 1.5
v 9 6 1.5
v -9 6 0.5
v 9 6 0.5
v -9 6 -0.5
v 9 6 -0.5
v -9 6 -1.5
v 9 6 -1.5
v -13 8 1.5
v -10 8 1.5
v 10 8 1.5
v 13 8 1.5
v -13 8 0.5
v -10 8 0.5
v 10 8 0.5
v 13 8 0.5
v -13 8 -0.5
v -10 8 -0.5
v 10 8 -0.5
v 13 8 -0.5
v -13 8 -1.5
v -10 8 -1.5
v 10 8 -1.5
v 13 8 -1.5
v -13 13 1.5
v -10 13 1.5
v 10 13 1.5
v 13 13 1.5
v -13 13 0.5
v -10 13 0.5
v 10 13 0.5
v 13 13 0.5
v -13 13 -0.5
v -10 13 -0.5
v 10 13 -0.5
v 13 13 -0.5
v -13 13 -1.5
v -10 13 -1.5
v 10 13 -1.5
v 13 13 -1.5
v -10 16 1.5
v -9 16 1.5
v 9 16 1.5
v 10 16 1.5
v -10 16 0.5
v -9 16 0.5
v 9 16 0.5
v 10 16 0.5
v -10 16 -0.5
v -9 16 -0.5
v 9 16 -0.5
v 10 16 -0.5
v -10 16 -1.5
v -9 16 -1.5
v 9 16 -1.5
v 10 16 -1.5
v -13 20 1.5
v 13 20 1.5
v 14 20 1.5
v 15 20 1.5
v 16 20 1.5
v -13 20 0.5
v 13 20 0.5
v 14 20 0.5
v 15 20 0.5
v 16 20 0.5
v -13 20 -0.5
v 13 20 -0.5
v 14 20 -0.5
v 15 20 -0.5
v 16 20 -0.5
v -13 20 -1.5
v 13 20 -1.5
v 14 20 -1.5
v 15 20 -1.5
v 16 20 -1.5

# faces
f 4/4/1 2/4/1 1/4/1
f 5/3/1 3/3/1 2/3/1
f 5/4/1 2/4/1 4/4/1
f 6/3/1 3/3/1 5/3/1
f 8/5/1 5/5/1 4/5/1
f 9/4/1 6/4/1 5/4/1
f 9/5/1 5/5/1 8/5/1
f 10/5/1 7/5/1 6/5/1
f 10/4/1 6/4/1 9/4/1
f 11/5/1 7/5/1 10/5/1
f 13/4/1 10/4/1 9/4/1
f 14/4/1 10/4/1 13/4/1
f 16/1/1 13/1/1 12/1/1
f 17/4/1 14/4/1 13/4/1
f 17/1/1 13/1/1 16/1/1
f 18/1/1 15/1/1 14/1/1
f 18/4/1 14/4/1 17/4/1
f 19/1/1 15/1/1 18/1/1
f 21/4/1 18/4/1 17/4/1
f 22/4/1 18/4/1 21/4/1
f 24/1/1 21/1/1 20/1/1
f 25/4/1 22/4/1 21/4/1
f 25/1/1 21/1/1 24/1/1
f 26/1/1 23/1/1 22/1/1
f 26/4/1 22/4/1 25/4/1
f 27/1/1 23/1/1 26/1/1
f 29/4/1 26/4/1 25/4/1
f 30/4/1 26/4/1 29/4/1
f 32/5/1 29/5/1 28/5/1
f 33/4/1 30/4/1 29/4/1
f 33/5/1 29/5/1 32/5/1
f 34/5/1 31/5/1 30/5/1
f 34/4/1 30/4/1 33/4/1
f 35/5/1 31/5/1 34/5/1
f 40/5/1 37/5/1 36/5/1
f 41/5/1 37/5/1 40/5/1
f 42/5/1 39/5/1 38/5/1
f 43/5/1 39/5/1 42/5/1
f 44/3/1 41/3/1 40/3/1
f 45/3/1 41/3/1 44/3/1
f 46/3/1 43/3/1 42/3/1
f 47/3/1 43/3/1 46/3/1
f 52/3/1 49/3/1 48/3/1
f 53/3/1 49/3/1 52/3/1
f 54/3/1 51/3/1 50/3/1
f 55/3/1 51/3/1 54/3/1
f 60/3/1 57/3/1 56/3/1
f 61/3/1 57/3/1 60/3/1
f 62/3/1 59/3/1 58/3/1
f 63/3/1 59/3/1 62/3/1
f 64/5/1 61/5/1 60/5/1
f 65/5/1 61/5/1 64/5/1
f 66/5/1 63/5/1 62/5/1
f 67/5/1 63/5/1 66/5/1
f 72/3/1 69/3/1 68/3/1
f 73/4/1 70/4/1 69/4/1
f 73/3/1 69/3/1 72/3/1
f 74/3/1 71/3/1 70/3/1
f 74/4/1 70/4/1 73/4/1
f 75/3/1 71/3/1 74/3/1
f 78/3/1 77/3/1 76/3/1
f 79/3/1 77/3/1 78/3/1
f 84/3/1 81/3/1 80/3/1
f 85/3/1 81/3/1 84/3/1
f 86/3/1 83/3/1 82/3/1
f 87/3/1 83/3/1 86/3/1
f 92/3/1 89/3/1 88/3/1
f 93/3/1 89/3/1 92/3/1
f 94/3/1 91/3/1 90/3/1
f 95/3/1 91/3/1 94/3/1
f 100/3/1 97/3/1 96/3/1
f 101/3/1 97/3/1 100/3/1
f 102/3/1 99/3/1 98/3/1
f 103/3/1 99/3/1 102/3/1
f 104/3/2 105/3/2 108/3/2
f 105/4/2 106/4/2 109/4/2
f 108/3/2 105/3/2 109/3/2
f 106/3/2 107/3/2 110/3/2
f 109/4/2 106/4/2 110/4/2
f 110/3/2 107/3/2 111/3/2
f 112/5/2 113/5/2 116/5/2
f 116/5/2 113/5/2 117/5/2
f 114/5/2 115/5/2 118/5/2
f 118/5/2 115/5/2 119/5/2
f 116/3/2 117/3/2 120/3/2
f 120/3/2 117/3/2 121/3/2
f 118/3/2 119/3/2 122/3/2
f 122/3/2 119/3/2 123/3/2
f 124/3/2 125/3/2 128/3/2
f 128/3/2 125/3/2 129/3/2
f 126/3/2 127/3/2 130/3/2
f 130/3/2 127/3/2 131/3/2
f 132/3/2 133/3/2 136/3/2
f 136/3/2 133/3/2 137/3/2
f 134/3/2 135/3/2 138/3/2
f 138/3/2 135/3/2 139/3/2
f 136/5/2 137/5/2 140/5/2
f 140/5/2 137/5/2 141/5/2
f 138/5/2 139/5/2 142/5/2
f 142/5/2 139/5/2 143/5/2
f 144/3/2 145/3/2 148/3/2
f 145/5/2 146/5/2 148/5/2
f 146/3/2 147/3/2 149/3/2
f 148/5/2 146/5/2 149/5/2
f 144/3/2 148/3/2 150/3/2
f 148/2/2 149/2/2 150/2/2
f 149/3/2 147/3/2 151/3/2
f 150/2/2 149/2/2 151/2/2
f 144/3/2 150/3/2 152/3/2
f 150/5/2 151/5/2 152/5/2
f 151/3/2 147/3/2 153/3/2
f 152/5/2 151/5/2 153/5/2
f 144/3/2 152/3/2 154/3/2
f 152/2/2 153/2/2 155/2/2
f 154/3/2 152/3/2 155/3/2
f 153/3/2 147/3/2 156/3/2
f 155/2/2 153/2/2 156/2/2
f 156/3/2 147/3/2 157/3/2
f 169/1/3 162/1/3 161/1/3
f 170/1/3 162/1/3 169/1/3
f 171/1/3 164/1/3 163/1/3
f 172/1/3 164/1/3 171/1/3
f 175/5/3 168/5/3 167/5/3
f 176/3/3 170/3/3 169/3/3
f 176/5/3 168/5/3 175/5/3
f 176/3/3 169/3/3 168/3/3
f 176/3/3 173/3/3 172/3/3
f 176/3/3 172/3/3 171/3/3
f 176/3/3 171/3/3 170/3/3
f 177/5/3 174/5/3 173/5/3
f 177/3/3 173/3/3 176/3/3
f 178/5/3 174/5/3 177/5/3
f 179/3/3 176/3/3 175/3/3
f 180/3/3 176/3/3 179/3/3
f 181/3/3 178/3/3 177/3/3
f 182/3/3 178/3/3 181/3/3
f 183/5/3 180/5/3 179/5/3
f 184/3/3 181/3/3 180/3/3
f 184/5/3 180/5/3 183/5/3
f 185/3/3 181/3/3 184/3/3
f 186/3/3 181/3/3 185/3/3
f 187/3/3 181/3/3 186/3/3
f 188/3/3 181/3/3 187/3/3
f 189/5/3 182/5/3 181/5/3
f 189/3/3 181/3/3 188/3/3
f 190/5/3 182/5/3 189/5/3
f 191/4/3 159/4/3 158/4/3
f 191/5/3 160/5/3 159/5/3
f 192/5/3 160/5/3 191/5/3
f 193/1/3 186/1/3 185/1/3
f 194/1/3 186/1/3 193/1/3
f 195/1/3 188/1/3 187/1/3
f 196/1/3 188/1/3 195/1/3
f 197/5/3 166/5/3 165/5/3
f 198/5/3 166/5/3 197/5/3
f 199/4/3 191/4/3 158/4/3
f 200/3/3 196/3/3 195/3/3
f 200/4/3 191/4/3 199/4/3
f 200/3/3 192/3/3 191/3/3
f 200/3/3 198/3/3 197/3/3
f 200/3/3 197/3/3 196/3/3
f 200/3/3 195/3/3 194/3/3
f 200/3/3 193/3/3 192/3/3
f 200/3/3 194/3/3 193/3/3
f 201/3/3 198/3/3 200/3/3
f 202/3/3 198/3/3 201/3/3
f 203/3/3 198/3/3 202/3/3
f 204/2/3 200/2/3 199/2/3
f 204/2/3 201/2/3 200/2/3
f 205/5/3 202/5/3 201/5/3
f 205/2/3 201/2/3 204/2/3
f 206/2/3 203/2/3 202/2/3
f 206/5/3 202/5/3 205/5/3
f 207/2/3 203/2/3 206/2/3
f 208/3/3 205/3/3 204/3/3
f 208/3/3 206/3/3 205/3/3
f 208/3/3 207/3/3 206/3/3
f 209/3/3 207/3/3 208/3/3
f 216/4/3 211/4/3 210/4/3
f 217/4/3 211/4/3 216/4/3
f 218/4/3 211/4/3 217/4/3
f 219/4/3 213/4/3 212/4/3
f 220/4/3 213/4/3 219/4/3
f 221/4/3 215/4/3 214/4/3
f 222/4/3 215/4/3 221/4/3
f 223/4/3 215/4/3 222/4/3
f 224/4/3 216/4/3 210/4/3
f 225/4/3 215/4/3 223/4/3
f 226/4/3 224/4/3 210/4/3
f 227/4/3 215/4/3 225/4/3
f 228/4/3 226/4/3 210/4/3
f 235/4/3 215/4/3 227/4/3
f 236/4/3 228/4/3 210/4/3
f 236/4/3 229/4/3 228/4/3
f 236/4/3 230/4/3 229/4/3
f 237/4/3 230/4/3 236/4/3
f 238/4/3 232/4/3 231/4/3
f 239/4/3 232/4/3 238/4/3
f 240/4/3 234/4/3 233/4/3
f 240/4/3 235/4/3 234/4/3
f 241/4/3 215/4/3 235/4/3
f 241/4/3 235/4/3 240/4/3
f 244/4/4 245/4/4 250/4/4
f 250/4/4 245/4/4 251/4/4
f 251/4/4 245/4/4 252/4/4
f 246/4/4 247/4/4 253/4/4
f 253/4/4 247/4/4 254/4/4
f 248/4/4 249/4/4 255/4/4
f 255/4/4 249/4/4 256/4/4
f 256/4/4 249/4/4 257/4/4
f 244/4/4 250/4/4 258/4/4
f 257/4/4 249/4/4 259/4/4
f 244/4/4 258/4/4 260/4/4
f 259/4/4 249/4/4 261/4/4
f 244/4/4 260/4/4 262/4/4
f 261/4/4 249/4/4 269/4/4
f 242/3/4 243/3/4 270/3/4
f 270/3/4 243/3/4 271/3/4
f 244/4/4 262/4/4 272/4/4
f 262/4/4 263/4/4 272/4/4
f 263/4/4 264/4/4 272/4/4
f 272/4/4 264/4/4 273/4/4
f 265/4/4 266/4/4 274/4/4
f 274/4/4 266/4/4 275/4/4
f 268/4/4 269/4/4 276/4/4
f 267/4/4 268/4/4 276/4/4
f 269/4/4 249/4/4 277/4/4
f 276/4/4 269/4/4 277/4/4
f 280/1/4 281/1/4 288/1/4
f 288/1/4 281/1/4 289/1/4
f 282/1/4 283/1/4 290/1/4
f 290/1/4 283/1/4 291/1/4
f 286/5/4 287/5/4 294/5/4
f 288/3/4 289/3/4 295/3/4
f 294/5/4 287/5/4 295/5/4
f 287/3/4 288/3/4 295/3/4
f 291/3/4 292/3/4 295/3/4
f 290/3/4 291/3/4 295/3/4
f 289/3/4 290/3/4 295/3/4
f 292/5/4 293/5/4 296/5/4
f 295/3/4 292/3/4 296/3/4
f 296/5/4 293/5/4 297/5/4
f 294/3/4 295/3/4 298/3/4
f 298/3/4 295/3/4 299/3/4
f 296/3/4 297/3/4 300/3/4
f 300/3/4 297/3/4 301/3/4
f 298/5/4 299/5/4 302/5/4
f 299/3/4 300/3/4 303/3/4
f 302/5/4 299/5/4 303/5/4
f 303/3/4 300/3/4 304/3/4
f 304/3/4 300/3/4 305/3/4
f 305/3/4 300/3/4 306/3/4
f 306/3/4 300/3/4 307/3/4
f 300/5/4 301/5/4 308/5/4
f 307/3/4 300/3/4 308/3/4
f 308/5/4 301/5/4 309/5/4
f 278/5/4 279/5/4 311/5/4
f 311/5/4 279/5/4 312/5/4
f 304/1/4 305/1/4 313/1/4
f 313/1/4 305/1/4 314/1/4
f 306/1/4 307/1/4 315/1/4
f 315/1/4 307/1/4 316/1/4
f 284/5/4 285/5/4 317/5/4
f 317/5/4 285/5/4 318/5/4
f 311/3/4 312/3/4 319/3/4
f 315/3/4 316/3/4 319/3/4
f 317/3/4 318/3/4 319/3/4
f 316/3/4 317/3/4 319/3/4
f 314/3/4 315/3/4 319/3/4
f 313/3/4 314/3/4 319/3/4
f 310/3/4 311/3/4 319/3/4
f 312/3/4 313/3/4 319/3/4
f 319/3/4 318/3/4 320/3/4
f 320/3/4 318/3/4 321/3/4
f 321/3/4 318/3/4 322/3/4
f 322/3/4 318/3/4 323/3/4
f 323/3/4 318/3/4 324/3/4
f 319/2/4 320/2/4 325/2/4
f 320/5/4 321/5/4 326/5/4
f 325/2/4 320/2/4 326/2/4
f 321/2/4 322/2/4 327/2/4
f 326/5/4 321/5/4 327/5/4
f 322/5/4 323/5/4 328/5/4
f 327/2/4 322/2/4 328/2/4
f 323/2/4 324/2/4 329/2/4
f 328/5/4 323/5/4 329/5/4
f 329/2/4 324/2/4 330/2/4
f 325/3/4 326/3/4 331/3/4
f 326/3/4 327/3/4 331/3/4
f 329/3/4 330/3/4 331/3/4
f 328/3/4 329/3/4 331/3/4
f 327/3/4 328/3/4 331/3/4
f 331/3/4 330/3/4 332/3/4
f 337/4/5 334/4/5 333/4/5
f 338/2/5 335/2/5 334/2/5
f 338/4/5 334/4/5 337/4/5
f 339/3/5 336/3/5 335/3/5
f 339/2/5 335/2/5 338/2/5
f 340/3/5 336/3/5 339/3/5
f 341/3/5 338/3/5 337/3/5
f 342/3/5 338/3/5 341/3/5
f 343/2/5 339/2/5 338/2/5
f 343/5/5 340/5/5 339/5/5
f 344/5/5 340/5/5 343/5/5
f 345/3/5 338/3/5 342/3/5
f 346/2/5 343/2/5 338/2/5
f 346/3/5 338/3/5 345/3/5
f 347/3/5 344/3/5 343/3/5
f 347/2/5 343/2/5 346/2/5
f 348/3/5 344/3/5 347/3/5
f 351/5/5 350/5/5 349/5/5
f 352/5/5 350/5/5 351/5/5
f 357/5/5 354/5/5 353/5/5
f 358/3/5 355/3/5 354/3/5
f 358/5/5 354/5/5 357/5/5
f 359/5/5 356/5/5 355/5/5
f 359/3/5 355/3/5 358/3/5
f 360/5/5 356/5/5 359/5/5
f 365/5/5 362/5/5 361/5/5
f 366/3/5 363/3/5 362/3/5
f 366/5/5 362/5/5 365/5/5
f 367/5/5 364/5/5 363/5/5
f 367/3/5 363/3/5 366/3/5
f 368/5/5 364/5/5 367/5/5
f 373/1/5 370/1/5 369/1/5
f 374/1/5 370/1/5 373/1/5
f 375/1/5 372/1/5 371/1/5
f 376/1/5 372/1/5 375/1/5
f 381/1/5 378/1/5 377/1/5
f 382/1/5 378/1/5 381/1/5
f 383/1/5 380/1/5 379/1/5
f 384/1/5 380/1/5 383/1/5
f 389/1/5 386/1/5 385/1/5
f 390/1/5 386/1/5 389/1/5
f 391/1/5 388/1/5 387/1/5
f 392/1/5 388/1/5 391/1/5
f 397/1/5 394/1/5 393/1/5
f 398/1/5 394/1/5 397/1/5
f 399/1/5 396/1/5 395/1/5
f 400/1/5 396/1/5 399/1/5
f 403/3/5 402/3/5 401/3/5
f 404/3/5 402/3/5 403/3/5
f 405/4/5 404/4/5 403/4/5
f 406/4/5 404/4/5 405/4/5
f 407/3/5 406/3/5 405/3/5
f 408/3/5 406/3/5 407/3/5
f 411/5/5 410/5/5 409/5/5
f 412/5/5 410/5/5 411/5/5
f 415/5/5 414/5/5 413/5/5
f 416/5/5 414/5/5 415/5/5
f 417/5/6 418/5/6 419/5/6
f 419/5/6 418/5/6 420/5/6
f 421/5/6 422/5/6 423/5/6
f 423/5/6 422/5/6 424/5/6
f 425/3/6 426/3/6 427/3/6
f 427/3/6 426/3/6 428/3/6
f 427/4/6 428/4/6 429/4/6
f 429/4/6 428/4/6 430/4/6
f 429/3/6 430/3/6 431/3/6
f 431/3/6 430/3/6 432/3/6
f 433/1/6 434/1/6 437/1/6
f 437/1/6 434/1/6 438/1/6
f 435/1/6 436/1/6 439/1/6
f 439/1/6 436/1/6 440/1/6
f 441/1/6 442/1/6 445/1/6
f 445/1/6 442/1/6 446/1/6
f 443/1/6 444/1/6 447/1/6
f 447/1/6 444/1/6 448/1/6
f 449/1/6 450/1/6 453/1/6
f 453/1/6 450/1/6 454/1/6
f 451/1/6 452/1/6 455/1/6
f 455/1/6 452/1/6 456/1/6
f 457/1/6 458/1/6 461/1/6
f 461/1/6 458/1/6 462/1/6
f 459/1/6 460/1/6 463/1/6
f 463/1/6 460/1/6 464/1/6
f 465/5/6 466/5/6 469/5/6
f 466/3/6 467/3/6 470/3/6
f 469/5/6 466/5/6 470/5/6
f 467/5/6 468/5/6 471/5/6
f 470/3/6 467/3/6 471/3/6
f 471/5/6 468/5/6 472/5/6
f 473/5/6 474/5/6 477/5/6
f 474/3/6 475/3/6 478/3/6
f 477/5/6 474/5/6 478/5/6
f 475/5/6 476/5/6 479/5/6
f 478/3/6 475/3/6 479/3/6
f 479/5/6 476/5/6 480/5/6
f 481/5/6 482/5/6 486/5/6
f 482/3/6 483/3/6 487/3/6
f 486/5/6 482/5/6 487/5/6
f 483/2/6 484/2/6 488/2/6
f 487/3/6 483/3/6 488/3/6
f 484/3/6 485/3/6 489/3/6
f 488/2/6 484/2/6 489/2/6
f 489/3/6 485/3/6 490/3/6
f 487/4/6 488/4/6 491/4/6
f 486/4/6 487/4/6 491/4/6
f 491/4/6 488/4/6 492/4/6
f 489/2/6 490/2/6 493/2/6
f 492/4/6 488/4/6 493/4/6
f 488/2/6 489/2/6 493/2/6
f 493/2/6 490/2/6 494/2/6
f 494/2/6 490/2/6 495/2/6
f 491/5/6 492/5/6 496/5/6
f 492/3/6 493/3/6 497/3/6
f 496/5/6 492/5/6 497/5/6
f 493/2/6 494/2/6 498/2/6
f 497/3/6 493/3/6 498/3/6
f 494/3/6 495/3/6 499/3/6
f 498/2/6 494/2/6 499/2/6
f 499/3/6 495/3/6 500/3/6
