# MagicaVoxel @ Ephtracy

# group
g MeleeWeapon-2

# material
mtllib MeleeWeapon-2.mtl
usemtl palette

# normals
vn -1 0 0
vn 1 0 0
vn 0 0 1
vn 0 0 -1
vn 0 -1 0
vn 0 1 0

# texcoords
vt 0.974609 0.5
vt 0.982422 0.5

# verts
v -2.5 15 0.5
v -2.5 15 -0.5
v -2.5 18 0.5
v -2.5 18 -0.5
v -1.5 13 0.5
v -1.5 13 -0.5
v -1.5 15 1.5
v -1.5 15 0.5
v -1.5 15 -0.5
v -1.5 15 -1.5
v -1.5 18 1.5
v -1.5 18 0.5
v -1.5 18 -0.5
v -1.5 18 -1.5
v -1.5 19 0.5
v -1.5 19 -0.5
v -0.5 0 0.5
v -0.5 0 -0.5
v -0.5 13 1.5
v -0.5 13 0.5
v -0.5 13 -0.5
v -0.5 13 -1.5
v -0.5 15 2.5
v -0.5 15 1.5
v -0.5 15 0.5
v -0.5 15 -0.5
v -0.5 15 -1.5
v -0.5 15 -2.5
v -0.5 18 2.5
v -0.5 18 1.5
v -0.5 18 0.5
v -0.5 18 -0.5
v -0.5 18 -1.5
v -0.5 18 -2.5
v -0.5 19 1.5
v -0.5 19 0.5
v -0.5 19 -0.5
v -0.5 19 -1.5
v 0.5 0 0.5
v 0.5 0 -0.5
v 0.5 13 1.5
v 0.5 13 0.5
v 0.5 13 -0.5
v 0.5 13 -1.5
v 0.5 15 2.5
v 0.5 15 1.5
v 0.5 15 0.5
v 0.5 15 -0.5
v 0.5 15 -1.5
v 0.5 15 -2.5
v 0.5 18 2.5
v 0.5 18 1.5
v 0.5 18 0.5
v 0.5 18 -0.5
v 0.5 18 -1.5
v 0.5 18 -2.5
v 0.5 19 1.5
v 0.5 19 0.5
v 0.5 19 -0.5
v 0.5 19 -1.5
v 1.5 13 0.5
v 1.5 13 -0.5
v 1.5 15 1.5
v 1.5 15 0.5
v 1.5 15 -0.5
v 1.5 15 -1.5
v 1.5 18 1.5
v 1.5 18 0.5
v 1.5 18 -0.5
v 1.5 18 -1.5
v 1.5 19 0.5
v 1.5 19 -0.5
v 2.5 15 0.5
v 2.5 15 -0.5
v 2.5 18 0.5
v 2.5 18 -0.5
v -0.5 15 2.5
v -0.5 18 2.5
v 0.5 15 2.5
v 0.5 18 2.5
v -1.5 15 1.5
v -1.5 18 1.5
v -0.5 13 1.5
v -0.5 15 1.5
v -0.5 18 1.5
v -0.5 19 1.5
v 0.5 13 1.5
v 0.5 15 1.5
v 0.5 18 1.5
v 0.5 19 1.5
v 1.5 15 1.5
v 1.5 18 1.5
v -2.5 15 0.5
v -2.5 18 0.5
v -1.5 13 0.5
v -1.5 15 0.5
v -1.5 18 0.5
v -1.5 19 0.5
v -0.5 0 0.5
v -0.5 13 0.5
v -0.5 15 0.5
v -0.5 18 0.5
v -0.5 19 0.5
v 0.5 0 0.5
v 0.5 13 0.5
v 0.5 15 0.5
v 0.5 18 0.5
v 0.5 19 0.5
v 1.5 13 0.5
v 1.5 15 0.5
v 1.5 18 0.5
v 1.5 19 0.5
v 2.5 15 0.5
v 2.5 18 0.5
v -2.5 15 -0.5
v -2.5 18 -0.5
v -1.5 13 -0.5
v -1.5 15 -0.5
v -1.5 18 -0.5
v -1.5 19 -0.5
v -0.5 0 -0.5
v -0.5 13 -0.5
v -0.5 15 -0.5
v -0.5 18 -0.5
v -0.5 19 -0.5
v 0.5 0 -0.5
v 0.5 13 -0.5
v 0.5 15 -0.5
v 0.5 18 -0.5
v 0.5 19 -0.5
v 1.5 13 -0.5
v 1.5 15 -0.5
v 1.5 18 -0.5
v 1.5 19 -0.5
v 2.5 15 -0.5
v 2.5 18 -0.5
v -1.5 15 -1.5
v -1.5 18 -1.5
v -0.5 13 -1.5
v -0.5 15 -1.5
v -0.5 18 -1.5
v -0.5 19 -1.5
v 0.5 13 -1.5
v 0.5 15 -1.5
v 0.5 18 -1.5
v 0.5 19 -1.5
v 1.5 15 -1.5
v 1.5 18 -1.5
v -0.5 15 -2.5
v -0.5 18 -2.5
v 0.5 15 -2.5
v 0.5 18 -2.5
v -0.5 0 0.5
v 0.5 0 0.5
v -0.5 0 -0.5
v 0.5 0 -0.5
v -0.5 13 1.5
v 0.5 13 1.5
v -1.5 13 0.5
v -0.5 13 0.5
v 0.5 13 0.5
v 1.5 13 0.5
v -1.5 13 -0.5
v -0.5 13 -0.5
v 0.5 13 -0.5
v 1.5 13 -0.5
v -0.5 13 -1.5
v 0.5 13 -1.5
v -0.5 15 2.5
v 0.5 15 2.5
v -1.5 15 1.5
v -0.5 15 1.5
v 0.5 15 1.5
v 1.5 15 1.5
v -2.5 15 0.5
v -1.5 15 0.5
v -0.5 15 0.5
v 0.5 15 0.5
v 1.5 15 0.5
v 2.5 15 0.5
v -2.5 15 -0.5
v -1.5 15 -0.5
v -0.5 15 -0.5
v 0.5 15 -0.5
v 1.5 15 -0.5
v 2.5 15 -0.5
v -1.5 15 -1.5
v -0.5 15 -1.5
v 0.5 15 -1.5
v 1.5 15 -1.5
v -0.5 15 -2.5
v 0.5 15 -2.5
v -0.5 18 2.5
v 0.5 18 2.5
v -1.5 18 1.5
v -0.5 18 1.5
v 0.5 18 1.5
v 1.5 18 1.5
v -2.5 18 0.5
v -1.5 18 0.5
v -0.5 18 0.5
v 0.5 18 0.5
v 1.5 18 0.5
v 2.5 18 0.5
v -2.5 18 -0.5
v -1.5 18 -0.5
v -0.5 18 -0.5
v 0.5 18 -0.5
v 1.5 18 -0.5
v 2.5 18 -0.5
v -1.5 18 -1.5
v -0.5 18 -1.5
v 0.5 18 -1.5
v 1.5 18 -1.5
v -0.5 18 -2.5
v 0.5 18 -2.5
v -0.5 19 1.5
v 0.5 19 1.5
v -1.5 19 0.5
v -0.5 19 0.5
v 0.5 19 0.5
v 1.5 19 0.5
v -1.5 19 -0.5
v -0.5 19 -0.5
v 0.5 19 -0.5
v 1.5 19 -0.5
v -0.5 19 -1.5
v 0.5 19 -1.5

# faces
f 3/2/1 2/2/1 1/2/1
f 4/2/1 2/2/1 3/2/1
f 8/2/1 6/2/1 5/2/1
f 9/2/1 6/2/1 8/2/1
f 11/2/1 8/2/1 7/2/1
f 12/2/1 8/2/1 11/2/1
f 13/2/1 10/2/1 9/2/1
f 14/2/1 10/2/1 13/2/1
f 15/2/1 13/2/1 12/2/1
f 16/2/1 13/2/1 15/2/1
f 20/1/1 18/1/1 17/1/1
f 21/1/1 18/1/1 20/1/1
f 24/2/1 20/2/1 19/2/1
f 25/2/1 20/2/1 24/2/1
f 26/2/1 22/2/1 21/2/1
f 27/2/1 22/2/1 26/2/1
f 29/2/1 24/2/1 23/2/1
f 30/2/1 24/2/1 29/2/1
f 33/2/1 28/2/1 27/2/1
f 34/2/1 28/2/1 33/2/1
f 35/2/1 31/2/1 30/2/1
f 36/2/1 31/2/1 35/2/1
f 37/2/1 33/2/1 32/2/1
f 38/2/1 33/2/1 37/2/1
f 39/1/2 40/1/2 42/1/2
f 42/1/2 40/1/2 43/1/2
f 41/2/2 42/2/2 46/2/2
f 46/2/2 42/2/2 47/2/2
f 43/2/2 44/2/2 48/2/2
f 48/2/2 44/2/2 49/2/2
f 45/2/2 46/2/2 51/2/2
f 51/2/2 46/2/2 52/2/2
f 49/2/2 50/2/2 55/2/2
f 55/2/2 50/2/2 56/2/2
f 52/2/2 53/2/2 57/2/2
f 57/2/2 53/2/2 58/2/2
f 54/2/2 55/2/2 59/2/2
f 59/2/2 55/2/2 60/2/2
f 61/2/2 62/2/2 64/2/2
f 64/2/2 62/2/2 65/2/2
f 63/2/2 64/2/2 67/2/2
f 67/2/2 64/2/2 68/2/2
f 65/2/2 66/2/2 69/2/2
f 69/2/2 66/2/2 70/2/2
f 68/2/2 69/2/2 71/2/2
f 71/2/2 69/2/2 72/2/2
f 73/2/2 74/2/2 75/2/2
f 75/2/2 74/2/2 76/2/2
f 79/2/3 78/2/3 77/2/3
f 80/2/3 78/2/3 79/2/3
f 84/2/3 82/2/3 81/2/3
f 85/2/3 82/2/3 84/2/3
f 87/2/3 84/2/3 83/2/3
f 88/2/3 84/2/3 87/2/3
f 89/2/3 86/2/3 85/2/3
f 90/2/3 86/2/3 89/2/3
f 91/2/3 89/2/3 88/2/3
f 92/2/3 89/2/3 91/2/3
f 96/2/3 94/2/3 93/2/3
f 97/2/3 94/2/3 96/2/3
f 100/2/3 96/2/3 95/2/3
f 101/2/3 96/2/3 100/2/3
f 102/2/3 98/2/3 97/2/3
f 103/2/3 98/2/3 102/2/3
f 104/1/3 100/1/3 99/1/3
f 105/1/3 100/1/3 104/1/3
f 109/2/3 106/2/3 105/2/3
f 110/2/3 106/2/3 109/2/3
f 111/2/3 108/2/3 107/2/3
f 112/2/3 108/2/3 111/2/3
f 113/2/3 111/2/3 110/2/3
f 114/2/3 111/2/3 113/2/3
f 115/2/4 116/2/4 118/2/4
f 118/2/4 116/2/4 119/2/4
f 117/2/4 118/2/4 122/2/4
f 122/2/4 118/2/4 123/2/4
f 119/2/4 120/2/4 124/2/4
f 124/2/4 120/2/4 125/2/4
f 121/1/4 122/1/4 126/1/4
f 126/1/4 122/1/4 127/1/4
f 127/2/4 128/2/4 131/2/4
f 131/2/4 128/2/4 132/2/4
f 129/2/4 130/2/4 133/2/4
f 133/2/4 130/2/4 134/2/4
f 132/2/4 133/2/4 135/2/4
f 135/2/4 133/2/4 136/2/4
f 137/2/4 138/2/4 140/2/4
f 140/2/4 138/2/4 141/2/4
f 139/2/4 140/2/4 143/2/4
f 143/2/4 140/2/4 144/2/4
f 141/2/4 142/2/4 145/2/4
f 145/2/4 142/2/4 146/2/4
f 144/2/4 145/2/4 147/2/4
f 147/2/4 145/2/4 148/2/4
f 149/2/4 150/2/4 151/2/4
f 151/2/4 150/2/4 152/2/4
f 155/1/5 154/1/5 153/1/5
f 156/1/5 154/1/5 155/1/5
f 160/2/5 158/2/5 157/2/5
f 161/2/5 158/2/5 160/2/5
f 163/2/5 160/2/5 159/2/5
f 164/2/5 160/2/5 163/2/5
f 165/2/5 162/2/5 161/2/5
f 166/2/5 162/2/5 165/2/5
f 167/2/5 165/2/5 164/2/5
f 168/2/5 165/2/5 167/2/5
f 172/2/5 170/2/5 169/2/5
f 173/2/5 170/2/5 172/2/5
f 176/2/5 172/2/5 171/2/5
f 177/2/5 172/2/5 176/2/5
f 178/2/5 174/2/5 173/2/5
f 179/2/5 174/2/5 178/2/5
f 181/2/5 176/2/5 175/2/5
f 182/2/5 176/2/5 181/2/5
f 185/2/5 180/2/5 179/2/5
f 186/2/5 180/2/5 185/2/5
f 187/2/5 183/2/5 182/2/5
f 188/2/5 183/2/5 187/2/5
f 189/2/5 185/2/5 184/2/5
f 190/2/5 185/2/5 189/2/5
f 191/2/5 189/2/5 188/2/5
f 192/2/5 189/2/5 191/2/5
f 193/2/6 194/2/6 196/2/6
f 196/2/6 194/2/6 197/2/6
f 195/2/6 196/2/6 200/2/6
f 200/2/6 196/2/6 201/2/6
f 197/2/6 198/2/6 202/2/6
f 202/2/6 198/2/6 203/2/6
f 199/2/6 200/2/6 205/2/6
f 205/2/6 200/2/6 206/2/6
f 203/2/6 204/2/6 209/2/6
f 209/2/6 204/2/6 210/2/6
f 206/2/6 207/2/6 211/2/6
f 211/2/6 207/2/6 212/2/6
f 208/2/6 209/2/6 213/2/6
f 213/2/6 209/2/6 214/2/6
f 212/2/6 213/2/6 215/2/6
f 215/2/6 213/2/6 216/2/6
f 217/2/6 218/2/6 220/2/6
f 220/2/6 218/2/6 221/2/6
f 219/2/6 220/2/6 223/2/6
f 221/2/6 222/2/6 223/2/6
f 220/2/6 221/2/6 223/2/6
f 223/2/6 222/2/6 224/2/6
f 224/2/6 222/2/6 225/2/6
f 225/2/6 222/2/6 226/2/6
f 224/2/6 225/2/6 227/2/6
f 227/2/6 225/2/6 228/2/6
