# MagicaVoxel @ Ephtracy

# group
g MeleeWeapon-6

# material
mtllib MeleeWeapon-6.mtl
usemtl palette

# normals
vn -1 0 0
vn 1 0 0
vn 0 0 1
vn 0 0 -1
vn 0 -1 0
vn 0 1 0

# texcoords
vt 0.849609 0.5
vt 0.853516 0.5
vt 0.857422 0.5
vt 0.861328 0.5

# verts
v -1.5 6 0.5
v -1.5 6 -0.5
v -1.5 7 0.5
v -1.5 7 -0.5
v -1.5 8 0.5
v -1.5 8 -0.5
v -1.5 15 0.5
v -1.5 15 -0.5
v -1.5 17 0.5
v -1.5 17 -0.5
v -1.5 18 0.5
v -1.5 18 -0.5
v -0.5 0 0.5
v -0.5 0 -0.5
v -0.5 1 0.5
v -0.5 1 -0.5
v -0.5 4 0.5
v -0.5 4 -0.5
v -0.5 5 0.5
v -0.5 5 -0.5
v -0.5 6 0.5
v -0.5 6 -0.5
v -0.5 8 0.5
v -0.5 8 -0.5
v -0.5 15 0.5
v -0.5 15 -0.5
v 1.5 3 0.5
v 1.5 3 -0.5
v 1.5 4 0.5
v 1.5 4 -0.5
v -0.5 17 0.5
v -0.5 17 -0.5
v -0.5 18 0.5
v -0.5 18 -0.5
v 0.5 0 0.5
v 0.5 0 -0.5
v 0.5 1 0.5
v 0.5 1 -0.5
v 0.5 4 0.5
v 0.5 4 -0.5
v 0.5 16 0.5
v 0.5 16 -0.5
v 0.5 17 0.5
v 0.5 17 -0.5
v 1.5 15 0.5
v 1.5 15 -0.5
v 1.5 16 0.5
v 1.5 16 -0.5
v 2.5 3 0.5
v 2.5 3 -0.5
v 2.5 4 0.5
v 2.5 4 -0.5
v 2.5 13 0.5
v 2.5 13 -0.5
v 2.5 14 0.5
v 2.5 14 -0.5
v 2.5 15 0.5
v 2.5 15 -0.5
v 3.5 13 0.5
v 3.5 13 -0.5
v 3.5 14 0.5
v 3.5 14 -0.5
v -1.5 6 0.5
v -1.5 7 0.5
v -1.5 8 0.5
v -1.5 15 0.5
v -1.5 17 0.5
v -1.5 18 0.5
v -0.5 0 0.5
v -0.5 1 0.5
v -0.5 4 0.5
v -0.5 5 0.5
v -0.5 6 0.5
v -0.5 7 0.5
v -0.5 8 0.5
v -0.5 15 0.5
v -0.5 16 0.5
v -0.5 17 0.5
v -0.5 18 0.5
v 0.5 0 0.5
v 0.5 1 0.5
v 0.5 4 0.5
v 0.5 5 0.5
v 0.5 6 0.5
v 0.5 15 0.5
v 0.5 16 0.5
v 0.5 17 0.5
v 1.5 3 0.5
v 1.5 4 0.5
v 1.5 5 0.5
v 1.5 13 0.5
v 1.5 14 0.5
v 1.5 15 0.5
v 1.5 16 0.5
v 2.5 3 0.5
v 2.5 4 0.5
v 2.5 13 0.5
v 2.5 14 0.5
v 2.5 15 0.5
v 3.5 13 0.5
v 3.5 14 0.5
v -1.5 6 -0.5
v -1.5 7 -0.5
v -1.5 8 -0.5
v -1.5 15 -0.5
v -1.5 17 -0.5
v -1.5 18 -0.5
v -0.5 0 -0.5
v -0.5 1 -0.5
v -0.5 4 -0.5
v -0.5 5 -0.5
v -0.5 6 -0.5
v -0.5 7 -0.5
v -0.5 8 -0.5
v -0.5 15 -0.5
v -0.5 16 -0.5
v -0.5 17 -0.5
v -0.5 18 -0.5
v 0.5 0 -0.5
v 0.5 1 -0.5
v 0.5 4 -0.5
v 0.5 5 -0.5
v 0.5 6 -0.5
v 0.5 15 -0.5
v 0.5 16 -0.5
v 0.5 17 -0.5
v 1.5 3 -0.5
v 1.5 4 -0.5
v 1.5 5 -0.5
v 1.5 13 -0.5
v 1.5 14 -0.5
v 1.5 15 -0.5
v 1.5 16 -0.5
v 2.5 3 -0.5
v 2.5 4 -0.5
v 2.5 13 -0.5
v 2.5 14 -0.5
v 2.5 15 -0.5
v 3.5 13 -0.5
v 3.5 14 -0.5
v -0.5 0 0.5
v 0.5 0 0.5
v -0.5 0 -0.5
v 0.5 0 -0.5
v 1.5 3 0.5
v 2.5 3 0.5
v 1.5 3 -0.5
v 2.5 3 -0.5
v 0.5 4 0.5
v 1.5 4 0.5
v 0.5 4 -0.5
v 1.5 4 -0.5
v -1.5 6 0.5
v -0.5 6 0.5
v -1.5 6 -0.5
v -0.5 6 -0.5
v 2.5 13 0.5
v 3.5 13 0.5
v 2.5 13 -0.5
v 3.5 13 -0.5
v -1.5 15 0.5
v -0.5 15 0.5
v -1.5 15 -0.5
v -0.5 15 -0.5
v -1.5 8 0.5
v -0.5 8 0.5
v -1.5 8 -0.5
v -0.5 8 -0.5
v 2.5 14 0.5
v 3.5 14 0.5
v 2.5 14 -0.5
v 3.5 14 -0.5
v 1.5 15 0.5
v 2.5 15 0.5
v 1.5 15 -0.5
v 2.5 15 -0.5
v 0.5 16 0.5
v 1.5 16 0.5
v 0.5 16 -0.5
v 1.5 16 -0.5
v -0.5 17 0.5
v 0.5 17 0.5
v -0.5 17 -0.5
v 0.5 17 -0.5
v -1.5 18 0.5
v -0.5 18 0.5
v -1.5 18 -0.5
v -0.5 18 -0.5

# faces
f 3/1/1 2/1/1 1/1/1
f 4/1/1 2/1/1 3/1/1
f 5/4/1 4/4/1 3/4/1
f 6/4/1 4/4/1 5/4/1
f 9/4/1 8/4/1 7/4/1
f 10/4/1 8/4/1 9/4/1
f 11/3/1 10/3/1 9/3/1
f 12/3/1 10/3/1 11/3/1
f 15/2/1 14/2/1 13/2/1
f 16/2/1 14/2/1 15/2/1
f 17/1/1 16/1/1 15/1/1
f 18/1/1 16/1/1 17/1/1
f 19/2/1 18/2/1 17/2/1
f 20/2/1 18/2/1 19/2/1
f 21/1/1 20/1/1 19/1/1
f 22/1/1 20/1/1 21/1/1
f 25/4/1 24/4/1 23/4/1
f 26/4/1 24/4/1 25/4/1
f 29/1/1 28/1/1 27/1/1
f 30/1/1 28/1/1 29/1/1
f 31/3/2 32/3/2 33/3/2
f 33/3/2 32/3/2 34/3/2
f 35/2/2 36/2/2 37/2/2
f 37/2/2 36/2/2 38/2/2
f 37/1/2 38/1/2 39/1/2
f 39/1/2 38/1/2 40/1/2
f 41/3/2 42/3/2 43/3/2
f 43/3/2 42/3/2 44/3/2
f 45/3/2 46/3/2 47/3/2
f 47/3/2 46/3/2 48/3/2
f 49/1/2 50/1/2 51/1/2
f 51/1/2 50/1/2 52/1/2
f 51/3/2 52/3/2 53/3/2
f 53/3/2 52/3/2 54/3/2
f 55/3/2 56/3/2 57/3/2
f 57/3/2 56/3/2 58/3/2
f 59/3/2 60/3/2 61/3/2
f 61/3/2 60/3/2 62/3/2
f 73/1/3 64/1/3 63/1/3
f 74/4/3 65/4/3 64/4/3
f 74/1/3 64/1/3 73/1/3
f 75/4/3 65/4/3 74/4/3
f 76/4/3 67/4/3 66/4/3
f 77/4/3 67/4/3 76/4/3
f 78/3/3 68/3/3 67/3/3
f 78/4/3 67/4/3 77/4/3
f 79/3/3 68/3/3 78/3/3
f 80/2/3 70/2/3 69/2/3
f 81/1/3 71/1/3 70/1/3
f 81/2/3 70/2/3 80/2/3
f 82/2/3 72/2/3 71/2/3
f 82/1/3 71/1/3 81/1/3
f 83/1/3 73/1/3 72/1/3
f 83/2/3 72/2/3 82/2/3
f 84/4/3 75/4/3 74/4/3
f 84/1/3 73/1/3 83/1/3
f 84/4/3 77/4/3 76/4/3
f 84/4/3 74/4/3 73/4/3
f 84/4/3 76/4/3 75/4/3
f 85/4/3 77/4/3 84/4/3
f 86/3/3 78/3/3 77/3/3
f 86/4/3 77/4/3 85/4/3
f 87/3/3 78/3/3 86/3/3
f 89/1/3 83/1/3 82/1/3
f 90/4/3 84/4/3 83/4/3
f 90/4/3 85/4/3 84/4/3
f 90/1/3 83/1/3 89/1/3
f 91/4/3 85/4/3 90/4/3
f 92/4/3 85/4/3 91/4/3
f 93/3/3 86/3/3 85/3/3
f 93/4/3 85/4/3 92/4/3
f 94/3/3 86/3/3 93/3/3
f 95/1/3 89/1/3 88/1/3
f 96/3/3 90/3/3 89/3/3
f 96/1/3 89/1/3 95/1/3
f 96/3/3 91/3/3 90/3/3
f 97/4/3 92/4/3 91/4/3
f 97/3/3 91/3/3 96/3/3
f 98/3/3 93/3/3 92/3/3
f 98/4/3 92/4/3 97/4/3
f 99/3/3 93/3/3 98/3/3
f 100/3/3 98/3/3 97/3/3
f 101/3/3 98/3/3 100/3/3
f 102/1/4 103/1/4 112/1/4
f 103/4/4 104/4/4 113/4/4
f 112/1/4 103/1/4 113/1/4
f 113/4/4 104/4/4 114/4/4
f 105/4/4 106/4/4 115/4/4
f 115/4/4 106/4/4 116/4/4
f 106/3/4 107/3/4 117/3/4
f 116/4/4 106/4/4 117/4/4
f 117/3/4 107/3/4 118/3/4
f 108/2/4 109/2/4 119/2/4
f 109/1/4 110/1/4 120/1/4
f 119/2/4 109/2/4 120/2/4
f 110/2/4 111/2/4 121/2/4
f 120/1/4 110/1/4 121/1/4
f 111/1/4 112/1/4 122/1/4
f 121/2/4 111/2/4 122/2/4
f 113/4/4 114/4/4 123/4/4
f 122/1/4 112/1/4 123/1/4
f 115/4/4 116/4/4 123/4/4
f 112/4/4 113/4/4 123/4/4
f 114/4/4 115/4/4 123/4/4
f 123/4/4 116/4/4 124/4/4
f 116/3/4 117/3/4 125/3/4
f 124/4/4 116/4/4 125/4/4
f 125/3/4 117/3/4 126/3/4
f 121/1/4 122/1/4 128/1/4
f 122/4/4 123/4/4 129/4/4
f 123/4/4 124/4/4 129/4/4
f 128/1/4 122/1/4 129/1/4
f 129/4/4 124/4/4 130/4/4
f 130/4/4 124/4/4 131/4/4
f 124/3/4 125/3/4 132/3/4
f 131/4/4 124/4/4 132/4/4
f 132/3/4 125/3/4 133/3/4
f 127/1/4 128/1/4 134/1/4
f 128/3/4 129/3/4 135/3/4
f 134/1/4 128/1/4 135/1/4
f 129/3/4 130/3/4 135/3/4
f 130/4/4 131/4/4 136/4/4
f 135/3/4 130/3/4 136/3/4
f 131/3/4 132/3/4 137/3/4
f 136/4/4 131/4/4 137/4/4
f 137/3/4 132/3/4 138/3/4
f 136/3/4 137/3/4 139/3/4
f 139/3/4 137/3/4 140/3/4
f 143/2/5 142/2/5 141/2/5
f 144/2/5 142/2/5 143/2/5
f 147/1/5 146/1/5 145/1/5
f 148/1/5 146/1/5 147/1/5
f 151/1/5 150/1/5 149/1/5
f 152/1/5 150/1/5 151/1/5
f 155/1/5 154/1/5 153/1/5
f 156/1/5 154/1/5 155/1/5
f 159/3/5 158/3/5 157/3/5
f 160/3/5 158/3/5 159/3/5
f 163/4/5 162/4/5 161/4/5
f 164/4/5 162/4/5 163/4/5
f 165/4/6 166/4/6 167/4/6
f 167/4/6 166/4/6 168/4/6
f 169/3/6 170/3/6 171/3/6
f 171/3/6 170/3/6 172/3/6
f 173/3/6 174/3/6 175/3/6
f 175/3/6 174/3/6 176/3/6
f 177/3/6 178/3/6 179/3/6
f 179/3/6 178/3/6 180/3/6
f 181/3/6 182/3/6 183/3/6
f 183/3/6 182/3/6 184/3/6
f 185/3/6 186/3/6 187/3/6
f 187/3/6 186/3/6 188/3/6
