# MagicaVoxel @ Ephtracy

# group
g MeleeWeapon-8

# material
mtllib MeleeWeapon-8.mtl
usemtl palette

# normals
vn -1 0 0
vn 1 0 0
vn 0 0 1
vn 0 0 -1
vn 0 -1 0
vn 0 1 0

# texcoords
vt 0.787109 0.5
vt 0.791016 0.5
vt 0.794922 0.5
vt 0.798828 0.5

# verts
v -5.5 16 0.5
v -5.5 16 -0.5
v -5.5 17 0.5
v -5.5 17 -0.5
v -4.5 15 0.5
v -4.5 15 -0.5
v -4.5 16 0.5
v -4.5 16 -0.5
v -3.5 14 0.5
v -3.5 14 -0.5
v -3.5 15 0.5
v -3.5 15 -0.5
v -3.5 16 0.5
v -3.5 16 -0.5
v -3.5 17 0.5
v -3.5 17 -0.5
v -1.5 0 0.5
v -1.5 0 -0.5
v -1.5 2 0.5
v -1.5 2 -0.5
v -0.5 2 0.5
v -0.5 2 -0.5
v -0.5 9 1.5
v -0.5 9 0.5
v -0.5 9 -0.5
v -0.5 9 -1.5
v -0.5 10 0.5
v -0.5 10 -0.5
v -0.5 12 1.5
v -0.5 12 0.5
v -0.5 12 -0.5
v -0.5 12 -1.5
v -0.5 14 0.5
v -0.5 14 -0.5
v -0.5 15 0.5
v -0.5 15 -0.5
v -0.5 17 0.5
v -0.5 17 -0.5
v -0.5 19 0.5
v -0.5 19 -0.5
v -0.5 21 0.5
v -0.5 21 -0.5
v 0.5 0 0.5
v 0.5 0 -0.5
v 0.5 2 0.5
v 0.5 2 -0.5
v 1.5 9 0.5
v 1.5 9 -0.5
v 1.5 11 0.5
v 1.5 11 -0.5
v 1.5 12 0.5
v 1.5 12 -0.5
v 1.5 16 0.5
v 1.5 16 -0.5
v 1.5 17 0.5
v 1.5 17 -0.5
v 2.5 13 0.5
v 2.5 13 -0.5
v 2.5 14 0.5
v 2.5 14 -0.5
v 2.5 15 0.5
v 2.5 15 -0.5
v 2.5 16 0.5
v 2.5 16 -0.5
v 3.5 14 0.5
v 3.5 14 -0.5
v 3.5 15 0.5
v 3.5 15 -0.5
v 3.5 17 0.5
v 3.5 17 -0.5
v 3.5 18 0.5
v 3.5 18 -0.5
v 4.5 12 0.5
v 4.5 12 -0.5
v 4.5 13 0.5
v 4.5 13 -0.5
v -4.5 16 0.5
v -4.5 16 -0.5
v -4.5 17 0.5
v -4.5 17 -0.5
v -2.5 14 0.5
v -2.5 14 -0.5
v -2.5 15 0.5
v -2.5 15 -0.5
v -2.5 16 0.5
v -2.5 16 -0.5
v -2.5 17 0.5
v -2.5 17 -0.5
v -0.5 0 0.5
v -0.5 0 -0.5
v -0.5 2 0.5
v -0.5 2 -0.5
v 0.5 2 0.5
v 0.5 2 -0.5
v 0.5 9 1.5
v 0.5 9 0.5
v 0.5 9 -0.5
v 0.5 9 -1.5
v 0.5 10 0.5
v 0.5 10 -0.5
v 0.5 12 1.5
v 0.5 12 0.5
v 0.5 12 -0.5
v 0.5 12 -1.5
v 0.5 14 0.5
v 0.5 14 -0.5
v 0.5 15 0.5
v 0.5 15 -0.5
v 0.5 19 0.5
v 0.5 19 -0.5
v 0.5 21 0.5
v 0.5 21 -0.5
v 1.5 0 0.5
v 1.5 0 -0.5
v 1.5 2 0.5
v 1.5 2 -0.5
v 1.5 18 0.5
v 1.5 18 -0.5
v 1.5 19 0.5
v 1.5 19 -0.5
v 2.5 9 0.5
v 2.5 9 -0.5
v 2.5 11 0.5
v 2.5 11 -0.5
v 2.5 17 0.5
v 2.5 17 -0.5
v 2.5 18 0.5
v 2.5 18 -0.5
v 3.5 11 0.5
v 3.5 11 -0.5
v 3.5 12 0.5
v 3.5 12 -0.5
v 3.5 15 0.5
v 3.5 15 -0.5
v 3.5 16 0.5
v 3.5 16 -0.5
v 3.5 17 0.5
v 3.5 17 -0.5
v 4.5 13 0.5
v 4.5 13 -0.5
v 4.5 15 0.5
v 4.5 15 -0.5
v 4.5 17 0.5
v 4.5 17 -0.5
v 4.5 18 0.5
v 4.5 18 -0.5
v 5.5 12 0.5
v 5.5 12 -0.5
v 5.5 13 0.5
v 5.5 13 -0.5
v -0.5 9 1.5
v -0.5 12 1.5
v 0.5 9 1.5
v 0.5 12 1.5
v -5.5 16 0.5
v -5.5 17 0.5
v -4.5 15 0.5
v -4.5 16 0.5
v -4.5 17 0.5
v -3.5 14 0.5
v -3.5 15 0.5
v -3.5 16 0.5
v -3.5 17 0.5
v -2.5 14 0.5
v -2.5 15 0.5
v -2.5 16 0.5
v -2.5 17 0.5
v -1.5 0 0.5
v -1.5 2 0.5
v -0.5 0 0.5
v -0.5 2 0.5
v -0.5 9 0.5
v -0.5 14 0.5
v -0.5 15 0.5
v -0.5 17 0.5
v -0.5 19 0.5
v -0.5 21 0.5
v 0.5 0 0.5
v 0.5 2 0.5
v 0.5 9 0.5
v 0.5 14 0.5
v 0.5 15 0.5
v 0.5 18 0.5
v 0.5 19 0.5
v 0.5 21 0.5
v 1.5 0 0.5
v 1.5 2 0.5
v 1.5 9 0.5
v 1.5 11 0.5
v 1.5 12 0.5
v 1.5 16 0.5
v 1.5 17 0.5
v 1.5 18 0.5
v 1.5 19 0.5
v 2.5 9 0.5
v 2.5 11 0.5
v 2.5 12 0.5
v 2.5 13 0.5
v 2.5 14 0.5
v 2.5 15 0.5
v 2.5 16 0.5
v 2.5 17 0.5
v 2.5 18 0.5
v 3.5 11 0.5
v 3.5 12 0.5
v 3.5 13 0.5
v 3.5 14 0.5
v 3.5 15 0.5
v 3.5 16 0.5
v 3.5 17 0.5
v 3.5 18 0.5
v 4.5 12 0.5
v 4.5 13 0.5
v 4.5 15 0.5
v 4.5 17 0.5
v 4.5 18 0.5
v 5.5 12 0.5
v 5.5 13 0.5
v -0.5 10 -0.5
v -0.5 12 -0.5
v 0.5 10 -0.5
v 0.5 12 -0.5
v -0.5 10 0.5
v -0.5 12 0.5
v 0.5 10 0.5
v 0.5 12 0.5
v -5.5 16 -0.5
v -5.5 17 -0.5
v -4.5 15 -0.5
v -4.5 16 -0.5
v -4.5 17 -0.5
v -3.5 14 -0.5
v -3.5 15 -0.5
v -3.5 16 -0.5
v -3.5 17 -0.5
v -2.5 14 -0.5
v -2.5 15 -0.5
v -2.5 16 -0.5
v -2.5 17 -0.5
v -1.5 0 -0.5
v -1.5 2 -0.5
v -0.5 0 -0.5
v -0.5 2 -0.5
v -0.5 9 -0.5
v -0.5 14 -0.5
v -0.5 15 -0.5
v -0.5 17 -0.5
v -0.5 19 -0.5
v -0.5 21 -0.5
v 0.5 0 -0.5
v 0.5 2 -0.5
v 0.5 9 -0.5
v 0.5 14 -0.5
v 0.5 15 -0.5
v 0.5 18 -0.5
v 0.5 19 -0.5
v 0.5 21 -0.5
v 1.5 0 -0.5
v 1.5 2 -0.5
v 1.5 9 -0.5
v 1.5 11 -0.5
v 1.5 12 -0.5
v 1.5 16 -0.5
v 1.5 17 -0.5
v 1.5 18 -0.5
v 1.5 19 -0.5
v 2.5 9 -0.5
v 2.5 11 -0.5
v 2.5 12 -0.5
v 2.5 13 -0.5
v 2.5 14 -0.5
v 2.5 15 -0.5
v 2.5 16 -0.5
v 2.5 17 -0.5
v 2.5 18 -0.5
v 3.5 11 -0.5
v 3.5 12 -0.5
v 3.5 13 -0.5
v 3.5 14 -0.5
v 3.5 15 -0.5
v 3.5 16 -0.5
v 3.5 17 -0.5
v 3.5 18 -0.5
v 4.5 12 -0.5
v 4.5 13 -0.5
v 4.5 15 -0.5
v 4.5 17 -0.5
v 4.5 18 -0.5
v 5.5 12 -0.5
v 5.5 13 -0.5
v -0.5 9 -1.5
v -0.5 12 -1.5
v 0.5 9 -1.5
v 0.5 12 -1.5
v -1.5 0 0.5
v -0.5 0 0.5
v 0.5 0 0.5
v 1.5 0 0.5
v -1.5 0 -0.5
v -0.5 0 -0.5
v 0.5 0 -0.5
v 1.5 0 -0.5
v -0.5 2 0.5
v 0.5 2 0.5
v -0.5 2 -0.5
v 0.5 2 -0.5
v -0.5 9 1.5
v 0.5 9 1.5
v -0.5 9 0.5
v 0.5 9 0.5
v 1.5 9 0.5
v 2.5 9 0.5
v -0.5 9 -0.5
v 0.5 9 -0.5
v 1.5 9 -0.5
v 2.5 9 -0.5
v -0.5 9 -1.5
v 0.5 9 -1.5
v 2.5 11 0.5
v 3.5 11 0.5
v 2.5 11 -0.5
v 3.5 11 -0.5
v 4.5 12 0.5
v 5.5 12 0.5
v 4.5 12 -0.5
v 5.5 12 -0.5
v 2.5 13 0.5
v 3.5 13 0.5
v 4.5 13 0.5
v 2.5 13 -0.5
v 3.5 13 -0.5
v 4.5 13 -0.5
v -3.5 14 0.5
v -2.5 14 0.5
v -0.5 14 0.5
v 0.5 14 0.5
v -3.5 14 -0.5
v -2.5 14 -0.5
v -0.5 14 -0.5
v 0.5 14 -0.5
v -4.5 15 0.5
v -3.5 15 0.5
v 2.5 15 0.5
v 3.5 15 0.5
v -4.5 15 -0.5
v -3.5 15 -0.5
v 2.5 15 -0.5
v 3.5 15 -0.5
v -5.5 16 0.5
v -4.5 16 0.5
v 1.5 16 0.5
v 2.5 16 0.5
v -5.5 16 -0.5
v -4.5 16 -0.5
v 1.5 16 -0.5
v 2.5 16 -0.5
v -0.5 17 0.5
v 1.5 17 0.5
v 3.5 17 0.5
v 4.5 17 0.5
v -0.5 17 -0.5
v 1.5 17 -0.5
v 3.5 17 -0.5
v 4.5 17 -0.5
v -1.5 2 0.5
v -0.5 2 0.5
v 0.5 2 0.5
v 1.5 2 0.5
v -1.5 2 -0.5
v -0.5 2 -0.5
v 0.5 2 -0.5
v 1.5 2 -0.5
v -0.5 10 0.5
v 0.5 10 0.5
v -0.5 10 -0.5
v 0.5 10 -0.5
v -0.5 12 1.5
v 0.5 12 1.5
v -0.5 12 0.5
v 0.5 12 0.5
v 1.5 12 0.5
v 2.5 12 0.5
v 3.5 12 0.5
v -0.5 12 -0.5
v 0.5 12 -0.5
v 1.5 12 -0.5
v 2.5 12 -0.5
v 3.5 12 -0.5
v -0.5 12 -1.5
v 0.5 12 -1.5
v 4.5 13 0.5
v 5.5 13 0.5
v 4.5 13 -0.5
v 5.5 13 -0.5
v 2.5 14 0.5
v 3.5 14 0.5
v 2.5 14 -0.5
v 3.5 14 -0.5
v -0.5 15 0.5
v 0.5 15 0.5
v 3.5 15 0.5
v 4.5 15 0.5
v -0.5 15 -0.5
v 0.5 15 -0.5
v 3.5 15 -0.5
v 4.5 15 -0.5
v -4.5 16 0.5
v -3.5 16 0.5
v -4.5 16 -0.5
v -3.5 16 -0.5
v -5.5 17 0.5
v -4.5 17 0.5
v -3.5 17 0.5
v -2.5 17 0.5
v 2.5 17 0.5
v 3.5 17 0.5
v -5.5 17 -0.5
v -4.5 17 -0.5
v -3.5 17 -0.5
v -2.5 17 -0.5
v 2.5 17 -0.5
v 3.5 17 -0.5
v 1.5 18 0.5
v 2.5 18 0.5
v 3.5 18 0.5
v 4.5 18 0.5
v 1.5 18 -0.5
v 2.5 18 -0.5
v 3.5 18 -0.5
v 4.5 18 -0.5
v 0.5 19 0.5
v 1.5 19 0.5
v 0.5 19 -0.5
v 1.5 19 -0.5
v -0.5 21 0.5
v 0.5 21 0.5
v -0.5 21 -0.5
v 0.5 21 -0.5

# faces
f 3/3/1 2/3/1 1/3/1
f 4/3/1 2/3/1 3/3/1
f 7/3/1 6/3/1 5/3/1
f 8/3/1 6/3/1 7/3/1
f 11/3/1 10/3/1 9/3/1
f 12/3/1 10/3/1 11/3/1
f 15/3/1 14/3/1 13/3/1
f 16/3/1 14/3/1 15/3/1
f 19/2/1 18/2/1 17/2/1
f 20/2/1 18/2/1 19/2/1
f 24/1/1 22/1/1 21/1/1
f 25/1/1 22/1/1 24/1/1
f 27/2/1 24/2/1 23/2/1
f 27/1/1 25/1/1 24/1/1
f 28/2/1 26/2/1 25/2/1
f 28/1/1 25/1/1 27/1/1
f 29/2/1 27/2/1 23/2/1
f 30/2/1 27/2/1 29/2/1
f 31/2/1 26/2/1 28/2/1
f 32/2/1 26/2/1 31/2/1
f 35/4/1 34/4/1 33/4/1
f 36/4/1 34/4/1 35/4/1
f 39/2/1 38/2/1 37/2/1
f 40/2/1 38/2/1 39/2/1
f 41/3/1 40/3/1 39/3/1
f 42/3/1 40/3/1 41/3/1
f 45/2/1 44/2/1 43/2/1
f 46/2/1 44/2/1 45/2/1
f 49/3/1 48/3/1 47/3/1
f 50/3/1 48/3/1 49/3/1
f 51/2/1 50/2/1 49/2/1
f 52/2/1 50/2/1 51/2/1
f 55/2/1 54/2/1 53/2/1
f 56/2/1 54/2/1 55/2/1
f 59/2/1 58/2/1 57/2/1
f 60/2/1 58/2/1 59/2/1
f 63/2/1 62/2/1 61/2/1
f 64/2/1 62/2/1 63/2/1
f 67/3/1 66/3/1 65/3/1
f 68/3/1 66/3/1 67/3/1
f 71/3/1 70/3/1 69/3/1
f 72/3/1 70/3/1 71/3/1
f 75/3/1 74/3/1 73/3/1
f 76/3/1 74/3/1 75/3/1
f 77/3/2 78/3/2 79/3/2
f 79/3/2 78/3/2 80/3/2
f 81/3/2 82/3/2 83/3/2
f 83/3/2 82/3/2 84/3/2
f 83/2/2 84/2/2 85/2/2
f 85/2/2 84/2/2 86/2/2
f 85/3/2 86/3/2 87/3/2
f 87/3/2 86/3/2 88/3/2
f 89/2/2 90/2/2 91/2/2
f 91/2/2 90/2/2 92/2/2
f 93/1/2 94/1/2 96/1/2
f 96/1/2 94/1/2 97/1/2
f 95/2/2 96/2/2 99/2/2
f 96/1/2 97/1/2 99/1/2
f 97/2/2 98/2/2 100/2/2
f 99/1/2 97/1/2 100/1/2
f 95/2/2 99/2/2 101/2/2
f 101/2/2 99/2/2 102/2/2
f 100/2/2 98/2/2 103/2/2
f 103/2/2 98/2/2 104/2/2
f 105/4/2 106/4/2 107/4/2
f 107/4/2 106/4/2 108/4/2
f 109/3/2 110/3/2 111/3/2
f 111/3/2 110/3/2 112/3/2
f 113/2/2 114/2/2 115/2/2
f 115/2/2 114/2/2 116/2/2
f 117/3/2 118/3/2 119/3/2
f 119/3/2 118/3/2 120/3/2
f 121/3/2 122/3/2 123/3/2
f 123/3/2 122/3/2 124/3/2
f 125/3/2 126/3/2 127/3/2
f 127/3/2 126/3/2 128/3/2
f 129/3/2 130/3/2 131/3/2
f 131/3/2 130/3/2 132/3/2
f 133/2/2 134/2/2 135/2/2
f 135/2/2 134/2/2 136/2/2
f 135/3/2 136/3/2 137/3/2
f 137/3/2 136/3/2 138/3/2
f 139/3/2 140/3/2 141/3/2
f 141/3/2 140/3/2 142/3/2
f 143/3/2 144/3/2 145/3/2
f 145/3/2 144/3/2 146/3/2
f 147/3/2 148/3/2 149/3/2
f 149/3/2 148/3/2 150/3/2
f 153/2/3 152/2/3 151/2/3
f 154/2/3 152/2/3 153/2/3
f 158/3/3 156/3/3 155/3/3
f 159/3/3 156/3/3 158/3/3
f 161/3/3 158/3/3 157/3/3
f 162/3/3 158/3/3 161/3/3
f 164/3/3 161/3/3 160/3/3
f 165/2/3 162/2/3 161/2/3
f 165/3/3 161/3/3 164/3/3
f 166/3/3 163/3/3 162/3/3
f 166/2/3 162/2/3 165/2/3
f 167/3/3 163/3/3 166/3/3
f 170/2/3 169/2/3 168/2/3
f 171/2/3 169/2/3 170/2/3
f 179/1/3 172/1/3 171/1/3
f 180/1/3 172/1/3 179/1/3
f 181/4/3 174/4/3 173/4/3
f 182/4/3 174/4/3 181/4/3
f 183/2/3 176/2/3 175/2/3
f 184/3/3 177/3/3 176/3/3
f 184/2/3 176/2/3 183/2/3
f 185/3/3 177/3/3 184/3/3
f 186/2/3 179/2/3 178/2/3
f 187/2/3 179/2/3 186/2/3
f 192/2/3 183/2/3 175/2/3
f 193/3/3 184/3/3 183/3/3
f 193/2/3 183/2/3 192/2/3
f 194/3/3 184/3/3 193/3/3
f 195/3/3 189/3/3 188/3/3
f 196/2/3 190/2/3 189/2/3
f 196/3/3 189/3/3 195/3/3
f 197/2/3 190/2/3 196/2/3
f 201/2/3 192/2/3 191/2/3
f 202/3/3 193/3/3 192/3/3
f 202/2/3 192/2/3 201/2/3
f 203/3/3 193/3/3 202/3/3
f 204/3/3 197/3/3 196/3/3
f 205/3/3 197/3/3 204/3/3
f 206/2/3 199/2/3 198/2/3
f 207/2/3 199/2/3 206/2/3
f 208/2/3 201/2/3 200/2/3
f 209/3/3 202/3/3 201/3/3
f 209/2/3 201/2/3 208/2/3
f 210/3/3 202/3/3 209/3/3
f 213/3/3 207/3/3 206/3/3
f 213/3/3 208/3/3 207/3/3
f 214/3/3 208/3/3 213/3/3
f 215/3/3 211/3/3 210/3/3
f 216/3/3 211/3/3 215/3/3
f 217/3/3 213/3/3 212/3/3
f 218/3/3 213/3/3 217/3/3
f 221/2/3 220/2/3 219/2/3
f 222/2/3 220/2/3 221/2/3
f 223/2/4 224/2/4 225/2/4
f 225/2/4 224/2/4 226/2/4
f 227/3/4 228/3/4 230/3/4
f 230/3/4 228/3/4 231/3/4
f 229/3/4 230/3/4 233/3/4
f 233/3/4 230/3/4 234/3/4
f 232/3/4 233/3/4 236/3/4
f 233/2/4 234/2/4 237/2/4
f 236/3/4 233/3/4 237/3/4
f 234/3/4 235/3/4 238/3/4
f 237/2/4 234/2/4 238/2/4
f 238/3/4 235/3/4 239/3/4
f 240/2/4 241/2/4 242/2/4
f 242/2/4 241/2/4 243/2/4
f 243/1/4 244/1/4 251/1/4
f 251/1/4 244/1/4 252/1/4
f 245/4/4 246/4/4 253/4/4
f 253/4/4 246/4/4 254/4/4
f 247/2/4 248/2/4 255/2/4
f 248/3/4 249/3/4 256/3/4
f 255/2/4 248/2/4 256/2/4
f 256/3/4 249/3/4 257/3/4
f 250/2/4 251/2/4 258/2/4
f 258/2/4 251/2/4 259/2/4
f 247/2/4 255/2/4 264/2/4
f 255/3/4 256/3/4 265/3/4
f 264/2/4 255/2/4 265/2/4
f 265/3/4 256/3/4 266/3/4
f 260/3/4 261/3/4 267/3/4
f 261/2/4 262/2/4 268/2/4
f 267/3/4 261/3/4 268/3/4
f 268/2/4 262/2/4 269/2/4
f 263/2/4 264/2/4 273/2/4
f 264/3/4 265/3/4 274/3/4
f 273/2/4 264/2/4 274/2/4
f 274/3/4 265/3/4 275/3/4
f 268/3/4 269/3/4 276/3/4
f 276/3/4 269/3/4 277/3/4
f 270/2/4 271/2/4 278/2/4
f 278/2/4 271/2/4 279/2/4
f 272/2/4 273/2/4 280/2/4
f 273/3/4 274/3/4 281/3/4
f 280/2/4 273/2/4 281/2/4
f 281/3/4 274/3/4 282/3/4
f 278/3/4 279/3/4 285/3/4
f 279/3/4 280/3/4 285/3/4
f 285/3/4 280/3/4 286/3/4
f 282/3/4 283/3/4 287/3/4
f 287/3/4 283/3/4 288/3/4
f 284/3/4 285/3/4 289/3/4
f 289/3/4 285/3/4 290/3/4
f 291/2/4 292/2/4 293/2/4
f 293/2/4 292/2/4 294/2/4
f 299/2/5 296/2/5 295/2/5
f 300/2/5 296/2/5 299/2/5
f 301/2/5 298/2/5 297/2/5
f 302/2/5 298/2/5 301/2/5
f 305/1/5 304/1/5 303/1/5
f 306/1/5 304/1/5 305/1/5
f 309/2/5 308/2/5 307/2/5
f 310/2/5 308/2/5 309/2/5
f 315/3/5 312/3/5 311/3/5
f 316/3/5 312/3/5 315/3/5
f 317/2/5 314/2/5 313/2/5
f 318/2/5 314/2/5 317/2/5
f 321/3/5 320/3/5 319/3/5
f 322/3/5 320/3/5 321/3/5
f 325/3/5 324/3/5 323/3/5
f 326/3/5 324/3/5 325/3/5
f 330/2/5 328/2/5 327/2/5
f 331/3/5 329/3/5 328/3/5
f 331/2/5 328/2/5 330/2/5
f 332/3/5 329/3/5 331/3/5
f 337/3/5 334/3/5 333/3/5
f 338/3/5 334/3/5 337/3/5
f 339/4/5 336/4/5 335/4/5
f 340/4/5 336/4/5 339/4/5
f 345/3/5 342/3/5 341/3/5
f 346/3/5 342/3/5 345/3/5
f 347/2/5 344/2/5 343/2/5
f 348/2/5 344/2/5 347/2/5
f 353/3/5 350/3/5 349/3/5
f 354/3/5 350/3/5 353/3/5
f 355/2/5 352/2/5 351/2/5
f 356/2/5 352/2/5 355/2/5
f 361/2/5 358/2/5 357/2/5
f 362/2/5 358/2/5 361/2/5
f 363/3/5 360/3/5 359/3/5
f 364/3/5 360/3/5 363/3/5
f 365/2/6 366/2/6 369/2/6
f 369/2/6 366/2/6 370/2/6
f 367/2/6 368/2/6 371/2/6
f 371/2/6 368/2/6 372/2/6
f 373/1/6 374/1/6 375/1/6
f 375/1/6 374/1/6 376/1/6
f 377/2/6 378/2/6 379/2/6
f 379/2/6 378/2/6 380/2/6
f 381/2/6 382/2/6 386/2/6
f 382/3/6 383/3/6 387/3/6
f 386/2/6 382/2/6 387/2/6
f 387/3/6 383/3/6 388/3/6
f 384/2/6 385/2/6 389/2/6
f 389/2/6 385/2/6 390/2/6
f 391/3/6 392/3/6 393/3/6
f 393/3/6 392/3/6 394/3/6
f 395/2/6 396/2/6 397/2/6
f 397/2/6 396/2/6 398/2/6
f 399/4/6 400/4/6 403/4/6
f 403/4/6 400/4/6 404/4/6
f 401/3/6 402/3/6 405/3/6
f 405/3/6 402/3/6 406/3/6
f 407/3/6 408/3/6 409/3/6
f 409/3/6 408/3/6 410/3/6
f 411/3/6 412/3/6 417/3/6
f 417/3/6 412/3/6 418/3/6
f 413/3/6 414/3/6 419/3/6
f 419/3/6 414/3/6 420/3/6
f 415/3/6 416/3/6 421/3/6
f 421/3/6 416/3/6 422/3/6
f 423/3/6 424/3/6 427/3/6
f 427/3/6 424/3/6 428/3/6
f 425/3/6 426/3/6 429/3/6
f 429/3/6 426/3/6 430/3/6
f 431/3/6 432/3/6 433/3/6
f 433/3/6 432/3/6 434/3/6
f 435/3/6 436/3/6 437/3/6
f 437/3/6 436/3/6 438/3/6
