# MagicaVoxel @ Ephtracy

# group
g FireShotgun-1

# material
mtllib FireShotgun-1.mtl
usemtl palette

# normals
vn -1 0 0
vn 1 0 0
vn 0 0 1
vn 0 0 -1
vn 0 -1 0
vn 0 1 0

# texcoords
vt 0.908203 0.5
vt 0.939453 0.5
vt 0.943359 0.5
vt 0.970703 0.5
vt 0.974609 0.5
vt 0.982422 0.5

# verts
v -4.5 0 3.5
v -4.5 0 -3.5
v -4.5 1 3.5
v -4.5 1 -3.5
v -4.5 2 3.5
v -4.5 2 -3.5
v -4.5 3 3.5
v -4.5 3 -3.5
v -3.5 3 2.5
v -3.5 3 1.5
v -3.5 3 0.5
v -3.5 3 -0.5
v -3.5 3 -1.5
v -3.5 3 -2.5
v -3.5 4 2.5
v -3.5 4 1.5
v -3.5 4 0.5
v -3.5 4 -0.5
v -3.5 4 -1.5
v -3.5 4 -2.5
v -1.5 1 2.5
v -1.5 1 1.5
v -1.5 1 0.5
v -1.5 1 -0.5
v -1.5 1 -1.5
v -1.5 1 -2.5
v -1.5 2 2.5
v -1.5 2 1.5
v -1.5 2 0.5
v -1.5 2 -0.5
v -1.5 2 -1.5
v -1.5 2 -2.5
v -1.5 3 2.5
v -1.5 3 1.5
v -1.5 3 0.5
v -1.5 3 -0.5
v -1.5 3 -1.5
v -1.5 3 -2.5
v -1.5 4 2.5
v -1.5 4 1.5
v -1.5 4 0.5
v -1.5 4 -0.5
v -1.5 4 -1.5
v -1.5 4 -2.5
v 0.5 1 2.5
v 0.5 1 1.5
v 0.5 1 0.5
v 0.5 1 -0.5
v 0.5 1 -1.5
v 0.5 1 -2.5
v 0.5 2 2.5
v 0.5 2 1.5
v 0.5 2 0.5
v 0.5 2 -0.5
v 0.5 2 -1.5
v 0.5 2 -2.5
v 0.5 3 2.5
v 0.5 3 1.5
v 0.5 3 0.5
v 0.5 3 -0.5
v 0.5 3 -1.5
v 0.5 3 -2.5
v 0.5 4 2.5
v 0.5 4 1.5
v 0.5 4 0.5
v 0.5 4 -0.5
v 0.5 4 -1.5
v 0.5 4 -2.5
v 2.5 1 2.5
v 2.5 1 1.5
v 2.5 1 0.5
v 2.5 1 -0.5
v 2.5 1 -1.5
v 2.5 1 -2.5
v 2.5 2 2.5
v 2.5 2 1.5
v 2.5 2 0.5
v 2.5 2 -0.5
v 2.5 2 -1.5
v 2.5 2 -2.5
v 2.5 3 2.5
v 2.5 3 1.5
v 2.5 3 0.5
v 2.5 3 -0.5
v 2.5 3 -1.5
v 2.5 3 -2.5
v 2.5 4 2.5
v 2.5 4 1.5
v 2.5 4 0.5
v 2.5 4 -0.5
v 2.5 4 -1.5
v 2.5 4 -2.5
v 3.5 1 1.5
v 3.5 1 0.5
v 3.5 1 -0.5
v 3.5 1 -1.5
v 3.5 2 1.5
v 3.5 2 0.5
v 3.5 2 -0.5
v 3.5 2 -1.5
v 3.5 3 1.5
v 3.5 3 0.5
v 3.5 3 -0.5
v 3.5 3 -1.5
v -3.5 1 1.5
v -3.5 1 0.5
v -3.5 1 -0.5
v -3.5 1 -1.5
v -3.5 2 1.5
v -3.5 2 0.5
v -3.5 2 -0.5
v -3.5 2 -1.5
v -3.5 3 1.5
v -3.5 3 0.5
v -3.5 3 -0.5
v -3.5 3 -1.5
v -2.5 1 2.5
v -2.5 1 1.5
v -2.5 1 0.5
v -2.5 1 -0.5
v -2.5 1 -1.5
v -2.5 1 -2.5
v -2.5 2 2.5
v -2.5 2 1.5
v -2.5 2 0.5
v -2.5 2 -0.5
v -2.5 2 -1.5
v -2.5 2 -2.5
v -2.5 3 2.5
v -2.5 3 1.5
v -2.5 3 0.5
v -2.5 3 -0.5
v -2.5 3 -1.5
v -2.5 3 -2.5
v -2.5 4 2.5
v -2.5 4 1.5
v -2.5 4 0.5
v -2.5 4 -0.5
v -2.5 4 -1.5
v -2.5 4 -2.5
v -0.5 1 2.5
v -0.5 1 1.5
v -0.5 1 0.5
v -0.5 1 -0.5
v -0.5 1 -1.5
v -0.5 1 -2.5
v -0.5 2 2.5
v -0.5 2 1.5
v -0.5 2 0.5
v -0.5 2 -0.5
v -0.5 2 -1.5
v -0.5 2 -2.5
v -0.5 3 2.5
v -0.5 3 1.5
v -0.5 3 0.5
v -0.5 3 -0.5
v -0.5 3 -1.5
v -0.5 3 -2.5
v -0.5 4 2.5
v -0.5 4 1.5
v -0.5 4 0.5
v -0.5 4 -0.5
v -0.5 4 -1.5
v -0.5 4 -2.5
v 1.5 1 2.5
v 1.5 1 1.5
v 1.5 1 0.5
v 1.5 1 -0.5
v 1.5 1 -1.5
v 1.5 1 -2.5
v 1.5 2 2.5
v 1.5 2 1.5
v 1.5 2 0.5
v 1.5 2 -0.5
v 1.5 2 -1.5
v 1.5 2 -2.5
v 1.5 3 2.5
v 1.5 3 1.5
v 1.5 3 0.5
v 1.5 3 -0.5
v 1.5 3 -1.5
v 1.5 3 -2.5
v 1.5 4 2.5
v 1.5 4 1.5
v 1.5 4 0.5
v 1.5 4 -0.5
v 1.5 4 -1.5
v 1.5 4 -2.5
v 3.5 3 2.5
v 3.5 3 1.5
v 3.5 3 0.5
v 3.5 3 -0.5
v 3.5 3 -1.5
v 3.5 3 -2.5
v 3.5 4 2.5
v 3.5 4 1.5
v 3.5 4 0.5
v 3.5 4 -0.5
v 3.5 4 -1.5
v 3.5 4 -2.5
v 4.5 0 3.5
v 4.5 0 -3.5
v 4.5 1 3.5
v 4.5 1 -3.5
v 4.5 2 3.5
v 4.5 2 -3.5
v 4.5 3 3.5
v 4.5 3 -3.5
v -4.5 0 3.5
v -4.5 1 3.5
v -4.5 2 3.5
v -4.5 3 3.5
v 4.5 0 3.5
v 4.5 1 3.5
v 4.5 2 3.5
v 4.5 3 3.5
v -3.5 3 2.5
v -3.5 4 2.5
v -2.5 3 2.5
v -2.5 4 2.5
v -1.5 3 2.5
v -1.5 4 2.5
v -0.5 3 2.5
v -0.5 4 2.5
v 0.5 3 2.5
v 0.5 4 2.5
v 1.5 3 2.5
v 1.5 4 2.5
v 2.5 3 2.5
v 2.5 4 2.5
v 3.5 3 2.5
v 3.5 4 2.5
v -3.5 1 0.5
v -3.5 2 0.5
v -3.5 3 0.5
v -3.5 4 0.5
v -2.5 1 0.5
v -2.5 2 0.5
v -2.5 3 0.5
v -2.5 4 0.5
v -1.5 1 0.5
v -1.5 2 0.5
v -1.5 3 0.5
v -1.5 4 0.5
v -0.5 1 0.5
v -0.5 2 0.5
v -0.5 3 0.5
v -0.5 4 0.5
v 0.5 1 0.5
v 0.5 2 0.5
v 0.5 3 0.5
v 0.5 4 0.5
v 1.5 1 0.5
v 1.5 2 0.5
v 1.5 3 0.5
v 1.5 4 0.5
v 2.5 1 0.5
v 2.5 2 0.5
v 2.5 3 0.5
v 2.5 4 0.5
v 3.5 1 0.5
v 3.5 2 0.5
v 3.5 3 0.5
v 3.5 4 0.5
v -3.5 1 -1.5
v -3.5 2 -1.5
v -3.5 3 -1.5
v -3.5 4 -1.5
v -2.5 1 -1.5
v -2.5 2 -1.5
v -2.5 3 -1.5
v -2.5 4 -1.5
v -1.5 1 -1.5
v -1.5 2 -1.5
v -1.5 3 -1.5
v -1.5 4 -1.5
v -0.5 1 -1.5
v -0.5 2 -1.5
v -0.5 3 -1.5
v -0.5 4 -1.5
v 0.5 1 -1.5
v 0.5 2 -1.5
v 0.5 3 -1.5
v 0.5 4 -1.5
v 1.5 1 -1.5
v 1.5 2 -1.5
v 1.5 3 -1.5
v 1.5 4 -1.5
v 2.5 1 -1.5
v 2.5 2 -1.5
v 2.5 3 -1.5
v 2.5 4 -1.5
v 3.5 1 -1.5
v 3.5 2 -1.5
v 3.5 3 -1.5
v 3.5 4 -1.5
v -2.5 1 -2.5
v -2.5 2 -2.5
v -2.5 3 -2.5
v -1.5 1 -2.5
v -1.5 2 -2.5
v -1.5 3 -2.5
v -0.5 1 -2.5
v -0.5 2 -2.5
v -0.5 3 -2.5
v 0.5 1 -2.5
v 0.5 2 -2.5
v 0.5 3 -2.5
v 1.5 1 -2.5
v 1.5 2 -2.5
v 1.5 3 -2.5
v 2.5 1 -2.5
v 2.5 2 -2.5
v 2.5 3 -2.5
v -2.5 1 2.5
v -2.5 2 2.5
v -2.5 3 2.5
v -1.5 1 2.5
v -1.5 2 2.5
v -1.5 3 2.5
v -0.5 1 2.5
v -0.5 2 2.5
v -0.5 3 2.5
v 0.5 1 2.5
v 0.5 2 2.5
v 0.5 3 2.5
v 1.5 1 2.5
v 1.5 2 2.5
v 1.5 3 2.5
v 2.5 1 2.5
v 2.5 2 2.5
v 2.5 3 2.5
v -3.5 1 1.5
v -3.5 2 1.5
v -3.5 3 1.5
v -3.5 4 1.5
v -2.5 1 1.5
v -2.5 2 1.5
v -2.5 3 1.5
v -2.5 4 1.5
v -1.5 1 1.5
v -1.5 2 1.5
v -1.5 3 1.5
v -1.5 4 1.5
v -0.5 1 1.5
v -0.5 2 1.5
v -0.5 3 1.5
v -0.5 4 1.5
v 0.5 1 1.5
v 0.5 2 1.5
v 0.5 3 1.5
v 0.5 4 1.5
v 1.5 1 1.5
v 1.5 2 1.5
v 1.5 3 1.5
v 1.5 4 1.5
v 2.5 1 1.5
v 2.5 2 1.5
v 2.5 3 1.5
v 2.5 4 1.5
v 3.5 1 1.5
v 3.5 2 1.5
v 3.5 3 1.5
v 3.5 4 1.5
v -3.5 1 -0.5
v -3.5 2 -0.5
v -3.5 3 -0.5
v -3.5 4 -0.5
v -2.5 1 -0.5
v -2.5 2 -0.5
v -2.5 3 -0.5
v -2.5 4 -0.5
v -1.5 1 -0.5
v -1.5 2 -0.5
v -1.5 3 -0.5
v -1.5 4 -0.5
v -0.5 1 -0.5
v -0.5 2 -0.5
v -0.5 3 -0.5
v -0.5 4 -0.5
v 0.5 1 -0.5
v 0.5 2 -0.5
v 0.5 3 -0.5
v 0.5 4 -0.5
v 1.5 1 -0.5
v 1.5 2 -0.5
v 1.5 3 -0.5
v 1.5 4 -0.5
v 2.5 1 -0.5
v 2.5 2 -0.5
v 2.5 3 -0.5
v 2.5 4 -0.5
v 3.5 1 -0.5
v 3.5 2 -0.5
v 3.5 3 -0.5
v 3.5 4 -0.5
v -3.5 3 -2.5
v -3.5 4 -2.5
v -2.5 3 -2.5
v -2.5 4 -2.5
v -1.5 3 -2.5
v -1.5 4 -2.5
v -0.5 3 -2.5
v -0.5 4 -2.5
v 0.5 3 -2.5
v 0.5 4 -2.5
v 1.5 3 -2.5
v 1.5 4 -2.5
v 2.5 3 -2.5
v 2.5 4 -2.5
v 3.5 3 -2.5
v 3.5 4 -2.5
v -4.5 0 -3.5
v -4.5 1 -3.5
v -4.5 2 -3.5
v -4.5 3 -3.5
v 4.5 0 -3.5
v 4.5 1 -3.5
v 4.5 2 -3.5
v 4.5 3 -3.5
v -4.5 0 3.5
v 4.5 0 3.5
v -4.5 0 -3.5
v 4.5 0 -3.5
v -2.5 1 2.5
v -1.5 1 2.5
v -0.5 1 2.5
v 0.5 1 2.5
v 1.5 1 2.5
v 2.5 1 2.5
v -3.5 1 1.5
v -2.5 1 1.5
v -1.5 1 1.5
v -0.5 1 1.5
v 0.5 1 1.5
v 1.5 1 1.5
v 2.5 1 1.5
v 3.5 1 1.5
v -3.5 1 0.5
v -2.5 1 0.5
v -1.5 1 0.5
v -0.5 1 0.5
v 0.5 1 0.5
v 1.5 1 0.5
v 2.5 1 0.5
v 3.5 1 0.5
v -3.5 1 -0.5
v -2.5 1 -0.5
v -1.5 1 -0.5
v -0.5 1 -0.5
v 0.5 1 -0.5
v 1.5 1 -0.5
v 2.5 1 -0.5
v 3.5 1 -0.5
v -3.5 1 -1.5
v -2.5 1 -1.5
v -1.5 1 -1.5
v -0.5 1 -1.5
v 0.5 1 -1.5
v 1.5 1 -1.5
v 2.5 1 -1.5
v 3.5 1 -1.5
v -2.5 1 -2.5
v -1.5 1 -2.5
v -0.5 1 -2.5
v 0.5 1 -2.5
v 1.5 1 -2.5
v 2.5 1 -2.5
v -4.5 3 3.5
v 4.5 3 3.5
v -3.5 3 2.5
v -2.5 3 2.5
v -1.5 3 2.5
v -0.5 3 2.5
v 0.5 3 2.5
v 1.5 3 2.5
v 2.5 3 2.5
v 3.5 3 2.5
v -3.5 3 1.5
v 3.5 3 1.5
v -3.5 3 0.5
v 3.5 3 0.5
v -3.5 3 -0.5
v 3.5 3 -0.5
v -3.5 3 -1.5
v 3.5 3 -1.5
v -3.5 3 -2.5
v -2.5 3 -2.5
v -1.5 3 -2.5
v -0.5 3 -2.5
v 0.5 3 -2.5
v 1.5 3 -2.5
v 2.5 3 -2.5
v 3.5 3 -2.5
v -4.5 3 -3.5
v 4.5 3 -3.5
v -3.5 4 2.5
v -2.5 4 2.5
v -1.5 4 2.5
v -0.5 4 2.5
v 0.5 4 2.5
v 1.5 4 2.5
v 2.5 4 2.5
v 3.5 4 2.5
v -3.5 4 1.5
v -2.5 4 1.5
v -1.5 4 1.5
v -0.5 4 1.5
v 0.5 4 1.5
v 1.5 4 1.5
v 2.5 4 1.5
v 3.5 4 1.5
v -3.5 4 0.5
v -2.5 4 0.5
v -1.5 4 0.5
v -0.5 4 0.5
v 0.5 4 0.5
v 1.5 4 0.5
v 2.5 4 0.5
v 3.5 4 0.5
v -3.5 4 -0.5
v -2.5 4 -0.5
v -1.5 4 -0.5
v -0.5 4 -0.5
v 0.5 4 -0.5
v 1.5 4 -0.5
v 2.5 4 -0.5
v 3.5 4 -0.5
v -3.5 4 -1.5
v -2.5 4 -1.5
v -1.5 4 -1.5
v -0.5 4 -1.5
v 0.5 4 -1.5
v 1.5 4 -1.5
v 2.5 4 -1.5
v 3.5 4 -1.5
v -3.5 4 -2.5
v -2.5 4 -2.5
v -1.5 4 -2.5
v -0.5 4 -2.5
v 0.5 4 -2.5
v 1.5 4 -2.5
v 2.5 4 -2.5
v 3.5 4 -2.5

# faces
f 3/1/1 2/1/1 1/1/1
f 4/1/1 2/1/1 3/1/1
f 5/2/1 4/2/1 3/2/1
f 6/2/1 4/2/1 5/2/1
f 7/4/1 6/4/1 5/4/1
f 8/4/1 6/4/1 7/4/1
f 15/6/1 10/6/1 9/6/1
f 16/6/1 10/6/1 15/6/1
f 17/6/1 12/6/1 11/6/1
f 18/6/1 12/6/1 17/6/1
f 19/6/1 14/6/1 13/6/1
f 20/6/1 14/6/1 19/6/1
f 27/5/1 22/5/1 21/5/1
f 28/5/1 22/5/1 27/5/1
f 29/5/1 24/5/1 23/5/1
f 30/5/1 24/5/1 29/5/1
f 31/5/1 26/5/1 25/5/1
f 32/5/1 26/5/1 31/5/1
f 33/3/1 28/3/1 27/3/1
f 34/3/1 28/3/1 33/3/1
f 35/3/1 30/3/1 29/3/1
f 36/3/1 30/3/1 35/3/1
f 37/3/1 32/3/1 31/3/1
f 38/3/1 32/3/1 37/3/1
f 39/6/1 34/6/1 33/6/1
f 40/6/1 34/6/1 39/6/1
f 41/6/1 36/6/1 35/6/1
f 42/6/1 36/6/1 41/6/1
f 43/6/1 38/6/1 37/6/1
f 44/6/1 38/6/1 43/6/1
f 51/5/1 46/5/1 45/5/1
f 52/5/1 46/5/1 51/5/1
f 53/5/1 48/5/1 47/5/1
f 54/5/1 48/5/1 53/5/1
f 55/5/1 50/5/1 49/5/1
f 56/5/1 50/5/1 55/5/1
f 57/3/1 52/3/1 51/3/1
f 58/3/1 52/3/1 57/3/1
f 59/3/1 54/3/1 53/3/1
f 60/3/1 54/3/1 59/3/1
f 61/3/1 56/3/1 55/3/1
f 62/3/1 56/3/1 61/3/1
f 63/6/1 58/6/1 57/6/1
f 64/6/1 58/6/1 63/6/1
f 65/6/1 60/6/1 59/6/1
f 66/6/1 60/6/1 65/6/1
f 67/6/1 62/6/1 61/6/1
f 68/6/1 62/6/1 67/6/1
f 75/5/1 70/5/1 69/5/1
f 76/5/1 70/5/1 75/5/1
f 77/5/1 72/5/1 71/5/1
f 78/5/1 72/5/1 77/5/1
f 79/5/1 74/5/1 73/5/1
f 80/5/1 74/5/1 79/5/1
f 81/3/1 76/3/1 75/3/1
f 82/3/1 76/3/1 81/3/1
f 83/3/1 78/3/1 77/3/1
f 84/3/1 78/3/1 83/3/1
f 85/3/1 80/3/1 79/3/1
f 86/3/1 80/3/1 85/3/1
f 87/6/1 82/6/1 81/6/1
f 88/6/1 82/6/1 87/6/1
f 89/6/1 84/6/1 83/6/1
f 90/6/1 84/6/1 89/6/1
f 91/6/1 86/6/1 85/6/1
f 92/6/1 86/6/1 91/6/1
f 97/2/1 94/2/1 93/2/1
f 98/2/1 94/2/1 97/2/1
f 99/2/1 96/2/1 95/2/1
f 100/2/1 96/2/1 99/2/1
f 101/4/1 98/4/1 97/4/1
f 102/4/1 98/4/1 101/4/1
f 103/4/1 100/4/1 99/4/1
f 104/4/1 100/4/1 103/4/1
f 105/2/2 106/2/2 109/2/2
f 109/2/2 106/2/2 110/2/2
f 107/2/2 108/2/2 111/2/2
f 111/2/2 108/2/2 112/2/2
f 109/4/2 110/4/2 113/4/2
f 113/4/2 110/4/2 114/4/2
f 111/4/2 112/4/2 115/4/2
f 115/4/2 112/4/2 116/4/2
f 117/5/2 118/5/2 123/5/2
f 123/5/2 118/5/2 124/5/2
f 119/5/2 120/5/2 125/5/2
f 125/5/2 120/5/2 126/5/2
f 121/5/2 122/5/2 127/5/2
f 127/5/2 122/5/2 128/5/2
f 123/3/2 124/3/2 129/3/2
f 129/3/2 124/3/2 130/3/2
f 125/3/2 126/3/2 131/3/2
f 131/3/2 126/3/2 132/3/2
f 127/3/2 128/3/2 133/3/2
f 133/3/2 128/3/2 134/3/2
f 129/6/2 130/6/2 135/6/2
f 135/6/2 130/6/2 136/6/2
f 131/6/2 132/6/2 137/6/2
f 137/6/2 132/6/2 138/6/2
f 133/6/2 134/6/2 139/6/2
f 139/6/2 134/6/2 140/6/2
f 141/5/2 142/5/2 147/5/2
f 147/5/2 142/5/2 148/5/2
f 143/5/2 144/5/2 149/5/2
f 149/5/2 144/5/2 150/5/2
f 145/5/2 146/5/2 151/5/2
f 151/5/2 146/5/2 152/5/2
f 147/3/2 148/3/2 153/3/2
f 153/3/2 148/3/2 154/3/2
f 149/3/2 150/3/2 155/3/2
f 155/3/2 150/3/2 156/3/2
f 151/3/2 152/3/2 157/3/2
f 157/3/2 152/3/2 158/3/2
f 153/6/2 154/6/2 159/6/2
f 159/6/2 154/6/2 160/6/2
f 155/6/2 156/6/2 161/6/2
f 161/6/2 156/6/2 162/6/2
f 157/6/2 158/6/2 163/6/2
f 163/6/2 158/6/2 164/6/2
f 165/5/2 166/5/2 171/5/2
f 171/5/2 166/5/2 172/5/2
f 167/5/2 168/5/2 173/5/2
f 173/5/2 168/5/2 174/5/2
f 169/5/2 170/5/2 175/5/2
f 175/5/2 170/5/2 176/5/2
f 171/3/2 172/3/2 177/3/2
f 177/3/2 172/3/2 178/3/2
f 173/3/2 174/3/2 179/3/2
f 179/3/2 174/3/2 180/3/2
f 175/3/2 176/3/2 181/3/2
f 181/3/2 176/3/2 182/3/2
f 177/6/2 178/6/2 183/6/2
f 183/6/2 178/6/2 184/6/2
f 179/6/2 180/6/2 185/6/2
f 185/6/2 180/6/2 186/6/2
f 181/6/2 182/6/2 187/6/2
f 187/6/2 182/6/2 188/6/2
f 189/6/2 190/6/2 195/6/2
f 195/6/2 190/6/2 196/6/2
f 191/6/2 192/6/2 197/6/2
f 197/6/2 192/6/2 198/6/2
f 193/6/2 194/6/2 199/6/2
f 199/6/2 194/6/2 200/6/2
f 201/1/2 202/1/2 203/1/2
f 203/1/2 202/1/2 204/1/2
f 203/2/2 204/2/2 205/2/2
f 205/2/2 204/2/2 206/2/2
f 205/4/2 206/4/2 207/4/2
f 207/4/2 206/4/2 208/4/2
f 213/1/3 210/1/3 209/1/3
f 214/2/3 211/2/3 210/2/3
f 214/1/3 210/1/3 213/1/3
f 215/4/3 212/4/3 211/4/3
f 215/2/3 211/2/3 214/2/3
f 216/4/3 212/4/3 215/4/3
f 219/6/3 218/6/3 217/6/3
f 220/6/3 218/6/3 219/6/3
f 223/6/3 222/6/3 221/6/3
f 224/6/3 222/6/3 223/6/3
f 227/6/3 226/6/3 225/6/3
f 228/6/3 226/6/3 227/6/3
f 231/6/3 230/6/3 229/6/3
f 232/6/3 230/6/3 231/6/3
f 237/5/3 234/5/3 233/5/3
f 238/3/3 235/3/3 234/3/3
f 238/5/3 234/5/3 237/5/3
f 239/6/3 236/6/3 235/6/3
f 239/3/3 235/3/3 238/3/3
f 240/6/3 236/6/3 239/6/3
f 245/5/3 242/5/3 241/5/3
f 246/3/3 243/3/3 242/3/3
f 246/5/3 242/5/3 245/5/3
f 247/6/3 244/6/3 243/6/3
f 247/3/3 243/3/3 246/3/3
f 248/6/3 244/6/3 247/6/3
f 253/5/3 250/5/3 249/5/3
f 254/3/3 251/3/3 250/3/3
f 254/5/3 250/5/3 253/5/3
f 255/6/3 252/6/3 251/6/3
f 255/3/3 251/3/3 254/3/3
f 256/6/3 252/6/3 255/6/3
f 261/5/3 258/5/3 257/5/3
f 262/3/3 259/3/3 258/3/3
f 262/5/3 258/5/3 261/5/3
f 263/6/3 260/6/3 259/6/3
f 263/3/3 259/3/3 262/3/3
f 264/6/3 260/6/3 263/6/3
f 269/5/3 266/5/3 265/5/3
f 270/3/3 267/3/3 266/3/3
f 270/5/3 266/5/3 269/5/3
f 271/6/3 268/6/3 267/6/3
f 271/3/3 267/3/3 270/3/3
f 272/6/3 268/6/3 271/6/3
f 277/5/3 274/5/3 273/5/3
f 278/3/3 275/3/3 274/3/3
f 278/5/3 274/5/3 277/5/3
f 279/6/3 276/6/3 275/6/3
f 279/3/3 275/3/3 278/3/3
f 280/6/3 276/6/3 279/6/3
f 285/5/3 282/5/3 281/5/3
f 286/3/3 283/3/3 282/3/3
f 286/5/3 282/5/3 285/5/3
f 287/6/3 284/6/3 283/6/3
f 287/3/3 283/3/3 286/3/3
f 288/6/3 284/6/3 287/6/3
f 293/5/3 290/5/3 289/5/3
f 294/3/3 291/3/3 290/3/3
f 294/5/3 290/5/3 293/5/3
f 295/6/3 292/6/3 291/6/3
f 295/3/3 291/3/3 294/3/3
f 296/6/3 292/6/3 295/6/3
f 300/2/3 298/2/3 297/2/3
f 301/4/3 299/4/3 298/4/3
f 301/2/3 298/2/3 300/2/3
f 302/4/3 299/4/3 301/4/3
f 306/2/3 304/2/3 303/2/3
f 307/4/3 305/4/3 304/4/3
f 307/2/3 304/2/3 306/2/3
f 308/4/3 305/4/3 307/4/3
f 312/2/3 310/2/3 309/2/3
f 313/4/3 311/4/3 310/4/3
f 313/2/3 310/2/3 312/2/3
f 314/4/3 311/4/3 313/4/3
f 315/2/4 316/2/4 318/2/4
f 316/4/4 317/4/4 319/4/4
f 318/2/4 316/2/4 319/2/4
f 319/4/4 317/4/4 320/4/4
f 321/2/4 322/2/4 324/2/4
f 322/4/4 323/4/4 325/4/4
f 324/2/4 322/2/4 325/2/4
f 325/4/4 323/4/4 326/4/4
f 327/2/4 328/2/4 330/2/4
f 328/4/4 329/4/4 331/4/4
f 330/2/4 328/2/4 331/2/4
f 331/4/4 329/4/4 332/4/4
f 333/5/4 334/5/4 337/5/4
f 334/3/4 335/3/4 338/3/4
f 337/5/4 334/5/4 338/5/4
f 335/6/4 336/6/4 339/6/4
f 338/3/4 335/3/4 339/3/4
f 339/6/4 336/6/4 340/6/4
f 341/5/4 342/5/4 345/5/4
f 342/3/4 343/3/4 346/3/4
f 345/5/4 342/5/4 346/5/4
f 343/6/4 344/6/4 347/6/4
f 346/3/4 343/3/4 347/3/4
f 347/6/4 344/6/4 348/6/4
f 349/5/4 350/5/4 353/5/4
f 350/3/4 351/3/4 354/3/4
f 353/5/4 350/5/4 354/5/4
f 351/6/4 352/6/4 355/6/4
f 354/3/4 351/3/4 355/3/4
f 355/6/4 352/6/4 356/6/4
f 357/5/4 358/5/4 361/5/4
f 358/3/4 359/3/4 362/3/4
f 361/5/4 358/5/4 362/5/4
f 359/6/4 360/6/4 363/6/4
f 362/3/4 359/3/4 363/3/4
f 363/6/4 360/6/4 364/6/4
f 365/5/4 366/5/4 369/5/4
f 366/3/4 367/3/4 370/3/4
f 369/5/4 366/5/4 370/5/4
f 367/6/4 368/6/4 371/6/4
f 370/3/4 367/3/4 371/3/4
f 371/6/4 368/6/4 372/6/4
f 373/5/4 374/5/4 377/5/4
f 374/3/4 375/3/4 378/3/4
f 377/5/4 374/5/4 378/5/4
f 375/6/4 376/6/4 379/6/4
f 378/3/4 375/3/4 379/3/4
f 379/6/4 376/6/4 380/6/4
f 381/5/4 382/5/4 385/5/4
f 382/3/4 383/3/4 386/3/4
f 385/5/4 382/5/4 386/5/4
f 383/6/4 384/6/4 387/6/4
f 386/3/4 383/3/4 387/3/4
f 387/6/4 384/6/4 388/6/4
f 389/5/4 390/5/4 393/5/4
f 390/3/4 391/3/4 394/3/4
f 393/5/4 390/5/4 394/5/4
f 391/6/4 392/6/4 395/6/4
f 394/3/4 391/3/4 395/3/4
f 395/6/4 392/6/4 396/6/4
f 397/6/4 398/6/4 399/6/4
f 399/6/4 398/6/4 400/6/4
f 401/6/4 402/6/4 403/6/4
f 403/6/4 402/6/4 404/6/4
f 405/6/4 406/6/4 407/6/4
f 407/6/4 406/6/4 408/6/4
f 409/6/4 410/6/4 411/6/4
f 411/6/4 410/6/4 412/6/4
f 413/1/4 414/1/4 417/1/4
f 414/2/4 415/2/4 418/2/4
f 417/1/4 414/1/4 418/1/4
f 415/4/4 416/4/4 419/4/4
f 418/2/4 415/2/4 419/2/4
f 419/4/4 416/4/4 420/4/4
f 423/1/5 422/1/5 421/1/5
f 424/1/5 422/1/5 423/1/5
f 425/1/6 426/1/6 432/1/6
f 432/1/6 426/1/6 433/1/6
f 427/1/6 428/1/6 434/1/6
f 434/1/6 428/1/6 435/1/6
f 429/1/6 430/1/6 436/1/6
f 436/1/6 430/1/6 437/1/6
f 434/1/6 435/1/6 439/1/6
f 437/1/6 438/1/6 439/1/6
f 436/1/6 437/1/6 439/1/6
f 435/1/6 436/1/6 439/1/6
f 432/1/6 433/1/6 439/1/6
f 433/1/6 434/1/6 439/1/6
f 431/1/6 432/1/6 439/1/6
f 439/1/6 438/1/6 440/1/6
f 440/1/6 438/1/6 441/1/6
f 441/1/6 438/1/6 442/1/6
f 442/1/6 438/1/6 443/1/6
f 443/1/6 438/1/6 444/1/6
f 444/1/6 438/1/6 445/1/6
f 445/1/6 438/1/6 446/1/6
f 440/1/6 441/1/6 448/1/6
f 448/1/6 441/1/6 449/1/6
f 442/1/6 443/1/6 450/1/6
f 450/1/6 443/1/6 451/1/6
f 444/1/6 445/1/6 452/1/6
f 452/1/6 445/1/6 453/1/6
f 448/1/6 449/1/6 455/1/6
f 453/1/6 454/1/6 455/1/6
f 452/1/6 453/1/6 455/1/6
f 451/1/6 452/1/6 455/1/6
f 450/1/6 451/1/6 455/1/6
f 449/1/6 450/1/6 455/1/6
f 447/1/6 448/1/6 455/1/6
f 455/1/6 454/1/6 456/1/6
f 456/1/6 454/1/6 457/1/6
f 457/1/6 454/1/6 458/1/6
f 458/1/6 454/1/6 459/1/6
f 459/1/6 454/1/6 460/1/6
f 460/1/6 454/1/6 461/1/6
f 461/1/6 454/1/6 462/1/6
f 456/1/6 457/1/6 463/1/6
f 463/1/6 457/1/6 464/1/6
f 458/1/6 459/1/6 465/1/6
f 465/1/6 459/1/6 466/1/6
f 460/1/6 461/1/6 467/1/6
f 467/1/6 461/1/6 468/1/6
f 469/4/6 470/4/6 471/4/6
f 471/4/6 470/4/6 472/4/6
f 472/4/6 470/4/6 473/4/6
f 473/4/6 470/4/6 474/4/6
f 474/4/6 470/4/6 475/4/6
f 475/4/6 470/4/6 476/4/6
f 476/4/6 470/4/6 477/4/6
f 477/4/6 470/4/6 478/4/6
f 469/4/6 471/4/6 479/4/6
f 478/4/6 470/4/6 480/4/6
f 469/4/6 479/4/6 481/4/6
f 480/4/6 470/4/6 482/4/6
f 469/4/6 481/4/6 483/4/6
f 482/4/6 470/4/6 484/4/6
f 469/4/6 483/4/6 485/4/6
f 484/4/6 470/4/6 486/4/6
f 469/4/6 485/4/6 487/4/6
f 486/4/6 470/4/6 494/4/6
f 492/4/6 493/4/6 495/4/6
f 493/4/6 494/4/6 495/4/6
f 469/4/6 487/4/6 495/4/6
f 487/4/6 488/4/6 495/4/6
f 491/4/6 492/4/6 495/4/6
f 490/4/6 491/4/6 495/4/6
f 489/4/6 490/4/6 495/4/6
f 488/4/6 489/4/6 495/4/6
f 494/4/6 470/4/6 496/4/6
f 495/4/6 494/4/6 496/4/6
f 497/6/6 498/6/6 505/6/6
f 505/6/6 498/6/6 506/6/6
f 499/6/6 500/6/6 507/6/6
f 507/6/6 500/6/6 508/6/6
f 501/6/6 502/6/6 509/6/6
f 509/6/6 502/6/6 510/6/6
f 503/6/6 504/6/6 511/6/6
f 511/6/6 504/6/6 512/6/6
f 513/6/6 514/6/6 521/6/6
f 521/6/6 514/6/6 522/6/6
f 515/6/6 516/6/6 523/6/6
f 523/6/6 516/6/6 524/6/6
f 517/6/6 518/6/6 525/6/6
f 525/6/6 518/6/6 526/6/6
f 519/6/6 520/6/6 527/6/6
f 527/6/6 520/6/6 528/6/6
f 529/6/6 530/6/6 537/6/6
f 537/6/6 530/6/6 538/6/6
f 531/6/6 532/6/6 539/6/6
f 539/6/6 532/6/6 540/6/6
f 533/6/6 534/6/6 541/6/6
f 541/6/6 534/6/6 542/6/6
f 535/6/6 536/6/6 543/6/6
f 543/6/6 536/6/6 544/6/6
