# MagicaVoxel @ Ephtracy

# group
g FireShotgun-0

# material
mtllib FireShotgun-0.mtl
usemtl palette

# normals
vn -1 0 0
vn 1 0 0
vn 0 0 1
vn 0 0 -1
vn 0 -1 0
vn 0 1 0

# texcoords
vt 0.908203 0.5
vt 0.939453 0.5
vt 0.943359 0.5
vt 0.970703 0.5
vt 0.974609 0.5
vt 0.978516 0.5
vt 0.982422 0.5

# verts
v -1.5 3 -8.5
v -1.5 3 -10.5
v -1.5 4 10.5
v -1.5 4 9.5
v -1.5 4 4.5
v -1.5 4 3.5
v -1.5 4 -6.5
v -1.5 4 -8.5
v -1.5 4 -9.5
v -1.5 4 -10.5
v -1.5 4 -11.5
v -1.5 5 12.5
v -1.5 5 10.5
v -1.5 5 9.5
v -1.5 5 7.5
v -1.5 5 4.5
v -1.5 5 3.5
v -1.5 5 -6.5
v -1.5 5 -8.5
v -1.5 5 -9.5
v -1.5 5 -10.5
v -1.5 6 11.5
v -1.5 6 9.5
v -1.5 6 8.5
v -1.5 6 7.5
v -1.5 6 -8.5
v -1.5 6 -9.5
v -1.5 7 12.5
v -1.5 7 11.5
v -1.5 7 8.5
v -1.5 7 -0.5
v -1.5 7 -5.5
v -1.5 7 -9.5
v -1.5 7 -10.5
v -1.5 7 -11.5
v -1.5 8 -0.5
v -1.5 8 -5.5
v -0.5 0 -3.5
v -0.5 0 -5.5
v -0.5 0 -6.5
v -0.5 1 -2.5
v -0.5 1 -3.5
v -0.5 1 -5.5
v -0.5 1 -6.5
v -0.5 1 -8.5
v -0.5 2 -0.5
v -0.5 2 -2.5
v -0.5 2 -4.5
v -0.5 2 -5.5
v -0.5 2 -6.5
v -0.5 2 -8.5
v -0.5 2 -10.5
v -0.5 3 10.5
v -0.5 3 3.5
v -0.5 3 0.5
v -0.5 3 -0.5
v -0.5 3 -2.5
v -0.5 3 -3.5
v -0.5 3 -4.5
v -0.5 3 -6.5
v -0.5 3 -8.5
v -0.5 3 -10.5
v -0.5 3 -11.5
v -0.5 4 12.5
v -0.5 4 10.5
v -0.5 4 9.5
v -0.5 4 4.5
v -0.5 4 3.5
v -0.5 4 0.5
v -0.5 4 -0.5
v -0.5 4 -2.5
v -0.5 4 -3.5
v -0.5 4 -6.5
v -0.5 4 -8.5
v -0.5 4 -10.5
v -0.5 4 -11.5
v -0.5 4 -12.5
v -0.5 5 12.5
v -0.5 5 10.5
v -0.5 5 9.5
v -0.5 5 7.5
v -0.5 5 4.5
v -0.5 5 3.5
v -0.5 5 -6.5
v -0.5 7 12.5
v -0.5 7 11.5
v -0.5 7 10.5
v -0.5 7 8.5
v -0.5 7 7.5
v -0.5 7 5.5
v -0.5 7 4.5
v -0.5 7 2.5
v -0.5 7 1.5
v -0.5 7 -0.5
v -0.5 7 -5.5
v -0.5 7 -9.5
v -0.5 7 -10.5
v -0.5 7 -11.5
v -0.5 7 -12.5
v -0.5 8 12.5
v -0.5 8 11.5
v -0.5 8 10.5
v -0.5 8 8.5
v -0.5 8 7.5
v -0.5 8 5.5
v -0.5 8 4.5
v -0.5 8 2.5
v -0.5 8 1.5
v -0.5 8 -0.5
v -0.5 8 -5.5
v -0.5 8 -11.5
v -0.5 9 11.5
v -0.5 9 10.5
v 0.5 5 12.5
v 0.5 5 9.5
v 0.5 5 7.5
v 0.5 5 -1.5
v 0.5 6 11.5
v 0.5 6 9.5
v 0.5 6 8.5
v 0.5 6 7.5
v 0.5 7 12.5
v 0.5 7 11.5
v 0.5 7 10.5
v 0.5 7 8.5
v 0.5 7 7.5
v 0.5 7 5.5
v 0.5 7 4.5
v 0.5 7 2.5
v 0.5 7 1.5
v 0.5 7 -1.5
v 0.5 7 -4.5
v 0.5 8 -1.5
v 0.5 8 -4.5
v -0.5 5 12.5
v -0.5 5 9.5
v -0.5 5 7.5
v -0.5 5 -1.5
v -0.5 6 11.5
v -0.5 6 9.5
v -0.5 6 8.5
v -0.5 6 7.5
v -0.5 7 12.5
v -0.5 7 11.5
v -0.5 7 10.5
v -0.5 7 8.5
v -0.5 7 7.5
v -0.5 7 5.5
v -0.5 7 4.5
v -0.5 7 2.5
v -0.5 7 1.5
v -0.5 7 -1.5
v -0.5 7 -4.5
v -0.5 8 -1.5
v -0.5 8 -4.5
v 0.5 0 -3.5
v 0.5 0 -5.5
v 0.5 0 -6.5
v 0.5 1 -2.5
v 0.5 1 -3.5
v 0.5 1 -5.5
v 0.5 1 -6.5
v 0.5 1 -8.5
v 0.5 2 -0.5
v 0.5 2 -2.5
v 0.5 2 -4.5
v 0.5 2 -5.5
v 0.5 2 -6.5
v 0.5 2 -8.5
v 0.5 2 -10.5
v 0.5 3 10.5
v 0.5 3 3.5
v 0.5 3 0.5
v 0.5 3 -0.5
v 0.5 3 -2.5
v 0.5 3 -3.5
v 0.5 3 -4.5
v 0.5 3 -6.5
v 0.5 3 -8.5
v 0.5 3 -10.5
v 0.5 3 -11.5
v 0.5 4 12.5
v 0.5 4 10.5
v 0.5 4 9.5
v 0.5 4 4.5
v 0.5 4 3.5
v 0.5 4 0.5
v 0.5 4 -0.5
v 0.5 4 -2.5
v 0.5 4 -3.5
v 0.5 4 -6.5
v 0.5 4 -8.5
v 0.5 4 -10.5
v 0.5 4 -11.5
v 0.5 4 -12.5
v 0.5 5 12.5
v 0.5 5 10.5
v 0.5 5 9.5
v 0.5 5 7.5
v 0.5 5 4.5
v 0.5 5 3.5
v 0.5 5 -6.5
v 0.5 7 12.5
v 0.5 7 11.5
v 0.5 7 10.5
v 0.5 7 8.5
v 0.5 7 7.5
v 0.5 7 5.5
v 0.5 7 4.5
v 0.5 7 2.5
v 0.5 7 1.5
v 0.5 7 -0.5
v 0.5 7 -5.5
v 0.5 7 -9.5
v 0.5 7 -10.5
v 0.5 7 -11.5
v 0.5 7 -12.5
v 0.5 8 12.5
v 0.5 8 11.5
v 0.5 8 10.5
v 0.5 8 8.5
v 0.5 8 7.5
v 0.5 8 5.5
v 0.5 8 4.5
v 0.5 8 2.5
v 0.5 8 1.5
v 0.5 8 -0.5
v 0.5 8 -5.5
v 0.5 8 -11.5
v 0.5 9 11.5
v 0.5 9 10.5
v 1.5 3 -8.5
v 1.5 3 -10.5
v 1.5 4 10.5
v 1.5 4 9.5
v 1.5 4 4.5
v 1.5 4 3.5
v 1.5 4 -6.5
v 1.5 4 -8.5
v 1.5 4 -9.5
v 1.5 4 -10.5
v 1.5 4 -11.5
v 1.5 5 12.5
v 1.5 5 10.5
v 1.5 5 9.5
v 1.5 5 7.5
v 1.5 5 4.5
v 1.5 5 3.5
v 1.5 5 -6.5
v 1.5 5 -8.5
v 1.5 5 -9.5
v 1.5 5 -10.5
v 1.5 6 11.5
v 1.5 6 9.5
v 1.5 6 8.5
v 1.5 6 7.5
v 1.5 6 -8.5
v 1.5 6 -9.5
v 1.5 7 12.5
v 1.5 7 11.5
v 1.5 7 8.5
v 1.5 7 -0.5
v 1.5 7 -5.5
v 1.5 7 -9.5
v 1.5 7 -10.5
v 1.5 7 -11.5
v 1.5 8 -0.5
v 1.5 8 -5.5
v -1.5 5 12.5
v -1.5 7 12.5
v -0.5 4 12.5
v -0.5 5 12.5
v -0.5 7 12.5
v -0.5 8 12.5
v 0.5 4 12.5
v 0.5 5 12.5
v 0.5 7 12.5
v 0.5 8 12.5
v 1.5 5 12.5
v 1.5 7 12.5
v -0.5 8 11.5
v -0.5 9 11.5
v 0.5 8 11.5
v 0.5 9 11.5
v -1.5 4 10.5
v -1.5 5 10.5
v -0.5 3 10.5
v -0.5 4 10.5
v -0.5 5 10.5
v 0.5 3 10.5
v 0.5 4 10.5
v 0.5 5 10.5
v 1.5 4 10.5
v 1.5 5 10.5
v -1.5 4 4.5
v -1.5 5 4.5
v -0.5 4 4.5
v -0.5 5 4.5
v 0.5 4 4.5
v 0.5 5 4.5
v 1.5 4 4.5
v 1.5 5 4.5
v -0.5 3 0.5
v -0.5 4 0.5
v 0.5 3 0.5
v 0.5 4 0.5
v -1.5 7 -0.5
v -1.5 8 -0.5
v -0.5 2 -0.5
v -0.5 3 -0.5
v -0.5 7 -0.5
v -0.5 8 -0.5
v 0.5 2 -0.5
v 0.5 3 -0.5
v 0.5 7 -0.5
v 0.5 8 -0.5
v 1.5 7 -0.5
v 1.5 8 -0.5
v -0.5 5 -1.5
v -0.5 7 -1.5
v 0.5 5 -1.5
v 0.5 7 -1.5
v -0.5 1 -2.5
v -0.5 2 -2.5
v -0.5 3 -2.5
v -0.5 4 -2.5
v 0.5 1 -2.5
v 0.5 2 -2.5
v 0.5 3 -2.5
v 0.5 4 -2.5
v -0.5 0 -3.5
v -0.5 1 -3.5
v 0.5 0 -3.5
v 0.5 1 -3.5
v -0.5 7 -4.5
v -0.5 8 -4.5
v 0.5 7 -4.5
v 0.5 8 -4.5
v -1.5 4 -6.5
v -1.5 5 -6.5
v -0.5 1 -6.5
v -0.5 2 -6.5
v -0.5 3 -6.5
v -0.5 4 -6.5
v -0.5 5 -6.5
v 0.5 1 -6.5
v 0.5 2 -6.5
v 0.5 3 -6.5
v 0.5 4 -6.5
v 0.5 5 -6.5
v 1.5 4 -6.5
v 1.5 5 -6.5
v -1.5 3 -8.5
v -1.5 4 -8.5
v -0.5 2 -8.5
v -0.5 3 -8.5
v -0.5 4 -8.5
v 0.5 2 -8.5
v 0.5 3 -8.5
v 0.5 4 -8.5
v 1.5 3 -8.5
v 1.5 4 -8.5
v -0.5 8 10.5
v -0.5 9 10.5
v 0.5 8 10.5
v 0.5 9 10.5
v -1.5 4 9.5
v -1.5 5 9.5
v -0.5 4 9.5
v -0.5 5 9.5
v 0.5 4 9.5
v 0.5 5 9.5
v 1.5 4 9.5
v 1.5 5 9.5
v -1.5 4 3.5
v -1.5 5 3.5
v -0.5 3 3.5
v -0.5 4 3.5
v -0.5 5 3.5
v 0.5 3 3.5
v 0.5 4 3.5
v 0.5 5 3.5
v 1.5 4 3.5
v 1.5 5 3.5
v -0.5 3 -0.5
v -0.5 4 -0.5
v 0.5 3 -0.5
v 0.5 4 -0.5
v -0.5 7 -1.5
v -0.5 8 -1.5
v 0.5 7 -1.5
v 0.5 8 -1.5
v -0.5 3 -3.5
v -0.5 4 -3.5
v 0.5 3 -3.5
v 0.5 4 -3.5
v -0.5 2 -4.5
v -0.5 3 -4.5
v 0.5 2 -4.5
v 0.5 3 -4.5
v -1.5 7 -5.5
v -1.5 8 -5.5
v -0.5 1 -5.5
v -0.5 2 -5.5
v -0.5 7 -5.5
v -0.5 8 -5.5
v 0.5 1 -5.5
v 0.5 2 -5.5
v 0.5 7 -5.5
v 0.5 8 -5.5
v 1.5 7 -5.5
v 1.5 8 -5.5
v -0.5 0 -6.5
v -0.5 1 -6.5
v 0.5 0 -6.5
v 0.5 1 -6.5
v -0.5 1 -8.5
v -0.5 2 -8.5
v 0.5 1 -8.5
v 0.5 2 -8.5
v -1.5 3 -10.5
v -1.5 4 -10.5
v -0.5 2 -10.5
v -0.5 3 -10.5
v -0.5 4 -10.5
v 0.5 2 -10.5
v 0.5 3 -10.5
v 0.5 4 -10.5
v 1.5 3 -10.5
v 1.5 4 -10.5
v -1.5 4 -11.5
v -1.5 7 -11.5
v -0.5 3 -11.5
v -0.5 4 -11.5
v -0.5 7 -11.5
v -0.5 8 -11.5
v 0.5 3 -11.5
v 0.5 4 -11.5
v 0.5 7 -11.5
v 0.5 8 -11.5
v 1.5 4 -11.5
v 1.5 7 -11.5
v -0.5 4 -12.5
v -0.5 7 -12.5
v 0.5 4 -12.5
v 0.5 7 -12.5
v -0.5 0 -3.5
v 0.5 0 -3.5
v -0.5 0 -5.5
v 0.5 0 -5.5
v -0.5 0 -6.5
v 0.5 0 -6.5
v -0.5 1 -2.5
v 0.5 1 -2.5
v -0.5 1 -3.5
v 0.5 1 -3.5
v -0.5 1 -6.5
v 0.5 1 -6.5
v -0.5 1 -8.5
v 0.5 1 -8.5
v -0.5 2 -0.5
v 0.5 2 -0.5
v -0.5 2 -2.5
v 0.5 2 -2.5
v -0.5 2 -8.5
v 0.5 2 -8.5
v -0.5 2 -10.5
v 0.5 2 -10.5
v -0.5 3 10.5
v 0.5 3 10.5
v -0.5 3 3.5
v 0.5 3 3.5
v -0.5 3 0.5
v 0.5 3 0.5
v -0.5 3 -0.5
v 0.5 3 -0.5
v -0.5 3 -6.5
v 0.5 3 -6.5
v -1.5 3 -8.5
v -0.5 3 -8.5
v 0.5 3 -8.5
v 1.5 3 -8.5
v -1.5 3 -10.5
v -0.5 3 -10.5
v 0.5 3 -10.5
v 1.5 3 -10.5
v -0.5 3 -11.5
v 0.5 3 -11.5
v -0.5 4 12.5
v 0.5 4 12.5
v -1.5 4 10.5
v -0.5 4 10.5
v 0.5 4 10.5
v 1.5 4 10.5
v -1.5 4 9.5
v -0.5 4 9.5
v 0.5 4 9.5
v 1.5 4 9.5
v -1.5 4 4.5
v -0.5 4 4.5
v 0.5 4 4.5
v 1.5 4 4.5
v -1.5 4 3.5
v -0.5 4 3.5
v 0.5 4 3.5
v 1.5 4 3.5
v -0.5 4 0.5
v 0.5 4 0.5
v -0.5 4 -0.5
v 0.5 4 -0.5
v -0.5 4 -2.5
v 0.5 4 -2.5
v -0.5 4 -3.5
v 0.5 4 -3.5
v -1.5 4 -6.5
v -0.5 4 -6.5
v 0.5 4 -6.5
v 1.5 4 -6.5
v -1.5 4 -8.5
v -0.5 4 -8.5
v 0.5 4 -8.5
v 1.5 4 -8.5
v -1.5 4 -10.5
v -0.5 4 -10.5
v 0.5 4 -10.5
v 1.5 4 -10.5
v -1.5 4 -11.5
v -0.5 4 -11.5
v 0.5 4 -11.5
v 1.5 4 -11.5
v -0.5 4 -12.5
v 0.5 4 -12.5
v -1.5 5 12.5
v -0.5 5 12.5
v 0.5 5 12.5
v 1.5 5 12.5
v -1.5 5 10.5
v -0.5 5 10.5
v 0.5 5 10.5
v 1.5 5 10.5
v -1.5 5 9.5
v -0.5 5 9.5
v 0.5 5 9.5
v 1.5 5 9.5
v -1.5 5 7.5
v -0.5 5 7.5
v 0.5 5 7.5
v 1.5 5 7.5
v -1.5 5 4.5
v -0.5 5 4.5
v 0.5 5 4.5
v 1.5 5 4.5
v -1.5 5 3.5
v -0.5 5 3.5
v 0.5 5 3.5
v 1.5 5 3.5
v -1.5 5 -6.5
v -0.5 5 -6.5
v 0.5 5 -6.5
v 1.5 5 -6.5
v -0.5 7 12.5
v 0.5 7 12.5
v -0.5 7 11.5
v 0.5 7 11.5
v -0.5 7 10.5
v 0.5 7 10.5
v -0.5 7 8.5
v 0.5 7 8.5
v -0.5 7 7.5
v 0.5 7 7.5
v -0.5 7 5.5
v 0.5 7 5.5
v -0.5 7 4.5
v 0.5 7 4.5
v -0.5 7 2.5
v 0.5 7 2.5
v -0.5 7 1.5
v 0.5 7 1.5
v -0.5 7 -1.5
v 0.5 7 -1.5
v -0.5 1 -5.5
v 0.5 1 -5.5
v -0.5 1 -6.5
v 0.5 1 -6.5
v -0.5 2 -4.5
v 0.5 2 -4.5
v -0.5 2 -5.5
v 0.5 2 -5.5
v -0.5 2 -6.5
v 0.5 2 -6.5
v -0.5 2 -8.5
v 0.5 2 -8.5
v -0.5 3 -0.5
v 0.5 3 -0.5
v -0.5 3 -2.5
v 0.5 3 -2.5
v -0.5 3 -3.5
v 0.5 3 -3.5
v -0.5 3 -4.5
v 0.5 3 -4.5
v -0.5 5 12.5
v 0.5 5 12.5
v -0.5 5 9.5
v 0.5 5 9.5
v -0.5 5 7.5
v 0.5 5 7.5
v -0.5 5 -1.5
v 0.5 5 -1.5
v -1.5 7 12.5
v -0.5 7 12.5
v 0.5 7 12.5
v 1.5 7 12.5
v -1.5 7 11.5
v -0.5 7 11.5
v 0.5 7 11.5
v 1.5 7 11.5
v -0.5 7 10.5
v 0.5 7 10.5
v -1.5 7 8.5
v -0.5 7 8.5
v 0.5 7 8.5
v 1.5 7 8.5
v -0.5 7 7.5
v 0.5 7 7.5
v -0.5 7 5.5
v 0.5 7 5.5
v -0.5 7 4.5
v 0.5 7 4.5
v -0.5 7 2.5
v 0.5 7 2.5
v -0.5 7 1.5
v 0.5 7 1.5
v -1.5 7 -0.5
v -0.5 7 -0.5
v 0.5 7 -0.5
v 1.5 7 -0.5
v -0.5 7 -1.5
v 0.5 7 -1.5
v -0.5 7 -4.5
v 0.5 7 -4.5
v -1.5 7 -5.5
v -0.5 7 -5.5
v 0.5 7 -5.5
v 1.5 7 -5.5
v -1.5 7 -9.5
v -0.5 7 -9.5
v 0.5 7 -9.5
v 1.5 7 -9.5
v -1.5 7 -10.5
v -0.5 7 -10.5
v 0.5 7 -10.5
v 1.5 7 -10.5
v -1.5 7 -11.5
v -0.5 7 -11.5
v 0.5 7 -11.5
v 1.5 7 -11.5
v -0.5 7 -12.5
v 0.5 7 -12.5
v -0.5 8 12.5
v 0.5 8 12.5
v -0.5 8 11.5
v 0.5 8 11.5
v -0.5 8 10.5
v 0.5 8 10.5
v -0.5 8 8.5
v 0.5 8 8.5
v -0.5 8 7.5
v 0.5 8 7.5
v -0.5 8 5.5
v 0.5 8 5.5
v -0.5 8 4.5
v 0.5 8 4.5
v -0.5 8 2.5
v 0.5 8 2.5
v -0.5 8 1.5
v 0.5 8 1.5
v -1.5 8 -0.5
v -0.5 8 -0.5
v 0.5 8 -0.5
v 1.5 8 -0.5
v -0.5 8 -1.5
v 0.5 8 -1.5
v -0.5 8 -4.5
v 0.5 8 -4.5
v -1.5 8 -5.5
v -0.5 8 -5.5
v 0.5 8 -5.5
v 1.5 8 -5.5
v -0.5 8 -11.5
v 0.5 8 -11.5
v -0.5 9 11.5
v 0.5 9 11.5
v -0.5 9 10.5
v 0.5 9 10.5

# faces
f 8/1/1 2/1/1 1/1/1
f 9/1/1 2/1/1 8/1/1
f 10/1/1 2/1/1 9/1/1
f 13/6/1 4/6/1 3/6/1
f 14/6/1 4/6/1 13/6/1
f 16/6/1 6/6/1 5/6/1
f 17/6/1 6/6/1 16/6/1
f 18/2/1 8/2/1 7/2/1
f 18/2/1 9/2/1 8/2/1
f 19/2/1 9/2/1 18/2/1
f 20/1/1 11/1/1 10/1/1
f 20/2/1 9/2/1 19/2/1
f 20/1/1 10/1/1 9/1/1
f 21/1/1 11/1/1 20/1/1
f 22/1/1 13/1/1 12/1/1
f 22/1/1 14/1/1 13/1/1
f 23/2/1 15/2/1 14/2/1
f 23/1/1 14/1/1 22/1/1
f 24/2/1 15/2/1 23/2/1
f 25/4/1 19/4/1 18/4/1
f 25/2/1 15/2/1 24/2/1
f 25/4/1 17/4/1 16/4/1
f 25/4/1 16/4/1 15/4/1
f 25/4/1 18/4/1 17/4/1
f 26/2/1 20/2/1 19/2/1
f 26/4/1 19/4/1 25/4/1
f 26/2/1 21/2/1 20/2/1
f 27/2/1 21/2/1 26/2/1
f 28/1/1 22/1/1 12/1/1
f 29/2/1 24/2/1 23/2/1
f 29/1/1 22/1/1 28/1/1
f 29/2/1 23/2/1 22/2/1
f 30/4/1 27/4/1 26/4/1
f 30/2/1 24/2/1 29/2/1
f 30/4/1 25/4/1 24/4/1
f 30/4/1 26/4/1 25/4/1
f 31/4/1 27/4/1 30/4/1
f 32/4/1 27/4/1 31/4/1
f 33/2/1 21/2/1 27/2/1
f 33/4/1 27/4/1 32/4/1
f 34/1/1 11/1/1 21/1/1
f 34/2/1 21/2/1 33/2/1
f 35/1/1 11/1/1 34/1/1
f 36/6/1 32/6/1 31/6/1
f 37/6/1 32/6/1 36/6/1
f 42/7/1 39/7/1 38/7/1
f 43/5/1 40/5/1 39/5/1
f 43/7/1 39/7/1 42/7/1
f 44/5/1 40/5/1 43/5/1
f 47/7/1 42/7/1 41/7/1
f 47/7/1 43/7/1 42/7/1
f 48/7/1 43/7/1 47/7/1
f 49/7/1 43/7/1 48/7/1
f 50/5/1 45/5/1 44/5/1
f 51/5/1 45/5/1 50/5/1
f 56/7/1 47/7/1 46/7/1
f 56/7/1 48/7/1 47/7/1
f 57/7/1 48/7/1 56/7/1
f 58/7/1 48/7/1 57/7/1
f 59/7/1 48/7/1 58/7/1
f 61/5/1 52/5/1 51/5/1
f 62/5/1 52/5/1 61/5/1
f 65/1/1 54/1/1 53/1/1
f 66/1/1 54/1/1 65/1/1
f 67/1/1 54/1/1 66/1/1
f 68/1/1 54/1/1 67/1/1
f 69/7/1 56/7/1 55/7/1
f 70/7/1 56/7/1 69/7/1
f 71/7/1 58/7/1 57/7/1
f 72/7/1 58/7/1 71/7/1
f 73/7/1 61/7/1 60/7/1
f 74/7/1 61/7/1 73/7/1
f 75/5/1 63/5/1 62/5/1
f 76/5/1 63/5/1 75/5/1
f 78/7/1 65/7/1 64/7/1
f 79/7/1 65/7/1 78/7/1
f 80/7/1 67/7/1 66/7/1
f 81/7/1 67/7/1 80/7/1
f 82/7/1 67/7/1 81/7/1
f 83/7/1 72/7/1 71/7/1
f 83/7/1 70/7/1 69/7/1
f 83/7/1 73/7/1 72/7/1
f 83/7/1 69/7/1 68/7/1
f 83/7/1 71/7/1 70/7/1
f 84/7/1 73/7/1 83/7/1
f 98/5/1 77/5/1 76/5/1
f 99/5/1 77/5/1 98/5/1
f 100/5/1 86/5/1 85/5/1
f 101/3/1 87/3/1 86/3/1
f 101/5/1 86/5/1 100/5/1
f 102/5/1 88/5/1 87/5/1
f 102/3/1 87/3/1 101/3/1
f 103/3/1 89/3/1 88/3/1
f 103/5/1 88/5/1 102/5/1
f 104/5/1 90/5/1 89/5/1
f 104/3/1 89/3/1 103/3/1
f 105/3/1 91/3/1 90/3/1
f 105/5/1 90/5/1 104/5/1
f 106/5/1 92/5/1 91/5/1
f 106/3/1 91/3/1 105/3/1
f 107/3/1 93/3/1 92/3/1
f 107/5/1 92/5/1 106/5/1
f 108/5/1 94/5/1 93/5/1
f 108/3/1 93/3/1 107/3/1
f 109/5/1 94/5/1 108/5/1
f 110/5/1 97/5/1 96/5/1
f 110/5/1 96/5/1 95/5/1
f 110/5/1 98/5/1 97/5/1
f 111/5/1 98/5/1 110/5/1
f 112/6/1 102/6/1 101/6/1
f 113/6/1 102/6/1 112/6/1
f 118/1/1 115/1/1 114/1/1
f 119/2/1 116/2/1 115/2/1
f 119/1/1 115/1/1 118/1/1
f 120/2/1 116/2/1 119/2/1
f 121/4/1 117/4/1 116/4/1
f 121/2/1 116/2/1 120/2/1
f 122/1/1 118/1/1 114/1/1
f 123/2/1 120/2/1 119/2/1
f 123/1/1 118/1/1 122/1/1
f 123/2/1 119/2/1 118/2/1
f 124/2/1 120/2/1 123/2/1
f 125/4/1 121/4/1 120/4/1
f 125/2/1 120/2/1 124/2/1
f 126/4/1 117/4/1 121/4/1
f 126/4/1 121/4/1 125/4/1
f 127/4/1 117/4/1 126/4/1
f 128/4/1 117/4/1 127/4/1
f 129/4/1 117/4/1 128/4/1
f 130/4/1 117/4/1 129/4/1
f 131/4/1 117/4/1 130/4/1
f 133/6/1 132/6/1 131/6/1
f 134/6/1 132/6/1 133/6/1
f 135/1/2 136/1/2 139/1/2
f 136/2/2 137/2/2 140/2/2
f 139/1/2 136/1/2 140/1/2
f 140/2/2 137/2/2 141/2/2
f 137/4/2 138/4/2 142/4/2
f 141/2/2 137/2/2 142/2/2
f 135/1/2 139/1/2 143/1/2
f 140/2/2 141/2/2 144/2/2
f 143/1/2 139/1/2 144/1/2
f 139/2/2 140/2/2 144/2/2
f 144/2/2 141/2/2 145/2/2
f 141/4/2 142/4/2 146/4/2
f 145/2/2 141/2/2 146/2/2
f 142/4/2 138/4/2 147/4/2
f 146/4/2 142/4/2 147/4/2
f 147/4/2 138/4/2 148/4/2
f 148/4/2 138/4/2 149/4/2
f 149/4/2 138/4/2 150/4/2
f 150/4/2 138/4/2 151/4/2
f 151/4/2 138/4/2 152/4/2
f 152/6/2 153/6/2 154/6/2
f 154/6/2 153/6/2 155/6/2
f 156/7/2 157/7/2 160/7/2
f 157/5/2 158/5/2 161/5/2
f 160/7/2 157/7/2 161/7/2
f 161/5/2 158/5/2 162/5/2
f 159/7/2 160/7/2 165/7/2
f 160/7/2 161/7/2 165/7/2
f 165/7/2 161/7/2 166/7/2
f 166/7/2 161/7/2 167/7/2
f 162/5/2 163/5/2 168/5/2
f 168/5/2 163/5/2 169/5/2
f 164/7/2 165/7/2 174/7/2
f 165/7/2 166/7/2 174/7/2
f 174/7/2 166/7/2 175/7/2
f 175/7/2 166/7/2 176/7/2
f 176/7/2 166/7/2 177/7/2
f 169/5/2 170/5/2 179/5/2
f 179/5/2 170/5/2 180/5/2
f 171/1/2 172/1/2 183/1/2
f 183/1/2 172/1/2 184/1/2
f 184/1/2 172/1/2 185/1/2
f 185/1/2 172/1/2 186/1/2
f 173/7/2 174/7/2 187/7/2
f 187/7/2 174/7/2 188/7/2
f 175/7/2 176/7/2 189/7/2
f 189/7/2 176/7/2 190/7/2
f 178/7/2 179/7/2 191/7/2
f 191/7/2 179/7/2 192/7/2
f 180/5/2 181/5/2 193/5/2
f 193/5/2 181/5/2 194/5/2
f 182/7/2 183/7/2 196/7/2
f 196/7/2 183/7/2 197/7/2
f 184/7/2 185/7/2 198/7/2
f 198/7/2 185/7/2 199/7/2
f 199/7/2 185/7/2 200/7/2
f 189/7/2 190/7/2 201/7/2
f 187/7/2 188/7/2 201/7/2
f 190/7/2 191/7/2 201/7/2
f 186/7/2 187/7/2 201/7/2
f 188/7/2 189/7/2 201/7/2
f 201/7/2 191/7/2 202/7/2
f 194/5/2 195/5/2 216/5/2
f 216/5/2 195/5/2 217/5/2
f 203/5/2 204/5/2 218/5/2
f 204/3/2 205/3/2 219/3/2
f 218/5/2 204/5/2 219/5/2
f 205/5/2 206/5/2 220/5/2
f 219/3/2 205/3/2 220/3/2
f 206/3/2 207/3/2 221/3/2
f 220/5/2 206/5/2 221/5/2
f 207/5/2 208/5/2 222/5/2
f 221/3/2 207/3/2 222/3/2
f 208/3/2 209/3/2 223/3/2
f 222/5/2 208/5/2 223/5/2
f 209/5/2 210/5/2 224/5/2
f 223/3/2 209/3/2 224/3/2
f 210/3/2 211/3/2 225/3/2
f 224/5/2 210/5/2 225/5/2
f 211/5/2 212/5/2 226/5/2
f 225/3/2 211/3/2 226/3/2
f 226/5/2 212/5/2 227/5/2
f 214/5/2 215/5/2 228/5/2
f 213/5/2 214/5/2 228/5/2
f 215/5/2 216/5/2 228/5/2
f 228/5/2 216/5/2 229/5/2
f 219/6/2 220/6/2 230/6/2
f 230/6/2 220/6/2 231/6/2
f 232/1/2 233/1/2 239/1/2
f 239/1/2 233/1/2 240/1/2
f 240/1/2 233/1/2 241/1/2
f 234/6/2 235/6/2 244/6/2
f 244/6/2 235/6/2 245/6/2
f 236/6/2 237/6/2 247/6/2
f 247/6/2 237/6/2 248/6/2
f 238/2/2 239/2/2 249/2/2
f 239/2/2 240/2/2 249/2/2
f 249/2/2 240/2/2 250/2/2
f 241/1/2 242/1/2 251/1/2
f 250/2/2 240/2/2 251/2/2
f 240/1/2 241/1/2 251/1/2
f 251/1/2 242/1/2 252/1/2
f 243/1/2 244/1/2 253/1/2
f 244/1/2 245/1/2 253/1/2
f 245/2/2 246/2/2 254/2/2
f 253/1/2 245/1/2 254/1/2
f 254/2/2 246/2/2 255/2/2
f 249/4/2 250/4/2 256/4/2
f 255/2/2 246/2/2 256/2/2
f 247/4/2 248/4/2 256/4/2
f 246/4/2 247/4/2 256/4/2
f 248/4/2 249/4/2 256/4/2
f 250/2/2 251/2/2 257/2/2
f 256/4/2 250/4/2 257/4/2
f 251/2/2 252/2/2 257/2/2
f 257/2/2 252/2/2 258/2/2
f 243/1/2 253/1/2 259/1/2
f 254/2/2 255/2/2 260/2/2
f 259/1/2 253/1/2 260/1/2
f 253/2/2 254/2/2 260/2/2
f 257/4/2 258/4/2 261/4/2
f 260/2/2 255/2/2 261/2/2
f 255/4/2 256/4/2 261/4/2
f 256/4/2 257/4/2 261/4/2
f 261/4/2 258/4/2 262/4/2
f 262/4/2 258/4/2 263/4/2
f 258/2/2 252/2/2 264/2/2
f 263/4/2 258/4/2 264/4/2
f 252/1/2 242/1/2 265/1/2
f 264/2/2 252/2/2 265/2/2
f 265/1/2 242/1/2 266/1/2
f 262/6/2 263/6/2 267/6/2
f 267/6/2 263/6/2 268/6/2
f 272/1/3 270/1/3 269/1/3
f 273/1/3 270/1/3 272/1/3
f 275/7/3 272/7/3 271/7/3
f 276/7/3 272/7/3 275/7/3
f 277/5/3 274/5/3 273/5/3
f 278/5/3 274/5/3 277/5/3
f 279/1/3 277/1/3 276/1/3
f 280/1/3 277/1/3 279/1/3
f 283/6/3 282/6/3 281/6/3
f 284/6/3 282/6/3 283/6/3
f 288/6/3 286/6/3 285/6/3
f 289/6/3 286/6/3 288/6/3
f 290/1/3 288/1/3 287/1/3
f 291/1/3 288/1/3 290/1/3
f 293/6/3 292/6/3 291/6/3
f 294/6/3 292/6/3 293/6/3
f 297/6/3 296/6/3 295/6/3
f 298/6/3 296/6/3 297/6/3
f 301/6/3 300/6/3 299/6/3
f 302/6/3 300/6/3 301/6/3
f 305/7/3 304/7/3 303/7/3
f 306/7/3 304/7/3 305/7/3
f 311/6/3 308/6/3 307/6/3
f 312/6/3 308/6/3 311/6/3
f 313/7/3 310/7/3 309/7/3
f 314/7/3 310/7/3 313/7/3
f 317/6/3 316/6/3 315/6/3
f 318/6/3 316/6/3 317/6/3
f 321/4/3 320/4/3 319/4/3
f 322/4/3 320/4/3 321/4/3
f 327/7/3 324/7/3 323/7/3
f 328/7/3 324/7/3 327/7/3
f 329/7/3 326/7/3 325/7/3
f 330/7/3 326/7/3 329/7/3
f 333/7/3 332/7/3 331/7/3
f 334/7/3 332/7/3 333/7/3
f 337/5/3 336/5/3 335/5/3
f 338/5/3 336/5/3 337/5/3
f 344/2/3 340/2/3 339/2/3
f 345/2/3 340/2/3 344/2/3
f 346/5/3 342/5/3 341/5/3
f 347/5/3 342/5/3 346/5/3
f 348/7/3 344/7/3 343/7/3
f 349/7/3 344/7/3 348/7/3
f 351/2/3 350/2/3 349/2/3
f 352/2/3 350/2/3 351/2/3
f 356/1/3 354/1/3 353/1/3
f 357/1/3 354/1/3 356/1/3
f 358/5/3 356/5/3 355/5/3
f 359/5/3 356/5/3 358/5/3
f 361/1/3 360/1/3 359/1/3
f 362/1/3 360/1/3 361/1/3
f 363/6/4 364/6/4 365/6/4
f 365/6/4 364/6/4 366/6/4
f 367/6/4 368/6/4 369/6/4
f 369/6/4 368/6/4 370/6/4
f 371/6/4 372/6/4 373/6/4
f 373/6/4 372/6/4 374/6/4
f 375/6/4 376/6/4 378/6/4
f 378/6/4 376/6/4 379/6/4
f 377/1/4 378/1/4 380/1/4
f 380/1/4 378/1/4 381/1/4
f 381/6/4 382/6/4 383/6/4
f 383/6/4 382/6/4 384/6/4
f 385/7/4 386/7/4 387/7/4
f 387/7/4 386/7/4 388/7/4
f 389/5/4 390/5/4 391/5/4
f 391/5/4 390/5/4 392/5/4
f 393/7/4 394/7/4 395/7/4
f 395/7/4 394/7/4 396/7/4
f 397/7/4 398/7/4 399/7/4
f 399/7/4 398/7/4 400/7/4
f 401/6/4 402/6/4 405/6/4
f 405/6/4 402/6/4 406/6/4
f 403/7/4 404/7/4 407/7/4
f 407/7/4 404/7/4 408/7/4
f 409/6/4 410/6/4 411/6/4
f 411/6/4 410/6/4 412/6/4
f 413/5/4 414/5/4 415/5/4
f 415/5/4 414/5/4 416/5/4
f 417/5/4 418/5/4 419/5/4
f 419/5/4 418/5/4 420/5/4
f 421/1/4 422/1/4 424/1/4
f 424/1/4 422/1/4 425/1/4
f 423/5/4 424/5/4 426/5/4
f 426/5/4 424/5/4 427/5/4
f 427/1/4 428/1/4 429/1/4
f 429/1/4 428/1/4 430/1/4
f 431/1/4 432/1/4 434/1/4
f 434/1/4 432/1/4 435/1/4
f 433/5/4 434/5/4 437/5/4
f 437/5/4 434/5/4 438/5/4
f 435/5/4 436/5/4 439/5/4
f 439/5/4 436/5/4 440/5/4
f 438/1/4 439/1/4 441/1/4
f 441/1/4 439/1/4 442/1/4
f 443/5/4 444/5/4 445/5/4
f 445/5/4 444/5/4 446/5/4
f 449/7/5 448/7/5 447/7/5
f 450/7/5 448/7/5 449/7/5
f 451/5/5 450/5/5 449/5/5
f 452/5/5 450/5/5 451/5/5
f 455/7/5 454/7/5 453/7/5
f 456/7/5 454/7/5 455/7/5
f 459/5/5 458/5/5 457/5/5
f 460/5/5 458/5/5 459/5/5
f 463/7/5 462/7/5 461/7/5
f 464/7/5 462/7/5 463/7/5
f 467/5/5 466/5/5 465/5/5
f 468/5/5 466/5/5 467/5/5
f 471/1/5 470/1/5 469/1/5
f 472/1/5 470/1/5 471/1/5
f 475/7/5 474/7/5 473/7/5
f 476/7/5 474/7/5 475/7/5
f 480/7/5 478/7/5 477/7/5
f 481/7/5 478/7/5 480/7/5
f 483/1/5 480/1/5 479/1/5
f 484/1/5 480/1/5 483/1/5
f 485/1/5 482/1/5 481/1/5
f 486/1/5 482/1/5 485/1/5
f 487/5/5 485/5/5 484/5/5
f 488/5/5 485/5/5 487/5/5
f 492/7/5 490/7/5 489/7/5
f 493/7/5 490/7/5 492/7/5
f 495/6/5 492/6/5 491/6/5
f 496/6/5 492/6/5 495/6/5
f 497/6/5 494/6/5 493/6/5
f 498/6/5 494/6/5 497/6/5
f 503/6/5 500/6/5 499/6/5
f 504/6/5 500/6/5 503/6/5
f 505/6/5 502/6/5 501/6/5
f 506/6/5 502/6/5 505/6/5
f 507/7/5 505/7/5 504/7/5
f 508/7/5 505/7/5 507/7/5
f 511/7/5 510/7/5 509/7/5
f 512/7/5 510/7/5 511/7/5
f 516/7/5 514/7/5 513/7/5
f 517/7/5 514/7/5 516/7/5
f 519/2/5 516/2/5 515/2/5
f 520/2/5 516/2/5 519/2/5
f 521/2/5 518/2/5 517/2/5
f 522/2/5 518/2/5 521/2/5
f 527/1/5 524/1/5 523/1/5
f 528/1/5 524/1/5 527/1/5
f 529/1/5 526/1/5 525/1/5
f 530/1/5 526/1/5 529/1/5
f 531/5/5 529/5/5 528/5/5
f 532/5/5 529/5/5 531/5/5
f 537/1/5 534/1/5 533/1/5
f 538/1/5 534/1/5 537/1/5
f 539/1/5 536/1/5 535/1/5
f 540/1/5 536/1/5 539/1/5
f 545/2/5 542/2/5 541/2/5
f 546/2/5 542/2/5 545/2/5
f 547/2/5 544/2/5 543/2/5
f 548/2/5 544/2/5 547/2/5
f 549/4/5 546/4/5 545/4/5
f 550/4/5 546/4/5 549/4/5
f 551/4/5 548/4/5 547/4/5
f 552/4/5 548/4/5 551/4/5
f 557/4/5 554/4/5 553/4/5
f 558/4/5 554/4/5 557/4/5
f 559/4/5 556/4/5 555/4/5
f 560/4/5 556/4/5 559/4/5
f 563/5/5 562/5/5 561/5/5
f 564/5/5 562/5/5 563/5/5
f 565/3/5 564/3/5 563/3/5
f 566/3/5 564/3/5 565/3/5
f 567/5/5 566/5/5 565/5/5
f 568/5/5 566/5/5 567/5/5
f 569/3/5 568/3/5 567/3/5
f 570/3/5 568/3/5 569/3/5
f 571/5/5 570/5/5 569/5/5
f 572/5/5 570/5/5 571/5/5
f 573/3/5 572/3/5 571/3/5
f 574/3/5 572/3/5 573/3/5
f 575/5/5 574/5/5 573/5/5
f 576/5/5 574/5/5 575/5/5
f 577/3/5 576/3/5 575/3/5
f 578/3/5 576/3/5 577/3/5
f 579/5/5 578/5/5 577/5/5
f 580/5/5 578/5/5 579/5/5
f 581/5/6 582/5/6 583/5/6
f 583/5/6 582/5/6 584/5/6
f 585/7/6 586/7/6 587/7/6
f 587/7/6 586/7/6 588/7/6
f 589/5/6 590/5/6 591/5/6
f 591/5/6 590/5/6 592/5/6
f 593/7/6 594/7/6 595/7/6
f 595/7/6 594/7/6 596/7/6
f 597/7/6 598/7/6 599/7/6
f 599/7/6 598/7/6 600/7/6
f 601/7/6 602/7/6 603/7/6
f 603/7/6 602/7/6 604/7/6
f 603/7/6 604/7/6 605/7/6
f 605/7/6 604/7/6 606/7/6
f 605/7/6 606/7/6 607/7/6
f 607/7/6 606/7/6 608/7/6
f 609/1/6 610/1/6 613/1/6
f 613/1/6 610/1/6 614/1/6
f 611/1/6 612/1/6 615/1/6
f 615/1/6 612/1/6 616/1/6
f 613/2/6 614/2/6 617/2/6
f 615/2/6 616/2/6 618/2/6
f 613/2/6 617/2/6 619/2/6
f 619/2/6 617/2/6 620/2/6
f 618/2/6 616/2/6 621/2/6
f 621/2/6 616/2/6 622/2/6
f 619/4/6 620/4/6 623/4/6
f 621/4/6 622/4/6 624/4/6
f 619/4/6 623/4/6 625/4/6
f 624/4/6 622/4/6 626/4/6
f 619/4/6 625/4/6 627/4/6
f 626/4/6 622/4/6 628/4/6
f 619/4/6 627/4/6 629/4/6
f 628/4/6 622/4/6 630/4/6
f 619/4/6 629/4/6 631/4/6
f 630/4/6 622/4/6 632/4/6
f 619/4/6 631/4/6 633/4/6
f 633/4/6 631/4/6 634/4/6
f 632/4/6 622/4/6 635/4/6
f 635/4/6 622/4/6 636/4/6
f 637/4/6 638/4/6 639/4/6
f 639/4/6 638/4/6 640/4/6
f 641/4/6 642/4/6 645/4/6
f 645/4/6 642/4/6 646/4/6
f 643/4/6 644/4/6 647/4/6
f 647/4/6 644/4/6 648/4/6
f 645/2/6 646/2/6 649/2/6
f 649/2/6 646/2/6 650/2/6
f 647/2/6 648/2/6 651/2/6
f 651/2/6 648/2/6 652/2/6
f 649/1/6 650/1/6 653/1/6
f 653/1/6 650/1/6 654/1/6
f 651/1/6 652/1/6 655/1/6
f 655/1/6 652/1/6 656/1/6
f 654/5/6 655/5/6 657/5/6
f 657/5/6 655/5/6 658/5/6
f 659/5/6 660/5/6 661/5/6
f 661/5/6 660/5/6 662/5/6
f 663/5/6 664/5/6 665/5/6
f 665/5/6 664/5/6 666/5/6
f 665/3/6 666/3/6 667/3/6
f 667/3/6 666/3/6 668/3/6
f 667/5/6 668/5/6 669/5/6
f 669/5/6 668/5/6 670/5/6
f 669/3/6 670/3/6 671/3/6
f 671/3/6 670/3/6 672/3/6
f 671/5/6 672/5/6 673/5/6
f 673/5/6 672/5/6 674/5/6
f 673/3/6 674/3/6 675/3/6
f 675/3/6 674/3/6 676/3/6
f 675/5/6 676/5/6 678/5/6
f 678/5/6 676/5/6 679/5/6
f 678/5/6 679/5/6 681/5/6
f 677/6/6 678/6/6 681/6/6
f 679/6/6 680/6/6 682/6/6
f 681/5/6 679/5/6 682/5/6
f 677/6/6 681/6/6 683/6/6
f 682/6/6 680/6/6 684/6/6
f 677/6/6 683/6/6 685/6/6
f 683/5/6 684/5/6 686/5/6
f 685/6/6 683/6/6 686/6/6
f 684/6/6 680/6/6 687/6/6
f 686/5/6 684/5/6 687/5/6
f 687/6/6 680/6/6 688/6/6
f 686/5/6 687/5/6 689/5/6
f 689/5/6 687/5/6 690/5/6
f 691/6/6 692/6/6 693/6/6
f 693/6/6 692/6/6 694/6/6
