# MagicaVoxel @ Ephtracy

# group
g CastlePieces-0

# material
mtllib CastlePieces-0.mtl
usemtl palette

# normals
vn -1 0 0
vn 1 0 0
vn 0 0 1
vn 0 0 -1
vn 0 -1 0
vn 0 1 0

# texcoords
vt 0.673828 0.5
vt 0.994141 0.5

# verts
v -16 0 0.5
v -16 0 -0.5
v -16 32 0.5
v -16 32 -0.5
v -13 25 0.5
v -13 25 -0.5
v -13 26 0.5
v -13 26 -0.5
v -12 26 0.5
v -12 26 -0.5
v -12 27 0.5
v -12 27 -0.5
v -11 27 0.5
v -11 27 -0.5
v -11 28 0.5
v -11 28 -0.5
v -10 28 0.5
v -10 28 -0.5
v -10 29 0.5
v -10 29 -0.5
v -9 29 0.5
v -9 29 -0.5
v -9 30 0.5
v -9 30 -0.5
v 5 29 0.5
v 5 29 -0.5
v 5 30 0.5
v 5 30 -0.5
v 6 28 0.5
v 6 28 -0.5
v 6 29 0.5
v 6 29 -0.5
v 7 27 0.5
v 7 27 -0.5
v 7 28 0.5
v 7 28 -0.5
v 8 26 0.5
v 8 26 -0.5
v 8 27 0.5
v 8 27 -0.5
v 9 25 0.5
v 9 25 -0.5
v 9 26 0.5
v 9 26 -0.5
v 10 24 0.5
v 10 24 -0.5
v 10 25 0.5
v 10 25 -0.5
v 11 23 0.5
v 11 23 -0.5
v 11 24 0.5
v 11 24 -0.5
v 12 22 0.5
v 12 22 -0.5
v 12 23 0.5
v 12 23 -0.5
v 13 21 0.5
v 13 21 -0.5
v 13 22 0.5
v 13 22 -0.5
v 14 0 0.5
v 14 0 -0.5
v 14 21 0.5
v 14 21 -0.5
v 14 25 0.5
v 14 25 -0.5
v 14 30 0.5
v 14 30 -0.5
v -14 0 0.5
v -14 0 -0.5
v -14 21 0.5
v -14 21 -0.5
v -14 25 0.5
v -14 25 -0.5
v -14 30 0.5
v -14 30 -0.5
v -13 21 0.5
v -13 21 -0.5
v -13 22 0.5
v -13 22 -0.5
v -12 22 0.5
v -12 22 -0.5
v -12 23 0.5
v -12 23 -0.5
v -11 23 0.5
v -11 23 -0.5
v -11 24 0.5
v -11 24 -0.5
v -10 24 0.5
v -10 24 -0.5
v -10 25 0.5
v -10 25 -0.5
v -9 25 0.5
v -9 25 -0.5
v -9 26 0.5
v -9 26 -0.5
v -8 26 0.5
v -8 26 -0.5
v -8 27 0.5
v -8 27 -0.5
v -7 27 0.5
v -7 27 -0.5
v -7 28 0.5
v -7 28 -0.5
v -6 28 0.5
v -6 28 -0.5
v -6 29 0.5
v -6 29 -0.5
v -5 29 0.5
v -5 29 -0.5
v -5 30 0.5
v -5 30 -0.5
v 9 29 0.5
v 9 29 -0.5
v 9 30 0.5
v 9 30 -0.5
v 10 28 0.5
v 10 28 -0.5
v 10 29 0.5
v 10 29 -0.5
v 11 27 0.5
v 11 27 -0.5
v 11 28 0.5
v 11 28 -0.5
v 12 26 0.5
v 12 26 -0.5
v 12 27 0.5
v 12 27 -0.5
v 13 25 0.5
v 13 25 -0.5
v 13 26 0.5
v 13 26 -0.5
v 16 0 0.5
v 16 0 -0.5
v 16 32 0.5
v 16 32 -0.5
v -16 0 0.5
v -16 32 0.5
v -15 0 0.5
v -15 31 0.5
v -14 0 0.5
v -14 21 0.5
v -14 22 0.5
v -14 24 0.5
v -14 25 0.5
v -14 30 0.5
v -13 21 0.5
v -13 22 0.5
v -13 23 0.5
v -13 24 0.5
v -13 25 0.5
v -13 26 0.5
v -12 22 0.5
v -12 23 0.5
v -12 24 0.5
v -12 25 0.5
v -12 26 0.5
v -12 27 0.5
v -11 23 0.5
v -11 24 0.5
v -11 25 0.5
v -11 26 0.5
v -11 27 0.5
v -11 28 0.5
v -10 24 0.5
v -10 25 0.5
v -10 26 0.5
v -10 27 0.5
v -10 28 0.5
v -10 29 0.5
v -9 25 0.5
v -9 26 0.5
v -9 27 0.5
v -9 28 0.5
v -9 29 0.5
v -9 30 0.5
v -8 26 0.5
v -8 27 0.5
v -8 28 0.5
v -8 29 0.5
v -8 30 0.5
v -7 27 0.5
v -7 28 0.5
v -7 29 0.5
v -6 28 0.5
v -6 29 0.5
v -6 30 0.5
v -5 29 0.5
v -5 30 0.5
v 5 29 0.5
v 5 30 0.5
v 6 28 0.5
v 6 29 0.5
v 6 30 0.5
v 7 27 0.5
v 7 28 0.5
v 7 29 0.5
v 8 26 0.5
v 8 27 0.5
v 8 28 0.5
v 8 29 0.5
v 8 30 0.5
v 9 25 0.5
v 9 26 0.5
v 9 27 0.5
v 9 28 0.5
v 9 29 0.5
v 9 30 0.5
v 10 24 0.5
v 10 25 0.5
v 10 26 0.5
v 10 27 0.5
v 10 28 0.5
v 10 29 0.5
v 11 23 0.5
v 11 24 0.5
v 11 25 0.5
v 11 26 0.5
v 11 27 0.5
v 11 28 0.5
v 12 22 0.5
v 12 23 0.5
v 12 24 0.5
v 12 25 0.5
v 12 26 0.5
v 12 27 0.5
v 13 21 0.5
v 13 22 0.5
v 13 23 0.5
v 13 24 0.5
v 13 25 0.5
v 13 26 0.5
v 14 0 0.5
v 14 21 0.5
v 14 22 0.5
v 14 24 0.5
v 14 25 0.5
v 14 30 0.5
v 15 0 0.5
v 15 31 0.5
v 16 0 0.5
v 16 32 0.5
v -16 0 -0.5
v -16 32 -0.5
v -15 0 -0.5
v -15 31 -0.5
v -14 0 -0.5
v -14 21 -0.5
v -14 22 -0.5
v -14 24 -0.5
v -14 25 -0.5
v -14 30 -0.5
v -13 21 -0.5
v -13 22 -0.5
v -13 23 -0.5
v -13 24 -0.5
v -13 25 -0.5
v -13 26 -0.5
v -12 22 -0.5
v -12 23 -0.5
v -12 24 -0.5
v -12 25 -0.5
v -12 26 -0.5
v -12 27 -0.5
v -11 23 -0.5
v -11 24 -0.5
v -11 25 -0.5
v -11 26 -0.5
v -11 27 -0.5
v -11 28 -0.5
v -10 24 -0.5
v -10 25 -0.5
v -10 26 -0.5
v -10 27 -0.5
v -10 28 -0.5
v -10 29 -0.5
v -9 25 -0.5
v -9 26 -0.5
v -9 27 -0.5
v -9 28 -0.5
v -9 29 -0.5
v -9 30 -0.5
v -8 26 -0.5
v -8 27 -0.5
v -8 28 -0.5
v -8 29 -0.5
v -8 30 -0.5
v -7 27 -0.5
v -7 28 -0.5
v -7 29 -0.5
v -6 28 -0.5
v -6 29 -0.5
v -6 30 -0.5
v -5 29 -0.5
v -5 30 -0.5
v 5 29 -0.5
v 5 30 -0.5
v 6 28 -0.5
v 6 29 -0.5
v 6 30 -0.5
v 7 27 -0.5
v 7 28 -0.5
v 7 29 -0.5
v 8 26 -0.5
v 8 27 -0.5
v 8 28 -0.5
v 8 29 -0.5
v 8 30 -0.5
v 9 25 -0.5
v 9 26 -0.5
v 9 27 -0.5
v 9 28 -0.5
v 9 29 -0.5
v 9 30 -0.5
v 10 24 -0.5
v 10 25 -0.5
v 10 26 -0.5
v 10 27 -0.5
v 10 28 -0.5
v 10 29 -0.5
v 11 23 -0.5
v 11 24 -0.5
v 11 25 -0.5
v 11 26 -0.5
v 11 27 -0.5
v 11 28 -0.5
v 12 22 -0.5
v 12 23 -0.5
v 12 24 -0.5
v 12 25 -0.5
v 12 26 -0.5
v 12 27 -0.5
v 13 21 -0.5
v 13 22 -0.5
v 13 23 -0.5
v 13 24 -0.5
v 13 25 -0.5
v 13 26 -0.5
v 14 0 -0.5
v 14 21 -0.5
v 14 22 -0.5
v 14 24 -0.5
v 14 25 -0.5
v 14 30 -0.5
v 15 0 -0.5
v 15 31 -0.5
v 16 0 -0.5
v 16 32 -0.5
v -16 0 0.5
v -15 0 0.5
v -14 0 0.5
v 14 0 0.5
v 15 0 0.5
v 16 0 0.5
v -16 0 -0.5
v -15 0 -0.5
v -14 0 -0.5
v 14 0 -0.5
v 15 0 -0.5
v 16 0 -0.5
v -14 21 0.5
v -13 21 0.5
v 13 21 0.5
v 14 21 0.5
v -14 21 -0.5
v -13 21 -0.5
v 13 21 -0.5
v 14 21 -0.5
v -13 22 0.5
v -12 22 0.5
v 12 22 0.5
v 13 22 0.5
v -13 22 -0.5
v -12 22 -0.5
v 12 22 -0.5
v 13 22 -0.5
v -12 23 0.5
v -11 23 0.5
v 11 23 0.5
v 12 23 0.5
v -12 23 -0.5
v -11 23 -0.5
v 11 23 -0.5
v 12 23 -0.5
v -11 24 0.5
v -10 24 0.5
v 10 24 0.5
v 11 24 0.5
v -11 24 -0.5
v -10 24 -0.5
v 10 24 -0.5
v 11 24 -0.5
v -10 25 0.5
v -9 25 0.5
v 9 25 0.5
v 10 25 0.5
v -10 25 -0.5
v -9 25 -0.5
v 9 25 -0.5
v 10 25 -0.5
v -9 26 0.5
v -8 26 0.5
v 8 26 0.5
v 9 26 0.5
v -9 26 -0.5
v -8 26 -0.5
v 8 26 -0.5
v 9 26 -0.5
v -8 27 0.5
v -7 27 0.5
v 7 27 0.5
v 8 27 0.5
v -8 27 -0.5
v -7 27 -0.5
v 7 27 -0.5
v 8 27 -0.5
v -7 28 0.5
v -6 28 0.5
v 6 28 0.5
v 7 28 0.5
v -7 28 -0.5
v -6 28 -0.5
v 6 28 -0.5
v 7 28 -0.5
v -6 29 0.5
v -5 29 0.5
v 5 29 0.5
v 6 29 0.5
v -6 29 -0.5
v -5 29 -0.5
v 5 29 -0.5
v 6 29 -0.5
v -14 30 0.5
v -9 30 0.5
v -5 30 0.5
v 5 30 0.5
v 9 30 0.5
v 14 30 0.5
v -14 30 -0.5
v -9 30 -0.5
v -5 30 -0.5
v 5 30 -0.5
v 9 30 -0.5
v 14 30 -0.5
v -14 25 0.5
v -13 25 0.5
v 13 25 0.5
v 14 25 0.5
v -14 25 -0.5
v -13 25 -0.5
v 13 25 -0.5
v 14 25 -0.5
v -13 26 0.5
v -12 26 0.5
v 12 26 0.5
v 13 26 0.5
v -13 26 -0.5
v -12 26 -0.5
v 12 26 -0.5
v 13 26 -0.5
v -12 27 0.5
v -11 27 0.5
v 11 27 0.5
v 12 27 0.5
v -12 27 -0.5
v -11 27 -0.5
v 11 27 -0.5
v 12 27 -0.5
v -11 28 0.5
v -10 28 0.5
v 10 28 0.5
v 11 28 0.5
v -11 28 -0.5
v -10 28 -0.5
v 10 28 -0.5
v 11 28 -0.5
v -10 29 0.5
v -9 29 0.5
v 9 29 0.5
v 10 29 0.5
v -10 29 -0.5
v -9 29 -0.5
v 9 29 -0.5
v 10 29 -0.5
v -16 32 0.5
v 16 32 0.5
v -16 32 -0.5
v 16 32 -0.5

# faces
f 3/1/1 2/1/1 1/1/1
f 4/1/1 2/1/1 3/1/1
f 7/2/1 6/2/1 5/2/1
f 8/2/1 6/2/1 7/2/1
f 11/2/1 10/2/1 9/2/1
f 12/2/1 10/2/1 11/2/1
f 15/2/1 14/2/1 13/2/1
f 16/2/1 14/2/1 15/2/1
f 19/2/1 18/2/1 17/2/1
f 20/2/1 18/2/1 19/2/1
f 23/2/1 22/2/1 21/2/1
f 24/2/1 22/2/1 23/2/1
f 27/2/1 26/2/1 25/2/1
f 28/2/1 26/2/1 27/2/1
f 31/2/1 30/2/1 29/2/1
f 32/2/1 30/2/1 31/2/1
f 35/2/1 34/2/1 33/2/1
f 36/2/1 34/2/1 35/2/1
f 39/2/1 38/2/1 37/2/1
f 40/2/1 38/2/1 39/2/1
f 43/2/1 42/2/1 41/2/1
f 44/2/1 42/2/1 43/2/1
f 47/2/1 46/2/1 45/2/1
f 48/2/1 46/2/1 47/2/1
f 51/2/1 50/2/1 49/2/1
f 52/2/1 50/2/1 51/2/1
f 55/2/1 54/2/1 53/2/1
f 56/2/1 54/2/1 55/2/1
f 59/2/1 58/2/1 57/2/1
f 60/2/1 58/2/1 59/2/1
f 63/2/1 62/2/1 61/2/1
f 64/2/1 62/2/1 63/2/1
f 67/2/1 66/2/1 65/2/1
f 68/2/1 66/2/1 67/2/1
f 69/2/2 70/2/2 71/2/2
f 71/2/2 70/2/2 72/2/2
f 73/2/2 74/2/2 75/2/2
f 75/2/2 74/2/2 76/2/2
f 77/2/2 78/2/2 79/2/2
f 79/2/2 78/2/2 80/2/2
f 81/2/2 82/2/2 83/2/2
f 83/2/2 82/2/2 84/2/2
f 85/2/2 86/2/2 87/2/2
f 87/2/2 86/2/2 88/2/2
f 89/2/2 90/2/2 91/2/2
f 91/2/2 90/2/2 92/2/2
f 93/2/2 94/2/2 95/2/2
f 95/2/2 94/2/2 96/2/2
f 97/2/2 98/2/2 99/2/2
f 99/2/2 98/2/2 100/2/2
f 101/2/2 102/2/2 103/2/2
f 103/2/2 102/2/2 104/2/2
f 105/2/2 106/2/2 107/2/2
f 107/2/2 106/2/2 108/2/2
f 109/2/2 110/2/2 111/2/2
f 111/2/2 110/2/2 112/2/2
f 113/2/2 114/2/2 115/2/2
f 115/2/2 114/2/2 116/2/2
f 117/2/2 118/2/2 119/2/2
f 119/2/2 118/2/2 120/2/2
f 121/2/2 122/2/2 123/2/2
f 123/2/2 122/2/2 124/2/2
f 125/2/2 126/2/2 127/2/2
f 127/2/2 126/2/2 128/2/2
f 129/2/2 130/2/2 131/2/2
f 131/2/2 130/2/2 132/2/2
f 133/1/2 134/1/2 135/1/2
f 135/1/2 134/1/2 136/1/2
f 139/1/3 138/1/3 137/1/3
f 140/1/3 138/1/3 139/1/3
f 141/2/3 140/2/3 139/2/3
f 142/2/3 140/2/3 141/2/3
f 143/2/3 140/2/3 142/2/3
f 144/2/3 140/2/3 143/2/3
f 145/2/3 140/2/3 144/2/3
f 146/2/3 140/2/3 145/2/3
f 147/2/3 143/2/3 142/2/3
f 148/1/3 144/1/3 143/1/3
f 148/2/3 143/2/3 147/2/3
f 149/1/3 144/1/3 148/1/3
f 150/2/3 145/2/3 144/2/3
f 150/1/3 144/1/3 149/1/3
f 151/2/3 145/2/3 150/2/3
f 153/2/3 149/2/3 148/2/3
f 154/1/3 151/1/3 150/1/3
f 154/2/3 149/2/3 153/2/3
f 154/1/3 150/1/3 149/1/3
f 155/1/3 151/1/3 154/1/3
f 156/2/3 152/2/3 151/2/3
f 156/1/3 151/1/3 155/1/3
f 157/2/3 152/2/3 156/2/3
f 159/2/3 155/2/3 154/2/3
f 160/1/3 157/1/3 156/1/3
f 160/2/3 155/2/3 159/2/3
f 160/1/3 156/1/3 155/1/3
f 161/1/3 157/1/3 160/1/3
f 162/2/3 158/2/3 157/2/3
f 162/1/3 157/1/3 161/1/3
f 163/2/3 158/2/3 162/2/3
f 165/2/3 161/2/3 160/2/3
f 166/1/3 163/1/3 162/1/3
f 166/2/3 161/2/3 165/2/3
f 166/1/3 162/1/3 161/1/3
f 167/1/3 163/1/3 166/1/3
f 168/2/3 164/2/3 163/2/3
f 168/1/3 163/1/3 167/1/3
f 169/2/3 164/2/3 168/2/3
f 171/2/3 167/2/3 166/2/3
f 172/1/3 169/1/3 168/1/3
f 172/2/3 167/2/3 171/2/3
f 172/1/3 168/1/3 167/1/3
f 173/1/3 169/1/3 172/1/3
f 174/2/3 170/2/3 169/2/3
f 174/1/3 169/1/3 173/1/3
f 175/2/3 170/2/3 174/2/3
f 176/2/3 140/2/3 146/2/3
f 177/2/3 173/2/3 172/2/3
f 178/1/3 175/1/3 174/1/3
f 178/2/3 173/2/3 177/2/3
f 178/1/3 174/1/3 173/1/3
f 179/1/3 175/1/3 178/1/3
f 180/2/3 176/2/3 175/2/3
f 180/1/3 175/1/3 179/1/3
f 181/2/3 140/2/3 176/2/3
f 181/2/3 176/2/3 180/2/3
f 182/2/3 179/2/3 178/2/3
f 183/1/3 180/1/3 179/1/3
f 183/2/3 179/2/3 182/2/3
f 183/1/3 181/1/3 180/1/3
f 184/1/3 181/1/3 183/1/3
f 185/2/3 184/2/3 183/2/3
f 186/1/3 181/1/3 184/1/3
f 186/2/3 184/2/3 185/2/3
f 187/2/3 140/2/3 181/2/3
f 187/1/3 181/1/3 186/1/3
f 188/2/3 187/2/3 186/2/3
f 189/2/3 140/2/3 187/2/3
f 189/2/3 187/2/3 188/2/3
f 191/2/3 140/2/3 189/2/3
f 193/2/3 191/2/3 190/2/3
f 194/2/3 140/2/3 191/2/3
f 194/2/3 191/2/3 193/2/3
f 196/2/3 193/2/3 192/2/3
f 197/1/3 194/1/3 193/1/3
f 197/2/3 193/2/3 196/2/3
f 199/2/3 196/2/3 195/2/3
f 200/1/3 197/1/3 196/1/3
f 200/2/3 196/2/3 199/2/3
f 201/1/3 194/1/3 197/1/3
f 201/1/3 197/1/3 200/1/3
f 202/2/3 140/2/3 194/2/3
f 202/1/3 194/1/3 201/1/3
f 204/2/3 199/2/3 198/2/3
f 205/1/3 201/1/3 200/1/3
f 205/1/3 200/1/3 199/1/3
f 205/2/3 199/2/3 204/2/3
f 206/1/3 201/1/3 205/1/3
f 207/2/3 202/2/3 201/2/3
f 207/1/3 201/1/3 206/1/3
f 208/2/3 140/2/3 202/2/3
f 208/2/3 202/2/3 207/2/3
f 210/2/3 204/2/3 203/2/3
f 211/1/3 206/1/3 205/1/3
f 211/1/3 205/1/3 204/1/3
f 211/2/3 204/2/3 210/2/3
f 212/1/3 206/1/3 211/1/3
f 213/2/3 207/2/3 206/2/3
f 213/1/3 206/1/3 212/1/3
f 214/2/3 207/2/3 213/2/3
f 216/2/3 210/2/3 209/2/3
f 217/1/3 212/1/3 211/1/3
f 217/1/3 211/1/3 210/1/3
f 217/2/3 210/2/3 216/2/3
f 218/1/3 212/1/3 217/1/3
f 219/2/3 213/2/3 212/2/3
f 219/1/3 212/1/3 218/1/3
f 220/2/3 213/2/3 219/2/3
f 222/2/3 216/2/3 215/2/3
f 223/1/3 218/1/3 217/1/3
f 223/1/3 217/1/3 216/1/3
f 223/2/3 216/2/3 222/2/3
f 224/1/3 218/1/3 223/1/3
f 225/2/3 219/2/3 218/2/3
f 225/1/3 218/1/3 224/1/3
f 226/2/3 219/2/3 225/2/3
f 228/2/3 222/2/3 221/2/3
f 229/1/3 224/1/3 223/1/3
f 229/1/3 223/1/3 222/1/3
f 229/2/3 222/2/3 228/2/3
f 230/1/3 224/1/3 229/1/3
f 231/2/3 225/2/3 224/2/3
f 231/1/3 224/1/3 230/1/3
f 232/2/3 225/2/3 231/2/3
f 234/2/3 228/2/3 227/2/3
f 235/1/3 230/1/3 229/1/3
f 235/1/3 229/1/3 228/1/3
f 235/2/3 228/2/3 234/2/3
f 236/2/3 231/2/3 230/2/3
f 236/1/3 230/1/3 235/1/3
f 237/2/3 231/2/3 236/2/3
f 238/2/3 140/2/3 208/2/3
f 239/2/3 237/2/3 236/2/3
f 239/2/3 238/2/3 237/2/3
f 239/2/3 236/2/3 235/2/3
f 239/2/3 235/2/3 234/2/3
f 239/2/3 234/2/3 233/2/3
f 240/1/3 138/1/3 140/1/3
f 240/2/3 238/2/3 239/2/3
f 240/2/3 140/2/3 238/2/3
f 241/1/3 240/1/3 239/1/3
f 242/1/3 138/1/3 240/1/3
f 242/1/3 240/1/3 241/1/3
f 243/1/4 244/1/4 245/1/4
f 245/1/4 244/1/4 246/1/4
f 245/2/4 246/2/4 247/2/4
f 247/2/4 246/2/4 248/2/4
f 248/2/4 246/2/4 249/2/4
f 249/2/4 246/2/4 250/2/4
f 250/2/4 246/2/4 251/2/4
f 251/2/4 246/2/4 252/2/4
f 248/2/4 249/2/4 253/2/4
f 249/1/4 250/1/4 254/1/4
f 253/2/4 249/2/4 254/2/4
f 254/1/4 250/1/4 255/1/4
f 250/2/4 251/2/4 256/2/4
f 255/1/4 250/1/4 256/1/4
f 256/2/4 251/2/4 257/2/4
f 254/2/4 255/2/4 259/2/4
f 256/1/4 257/1/4 260/1/4
f 259/2/4 255/2/4 260/2/4
f 255/1/4 256/1/4 260/1/4
f 260/1/4 257/1/4 261/1/4
f 257/2/4 258/2/4 262/2/4
f 261/1/4 257/1/4 262/1/4
f 262/2/4 258/2/4 263/2/4
f 260/2/4 261/2/4 265/2/4
f 262/1/4 263/1/4 266/1/4
f 265/2/4 261/2/4 266/2/4
f 261/1/4 262/1/4 266/1/4
f 266/1/4 263/1/4 267/1/4
f 263/2/4 264/2/4 268/2/4
f 267/1/4 263/1/4 268/1/4
f 268/2/4 264/2/4 269/2/4
f 266/2/4 267/2/4 271/2/4
f 268/1/4 269/1/4 272/1/4
f 271/2/4 267/2/4 272/2/4
f 267/1/4 268/1/4 272/1/4
f 272/1/4 269/1/4 273/1/4
f 269/2/4 270/2/4 274/2/4
f 273/1/4 269/1/4 274/1/4
f 274/2/4 270/2/4 275/2/4
f 272/2/4 273/2/4 277/2/4
f 274/1/4 275/1/4 278/1/4
f 277/2/4 273/2/4 278/2/4
f 273/1/4 274/1/4 278/1/4
f 278/1/4 275/1/4 279/1/4
f 275/2/4 276/2/4 280/2/4
f 279/1/4 275/1/4 280/1/4
f 280/2/4 276/2/4 281/2/4
f 252/2/4 246/2/4 282/2/4
f 278/2/4 279/2/4 283/2/4
f 280/1/4 281/1/4 284/1/4
f 283/2/4 279/2/4 284/2/4
f 279/1/4 280/1/4 284/1/4
f 284/1/4 281/1/4 285/1/4
f 281/2/4 282/2/4 286/2/4
f 285/1/4 281/1/4 286/1/4
f 282/2/4 246/2/4 287/2/4
f 286/2/4 282/2/4 287/2/4
f 284/2/4 285/2/4 288/2/4
f 285/1/4 286/1/4 289/1/4
f 288/2/4 285/2/4 289/2/4
f 286/1/4 287/1/4 289/1/4
f 289/1/4 287/1/4 290/1/4
f 289/2/4 290/2/4 291/2/4
f 290/1/4 287/1/4 292/1/4
f 291/2/4 290/2/4 292/2/4
f 287/2/4 246/2/4 293/2/4
f 292/1/4 287/1/4 293/1/4
f 292/2/4 293/2/4 294/2/4
f 293/2/4 246/2/4 295/2/4
f 294/2/4 293/2/4 295/2/4
f 295/2/4 246/2/4 297/2/4
f 296/2/4 297/2/4 299/2/4
f 297/2/4 246/2/4 300/2/4
f 299/2/4 297/2/4 300/2/4
f 298/2/4 299/2/4 302/2/4
f 299/1/4 300/1/4 303/1/4
f 302/2/4 299/2/4 303/2/4
f 301/2/4 302/2/4 305/2/4
f 302/1/4 303/1/4 306/1/4
f 305/2/4 302/2/4 306/2/4
f 303/1/4 300/1/4 307/1/4
f 306/1/4 303/1/4 307/1/4
f 300/2/4 246/2/4 308/2/4
f 307/1/4 300/1/4 308/1/4
f 304/2/4 305/2/4 310/2/4
f 306/1/4 307/1/4 311/1/4
f 305/1/4 306/1/4 311/1/4
f 310/2/4 305/2/4 311/2/4
f 311/1/4 307/1/4 312/1/4
f 307/2/4 308/2/4 313/2/4
f 312/1/4 307/1/4 313/1/4
f 308/2/4 246/2/4 314/2/4
f 313/2/4 308/2/4 314/2/4
f 309/2/4 310/2/4 316/2/4
f 311/1/4 312/1/4 317/1/4
f 310/1/4 311/1/4 317/1/4
f 316/2/4 310/2/4 317/2/4
f 317/1/4 312/1/4 318/1/4
f 312/2/4 313/2/4 319/2/4
f 318/1/4 312/1/4 319/1/4
f 319/2/4 313/2/4 320/2/4
f 315/2/4 316/2/4 322/2/4
f 317/1/4 318/1/4 323/1/4
f 316/1/4 317/1/4 323/1/4
f 322/2/4 316/2/4 323/2/4
f 323/1/4 318/1/4 324/1/4
f 318/2/4 319/2/4 325/2/4
f 324/1/4 318/1/4 325/1/4
f 325/2/4 319/2/4 326/2/4
f 321/2/4 322/2/4 328/2/4
f 323/1/4 324/1/4 329/1/4
f 322/1/4 323/1/4 329/1/4
f 328/2/4 322/2/4 329/2/4
f 329/1/4 324/1/4 330/1/4
f 324/2/4 325/2/4 331/2/4
f 330/1/4 324/1/4 331/1/4
f 331/2/4 325/2/4 332/2/4
f 327/2/4 328/2/4 334/2/4
f 329/1/4 330/1/4 335/1/4
f 328/1/4 329/1/4 335/1/4
f 334/2/4 328/2/4 335/2/4
f 335/1/4 330/1/4 336/1/4
f 330/2/4 331/2/4 337/2/4
f 336/1/4 330/1/4 337/1/4
f 337/2/4 331/2/4 338/2/4
f 333/2/4 334/2/4 340/2/4
f 335/1/4 336/1/4 341/1/4
f 334/1/4 335/1/4 341/1/4
f 340/2/4 334/2/4 341/2/4
f 336/2/4 337/2/4 342/2/4
f 341/1/4 336/1/4 342/1/4
f 342/2/4 337/2/4 343/2/4
f 314/2/4 246/2/4 344/2/4
f 342/2/4 343/2/4 345/2/4
f 343/2/4 344/2/4 345/2/4
f 341/2/4 342/2/4 345/2/4
f 340/2/4 341/2/4 345/2/4
f 339/2/4 340/2/4 345/2/4
f 246/1/4 244/1/4 346/1/4
f 345/2/4 344/2/4 346/2/4
f 344/2/4 246/2/4 346/2/4
f 345/1/4 346/1/4 347/1/4
f 346/1/4 244/1/4 348/1/4
f 347/1/4 346/1/4 348/1/4
f 355/1/5 350/1/5 349/1/5
f 356/2/5 351/2/5 350/2/5
f 356/1/5 350/1/5 355/1/5
f 357/2/5 351/2/5 356/2/5
f 358/2/5 353/2/5 352/2/5
f 359/1/5 354/1/5 353/1/5
f 359/2/5 353/2/5 358/2/5
f 360/1/5 354/1/5 359/1/5
f 365/2/5 362/2/5 361/2/5
f 366/2/5 362/2/5 365/2/5
f 367/2/5 364/2/5 363/2/5
f 368/2/5 364/2/5 367/2/5
f 373/2/5 370/2/5 369/2/5
f 374/2/5 370/2/5 373/2/5
f 375/2/5 372/2/5 371/2/5
f 376/2/5 372/2/5 375/2/5
f 381/2/5 378/2/5 377/2/5
f 382/2/5 378/2/5 381/2/5
f 383/2/5 380/2/5 379/2/5
f 384/2/5 380/2/5 383/2/5
f 389/2/5 386/2/5 385/2/5
f 390/2/5 386/2/5 389/2/5
f 391/2/5 388/2/5 387/2/5
f 392/2/5 388/2/5 391/2/5
f 397/2/5 394/2/5 393/2/5
f 398/2/5 394/2/5 397/2/5
f 399/2/5 396/2/5 395/2/5
f 400/2/5 396/2/5 399/2/5
f 405/2/5 402/2/5 401/2/5
f 406/2/5 402/2/5 405/2/5
f 407/2/5 404/2/5 403/2/5
f 408/2/5 404/2/5 407/2/5
f 413/2/5 410/2/5 409/2/5
f 414/2/5 410/2/5 413/2/5
f 415/2/5 412/2/5 411/2/5
f 416/2/5 412/2/5 415/2/5
f 421/2/5 418/2/5 417/2/5
f 422/2/5 418/2/5 421/2/5
f 423/2/5 420/2/5 419/2/5
f 424/2/5 420/2/5 423/2/5
f 429/2/5 426/2/5 425/2/5
f 430/2/5 426/2/5 429/2/5
f 431/2/5 428/2/5 427/2/5
f 432/2/5 428/2/5 431/2/5
f 439/2/5 434/2/5 433/2/5
f 440/2/5 434/2/5 439/2/5
f 441/2/5 436/2/5 435/2/5
f 442/2/5 436/2/5 441/2/5
f 443/2/5 438/2/5 437/2/5
f 444/2/5 438/2/5 443/2/5
f 445/2/6 446/2/6 449/2/6
f 449/2/6 446/2/6 450/2/6
f 447/2/6 448/2/6 451/2/6
f 451/2/6 448/2/6 452/2/6
f 453/2/6 454/2/6 457/2/6
f 457/2/6 454/2/6 458/2/6
f 455/2/6 456/2/6 459/2/6
f 459/2/6 456/2/6 460/2/6
f 461/2/6 462/2/6 465/2/6
f 465/2/6 462/2/6 466/2/6
f 463/2/6 464/2/6 467/2/6
f 467/2/6 464/2/6 468/2/6
f 469/2/6 470/2/6 473/2/6
f 473/2/6 470/2/6 474/2/6
f 471/2/6 472/2/6 475/2/6
f 475/2/6 472/2/6 476/2/6
f 477/2/6 478/2/6 481/2/6
f 481/2/6 478/2/6 482/2/6
f 479/2/6 480/2/6 483/2/6
f 483/2/6 480/2/6 484/2/6
f 485/1/6 486/1/6 487/1/6
f 487/1/6 486/1/6 488/1/6
