# MagicaVoxel @ Ephtracy

# group
g CastlePieces-5

# material
mtllib CastlePieces-5.mtl
usemtl palette

# normals
vn -1 0 0
vn 1 0 0
vn 0 0 1
vn 0 0 -1
vn 0 -1 0
vn 0 1 0

# texcoords
vt 0.669922 0.5
vt 0.677734 0.5
vt 0.994141 0.5

# verts
v -8 0 0.5
v -8 0 -0.5
v -8 24 0.5
v -8 24 -0.5
v 8 0 0.5
v 8 0 -0.5
v 8 24 0.5
v 8 24 -0.5
v -8 0 0.5
v -8 24 0.5
v -7 1 0.5
v -7 23 0.5
v -6 2 0.5
v -6 6 0.5
v -6 7 0.5
v -6 17 0.5
v -6 18 0.5
v -6 22 0.5
v -5 3 0.5
v -5 5 0.5
v -5 8 0.5
v -5 16 0.5
v -5 19 0.5
v -5 21 0.5
v -4 8 0.5
v -4 16 0.5
v -3 7 0.5
v -3 17 0.5
v -2 7 0.5
v -2 17 0.5
v -1 8 0.5
v -1 16 0.5
v 1 8 0.5
v 1 16 0.5
v 2 7 0.5
v 2 17 0.5
v 3 7 0.5
v 3 17 0.5
v 4 8 0.5
v 4 16 0.5
v 5 3 0.5
v 5 5 0.5
v 5 8 0.5
v 5 16 0.5
v 5 19 0.5
v 5 21 0.5
v 6 2 0.5
v 6 6 0.5
v 6 7 0.5
v 6 11 0.5
v 6 12 0.5
v 6 17 0.5
v 6 18 0.5
v 6 22 0.5
v 7 1 0.5
v 7 11 0.5
v 7 12 0.5
v 7 23 0.5
v 8 0 0.5
v 8 24 0.5
v -8 0 -0.5
v -8 24 -0.5
v -7 1 -0.5
v -7 23 -0.5
v -6 2 -0.5
v -6 6 -0.5
v -6 7 -0.5
v -6 17 -0.5
v -6 18 -0.5
v -6 22 -0.5
v -5 3 -0.5
v -5 5 -0.5
v -5 8 -0.5
v -5 16 -0.5
v -5 19 -0.5
v -5 21 -0.5
v -4 8 -0.5
v -4 16 -0.5
v -3 7 -0.5
v -3 17 -0.5
v -2 7 -0.5
v -2 17 -0.5
v -1 8 -0.5
v -1 16 -0.5
v 1 8 -0.5
v 1 16 -0.5
v 2 7 -0.5
v 2 17 -0.5
v 3 7 -0.5
v 3 17 -0.5
v 4 8 -0.5
v 4 16 -0.5
v 5 3 -0.5
v 5 5 -0.5
v 5 8 -0.5
v 5 16 -0.5
v 5 19 -0.5
v 5 21 -0.5
v 6 2 -0.5
v 6 6 -0.5
v 6 7 -0.5
v 6 11 -0.5
v 6 12 -0.5
v 6 17 -0.5
v 6 18 -0.5
v 6 22 -0.5
v 7 1 -0.5
v 7 11 -0.5
v 7 12 -0.5
v 7 23 -0.5
v 8 0 -0.5
v 8 24 -0.5
v -8 0 0.5
v 8 0 0.5
v -8 0 -0.5
v 8 0 -0.5
v -8 24 0.5
v 8 24 0.5
v -8 24 -0.5
v 8 24 -0.5

# faces
f 3/2/1 2/2/1 1/2/1
f 4/2/1 2/2/1 3/2/1
f 5/2/2 6/2/2 7/2/2
f 7/2/2 6/2/2 8/2/2
f 11/2/3 10/2/3 9/2/3
f 12/2/3 10/2/3 11/2/3
f 13/1/3 12/1/3 11/1/3
f 14/1/3 12/1/3 13/1/3
f 15/1/3 12/1/3 14/1/3
f 16/1/3 12/1/3 15/1/3
f 17/1/3 12/1/3 16/1/3
f 18/1/3 12/1/3 17/1/3
f 19/2/3 14/2/3 13/2/3
f 20/2/3 14/2/3 19/2/3
f 21/2/3 16/2/3 15/2/3
f 22/2/3 16/2/3 21/2/3
f 23/2/3 18/2/3 17/2/3
f 24/2/3 18/2/3 23/2/3
f 25/2/3 21/2/3 15/2/3
f 25/1/3 22/1/3 21/1/3
f 26/2/3 16/2/3 22/2/3
f 26/1/3 22/1/3 25/1/3
f 27/1/3 15/1/3 14/1/3
f 27/2/3 25/2/3 15/2/3
f 27/2/3 26/2/3 25/2/3
f 28/2/3 16/2/3 26/2/3
f 28/2/3 26/2/3 27/2/3
f 28/1/3 17/1/3 16/1/3
f 29/1/3 27/1/3 14/1/3
f 29/1/3 28/1/3 27/1/3
f 30/1/3 17/1/3 28/1/3
f 30/1/3 28/1/3 29/1/3
f 31/2/3 30/2/3 29/2/3
f 32/2/3 30/2/3 31/2/3
f 33/2/3 31/2/3 29/2/3
f 33/1/3 32/1/3 31/1/3
f 34/2/3 30/2/3 32/2/3
f 34/1/3 32/1/3 33/1/3
f 35/1/3 29/1/3 14/1/3
f 35/2/3 33/2/3 29/2/3
f 35/2/3 34/2/3 33/2/3
f 36/2/3 30/2/3 34/2/3
f 36/2/3 34/2/3 35/2/3
f 36/1/3 17/1/3 30/1/3
f 37/1/3 35/1/3 14/1/3
f 37/1/3 36/1/3 35/1/3
f 38/1/3 17/1/3 36/1/3
f 38/1/3 36/1/3 37/1/3
f 39/2/3 38/2/3 37/2/3
f 40/2/3 38/2/3 39/2/3
f 41/2/3 19/2/3 13/2/3
f 41/1/3 20/1/3 19/1/3
f 42/2/3 14/2/3 20/2/3
f 42/1/3 20/1/3 41/1/3
f 43/1/3 40/1/3 39/1/3
f 43/2/3 39/2/3 37/2/3
f 44/2/3 38/2/3 40/2/3
f 44/1/3 40/1/3 43/1/3
f 45/1/3 24/1/3 23/1/3
f 45/2/3 23/2/3 17/2/3
f 46/2/3 18/2/3 24/2/3
f 46/1/3 24/1/3 45/1/3
f 47/1/3 13/1/3 11/1/3
f 47/2/3 41/2/3 13/2/3
f 47/2/3 42/2/3 41/2/3
f 48/1/3 37/1/3 14/1/3
f 48/2/3 42/2/3 47/2/3
f 48/2/3 14/2/3 42/2/3
f 49/2/3 44/2/3 43/2/3
f 49/1/3 37/1/3 48/1/3
f 49/2/3 43/2/3 37/2/3
f 50/2/3 44/2/3 49/2/3
f 51/2/3 44/2/3 50/2/3
f 52/2/3 38/2/3 44/2/3
f 52/2/3 44/2/3 51/2/3
f 52/1/3 17/1/3 38/1/3
f 53/2/3 46/2/3 45/2/3
f 53/1/3 17/1/3 52/1/3
f 53/2/3 45/2/3 17/2/3
f 54/2/3 18/2/3 46/2/3
f 54/2/3 46/2/3 53/2/3
f 54/1/3 12/1/3 18/1/3
f 55/2/3 11/2/3 9/2/3
f 55/1/3 50/1/3 49/1/3
f 55/1/3 47/1/3 11/1/3
f 55/1/3 49/1/3 48/1/3
f 55/1/3 48/1/3 47/1/3
f 56/3/3 51/3/3 50/3/3
f 56/1/3 50/1/3 55/1/3
f 57/1/3 53/1/3 52/1/3
f 57/3/3 51/3/3 56/3/3
f 57/1/3 54/1/3 53/1/3
f 57/1/3 52/1/3 51/1/3
f 58/1/3 12/1/3 54/1/3
f 58/1/3 54/1/3 57/1/3
f 58/2/3 10/2/3 12/2/3
f 59/2/3 57/2/3 56/2/3
f 59/2/3 55/2/3 9/2/3
f 59/2/3 58/2/3 57/2/3
f 59/2/3 56/2/3 55/2/3
f 60/2/3 10/2/3 58/2/3
f 60/2/3 58/2/3 59/2/3
f 61/2/4 62/2/4 63/2/4
f 63/2/4 62/2/4 64/2/4
f 63/1/4 64/1/4 65/1/4
f 65/1/4 64/1/4 66/1/4
f 66/1/4 64/1/4 67/1/4
f 67/1/4 64/1/4 68/1/4
f 68/1/4 64/1/4 69/1/4
f 69/1/4 64/1/4 70/1/4
f 65/2/4 66/2/4 71/2/4
f 71/2/4 66/2/4 72/2/4
f 67/2/4 68/2/4 73/2/4
f 73/2/4 68/2/4 74/2/4
f 69/2/4 70/2/4 75/2/4
f 75/2/4 70/2/4 76/2/4
f 67/2/4 73/2/4 77/2/4
f 73/1/4 74/1/4 77/1/4
f 74/2/4 68/2/4 78/2/4
f 77/1/4 74/1/4 78/1/4
f 66/1/4 67/1/4 79/1/4
f 67/2/4 77/2/4 79/2/4
f 77/2/4 78/2/4 79/2/4
f 78/2/4 68/2/4 80/2/4
f 79/2/4 78/2/4 80/2/4
f 68/1/4 69/1/4 80/1/4
f 66/1/4 79/1/4 81/1/4
f 79/1/4 80/1/4 81/1/4
f 80/1/4 69/1/4 82/1/4
f 81/1/4 80/1/4 82/1/4
f 81/2/4 82/2/4 83/2/4
f 83/2/4 82/2/4 84/2/4
f 81/2/4 83/2/4 85/2/4
f 83/1/4 84/1/4 85/1/4
f 84/2/4 82/2/4 86/2/4
f 85/1/4 84/1/4 86/1/4
f 66/1/4 81/1/4 87/1/4
f 81/2/4 85/2/4 87/2/4
f 85/2/4 86/2/4 87/2/4
f 86/2/4 82/2/4 88/2/4
f 87/2/4 86/2/4 88/2/4
f 82/1/4 69/1/4 88/1/4
f 66/1/4 87/1/4 89/1/4
f 87/1/4 88/1/4 89/1/4
f 88/1/4 69/1/4 90/1/4
f 89/1/4 88/1/4 90/1/4
f 89/2/4 90/2/4 91/2/4
f 91/2/4 90/2/4 92/2/4
f 65/2/4 71/2/4 93/2/4
f 71/1/4 72/1/4 93/1/4
f 72/2/4 66/2/4 94/2/4
f 93/1/4 72/1/4 94/1/4
f 91/1/4 92/1/4 95/1/4
f 89/2/4 91/2/4 95/2/4
f 92/2/4 90/2/4 96/2/4
f 95/1/4 92/1/4 96/1/4
f 75/1/4 76/1/4 97/1/4
f 69/2/4 75/2/4 97/2/4
f 76/2/4 70/2/4 98/2/4
f 97/1/4 76/1/4 98/1/4
f 63/1/4 65/1/4 99/1/4
f 65/2/4 93/2/4 99/2/4
f 93/2/4 94/2/4 99/2/4
f 66/1/4 89/1/4 100/1/4
f 99/2/4 94/2/4 100/2/4
f 94/2/4 66/2/4 100/2/4
f 95/2/4 96/2/4 101/2/4
f 100/1/4 89/1/4 101/1/4
f 89/2/4 95/2/4 101/2/4
f 101/2/4 96/2/4 102/2/4
f 102/2/4 96/2/4 103/2/4
f 96/2/4 90/2/4 104/2/4
f 103/2/4 96/2/4 104/2/4
f 90/1/4 69/1/4 104/1/4
f 97/2/4 98/2/4 105/2/4
f 104/1/4 69/1/4 105/1/4
f 69/2/4 97/2/4 105/2/4
f 98/2/4 70/2/4 106/2/4
f 105/2/4 98/2/4 106/2/4
f 70/1/4 64/1/4 106/1/4
f 61/2/4 63/2/4 107/2/4
f 101/1/4 102/1/4 107/1/4
f 63/1/4 99/1/4 107/1/4
f 100/1/4 101/1/4 107/1/4
f 99/1/4 100/1/4 107/1/4
f 102/3/4 103/3/4 108/3/4
f 107/1/4 102/1/4 108/1/4
f 104/1/4 105/1/4 109/1/4
f 108/3/4 103/3/4 109/3/4
f 105/1/4 106/1/4 109/1/4
f 103/1/4 104/1/4 109/1/4
f 106/1/4 64/1/4 110/1/4
f 109/1/4 106/1/4 110/1/4
f 64/2/4 62/2/4 110/2/4
f 108/2/4 109/2/4 111/2/4
f 61/2/4 107/2/4 111/2/4
f 109/2/4 110/2/4 111/2/4
f 107/2/4 108/2/4 111/2/4
f 110/2/4 62/2/4 112/2/4
f 111/2/4 110/2/4 112/2/4
f 115/2/5 114/2/5 113/2/5
f 116/2/5 114/2/5 115/2/5
f 117/2/6 118/2/6 119/2/6
f 119/2/6 118/2/6 120/2/6
