# MagicaVoxel @ Ephtracy

# group
g DemonSoldier-5

# material
mtllib DemonSoldier-5.mtl
usemtl palette

# normals
vn -1 0 0
vn 1 0 0
vn 0 0 1
vn 0 0 -1
vn 0 -1 0
vn 0 1 0

# texcoords
vt 0.943359 0.5
vt 0.970703 0.5
vt 0.974609 0.5
vt 0.978516 0.5

# verts
v -6 0 4
v -6 0 2
v -6 1 4
v -6 1 2
v -5 0 2
v -5 0 -0
v -5 1 2
v -5 1 -0
v -4 0 -0
v -4 0 -1
v -4 1 -0
v -4 1 -1
v -3 0 -1
v -3 0 -2
v -3 1 -1
v -3 1 -2
v -1 0 -2
v -1 0 -3
v -1 1 -2
v -1 1 -3
v 1 0 2
v 1 0 1
v 1 1 2
v 1 1 1
v 2 0 3
v 2 0 2
v 2 0 1
v 2 0 -1
v 2 1 3
v 2 1 2
v 2 1 1
v 2 1 -1
v 5 0 -0
v 5 0 -1
v 5 1 -0
v 5 1 -1
v 6 0 3
v 6 0 2
v 6 0 1
v 6 0 -0
v 6 1 3
v 6 1 2
v 6 1 1
v 6 1 -0
v 8 0 1
v 8 0 -0
v 8 1 1
v 8 1 -0
v -5 0 4
v -5 0 3
v -5 1 4
v -5 1 3
v -4 0 3
v -4 0 2
v -4 1 3
v -4 1 2
v -3 0 2
v -3 0 1
v -3 1 2
v -3 1 1
v -2 0 1
v -2 0 -0
v -2 1 1
v -2 1 -0
v 0 0 -0
v 0 0 -1
v 0 1 -0
v 0 1 -1
v 3 0 3
v 3 0 2
v 3 0 1
v 3 0 -1
v 3 1 3
v 3 1 2
v 3 1 1
v 3 1 -1
v 5 0 -2
v 5 0 -3
v 5 1 -2
v 5 1 -3
v 7 0 3
v 7 0 2
v 7 0 1
v 7 0 -0
v 7 0 -1
v 7 0 -2
v 7 1 3
v 7 1 2
v 7 1 1
v 7 1 -0
v 7 1 -1
v 7 1 -2
v 8 0 2
v 8 0 1
v 8 0 -0
v 8 0 -1
v 8 1 2
v 8 1 1
v 8 1 -0
v 8 1 -1
v 9 0 1
v 9 0 -0
v 9 1 1
v 9 1 -0
v -6 0 4
v -6 1 4
v -5 0 4
v -5 1 4
v -5 0 3
v -5 1 3
v -4 0 3
v -4 1 3
v 2 0 3
v 2 1 3
v 3 0 3
v 3 1 3
v 6 0 3
v 6 1 3
v 7 0 3
v 7 1 3
v -4 0 2
v -4 1 2
v -3 0 2
v -3 1 2
v 1 0 2
v 1 1 2
v 2 0 2
v 2 1 2
v 3 0 2
v 3 1 2
v 6 0 2
v 6 1 2
v 7 0 2
v 7 1 2
v 8 0 2
v 8 1 2
v -3 0 1
v -3 1 1
v -2 0 1
v -2 1 1
v 8 0 1
v 8 1 1
v 9 0 1
v 9 1 1
v -2 0 -0
v -2 1 -0
v 0 0 -0
v 0 1 -0
v 5 0 -0
v 5 1 -0
v 6 0 -0
v 6 1 -0
v 7 0 -0
v 7 1 -0
v 8 0 -0
v 8 1 -0
v 0 0 -1
v 0 1 -1
v 2 0 -1
v 2 1 -1
v 3 0 -1
v 3 1 -1
v 5 0 -1
v 5 1 -1
v -6 0 2
v -6 1 2
v -5 0 2
v -5 1 2
v 1 0 1
v 1 1 1
v 2 0 1
v 2 1 1
v 3 0 1
v 3 1 1
v 6 0 1
v 6 1 1
v 7 0 1
v 7 1 1
v 8 0 1
v 8 1 1
v -5 0 -0
v -5 1 -0
v -4 0 -0
v -4 1 -0
v 8 0 -0
v 8 1 -0
v 9 0 -0
v 9 1 -0
v -4 0 -1
v -4 1 -1
v -3 0 -1
v -3 1 -1
v 7 0 -1
v 7 1 -1
v 8 0 -1
v 8 1 -1
v -3 0 -2
v -3 1 -2
v -1 0 -2
v -1 1 -2
v 5 0 -2
v 5 1 -2
v 6 0 -2
v 6 1 -2
v 7 0 -2
v 7 1 -2
v -1 0 -3
v -1 1 -3
v 2 0 -3
v 2 1 -3
v 3 0 -3
v 3 1 -3
v 5 0 -3
v 5 1 -3
v -6 0 4
v -5 0 4
v -5 0 3
v -4 0 3
v 2 0 3
v 3 0 3
v 6 0 3
v 7 0 3
v -6 0 2
v -5 0 2
v -4 0 2
v -3 0 2
v 1 0 2
v 2 0 2
v 3 0 2
v 6 0 2
v 7 0 2
v 8 0 2
v -3 0 1
v -2 0 1
v 1 0 1
v 2 0 1
v 3 0 1
v 6 0 1
v 7 0 1
v 8 0 1
v 9 0 1
v -5 0 -0
v -4 0 -0
v -3 0 -0
v -2 0 -0
v 0 0 -0
v 5 0 -0
v 6 0 -0
v 7 0 -0
v 8 0 -0
v 9 0 -0
v -4 0 -1
v -3 0 -1
v -1 0 -1
v 0 0 -1
v 2 0 -1
v 3 0 -1
v 5 0 -1
v 7 0 -1
v 8 0 -1
v -3 0 -2
v -1 0 -2
v 2 0 -2
v 5 0 -2
v 6 0 -2
v 7 0 -2
v -1 0 -3
v 2 0 -3
v 3 0 -3
v 5 0 -3
v -6 1 4
v -5 1 4
v -5 1 3
v -4 1 3
v 2 1 3
v 3 1 3
v 6 1 3
v 7 1 3
v -6 1 2
v -5 1 2
v -4 1 2
v -3 1 2
v 1 1 2
v 2 1 2
v 3 1 2
v 6 1 2
v 7 1 2
v 8 1 2
v -3 1 1
v -2 1 1
v 1 1 1
v 2 1 1
v 3 1 1
v 6 1 1
v 7 1 1
v 8 1 1
v 9 1 1
v -5 1 -0
v -4 1 -0
v -3 1 -0
v -2 1 -0
v 0 1 -0
v 5 1 -0
v 6 1 -0
v 7 1 -0
v 8 1 -0
v 9 1 -0
v -4 1 -1
v -3 1 -1
v -1 1 -1
v 0 1 -1
v 2 1 -1
v 3 1 -1
v 5 1 -1
v 7 1 -1
v 8 1 -1
v -3 1 -2
v -1 1 -2
v 2 1 -2
v 5 1 -2
v 6 1 -2
v 7 1 -2
v -1 1 -3
v 2 1 -3
v 3 1 -3
v 5 1 -3

# faces
f 3/4/1 2/4/1 1/4/1
f 4/4/1 2/4/1 3/4/1
f 7/4/1 6/4/1 5/4/1
f 8/4/1 6/4/1 7/4/1
f 11/4/1 10/4/1 9/4/1
f 12/4/1 10/4/1 11/4/1
f 15/4/1 14/4/1 13/4/1
f 16/4/1 14/4/1 15/4/1
f 19/4/1 18/4/1 17/4/1
f 20/4/1 18/4/1 19/4/1
f 23/2/1 22/2/1 21/2/1
f 24/2/1 22/2/1 23/2/1
f 29/1/1 26/1/1 25/1/1
f 30/1/1 26/1/1 29/1/1
f 31/1/1 28/1/1 27/1/1
f 32/1/1 28/1/1 31/1/1
f 35/3/1 34/3/1 33/3/1
f 36/3/1 34/3/1 35/3/1
f 41/1/1 38/1/1 37/1/1
f 42/1/1 38/1/1 41/1/1
f 43/1/1 40/1/1 39/1/1
f 44/1/1 40/1/1 43/1/1
f 47/3/1 46/3/1 45/3/1
f 48/3/1 46/3/1 47/3/1
f 49/4/2 50/4/2 51/4/2
f 51/4/2 50/4/2 52/4/2
f 53/3/2 54/3/2 55/3/2
f 55/3/2 54/3/2 56/3/2
f 57/3/2 58/3/2 59/3/2
f 59/3/2 58/3/2 60/3/2
f 61/3/2 62/3/2 63/3/2
f 63/3/2 62/3/2 64/3/2
f 65/3/2 66/3/2 67/3/2
f 67/3/2 66/3/2 68/3/2
f 69/1/2 70/1/2 73/1/2
f 73/1/2 70/1/2 74/1/2
f 71/1/2 72/1/2 75/1/2
f 75/1/2 72/1/2 76/1/2
f 77/3/2 78/3/2 79/3/2
f 79/3/2 78/3/2 80/3/2
f 81/1/2 82/1/2 87/1/2
f 87/1/2 82/1/2 88/1/2
f 83/1/2 84/1/2 89/1/2
f 89/1/2 84/1/2 90/1/2
f 85/1/2 86/1/2 91/1/2
f 91/1/2 86/1/2 92/1/2
f 93/2/2 94/2/2 97/2/2
f 97/2/2 94/2/2 98/2/2
f 95/3/2 96/3/2 99/3/2
f 99/3/2 96/3/2 100/3/2
f 101/3/2 102/3/2 103/3/2
f 103/3/2 102/3/2 104/3/2
f 107/4/3 106/4/3 105/4/3
f 108/4/3 106/4/3 107/4/3
f 111/3/3 110/3/3 109/3/3
f 112/3/3 110/3/3 111/3/3
f 115/1/3 114/1/3 113/1/3
f 116/1/3 114/1/3 115/1/3
f 119/1/3 118/1/3 117/1/3
f 120/1/3 118/1/3 119/1/3
f 123/3/3 122/3/3 121/3/3
f 124/3/3 122/3/3 123/3/3
f 127/2/3 126/2/3 125/2/3
f 128/2/3 126/2/3 127/2/3
f 131/2/3 130/2/3 129/2/3
f 132/2/3 130/2/3 131/2/3
f 135/2/3 134/2/3 133/2/3
f 136/2/3 134/2/3 135/2/3
f 139/3/3 138/3/3 137/3/3
f 140/3/3 138/3/3 139/3/3
f 143/3/3 142/3/3 141/3/3
f 144/3/3 142/3/3 143/3/3
f 147/3/3 146/3/3 145/3/3
f 148/3/3 146/3/3 147/3/3
f 151/3/3 150/3/3 149/3/3
f 152/3/3 150/3/3 151/3/3
f 155/3/3 154/3/3 153/3/3
f 156/3/3 154/3/3 155/3/3
f 159/3/3 158/3/3 157/3/3
f 160/3/3 158/3/3 159/3/3
f 163/3/3 162/3/3 161/3/3
f 164/3/3 162/3/3 163/3/3
f 165/4/4 166/4/4 167/4/4
f 167/4/4 166/4/4 168/4/4
f 169/2/4 170/2/4 171/2/4
f 171/2/4 170/2/4 172/2/4
f 173/2/4 174/2/4 175/2/4
f 175/2/4 174/2/4 176/2/4
f 177/2/4 178/2/4 179/2/4
f 179/2/4 178/2/4 180/2/4
f 181/4/4 182/4/4 183/4/4
f 183/4/4 182/4/4 184/4/4
f 185/3/4 186/3/4 187/3/4
f 187/3/4 186/3/4 188/3/4
f 189/4/4 190/4/4 191/4/4
f 191/4/4 190/4/4 192/4/4
f 193/3/4 194/3/4 195/3/4
f 195/3/4 194/3/4 196/3/4
f 197/4/4 198/4/4 199/4/4
f 199/4/4 198/4/4 200/4/4
f 201/3/4 202/3/4 203/3/4
f 203/3/4 202/3/4 204/3/4
f 203/1/4 204/1/4 205/1/4
f 205/1/4 204/1/4 206/1/4
f 207/4/4 208/4/4 209/4/4
f 209/4/4 208/4/4 210/4/4
f 209/1/4 210/1/4 211/1/4
f 211/1/4 210/1/4 212/1/4
f 211/3/4 212/3/4 213/3/4
f 213/3/4 212/3/4 214/3/4
f 217/4/5 216/4/5 215/4/5
f 223/4/5 217/4/5 215/4/5
f 224/3/5 218/3/5 217/3/5
f 224/4/5 217/4/5 223/4/5
f 225/3/5 218/3/5 224/3/5
f 228/1/5 220/1/5 219/1/5
f 229/1/5 220/1/5 228/1/5
f 230/1/5 222/1/5 221/1/5
f 231/1/5 222/1/5 230/1/5
f 233/3/5 226/3/5 225/3/5
f 235/2/5 228/2/5 227/2/5
f 236/1/5 229/1/5 228/1/5
f 236/2/5 228/2/5 235/2/5
f 237/2/5 230/2/5 229/2/5
f 237/1/5 229/1/5 236/1/5
f 238/1/5 231/1/5 230/1/5
f 238/2/5 230/2/5 237/2/5
f 239/2/5 232/2/5 231/2/5
f 239/1/5 231/1/5 238/1/5
f 240/2/5 232/2/5 239/2/5
f 242/4/5 225/4/5 224/4/5
f 243/3/5 234/3/5 233/3/5
f 243/4/5 225/4/5 242/4/5
f 243/3/5 233/3/5 225/3/5
f 244/3/5 234/3/5 243/3/5
f 245/3/5 234/3/5 244/3/5
f 248/1/5 239/1/5 238/1/5
f 249/1/5 239/1/5 248/1/5
f 250/3/5 241/3/5 240/3/5
f 251/3/5 241/3/5 250/3/5
f 252/4/5 244/4/5 243/4/5
f 253/3/5 246/3/5 245/3/5
f 253/4/5 244/4/5 252/4/5
f 253/3/5 245/3/5 244/3/5
f 254/3/5 246/3/5 253/3/5
f 255/3/5 246/3/5 254/3/5
f 256/1/5 237/1/5 236/1/5
f 257/1/5 237/1/5 256/1/5
f 258/3/5 248/3/5 247/3/5
f 259/1/5 249/1/5 248/1/5
f 259/3/5 250/3/5 249/3/5
f 260/3/5 250/3/5 259/3/5
f 261/4/5 254/4/5 253/4/5
f 262/3/5 255/3/5 254/3/5
f 262/4/5 254/4/5 261/4/5
f 262/3/5 256/3/5 255/3/5
f 263/1/5 257/1/5 256/1/5
f 263/3/5 256/3/5 262/3/5
f 264/3/5 258/3/5 257/3/5
f 264/3/5 248/3/5 258/3/5
f 265/1/5 259/1/5 248/1/5
f 265/3/5 248/3/5 264/3/5
f 266/1/5 259/1/5 265/1/5
f 267/4/5 263/4/5 262/4/5
f 268/1/5 257/1/5 263/1/5
f 268/4/5 263/4/5 267/4/5
f 269/3/5 264/3/5 257/3/5
f 269/1/5 257/1/5 268/1/5
f 270/3/5 264/3/5 269/3/5
f 271/4/6 272/4/6 273/4/6
f 271/4/6 273/4/6 279/4/6
f 273/3/6 274/3/6 280/3/6
f 279/4/6 273/4/6 280/4/6
f 280/3/6 274/3/6 281/3/6
f 275/1/6 276/1/6 284/1/6
f 284/1/6 276/1/6 285/1/6
f 277/1/6 278/1/6 286/1/6
f 286/1/6 278/1/6 287/1/6
f 281/3/6 282/3/6 289/3/6
f 283/2/6 284/2/6 291/2/6
f 284/1/6 285/1/6 292/1/6
f 291/2/6 284/2/6 292/2/6
f 285/2/6 286/2/6 293/2/6
f 292/1/6 285/1/6 293/1/6
f 286/1/6 287/1/6 294/1/6
f 293/2/6 286/2/6 294/2/6
f 287/2/6 288/2/6 295/2/6
f 294/1/6 287/1/6 295/1/6
f 295/2/6 288/2/6 296/2/6
f 280/4/6 281/4/6 298/4/6
f 289/3/6 290/3/6 299/3/6
f 298/4/6 281/4/6 299/4/6
f 281/3/6 289/3/6 299/3/6
f 299/3/6 290/3/6 300/3/6
f 300/3/6 290/3/6 301/3/6
f 294/1/6 295/1/6 304/1/6
f 304/1/6 295/1/6 305/1/6
f 296/3/6 297/3/6 306/3/6
f 306/3/6 297/3/6 307/3/6
f 299/4/6 300/4/6 308/4/6
f 301/3/6 302/3/6 309/3/6
f 308/4/6 300/4/6 309/4/6
f 300/3/6 301/3/6 309/3/6
f 309/3/6 302/3/6 310/3/6
f 310/3/6 302/3/6 311/3/6
f 292/1/6 293/1/6 312/1/6
f 312/1/6 293/1/6 313/1/6
f 303/3/6 304/3/6 314/3/6
f 304/1/6 305/1/6 315/1/6
f 305/3/6 306/3/6 315/3/6
f 315/3/6 306/3/6 316/3/6
f 309/4/6 310/4/6 317/4/6
f 310/3/6 311/3/6 318/3/6
f 317/4/6 310/4/6 318/4/6
f 311/3/6 312/3/6 318/3/6
f 312/1/6 313/1/6 319/1/6
f 318/3/6 312/3/6 319/3/6
f 313/3/6 314/3/6 320/3/6
f 314/3/6 304/3/6 320/3/6
f 304/1/6 315/1/6 321/1/6
f 320/3/6 304/3/6 321/3/6
f 321/1/6 315/1/6 322/1/6
f 318/4/6 319/4/6 323/4/6
f 319/1/6 313/1/6 324/1/6
f 323/4/6 319/4/6 324/4/6
f 313/3/6 320/3/6 325/3/6
f 324/1/6 313/1/6 325/1/6
f 325/3/6 320/3/6 326/3/6
