# MagicaVoxel @ Ephtracy

# group
g Merchant-4

# material
mtllib Merchant-4.mtl
usemtl palette

# normals
vn -1 0 0
vn 1 0 0
vn 0 0 1
vn 0 0 -1
vn 0 -1 0
vn 0 1 0

# texcoords
vt 0.0253906 0.5
vt 0.0488281 0.5

# verts
v -3 0 1
v -3 0 -1
v -3 2 1
v -3 2 -1
v 3 0 1
v 3 0 -1
v 3 2 1
v 3 2 -1
v -3 0 1
v -3 2 1
v 1 0 1
v 1 2 1
v 3 0 1
v 3 2 1
v -3 0 -1
v -3 2 -1
v 1 0 -1
v 1 2 -1
v 3 0 -1
v 3 2 -1
v -3 0 1
v 1 0 1
v 3 0 1
v -3 0 -1
v 1 0 -1
v 3 0 -1
v -3 2 1
v 1 2 1
v 3 2 1
v -3 2 -1
v 1 2 -1
v 3 2 -1

# faces
f 3/2/1 2/2/1 1/2/1
f 4/2/1 2/2/1 3/2/1
f 5/1/2 6/1/2 7/1/2
f 7/1/2 6/1/2 8/1/2
f 11/2/3 10/2/3 9/2/3
f 12/2/3 10/2/3 11/2/3
f 13/1/3 12/1/3 11/1/3
f 14/1/3 12/1/3 13/1/3
f 15/2/4 16/2/4 17/2/4
f 17/2/4 16/2/4 18/2/4
f 17/1/4 18/1/4 19/1/4
f 19/1/4 18/1/4 20/1/4
f 24/2/5 22/2/5 21/2/5
f 25/1/5 23/1/5 22/1/5
f 25/2/5 22/2/5 24/2/5
f 26/1/5 23/1/5 25/1/5
f 27/2/6 28/2/6 30/2/6
f 28/1/6 29/1/6 31/1/6
f 30/2/6 28/2/6 31/2/6
f 31/1/6 29/1/6 32/1/6
