# MagicaVoxel @ Ephtracy

# group
g CorruptedSkeleton-4

# material
mtllib CorruptedSkeleton-4.mtl
usemtl palette

# normals
vn -1 0 0
vn 1 0 0
vn 0 0 1
vn 0 0 -1
vn 0 -1 0
vn 0 1 0

# texcoords
vt 0.970703 0.5
vt 0.974609 0.5

# verts
v -1.5 3 0.5
v -1.5 3 -0.5
v -1.5 7 0.5
v -1.5 7 -0.5
v -0.5 0 0.5
v -0.5 0 -0.5
v -0.5 2 1.5
v -0.5 2 0.5
v -0.5 3 1.5
v -0.5 3 0.5
v -0.5 3 -0.5
v -0.5 7 1.5
v -0.5 7 0.5
v -0.5 7 -0.5
v -0.5 8 1.5
v -0.5 8 0.5
v -0.5 8 -0.5
v 0.5 0 1.5
v 0.5 0 0.5
v 0.5 2 1.5
v 0.5 2 0.5
v 0.5 0 0.5
v 0.5 0 -0.5
v 0.5 2 1.5
v 0.5 2 0.5
v 0.5 3 1.5
v 0.5 3 0.5
v 0.5 7 1.5
v 0.5 7 0.5
v 0.5 8 1.5
v 0.5 8 0.5
v 0.5 8 -0.5
v 1.5 0 1.5
v 1.5 0 0.5
v 1.5 2 1.5
v 1.5 2 0.5
v -0.5 2 1.5
v -0.5 3 1.5
v -0.5 7 1.5
v -0.5 8 1.5
v 0.5 0 1.5
v 0.5 2 1.5
v 0.5 3 1.5
v 0.5 7 1.5
v 0.5 8 1.5
v 1.5 0 1.5
v 1.5 2 1.5
v -1.5 3 0.5
v -1.5 7 0.5
v -0.5 0 0.5
v -0.5 2 0.5
v -0.5 3 0.5
v -0.5 7 0.5
v 0.5 0 0.5
v 0.5 2 0.5
v 0.5 3 0.5
v 0.5 7 0.5
v 0.5 0 0.5
v 0.5 2 0.5
v 1.5 0 0.5
v 1.5 2 0.5
v -1.5 3 -0.5
v -1.5 7 -0.5
v -0.5 0 -0.5
v -0.5 3 -0.5
v -0.5 7 -0.5
v -0.5 8 -0.5
v 0.5 0 -0.5
v 0.5 8 -0.5
v 0.5 0 1.5
v 1.5 0 1.5
v -0.5 0 0.5
v 0.5 0 0.5
v 1.5 0 0.5
v -0.5 0 -0.5
v 0.5 0 -0.5
v -0.5 2 1.5
v 0.5 2 1.5
v -0.5 2 0.5
v 0.5 2 0.5
v -1.5 3 0.5
v -0.5 3 0.5
v -1.5 3 -0.5
v -0.5 3 -0.5
v -0.5 7 1.5
v 0.5 7 1.5
v -0.5 7 0.5
v 0.5 7 0.5
v 0.5 2 1.5
v 1.5 2 1.5
v 0.5 2 0.5
v 1.5 2 0.5
v -0.5 3 1.5
v 0.5 3 1.5
v -0.5 3 0.5
v 0.5 3 0.5
v -1.5 7 0.5
v -0.5 7 0.5
v -1.5 7 -0.5
v -0.5 7 -0.5
v -0.5 8 1.5
v 0.5 8 1.5
v -0.5 8 0.5
v 0.5 8 0.5
v -0.5 8 -0.5
v 0.5 8 -0.5

# faces
f 3/2/1 2/2/1 1/2/1
f 4/2/1 2/2/1 3/2/1
f 8/1/1 6/1/1 5/1/1
f 9/2/1 8/2/1 7/2/1
f 10/1/1 6/1/1 8/1/1
f 10/2/1 8/2/1 9/2/1
f 11/1/1 6/1/1 10/1/1
f 15/2/1 13/2/1 12/2/1
f 16/1/1 14/1/1 13/1/1
f 16/2/1 13/2/1 15/2/1
f 17/1/1 14/1/1 16/1/1
f 20/2/1 19/2/1 18/2/1
f 21/2/1 19/2/1 20/2/1
f 22/1/2 23/1/2 25/1/2
f 24/2/2 25/2/2 26/2/2
f 25/1/2 23/1/2 27/1/2
f 26/2/2 25/2/2 27/2/2
f 27/1/2 23/1/2 29/1/2
f 28/2/2 29/2/2 30/2/2
f 29/1/2 23/1/2 31/1/2
f 30/2/2 29/2/2 31/2/2
f 31/1/2 23/1/2 32/1/2
f 33/2/2 34/2/2 35/2/2
f 35/2/2 34/2/2 36/2/2
f 42/2/3 38/2/3 37/2/3
f 43/2/3 38/2/3 42/2/3
f 44/2/3 40/2/3 39/2/3
f 45/2/3 40/2/3 44/2/3
f 46/2/3 42/2/3 41/2/3
f 47/2/3 42/2/3 46/2/3
f 52/2/3 49/2/3 48/2/3
f 53/2/3 49/2/3 52/2/3
f 54/1/3 51/1/3 50/1/3
f 55/1/3 51/1/3 54/1/3
f 56/1/3 53/1/3 52/1/3
f 57/1/3 53/1/3 56/1/3
f 58/2/4 59/2/4 60/2/4
f 60/2/4 59/2/4 61/2/4
f 62/2/4 63/2/4 65/2/4
f 65/2/4 63/2/4 66/2/4
f 64/1/4 65/1/4 68/1/4
f 66/1/4 67/1/4 68/1/4
f 65/1/4 66/1/4 68/1/4
f 68/1/4 67/1/4 69/1/4
f 73/2/5 71/2/5 70/2/5
f 74/2/5 71/2/5 73/2/5
f 75/1/5 73/1/5 72/1/5
f 76/1/5 73/1/5 75/1/5
f 79/2/5 78/2/5 77/2/5
f 80/2/5 78/2/5 79/2/5
f 83/2/5 82/2/5 81/2/5
f 84/2/5 82/2/5 83/2/5
f 87/2/5 86/2/5 85/2/5
f 88/2/5 86/2/5 87/2/5
f 89/2/6 90/2/6 91/2/6
f 91/2/6 90/2/6 92/2/6
f 93/2/6 94/2/6 95/2/6
f 95/2/6 94/2/6 96/2/6
f 97/2/6 98/2/6 99/2/6
f 99/2/6 98/2/6 100/2/6
f 101/2/6 102/2/6 103/2/6
f 103/2/6 102/2/6 104/2/6
f 103/1/6 104/1/6 105/1/6
f 105/1/6 104/1/6 106/1/6
