# MagicaVoxel @ Ephtracy

# group
g CorruptedSkeleton-5

# material
mtllib CorruptedSkeleton-5.mtl
usemtl palette

# normals
vn -1 0 0
vn 1 0 0
vn 0 0 1
vn 0 0 -1
vn 0 -1 0
vn 0 1 0

# texcoords
vt 0.970703 0.5
vt 0.974609 0.5

# verts
v -1.5 1 0.5
v -1.5 1 -0.5
v -1.5 2 1.5
v -1.5 2 0.5
v -1.5 2 -0.5
v -1.5 3 1.5
v -1.5 3 0.5
v -0.5 0 0.5
v -0.5 0 -0.5
v -0.5 0 -1.5
v -0.5 1 0.5
v -0.5 1 -0.5
v -0.5 1 -1.5
v -0.5 2 0.5
v -0.5 2 -0.5
v -0.5 3 1.5
v -0.5 3 0.5
v -0.5 5 1.5
v -0.5 5 0.5
v -0.5 8 0.5
v -0.5 8 -0.5
v 0.5 5 1.5
v 0.5 5 0.5
v 0.5 6 1.5
v 0.5 6 0.5
v -0.5 2 1.5
v -0.5 2 0.5
v -0.5 3 1.5
v -0.5 3 0.5
v 0.5 0 0.5
v 0.5 0 -0.5
v 0.5 0 -1.5
v 0.5 1 -0.5
v 0.5 1 -1.5
v 0.5 3 1.5
v 0.5 3 0.5
v 0.5 5 1.5
v 0.5 5 0.5
v 0.5 6 0.5
v 0.5 6 -0.5
v 1.5 5 1.5
v 1.5 5 0.5
v 1.5 6 1.5
v 1.5 6 0.5
v 1.5 6 -0.5
v 1.5 8 0.5
v 1.5 8 -0.5
v -1.5 2 1.5
v -1.5 3 1.5
v -0.5 2 1.5
v -0.5 3 1.5
v -0.5 5 1.5
v 0.5 3 1.5
v 0.5 5 1.5
v 0.5 6 1.5
v 1.5 5 1.5
v 1.5 6 1.5
v -1.5 1 0.5
v -1.5 2 0.5
v -0.5 0 0.5
v -0.5 1 0.5
v -0.5 2 0.5
v -0.5 3 0.5
v -0.5 5 0.5
v -0.5 8 0.5
v 0.5 0 0.5
v 0.5 3 0.5
v 0.5 5 0.5
v 0.5 6 0.5
v 0.5 8 0.5
v 1.5 6 0.5
v 1.5 8 0.5
v -1.5 2 0.5
v -1.5 3 0.5
v -0.5 2 0.5
v -0.5 3 0.5
v 0.5 5 0.5
v 0.5 6 0.5
v 1.5 5 0.5
v 1.5 6 0.5
v -1.5 1 -0.5
v -1.5 2 -0.5
v -0.5 1 -0.5
v -0.5 2 -0.5
v -0.5 8 -0.5
v 0.5 1 -0.5
v 0.5 6 -0.5
v 0.5 8 -0.5
v 1.5 6 -0.5
v 1.5 8 -0.5
v -0.5 0 -1.5
v -0.5 1 -1.5
v 0.5 0 -1.5
v 0.5 1 -1.5
v -0.5 0 0.5
v 0.5 0 0.5
v -0.5 0 -0.5
v 0.5 0 -0.5
v -0.5 0 -1.5
v 0.5 0 -1.5
v -1.5 1 0.5
v -0.5 1 0.5
v -1.5 1 -0.5
v -0.5 1 -0.5
v -1.5 2 1.5
v -0.5 2 1.5
v -1.5 2 0.5
v -0.5 2 0.5
v -0.5 3 1.5
v 0.5 3 1.5
v -0.5 3 0.5
v 0.5 3 0.5
v 0.5 5 1.5
v 1.5 5 1.5
v 0.5 5 0.5
v 1.5 5 0.5
v 0.5 6 0.5
v 1.5 6 0.5
v 0.5 6 -0.5
v 1.5 6 -0.5
v -0.5 1 -0.5
v 0.5 1 -0.5
v -0.5 1 -1.5
v 0.5 1 -1.5
v -1.5 2 0.5
v -0.5 2 0.5
v -1.5 2 -0.5
v -0.5 2 -0.5
v -1.5 3 1.5
v -0.5 3 1.5
v -1.5 3 0.5
v -0.5 3 0.5
v -0.5 5 1.5
v 0.5 5 1.5
v -0.5 5 0.5
v 0.5 5 0.5
v 0.5 6 1.5
v 1.5 6 1.5
v 0.5 6 0.5
v 1.5 6 0.5
v -0.5 8 0.5
v 0.5 8 0.5
v 1.5 8 0.5
v -0.5 8 -0.5
v 0.5 8 -0.5
v 1.5 8 -0.5

# faces
f 4/2/1 2/2/1 1/2/1
f 5/2/1 2/2/1 4/2/1
f 6/2/1 4/2/1 3/2/1
f 7/2/1 4/2/1 6/2/1
f 11/1/1 9/1/1 8/1/1
f 12/2/1 10/2/1 9/2/1
f 12/1/1 9/1/1 11/1/1
f 13/2/1 10/2/1 12/2/1
f 17/1/1 15/1/1 14/1/1
f 18/2/1 17/2/1 16/2/1
f 19/1/1 15/1/1 17/1/1
f 19/2/1 17/2/1 18/2/1
f 20/1/1 15/1/1 19/1/1
f 21/1/1 15/1/1 20/1/1
f 24/2/1 23/2/1 22/2/1
f 25/2/1 23/2/1 24/2/1
f 26/2/2 27/2/2 28/2/2
f 28/2/2 27/2/2 29/2/2
f 30/1/2 31/1/2 33/1/2
f 31/2/2 32/2/2 33/2/2
f 33/2/2 32/2/2 34/2/2
f 30/1/2 33/1/2 36/1/2
f 35/2/2 36/2/2 37/2/2
f 36/1/2 33/1/2 38/1/2
f 37/2/2 36/2/2 38/2/2
f 38/1/2 33/1/2 39/1/2
f 39/1/2 33/1/2 40/1/2
f 41/2/2 42/2/2 43/2/2
f 43/2/2 42/2/2 44/2/2
f 44/2/2 45/2/2 46/2/2
f 46/2/2 45/2/2 47/2/2
f 50/2/3 49/2/3 48/2/3
f 51/2/3 49/2/3 50/2/3
f 53/2/3 52/2/3 51/2/3
f 54/2/3 52/2/3 53/2/3
f 56/2/3 55/2/3 54/2/3
f 57/2/3 55/2/3 56/2/3
f 61/2/3 59/2/3 58/2/3
f 62/2/3 59/2/3 61/2/3
f 66/1/3 61/1/3 60/1/3
f 66/1/3 62/1/3 61/1/3
f 66/1/3 63/1/3 62/1/3
f 67/1/3 63/1/3 66/1/3
f 68/1/3 65/1/3 64/1/3
f 69/1/3 65/1/3 68/1/3
f 70/1/3 65/1/3 69/1/3
f 71/2/3 70/2/3 69/2/3
f 72/2/3 70/2/3 71/2/3
f 73/2/4 74/2/4 75/2/4
f 75/2/4 74/2/4 76/2/4
f 77/2/4 78/2/4 79/2/4
f 79/2/4 78/2/4 80/2/4
f 81/2/4 82/2/4 83/2/4
f 83/2/4 82/2/4 84/2/4
f 83/1/4 84/1/4 86/1/4
f 84/1/4 85/1/4 86/1/4
f 86/1/4 85/1/4 87/1/4
f 87/1/4 85/1/4 88/1/4
f 87/2/4 88/2/4 89/2/4
f 89/2/4 88/2/4 90/2/4
f 91/2/4 92/2/4 93/2/4
f 93/2/4 92/2/4 94/2/4
f 97/1/5 96/1/5 95/1/5
f 98/1/5 96/1/5 97/1/5
f 99/2/5 98/2/5 97/2/5
f 100/2/5 98/2/5 99/2/5
f 103/2/5 102/2/5 101/2/5
f 104/2/5 102/2/5 103/2/5
f 107/2/5 106/2/5 105/2/5
f 108/2/5 106/2/5 107/2/5
f 111/2/5 110/2/5 109/2/5
f 112/2/5 110/2/5 111/2/5
f 115/2/5 114/2/5 113/2/5
f 116/2/5 114/2/5 115/2/5
f 119/2/5 118/2/5 117/2/5
f 120/2/5 118/2/5 119/2/5
f 121/2/6 122/2/6 123/2/6
f 123/2/6 122/2/6 124/2/6
f 125/2/6 126/2/6 127/2/6
f 127/2/6 126/2/6 128/2/6
f 129/2/6 130/2/6 131/2/6
f 131/2/6 130/2/6 132/2/6
f 133/2/6 134/2/6 135/2/6
f 135/2/6 134/2/6 136/2/6
f 137/2/6 138/2/6 139/2/6
f 139/2/6 138/2/6 140/2/6
f 141/1/6 142/1/6 144/1/6
f 142/2/6 143/2/6 145/2/6
f 144/1/6 142/1/6 145/1/6
f 145/2/6 143/2/6 146/2/6
