# MagicaVoxel @ Ephtracy

# group
g ResearchCenter-4

# material
mtllib ResearchCenter-4.mtl
usemtl palette

# normals
vn -1 0 0
vn 1 0 0
vn 0 0 1
vn 0 0 -1
vn 0 -1 0
vn 0 1 0

# texcoords
vt 0.912109 0.5
vt 0.939453 0.5
vt 0.970703 0.5
vt 0.974609 0.5
vt 0.978516 0.5

# verts
v -13 0 1.5
v -13 0 0.5
v -13 0 -0.5
v -13 1 1.5
v -13 1 0.5
v -13 1 -0.5
v -13 1 -1.5
v -13 2 1.5
v -13 2 0.5
v -13 2 -0.5
v -13 2 -1.5
v -13 7 1.5
v -13 7 0.5
v -13 7 -0.5
v -13 7 -1.5
v -13 8 1.5
v -13 8 0.5
v -13 8 -0.5
v -13 8 -1.5
v -13 12 1.5
v -13 12 0.5
v -13 12 -0.5
v -13 12 -1.5
v -13 13 1.5
v -13 13 0.5
v -13 13 -0.5
v -13 13 -1.5
v -13 19 1.5
v -13 19 0.5
v -13 19 -0.5
v -13 19 -1.5
v -13 20 1.5
v -13 20 0.5
v -13 20 -0.5
v -13 20 -1.5
v -6 2 1.5
v -6 2 0.5
v -6 2 -0.5
v -6 2 -1.5
v -6 7 1.5
v -6 7 0.5
v -6 7 -0.5
v -6 7 -1.5
v -6 8 1.5
v -6 8 0.5
v -6 8 -0.5
v -6 8 -1.5
v -6 12 1.5
v -6 12 0.5
v -6 12 -0.5
v -6 12 -1.5
v -6 13 1.5
v -6 13 0.5
v -6 13 -0.5
v -6 13 -1.5
v -6 14 1.5
v -6 14 0.5
v -6 14 -0.5
v -6 14 -1.5
v -5 14 1.5
v -5 14 0.5
v -5 14 -0.5
v -5 14 -1.5
v -5 15 1.5
v -5 15 0.5
v -5 15 -0.5
v -5 15 -1.5
v 4 1 0.5
v 4 1 -0.5
v 4 13 0.5
v 4 13 -0.5
v 5 0 1.5
v 5 0 0.5
v 5 0 -0.5
v 5 1 1.5
v 5 1 0.5
v 5 1 -0.5
v 5 1 -1.5
v 5 14 1.5
v 5 14 0.5
v 5 14 -0.5
v 5 14 -1.5
v 13 0 -0.5
v 13 0 -1.5
v 13 1 -0.5
v 13 1 -1.5
v 13 2 1.5
v 13 2 0.5
v 13 2 -0.5
v 13 2 -1.5
v 13 7 1.5
v 13 7 0.5
v 13 7 -0.5
v 13 7 -1.5
v 13 8 1.5
v 13 8 0.5
v 13 8 -0.5
v 13 8 -1.5
v 13 12 1.5
v 13 12 0.5
v 13 12 -0.5
v 13 12 -1.5
v 13 13 1.5
v 13 13 0.5
v 13 13 -0.5
v 13 13 -1.5
v 13 19 1.5
v 13 19 0.5
v 13 19 -0.5
v 13 19 -1.5
v -5 0 1.5
v -5 0 0.5
v -5 0 -0.5
v -5 1 1.5
v -5 1 0.5
v -5 1 -0.5
v -5 1 -1.5
v -5 14 1.5
v -5 14 0.5
v -5 14 -0.5
v -5 14 -1.5
v -4 1 0.5
v -4 1 -0.5
v -4 13 0.5
v -4 13 -0.5
v 5 14 1.5
v 5 14 0.5
v 5 14 -0.5
v 5 14 -1.5
v 5 15 1.5
v 5 15 0.5
v 5 15 -0.5
v 5 15 -1.5
v 6 2 1.5
v 6 2 0.5
v 6 2 -0.5
v 6 2 -1.5
v 6 7 1.5
v 6 7 0.5
v 6 7 -0.5
v 6 7 -1.5
v 6 8 1.5
v 6 8 0.5
v 6 8 -0.5
v 6 8 -1.5
v 6 12 1.5
v 6 12 0.5
v 6 12 -0.5
v 6 12 -1.5
v 6 13 1.5
v 6 13 0.5
v 6 13 -0.5
v 6 13 -1.5
v 6 14 1.5
v 6 14 0.5
v 6 14 -0.5
v 6 14 -1.5
v 16 0 1.5
v 16 0 0.5
v 16 0 -0.5
v 16 0 -1.5
v 16 5 0.5
v 16 5 -0.5
v 16 16 0.5
v 16 16 -0.5
v 16 20 1.5
v 16 20 0.5
v 16 20 -0.5
v 16 20 -1.5
v -13 0 1.5
v -13 1 1.5
v -13 2 1.5
v -13 7 1.5
v -13 8 1.5
v -13 12 1.5
v -13 13 1.5
v -13 19 1.5
v -13 20 1.5
v -6 2 1.5
v -6 7 1.5
v -6 8 1.5
v -6 12 1.5
v -6 13 1.5
v -6 14 1.5
v -5 0 1.5
v -5 1 1.5
v -5 14 1.5
v -5 15 1.5
v 5 0 1.5
v 5 1 1.5
v 5 14 1.5
v 5 15 1.5
v 6 2 1.5
v 6 7 1.5
v 6 8 1.5
v 6 12 1.5
v 6 13 1.5
v 6 14 1.5
v 13 1 1.5
v 13 2 1.5
v 13 7 1.5
v 13 8 1.5
v 13 12 1.5
v 13 13 1.5
v 13 19 1.5
v 13 20 1.5
v 14 0 1.5
v 14 1 1.5
v 14 5 1.5
v 14 16 1.5
v 14 20 1.5
v 15 0 1.5
v 15 5 1.5
v 15 16 1.5
v 15 20 1.5
v 16 0 1.5
v 16 20 1.5
v -13 2 0.5
v -13 7 0.5
v -13 8 0.5
v -13 12 0.5
v -13 13 0.5
v -13 19 0.5
v -12 16 0.5
v -12 17 0.5
v -11 16 0.5
v -11 17 0.5
v -6 2 0.5
v -6 7 0.5
v -6 8 0.5
v -6 12 0.5
v -6 13 0.5
v -6 14 0.5
v -5 1 0.5
v -5 14 0.5
v -5 15 0.5
v -4 1 0.5
v -4 13 0.5
v -4 16 0.5
v -4 17 0.5
v -3 16 0.5
v -3 17 0.5
v 3 16 0.5
v 3 17 0.5
v 4 1 0.5
v 4 13 0.5
v 4 16 0.5
v 4 17 0.5
v 5 1 0.5
v 5 14 0.5
v 5 15 0.5
v 6 2 0.5
v 6 7 0.5
v 6 8 0.5
v 6 12 0.5
v 6 13 0.5
v 6 14 0.5
v 11 16 0.5
v 11 17 0.5
v 12 16 0.5
v 12 17 0.5
v 13 2 0.5
v 13 7 0.5
v 13 8 0.5
v 13 12 0.5
v 13 13 0.5
v 13 19 0.5
v -13 0 -0.5
v -13 1 -0.5
v -13 2 -0.5
v -13 7 -0.5
v -13 8 -0.5
v -13 12 -0.5
v -13 13 -0.5
v -13 19 -0.5
v -12 16 -0.5
v -12 17 -0.5
v -11 16 -0.5
v -11 17 -0.5
v -6 2 -0.5
v -6 7 -0.5
v -6 8 -0.5
v -6 12 -0.5
v -6 13 -0.5
v -6 14 -0.5
v -5 0 -0.5
v -5 1 -0.5
v -5 14 -0.5
v -5 15 -0.5
v -4 1 -0.5
v -4 13 -0.5
v -4 16 -0.5
v -4 17 -0.5
v -3 16 -0.5
v -3 17 -0.5
v 3 16 -0.5
v 3 17 -0.5
v 4 1 -0.5
v 4 13 -0.5
v 4 16 -0.5
v 4 17 -0.5
v 5 0 -0.5
v 5 1 -0.5
v 5 14 -0.5
v 5 15 -0.5
v 6 2 -0.5
v 6 7 -0.5
v 6 8 -0.5
v 6 12 -0.5
v 6 13 -0.5
v 6 14 -0.5
v 11 16 -0.5
v 11 17 -0.5
v 12 16 -0.5
v 12 17 -0.5
v 13 0 -0.5
v 13 1 -0.5
v 13 2 -0.5
v 13 7 -0.5
v 13 8 -0.5
v 13 12 -0.5
v 13 13 -0.5
v 13 19 -0.5
v -13 1 -1.5
v -13 2 -1.5
v -13 7 -1.5
v -13 8 -1.5
v -13 12 -1.5
v -13 13 -1.5
v -13 19 -1.5
v -13 20 -1.5
v -6 2 -1.5
v -6 7 -1.5
v -6 8 -1.5
v -6 12 -1.5
v -6 13 -1.5
v -6 14 -1.5
v -5 1 -1.5
v -5 14 -1.5
v -5 15 -1.5
v 5 1 -1.5
v 5 14 -1.5
v 5 15 -1.5
v 6 2 -1.5
v 6 7 -1.5
v 6 8 -1.5
v 6 12 -1.5
v 6 13 -1.5
v 6 14 -1.5
v 13 0 -1.5
v 13 1 -1.5
v 13 2 -1.5
v 13 7 -1.5
v 13 8 -1.5
v 13 12 -1.5
v 13 13 -1.5
v 13 19 -1.5
v 13 20 -1.5
v 14 0 -1.5
v 14 5 -1.5
v 14 16 -1.5
v 14 20 -1.5
v 15 0 -1.5
v 15 5 -1.5
v 15 16 -1.5
v 15 20 -1.5
v 16 0 -1.5
v 16 20 -1.5
v -13 0 1.5
v -5 0 1.5
v 5 0 1.5
v 14 0 1.5
v 15 0 1.5
v 16 0 1.5
v -13 0 0.5
v -5 0 0.5
v 5 0 0.5
v 14 0 0.5
v 15 0 0.5
v 16 0 0.5
v -13 0 -0.5
v -5 0 -0.5
v 5 0 -0.5
v 13 0 -0.5
v 15 0 -0.5
v 16 0 -0.5
v 13 0 -1.5
v 14 0 -1.5
v 15 0 -1.5
v 16 0 -1.5
v -5 1 0.5
v -4 1 0.5
v 4 1 0.5
v 5 1 0.5
v -13 1 -0.5
v -5 1 -0.5
v -4 1 -0.5
v 4 1 -0.5
v 5 1 -0.5
v 13 1 -0.5
v -13 1 -1.5
v -5 1 -1.5
v 5 1 -1.5
v 13 1 -1.5
v -13 7 1.5
v -6 7 1.5
v 6 7 1.5
v 13 7 1.5
v -13 7 0.5
v -6 7 0.5
v 6 7 0.5
v 13 7 0.5
v -13 7 -0.5
v -6 7 -0.5
v 6 7 -0.5
v 13 7 -0.5
v -13 7 -1.5
v -6 7 -1.5
v 6 7 -1.5
v 13 7 -1.5
v -13 12 1.5
v -6 12 1.5
v 6 12 1.5
v 13 12 1.5
v -13 12 0.5
v -6 12 0.5
v 6 12 0.5
v 13 12 0.5
v -13 12 -0.5
v -6 12 -0.5
v 6 12 -0.5
v 13 12 -0.5
v -13 12 -1.5
v -6 12 -1.5
v 6 12 -1.5
v 13 12 -1.5
v -4 13 0.5
v 4 13 0.5
v -4 13 -0.5
v 4 13 -0.5
v -5 14 1.5
v 5 14 1.5
v -5 14 0.5
v 5 14 0.5
v -5 14 -0.5
v 5 14 -0.5
v -5 14 -1.5
v 5 14 -1.5
v -13 19 1.5
v 13 19 1.5
v -13 19 0.5
v 13 19 0.5
v -13 19 -0.5
v 13 19 -0.5
v -13 19 -1.5
v 13 19 -1.5
v -13 2 1.5
v -6 2 1.5
v 6 2 1.5
v 13 2 1.5
v -13 2 0.5
v -6 2 0.5
v 6 2 0.5
v 13 2 0.5
v -13 2 -0.5
v -6 2 -0.5
v 6 2 -0.5
v 13 2 -0.5
v -13 2 -1.5
v -6 2 -1.5
v 6 2 -1.5
v 13 2 -1.5
v -13 8 1.5
v -6 8 1.5
v 6 8 1.5
v 13 8 1.5
v -13 8 0.5
v -6 8 0.5
v 6 8 0.5
v 13 8 0.5
v -13 8 -0.5
v -6 8 -0.5
v 6 8 -0.5
v 13 8 -0.5
v -13 8 -1.5
v -6 8 -1.5
v 6 8 -1.5
v 13 8 -1.5
v -13 13 1.5
v -6 13 1.5
v 6 13 1.5
v 13 13 1.5
v -13 13 0.5
v -6 13 0.5
v 6 13 0.5
v 13 13 0.5
v -13 13 -0.5
v -6 13 -0.5
v 6 13 -0.5
v 13 13 -0.5
v -13 13 -1.5
v -6 13 -1.5
v 6 13 -1.5
v 13 13 -1.5
v -6 14 1.5
v -5 14 1.5
v 5 14 1.5
v 6 14 1.5
v -6 14 0.5
v -5 14 0.5
v 5 14 0.5
v 6 14 0.5
v -6 14 -0.5
v -5 14 -0.5
v 5 14 -0.5
v 6 14 -0.5
v -6 14 -1.5
v -5 14 -1.5
v 5 14 -1.5
v 6 14 -1.5
v -5 15 1.5
v 5 15 1.5
v -5 15 0.5
v 5 15 0.5
v -5 15 -0.5
v 5 15 -0.5
v -5 15 -1.5
v 5 15 -1.5
v -13 20 1.5
v 13 20 1.5
v 14 20 1.5
v 15 20 1.5
v 16 20 1.5
v -13 20 0.5
v 13 20 0.5
v 14 20 0.5
v 15 20 0.5
v 16 20 0.5
v -13 20 -0.5
v 13 20 -0.5
v 14 20 -0.5
v 15 20 -0.5
v 16 20 -0.5
v -13 20 -1.5
v 13 20 -1.5
v 14 20 -1.5
v 15 20 -1.5
v 16 20 -1.5

# faces
f 4/4/1 2/4/1 1/4/1
f 5/3/1 3/3/1 2/3/1
f 5/4/1 2/4/1 4/4/1
f 6/3/1 3/3/1 5/3/1
f 8/5/1 5/5/1 4/5/1
f 9/4/1 6/4/1 5/4/1
f 9/5/1 5/5/1 8/5/1
f 10/5/1 7/5/1 6/5/1
f 10/4/1 6/4/1 9/4/1
f 11/5/1 7/5/1 10/5/1
f 13/4/1 10/4/1 9/4/1
f 14/4/1 10/4/1 13/4/1
f 16/1/1 13/1/1 12/1/1
f 17/4/1 14/4/1 13/4/1
f 17/1/1 13/1/1 16/1/1
f 18/1/1 15/1/1 14/1/1
f 18/4/1 14/4/1 17/4/1
f 19/1/1 15/1/1 18/1/1
f 21/4/1 18/4/1 17/4/1
f 22/4/1 18/4/1 21/4/1
f 24/1/1 21/1/1 20/1/1
f 25/4/1 22/4/1 21/4/1
f 25/1/1 21/1/1 24/1/1
f 26/1/1 23/1/1 22/1/1
f 26/4/1 22/4/1 25/4/1
f 27/1/1 23/1/1 26/1/1
f 29/4/1 26/4/1 25/4/1
f 30/4/1 26/4/1 29/4/1
f 32/5/1 29/5/1 28/5/1
f 33/4/1 30/4/1 29/4/1
f 33/5/1 29/5/1 32/5/1
f 34/5/1 31/5/1 30/5/1
f 34/4/1 30/4/1 33/4/1
f 35/5/1 31/5/1 34/5/1
f 40/5/1 37/5/1 36/5/1
f 41/5/1 37/5/1 40/5/1
f 42/5/1 39/5/1 38/5/1
f 43/5/1 39/5/1 42/5/1
f 48/5/1 45/5/1 44/5/1
f 49/5/1 45/5/1 48/5/1
f 50/5/1 47/5/1 46/5/1
f 51/5/1 47/5/1 50/5/1
f 56/5/1 53/5/1 52/5/1
f 57/5/1 53/5/1 56/5/1
f 58/5/1 55/5/1 54/5/1
f 59/5/1 55/5/1 58/5/1
f 64/5/1 61/5/1 60/5/1
f 65/5/1 61/5/1 64/5/1
f 66/5/1 63/5/1 62/5/1
f 67/5/1 63/5/1 66/5/1
f 70/3/1 69/3/1 68/3/1
f 71/3/1 69/3/1 70/3/1
f 75/4/1 73/4/1 72/4/1
f 76/3/1 74/3/1 73/3/1
f 76/4/1 73/4/1 75/4/1
f 77/3/1 74/3/1 76/3/1
f 79/5/1 76/5/1 75/5/1
f 80/5/1 76/5/1 79/5/1
f 81/5/1 78/5/1 77/5/1
f 82/5/1 78/5/1 81/5/1
f 85/3/1 84/3/1 83/3/1
f 86/3/1 84/3/1 85/3/1
f 91/3/1 88/3/1 87/3/1
f 92/3/1 88/3/1 91/3/1
f 93/3/1 90/3/1 89/3/1
f 94/3/1 90/3/1 93/3/1
f 99/3/1 96/3/1 95/3/1
f 100/3/1 96/3/1 99/3/1
f 101/3/1 98/3/1 97/3/1
f 102/3/1 98/3/1 101/3/1
f 107/3/1 104/3/1 103/3/1
f 108/3/1 104/3/1 107/3/1
f 109/3/1 106/3/1 105/3/1
f 110/3/1 106/3/1 109/3/1
f 111/4/2 112/4/2 114/4/2
f 112/3/2 113/3/2 115/3/2
f 114/4/2 112/4/2 115/4/2
f 115/3/2 113/3/2 116/3/2
f 114/5/2 115/5/2 118/5/2
f 118/5/2 115/5/2 119/5/2
f 116/5/2 117/5/2 120/5/2
f 120/5/2 117/5/2 121/5/2
f 122/3/2 123/3/2 124/3/2
f 124/3/2 123/3/2 125/3/2
f 126/5/2 127/5/2 130/5/2
f 130/5/2 127/5/2 131/5/2
f 128/5/2 129/5/2 132/5/2
f 132/5/2 129/5/2 133/5/2
f 134/5/2 135/5/2 138/5/2
f 138/5/2 135/5/2 139/5/2
f 136/5/2 137/5/2 140/5/2
f 140/5/2 137/5/2 141/5/2
f 142/5/2 143/5/2 146/5/2
f 146/5/2 143/5/2 147/5/2
f 144/5/2 145/5/2 148/5/2
f 148/5/2 145/5/2 149/5/2
f 150/5/2 151/5/2 154/5/2
f 154/5/2 151/5/2 155/5/2
f 152/5/2 153/5/2 156/5/2
f 156/5/2 153/5/2 157/5/2
f 158/3/2 159/3/2 162/3/2
f 159/2/2 160/2/2 162/2/2
f 160/3/2 161/3/2 163/3/2
f 162/2/2 160/2/2 163/2/2
f 158/3/2 162/3/2 164/3/2
f 162/5/2 163/5/2 164/5/2
f 163/3/2 161/3/2 165/3/2
f 164/5/2 163/5/2 165/5/2
f 158/3/2 164/3/2 166/3/2
f 164/2/2 165/2/2 167/2/2
f 166/3/2 164/3/2 167/3/2
f 165/3/2 161/3/2 168/3/2
f 167/2/2 165/2/2 168/2/2
f 168/3/2 161/3/2 169/3/2
f 179/5/3 172/5/3 171/5/3
f 180/1/3 174/1/3 173/1/3
f 181/1/3 174/1/3 180/1/3
f 182/1/3 176/1/3 175/1/3
f 183/1/3 176/1/3 182/1/3
f 185/4/3 171/4/3 170/4/3
f 186/5/3 184/5/3 183/5/3
f 186/4/3 171/4/3 185/4/3
f 186/5/3 179/5/3 171/5/3
f 186/5/3 183/5/3 182/5/3
f 186/5/3 182/5/3 181/5/3
f 186/5/3 181/5/3 180/5/3
f 186/5/3 180/5/3 179/5/3
f 187/5/3 184/5/3 186/5/3
f 191/5/3 188/5/3 187/5/3
f 192/5/3 188/5/3 191/5/3
f 193/5/3 191/5/3 190/5/3
f 194/5/3 191/5/3 193/5/3
f 195/5/3 191/5/3 194/5/3
f 196/5/3 191/5/3 195/5/3
f 197/5/3 191/5/3 196/5/3
f 198/5/3 191/5/3 197/5/3
f 199/4/3 190/4/3 189/4/3
f 199/5/3 193/5/3 190/5/3
f 200/5/3 193/5/3 199/5/3
f 201/1/3 195/1/3 194/1/3
f 202/1/3 195/1/3 201/1/3
f 203/1/3 197/1/3 196/1/3
f 204/1/3 197/1/3 203/1/3
f 205/5/3 178/5/3 177/5/3
f 206/5/3 178/5/3 205/5/3
f 207/4/3 199/4/3 189/4/3
f 208/3/3 204/3/3 203/3/3
f 208/4/3 199/4/3 207/4/3
f 208/3/3 203/3/3 202/3/3
f 208/3/3 206/3/3 205/3/3
f 208/3/3 205/3/3 204/3/3
f 208/3/3 202/3/3 201/3/3
f 208/3/3 201/3/3 200/3/3
f 208/3/3 200/3/3 199/3/3
f 209/3/3 206/3/3 208/3/3
f 210/3/3 206/3/3 209/3/3
f 211/3/3 206/3/3 210/3/3
f 212/2/3 208/2/3 207/2/3
f 212/2/3 209/2/3 208/2/3
f 213/5/3 210/5/3 209/5/3
f 213/2/3 209/2/3 212/2/3
f 214/2/3 211/2/3 210/2/3
f 214/5/3 210/5/3 213/5/3
f 215/2/3 211/2/3 214/2/3
f 216/3/3 213/3/3 212/3/3
f 216/3/3 214/3/3 213/3/3
f 216/3/3 215/3/3 214/3/3
f 217/3/3 215/3/3 216/3/3
f 224/4/3 223/4/3 222/4/3
f 225/4/3 223/4/3 224/4/3
f 226/4/3 224/4/3 222/4/3
f 226/5/3 225/5/3 224/5/3
f 227/4/3 223/4/3 225/4/3
f 227/5/3 225/5/3 226/5/3
f 228/4/3 219/4/3 218/4/3
f 229/4/3 219/4/3 228/4/3
f 230/4/3 221/4/3 220/4/3
f 231/4/3 221/4/3 230/4/3
f 232/4/3 226/4/3 222/4/3
f 233/4/3 226/4/3 232/4/3
f 235/4/3 226/4/3 233/4/3
f 236/4/3 226/4/3 235/4/3
f 237/3/3 235/3/3 234/3/3
f 238/3/3 235/3/3 237/3/3
f 239/3/3 227/3/3 226/3/3
f 239/4/3 226/4/3 236/4/3
f 240/4/3 223/4/3 227/4/3
f 240/3/3 227/3/3 239/3/3
f 241/4/3 239/4/3 236/4/3
f 241/5/3 240/5/3 239/5/3
f 242/4/3 223/4/3 240/4/3
f 242/5/3 240/5/3 241/5/3
f 243/4/3 241/4/3 236/4/3
f 243/2/3 242/2/3 241/2/3
f 244/4/3 223/4/3 242/4/3
f 244/2/3 242/2/3 243/2/3
f 246/3/3 235/3/3 238/3/3
f 247/4/3 243/4/3 236/4/3
f 247/5/3 244/5/3 243/5/3
f 248/4/3 223/4/3 244/4/3
f 248/5/3 244/5/3 247/5/3
f 249/3/3 246/3/3 245/3/3
f 250/3/3 235/3/3 246/3/3
f 250/3/3 246/3/3 249/3/3
f 251/4/3 247/4/3 236/4/3
f 257/4/3 251/4/3 250/4/3
f 258/3/3 248/3/3 247/3/3
f 258/4/3 257/4/3 256/4/3
f 258/4/3 251/4/3 257/4/3
f 258/4/3 247/4/3 251/4/3
f 259/4/3 223/4/3 248/4/3
f 259/3/3 248/3/3 258/3/3
f 260/4/3 258/4/3 256/4/3
f 260/5/3 259/5/3 258/5/3
f 261/4/3 223/4/3 259/4/3
f 261/5/3 259/5/3 260/5/3
f 262/4/3 253/4/3 252/4/3
f 263/4/3 253/4/3 262/4/3
f 264/4/3 255/4/3 254/4/3
f 265/4/3 255/4/3 264/4/3
f 266/4/3 260/4/3 256/4/3
f 266/4/3 261/4/3 260/4/3
f 267/4/3 223/4/3 261/4/3
f 267/4/3 261/4/3 266/4/3
f 274/4/4 275/4/4 276/4/4
f 276/4/4 275/4/4 277/4/4
f 274/4/4 276/4/4 278/4/4
f 276/5/4 277/5/4 278/5/4
f 277/4/4 275/4/4 279/4/4
f 278/5/4 277/5/4 279/5/4
f 270/4/4 271/4/4 280/4/4
f 280/4/4 271/4/4 281/4/4
f 272/4/4 273/4/4 282/4/4
f 282/4/4 273/4/4 283/4/4
f 274/4/4 278/4/4 284/4/4
f 284/4/4 278/4/4 285/4/4
f 268/3/4 269/3/4 286/3/4
f 286/3/4 269/3/4 287/3/4
f 285/4/4 278/4/4 288/4/4
f 288/4/4 278/4/4 289/4/4
f 287/3/4 288/3/4 290/3/4
f 290/3/4 288/3/4 291/3/4
f 289/4/4 278/4/4 292/4/4
f 278/3/4 279/3/4 292/3/4
f 279/4/4 275/4/4 293/4/4
f 292/3/4 279/3/4 293/3/4
f 289/4/4 292/4/4 294/4/4
f 292/5/4 293/5/4 294/5/4
f 293/4/4 275/4/4 295/4/4
f 294/5/4 293/5/4 295/5/4
f 289/4/4 294/4/4 296/4/4
f 294/2/4 295/2/4 296/2/4
f 295/4/4 275/4/4 297/4/4
f 296/2/4 295/2/4 297/2/4
f 291/3/4 288/3/4 299/3/4
f 289/4/4 296/4/4 300/4/4
f 296/5/4 297/5/4 300/5/4
f 297/4/4 275/4/4 301/4/4
f 300/5/4 297/5/4 301/5/4
f 298/3/4 299/3/4 303/3/4
f 299/3/4 288/3/4 304/3/4
f 303/3/4 299/3/4 304/3/4
f 289/4/4 300/4/4 305/4/4
f 304/4/4 305/4/4 311/4/4
f 300/3/4 301/3/4 312/3/4
f 310/4/4 311/4/4 312/4/4
f 311/4/4 305/4/4 312/4/4
f 305/4/4 300/4/4 312/4/4
f 301/4/4 275/4/4 313/4/4
f 312/3/4 301/3/4 313/3/4
f 310/4/4 312/4/4 314/4/4
f 312/5/4 313/5/4 314/5/4
f 313/4/4 275/4/4 315/4/4
f 314/5/4 313/5/4 315/5/4
f 302/3/4 303/3/4 316/3/4
f 316/3/4 303/3/4 317/3/4
f 306/4/4 307/4/4 318/4/4
f 318/4/4 307/4/4 319/4/4
f 308/4/4 309/4/4 320/4/4
f 320/4/4 309/4/4 321/4/4
f 310/4/4 314/4/4 322/4/4
f 314/4/4 315/4/4 322/4/4
f 315/4/4 275/4/4 323/4/4
f 322/4/4 315/4/4 323/4/4
f 324/5/4 325/5/4 332/5/4
f 326/1/4 327/1/4 333/1/4
f 333/1/4 327/1/4 334/1/4
f 328/1/4 329/1/4 335/1/4
f 335/1/4 329/1/4 336/1/4
f 324/5/4 332/5/4 338/5/4
f 336/5/4 337/5/4 338/5/4
f 335/5/4 336/5/4 338/5/4
f 334/5/4 335/5/4 338/5/4
f 333/5/4 334/5/4 338/5/4
f 332/5/4 333/5/4 338/5/4
f 338/5/4 337/5/4 339/5/4
f 339/5/4 340/5/4 342/5/4
f 342/5/4 340/5/4 343/5/4
f 341/5/4 342/5/4 344/5/4
f 344/5/4 342/5/4 345/5/4
f 345/5/4 342/5/4 346/5/4
f 346/5/4 342/5/4 347/5/4
f 347/5/4 342/5/4 348/5/4
f 348/5/4 342/5/4 349/5/4
f 341/5/4 344/5/4 351/5/4
f 351/5/4 344/5/4 352/5/4
f 345/1/4 346/1/4 353/1/4
f 353/1/4 346/1/4 354/1/4
f 347/1/4 348/1/4 355/1/4
f 355/1/4 348/1/4 356/1/4
f 330/5/4 331/5/4 357/5/4
f 357/5/4 331/5/4 358/5/4
f 355/3/4 356/3/4 359/3/4
f 354/3/4 355/3/4 359/3/4
f 357/3/4 358/3/4 359/3/4
f 356/3/4 357/3/4 359/3/4
f 353/3/4 354/3/4 359/3/4
f 352/3/4 353/3/4 359/3/4
f 351/3/4 352/3/4 359/3/4
f 350/3/4 351/3/4 359/3/4
f 359/3/4 358/3/4 360/3/4
f 360/3/4 358/3/4 361/3/4
f 361/3/4 358/3/4 362/3/4
f 359/2/4 360/2/4 363/2/4
f 360/5/4 361/5/4 364/5/4
f 363/2/4 360/2/4 364/2/4
f 361/2/4 362/2/4 365/2/4
f 364/5/4 361/5/4 365/5/4
f 365/2/4 362/2/4 366/2/4
f 363/3/4 364/3/4 367/3/4
f 364/3/4 365/3/4 367/3/4
f 365/3/4 366/3/4 367/3/4
f 367/3/4 366/3/4 368/3/4
f 375/4/5 370/4/5 369/4/5
f 376/4/5 370/4/5 375/4/5
f 377/4/5 372/4/5 371/4/5
f 378/2/5 373/2/5 372/2/5
f 378/4/5 372/4/5 377/4/5
f 379/3/5 374/3/5 373/3/5
f 379/2/5 373/2/5 378/2/5
f 380/3/5 374/3/5 379/3/5
f 381/3/5 376/3/5 375/3/5
f 382/3/5 376/3/5 381/3/5
f 383/3/5 378/3/5 377/3/5
f 384/3/5 378/3/5 383/3/5
f 385/2/5 379/2/5 378/2/5
f 385/2/5 380/2/5 379/2/5
f 386/2/5 380/2/5 385/2/5
f 387/3/5 378/3/5 384/3/5
f 388/2/5 385/2/5 378/2/5
f 388/3/5 378/3/5 387/3/5
f 389/3/5 386/3/5 385/3/5
f 389/2/5 385/2/5 388/2/5
f 390/3/5 386/3/5 389/3/5
f 396/3/5 392/3/5 391/3/5
f 397/3/5 392/3/5 396/3/5
f 398/3/5 394/3/5 393/3/5
f 399/3/5 394/3/5 398/3/5
f 401/5/5 396/5/5 395/5/5
f 402/5/5 396/5/5 401/5/5
f 403/5/5 400/5/5 399/5/5
f 404/5/5 400/5/5 403/5/5
f 409/1/5 406/1/5 405/1/5
f 410/1/5 406/1/5 409/1/5
f 411/1/5 408/1/5 407/1/5
f 412/1/5 408/1/5 411/1/5
f 417/1/5 414/1/5 413/1/5
f 418/1/5 414/1/5 417/1/5
f 419/1/5 416/1/5 415/1/5
f 420/1/5 416/1/5 419/1/5
f 425/1/5 422/1/5 421/1/5
f 426/1/5 422/1/5 425/1/5
f 427/1/5 424/1/5 423/1/5
f 428/1/5 424/1/5 427/1/5
f 433/1/5 430/1/5 429/1/5
f 434/1/5 430/1/5 433/1/5
f 435/1/5 432/1/5 431/1/5
f 436/1/5 432/1/5 435/1/5
f 439/3/5 438/3/5 437/3/5
f 440/3/5 438/3/5 439/3/5
f 443/5/5 442/5/5 441/5/5
f 444/5/5 442/5/5 443/5/5
f 447/5/5 446/5/5 445/5/5
f 448/5/5 446/5/5 447/5/5
f 451/5/5 450/5/5 449/5/5
f 452/5/5 450/5/5 451/5/5
f 455/5/5 454/5/5 453/5/5
f 456/5/5 454/5/5 455/5/5
f 457/5/6 458/5/6 461/5/6
f 461/5/6 458/5/6 462/5/6
f 459/5/6 460/5/6 463/5/6
f 463/5/6 460/5/6 464/5/6
f 465/5/6 466/5/6 469/5/6
f 469/5/6 466/5/6 470/5/6
f 467/5/6 468/5/6 471/5/6
f 471/5/6 468/5/6 472/5/6
f 473/1/6 474/1/6 477/1/6
f 477/1/6 474/1/6 478/1/6
f 475/1/6 476/1/6 479/1/6
f 479/1/6 476/1/6 480/1/6
f 481/1/6 482/1/6 485/1/6
f 485/1/6 482/1/6 486/1/6
f 483/1/6 484/1/6 487/1/6
f 487/1/6 484/1/6 488/1/6
f 489/1/6 490/1/6 493/1/6
f 493/1/6 490/1/6 494/1/6
f 491/1/6 492/1/6 495/1/6
f 495/1/6 492/1/6 496/1/6
f 497/1/6 498/1/6 501/1/6
f 501/1/6 498/1/6 502/1/6
f 499/1/6 500/1/6 503/1/6
f 503/1/6 500/1/6 504/1/6
f 505/5/6 506/5/6 509/5/6
f 509/5/6 506/5/6 510/5/6
f 507/5/6 508/5/6 511/5/6
f 511/5/6 508/5/6 512/5/6
f 513/5/6 514/5/6 517/5/6
f 517/5/6 514/5/6 518/5/6
f 515/5/6 516/5/6 519/5/6
f 519/5/6 516/5/6 520/5/6
f 521/5/6 522/5/6 523/5/6
f 523/5/6 522/5/6 524/5/6
f 525/5/6 526/5/6 527/5/6
f 527/5/6 526/5/6 528/5/6
f 529/5/6 530/5/6 534/5/6
f 530/3/6 531/3/6 535/3/6
f 534/5/6 530/5/6 535/5/6
f 531/2/6 532/2/6 536/2/6
f 535/3/6 531/3/6 536/3/6
f 532/3/6 533/3/6 537/3/6
f 536/2/6 532/2/6 537/2/6
f 537/3/6 533/3/6 538/3/6
f 535/4/6 536/4/6 539/4/6
f 534/4/6 535/4/6 539/4/6
f 539/4/6 536/4/6 540/4/6
f 537/2/6 538/2/6 541/2/6
f 540/4/6 536/4/6 541/4/6
f 536/2/6 537/2/6 541/2/6
f 541/2/6 538/2/6 542/2/6
f 542/2/6 538/2/6 543/2/6
f 539/5/6 540/5/6 544/5/6
f 540/3/6 541/3/6 545/3/6
f 544/5/6 540/5/6 545/5/6
f 541/2/6 542/2/6 546/2/6
f 545/3/6 541/3/6 546/3/6
f 542/3/6 543/3/6 547/3/6
f 546/2/6 542/2/6 547/2/6
f 547/3/6 543/3/6 548/3/6
