# MagicaVoxel @ Ephtracy

# group
g VikingViewModel-3

# material
mtllib VikingViewModel-3.mtl
usemtl palette

# normals
vn -1 0 0
vn 1 0 0
vn 0 0 1
vn 0 0 -1
vn 0 -1 0
vn 0 1 0

# texcoords
vt 0.0175781 0.5
vt 0.0253906 0.5
vt 0.0527344 0.5
vt 0.0566406 0.5

# verts
v -2 0 1
v -2 0 -0
v -2 0 -1
v -2 1 1
v -2 1 -0
v -2 1 -1
v -2 2 1
v -2 2 -1
v 2 0 1
v 2 0 -1
v 2 1 1
v 2 1 -1
v 2 2 1
v 2 2 -1
v -2 0 1
v -2 1 1
v -2 2 1
v -1 0 1
v -1 1 1
v 1 0 1
v 1 1 1
v 2 0 1
v 2 1 1
v 2 2 1
v -2 0 -1
v -2 1 -1
v -2 2 -1
v -1 0 -1
v -1 1 -1
v 1 0 -1
v 1 1 -1
v 2 0 -1
v 2 1 -1
v 2 2 -1
v -2 0 1
v -1 0 1
v 1 0 1
v 2 0 1
v -2 0 -0
v -1 0 -0
v -2 0 -1
v -1 0 -1
v 1 0 -1
v 2 0 -1
v -2 2 1
v 2 2 1
v -2 2 -1
v 2 2 -1

# faces
f 4/1/1 2/1/1 1/1/1
f 5/3/1 3/3/1 2/3/1
f 5/1/1 2/1/1 4/1/1
f 6/3/1 3/3/1 5/3/1
f 7/4/1 5/4/1 4/4/1
f 7/4/1 6/4/1 5/4/1
f 8/4/1 6/4/1 7/4/1
f 9/3/2 10/3/2 11/3/2
f 11/3/2 10/3/2 12/3/2
f 11/4/2 12/4/2 13/4/2
f 13/4/2 12/4/2 14/4/2
f 18/1/3 16/1/3 15/1/3
f 19/4/3 17/4/3 16/4/3
f 19/1/3 16/1/3 18/1/3
f 20/2/3 19/2/3 18/2/3
f 21/4/3 17/4/3 19/4/3
f 21/2/3 19/2/3 20/2/3
f 22/3/3 21/3/3 20/3/3
f 23/4/3 17/4/3 21/4/3
f 23/3/3 21/3/3 22/3/3
f 24/4/3 17/4/3 23/4/3
f 25/3/4 26/3/4 28/3/4
f 26/4/4 27/4/4 29/4/4
f 28/3/4 26/3/4 29/3/4
f 28/2/4 29/2/4 30/2/4
f 29/4/4 27/4/4 31/4/4
f 30/2/4 29/2/4 31/2/4
f 30/3/4 31/3/4 32/3/4
f 31/4/4 27/4/4 33/4/4
f 32/3/4 31/3/4 33/3/4
f 33/4/4 27/4/4 34/4/4
f 39/1/5 36/1/5 35/1/5
f 40/2/5 37/2/5 36/2/5
f 40/1/5 36/1/5 39/1/5
f 41/3/5 40/3/5 39/3/5
f 42/2/5 37/2/5 40/2/5
f 42/3/5 40/3/5 41/3/5
f 43/3/5 38/3/5 37/3/5
f 43/2/5 37/2/5 42/2/5
f 44/3/5 38/3/5 43/3/5
f 45/4/6 46/4/6 47/4/6
f 47/4/6 46/4/6 48/4/6
