# MagicaVoxel @ Ephtracy

# group
g DungeonProps-11

# material
mtllib DungeonProps-11.mtl
usemtl palette

# normals
vn -1 0 0
vn 1 0 0
vn 0 0 1
vn 0 0 -1
vn 0 -1 0
vn 0 1 0

# texcoords
vt 0.908203 0.5
vt 0.912109 0.5
vt 0.916016 0.5

# verts
v -9 0 4
v -9 0 -4
v -9 4 3
v -9 4 2
v -9 4 -2
v -9 4 -3
v -9 5 3
v -9 5 2
v -9 5 -2
v -9 5 -3
v -9 9 3
v -9 9 2
v -9 9 -2
v -9 9 -3
v -9 10 3
v -9 10 2
v -9 10 -2
v -9 10 -3
v -9 14 4
v -9 14 -4
v -9 15 4
v -9 15 -4
v 8 0 4
v 8 0 -4
v 8 4 4
v 8 4 -3
v 8 5 3
v 8 5 -3
v 8 9 3
v 8 9 -3
v 8 10 3
v 8 10 -3
v 8 14 3
v 8 14 -4
v -8 0 4
v -8 0 -4
v -8 4 4
v -8 4 -3
v -8 5 3
v -8 5 -3
v -8 9 3
v -8 9 -3
v -8 10 3
v -8 10 -3
v -8 14 3
v -8 14 -4
v 9 0 4
v 9 0 -4
v 9 4 3
v 9 4 2
v 9 4 -2
v 9 4 -3
v 9 5 3
v 9 5 2
v 9 5 -2
v 9 5 -3
v 9 9 3
v 9 9 2
v 9 9 -2
v 9 9 -3
v 9 10 3
v 9 10 2
v 9 10 -2
v 9 10 -3
v 9 14 4
v 9 14 -4
v 9 15 4
v 9 15 -4
v -9 0 4
v -9 14 4
v -9 15 4
v -8 0 4
v -8 4 4
v -8 14 4
v -8 15 4
v -7 4 4
v -7 14 4
v 7 4 4
v 7 14 4
v 8 0 4
v 8 4 4
v 8 14 4
v 8 15 4
v 9 0 4
v 9 14 4
v 9 15 4
v -8 5 3
v -8 9 3
v -8 10 3
v -8 14 3
v -7 5 3
v -7 9 3
v -7 10 3
v -7 14 3
v 7 5 3
v 7 9 3
v 7 10 3
v 7 14 3
v 8 5 3
v 8 9 3
v 8 10 3
v 8 14 3
v -8 4 -3
v -8 5 -3
v -8 9 -3
v -8 10 -3
v 8 4 -3
v 8 5 -3
v 8 9 -3
v 8 10 -3
v -9 0 -4
v -9 14 -4
v -9 15 -4
v -8 0 -4
v -8 14 -4
v -8 15 -4
v 8 0 -4
v 8 14 -4
v 8 15 -4
v 9 0 -4
v 9 14 -4
v 9 15 -4
v -9 0 4
v -8 0 4
v 8 0 4
v 9 0 4
v -9 0 -4
v -8 0 -4
v 8 0 -4
v 9 0 -4
v -8 4 4
v -7 4 4
v 7 4 4
v 8 4 4
v -7 4 3
v 7 4 3
v -8 4 -3
v 8 4 -3
v -8 9 3
v -7 9 3
v 7 9 3
v 8 9 3
v -8 9 -3
v 8 9 -3
v -8 14 3
v -7 14 3
v 7 14 3
v 8 14 3
v -8 14 -4
v 8 14 -4
v -8 5 3
v -7 5 3
v 7 5 3
v 8 5 3
v -8 5 -3
v 8 5 -3
v -8 10 3
v -7 10 3
v 7 10 3
v 8 10 3
v -8 10 -3
v 8 10 -3
v -9 15 4
v -8 15 4
v 8 15 4
v 9 15 4
v -9 15 -4
v -8 15 -4
v 8 15 -4
v 9 15 -4

# faces
f 3/1/1 2/1/1 1/1/1
f 4/1/1 2/1/1 3/1/1
f 5/1/1 2/1/1 4/1/1
f 6/1/1 2/1/1 5/1/1
f 7/1/1 3/1/1 1/1/1
f 7/3/1 4/3/1 3/3/1
f 8/1/1 5/1/1 4/1/1
f 8/3/1 4/3/1 7/3/1
f 9/3/1 6/3/1 5/3/1
f 9/1/1 5/1/1 8/1/1
f 10/1/1 2/1/1 6/1/1
f 10/3/1 6/3/1 9/3/1
f 11/1/1 9/1/1 8/1/1
f 11/1/1 8/1/1 7/1/1
f 11/1/1 10/1/1 9/1/1
f 11/1/1 7/1/1 1/1/1
f 12/1/1 10/1/1 11/1/1
f 13/1/1 10/1/1 12/1/1
f 14/1/1 2/1/1 10/1/1
f 14/1/1 10/1/1 13/1/1
f 15/1/1 11/1/1 1/1/1
f 15/3/1 12/3/1 11/3/1
f 16/1/1 13/1/1 12/1/1
f 16/3/1 12/3/1 15/3/1
f 17/3/1 14/3/1 13/3/1
f 17/1/1 13/1/1 16/1/1
f 18/1/1 2/1/1 14/1/1
f 18/3/1 14/3/1 17/3/1
f 19/1/1 15/1/1 1/1/1
f 19/1/1 17/1/1 16/1/1
f 19/1/1 18/1/1 17/1/1
f 19/1/1 16/1/1 15/1/1
f 20/1/1 2/1/1 18/1/1
f 20/1/1 18/1/1 19/1/1
f 21/3/1 20/3/1 19/3/1
f 22/3/1 20/3/1 21/3/1
f 25/1/1 24/1/1 23/1/1
f 26/1/1 24/1/1 25/1/1
f 28/1/1 24/1/1 26/1/1
f 29/1/1 28/1/1 27/1/1
f 30/1/1 24/1/1 28/1/1
f 30/1/1 28/1/1 29/1/1
f 32/1/1 24/1/1 30/1/1
f 33/1/1 32/1/1 31/1/1
f 34/1/1 24/1/1 32/1/1
f 34/1/1 32/1/1 33/1/1
f 35/1/2 36/1/2 37/1/2
f 37/1/2 36/1/2 38/1/2
f 38/1/2 36/1/2 40/1/2
f 39/1/2 40/1/2 41/1/2
f 40/1/2 36/1/2 42/1/2
f 41/1/2 40/1/2 42/1/2
f 42/1/2 36/1/2 44/1/2
f 43/1/2 44/1/2 45/1/2
f 44/1/2 36/1/2 46/1/2
f 45/1/2 44/1/2 46/1/2
f 47/1/2 48/1/2 49/1/2
f 49/1/2 48/1/2 50/1/2
f 50/1/2 48/1/2 51/1/2
f 51/1/2 48/1/2 52/1/2
f 47/1/2 49/1/2 53/1/2
f 49/3/2 50/3/2 53/3/2
f 50/1/2 51/1/2 54/1/2
f 53/3/2 50/3/2 54/3/2
f 51/3/2 52/3/2 55/3/2
f 54/1/2 51/1/2 55/1/2
f 52/1/2 48/1/2 56/1/2
f 55/3/2 52/3/2 56/3/2
f 54/1/2 55/1/2 57/1/2
f 53/1/2 54/1/2 57/1/2
f 55/1/2 56/1/2 57/1/2
f 47/1/2 53/1/2 57/1/2
f 57/1/2 56/1/2 58/1/2
f 58/1/2 56/1/2 59/1/2
f 56/1/2 48/1/2 60/1/2
f 59/1/2 56/1/2 60/1/2
f 47/1/2 57/1/2 61/1/2
f 57/3/2 58/3/2 61/3/2
f 58/1/2 59/1/2 62/1/2
f 61/3/2 58/3/2 62/3/2
f 59/3/2 60/3/2 63/3/2
f 62/1/2 59/1/2 63/1/2
f 60/1/2 48/1/2 64/1/2
f 63/3/2 60/3/2 64/3/2
f 47/1/2 61/1/2 65/1/2
f 62/1/2 63/1/2 65/1/2
f 63/1/2 64/1/2 65/1/2
f 61/1/2 62/1/2 65/1/2
f 64/1/2 48/1/2 66/1/2
f 65/1/2 64/1/2 66/1/2
f 65/3/2 66/3/2 67/3/2
f 67/3/2 66/3/2 68/3/2
f 72/1/3 70/1/3 69/1/3
f 73/1/3 70/1/3 72/1/3
f 74/3/3 71/3/3 70/3/3
f 74/1/3 70/1/3 73/1/3
f 75/3/3 71/3/3 74/3/3
f 76/2/3 74/2/3 73/2/3
f 76/2/3 75/2/3 74/2/3
f 77/2/3 75/2/3 76/2/3
f 78/1/3 77/1/3 76/1/3
f 79/2/3 75/2/3 77/2/3
f 79/1/3 77/1/3 78/1/3
f 81/2/3 79/2/3 78/2/3
f 82/2/3 75/2/3 79/2/3
f 82/2/3 79/2/3 81/2/3
f 83/2/3 75/2/3 82/2/3
f 84/1/3 81/1/3 80/1/3
f 84/1/3 82/1/3 81/1/3
f 85/3/3 83/3/3 82/3/3
f 85/1/3 82/1/3 84/1/3
f 86/3/3 83/3/3 85/3/3
f 87/2/4 88/2/4 91/2/4
f 91/2/4 88/2/4 92/2/4
f 89/2/4 90/2/4 93/2/4
f 93/2/4 90/2/4 94/2/4
f 91/1/4 92/1/4 95/1/4
f 95/1/4 92/1/4 96/1/4
f 93/1/4 94/1/4 97/1/4
f 97/1/4 94/1/4 98/1/4
f 95/2/4 96/2/4 99/2/4
f 99/2/4 96/2/4 100/2/4
f 97/2/4 98/2/4 101/2/4
f 101/2/4 98/2/4 102/2/4
f 103/2/4 104/2/4 107/2/4
f 107/2/4 104/2/4 108/2/4
f 105/2/4 106/2/4 109/2/4
f 109/2/4 106/2/4 110/2/4
f 111/1/4 112/1/4 114/1/4
f 112/3/4 113/3/4 115/3/4
f 114/1/4 112/1/4 115/1/4
f 115/3/4 113/3/4 116/3/4
f 115/2/4 116/2/4 118/2/4
f 118/2/4 116/2/4 119/2/4
f 117/1/4 118/1/4 120/1/4
f 118/3/4 119/3/4 121/3/4
f 120/1/4 118/1/4 121/1/4
f 121/3/4 119/3/4 122/3/4
f 127/1/5 124/1/5 123/1/5
f 128/1/5 124/1/5 127/1/5
f 129/1/5 126/1/5 125/1/5
f 130/1/5 126/1/5 129/1/5
f 135/2/5 132/2/5 131/2/5
f 135/1/5 133/1/5 132/1/5
f 136/2/5 134/2/5 133/2/5
f 136/1/5 133/1/5 135/1/5
f 137/2/5 135/2/5 131/2/5
f 137/2/5 136/2/5 135/2/5
f 138/2/5 134/2/5 136/2/5
f 138/2/5 136/2/5 137/2/5
f 143/2/5 140/2/5 139/2/5
f 143/2/5 142/2/5 141/2/5
f 143/2/5 141/2/5 140/2/5
f 144/2/5 142/2/5 143/2/5
f 149/2/5 146/2/5 145/2/5
f 149/2/5 148/2/5 147/2/5
f 149/2/5 147/2/5 146/2/5
f 150/2/5 148/2/5 149/2/5
f 151/2/6 152/2/6 155/2/6
f 153/2/6 154/2/6 155/2/6
f 152/2/6 153/2/6 155/2/6
f 155/2/6 154/2/6 156/2/6
f 157/2/6 158/2/6 161/2/6
f 159/2/6 160/2/6 161/2/6
f 158/2/6 159/2/6 161/2/6
f 161/2/6 160/2/6 162/2/6
f 163/3/6 164/3/6 167/3/6
f 164/2/6 165/2/6 168/2/6
f 167/3/6 164/3/6 168/3/6
f 165/3/6 166/3/6 169/3/6
f 168/2/6 165/2/6 169/2/6
f 169/3/6 166/3/6 170/3/6
