# MagicaVoxel @ Ephtracy

# group
g Merchant-0

# material
mtllib Merchant-0.mtl
usemtl palette

# normals
vn -1 0 0
vn 1 0 0
vn 0 0 1
vn 0 0 -1
vn 0 -1 0
vn 0 1 0

# texcoords
vt 0.0253906 0.5
vt 0.0449219 0.5
vt 0.0488281 0.5
vt 0.0566406 0.5

# verts
v -3 0 3
v -3 0 -1
v -3 6 3
v -3 6 -1
v -2 0 -1
v -2 0 -2
v -2 6 3
v -2 6 -1
v -2 6 -2
v -2 7 3
v -2 7 -1
v 2 0 3
v 2 0 2
v 2 3 2
v 2 4 2
v 2 5 2
v 2 6 3
v 2 6 2
v -2 0 3
v -2 0 2
v -2 3 2
v -2 4 2
v -2 5 2
v -2 6 3
v -2 6 2
v 2 0 -1
v 2 0 -2
v 2 6 3
v 2 6 -1
v 2 6 -2
v 2 7 3
v 2 7 -1
v 3 0 3
v 3 0 -1
v 3 6 3
v 3 6 -1
v -3 0 3
v -3 6 3
v -2 0 3
v -2 6 3
v -2 7 3
v 2 0 3
v 2 6 3
v 2 7 3
v 3 0 3
v 3 6 3
v -2 0 2
v -2 3 2
v -2 4 2
v -2 5 2
v -2 6 2
v -1 4 2
v -1 5 2
v 1 4 2
v 1 5 2
v 2 0 2
v 2 3 2
v 2 4 2
v 2 5 2
v 2 6 2
v -3 0 -1
v -3 6 -1
v -2 0 -1
v -2 6 -1
v -2 7 -1
v 2 0 -1
v 2 6 -1
v 2 7 -1
v 3 0 -1
v 3 6 -1
v -2 0 -2
v -2 6 -2
v 2 0 -2
v 2 6 -2
v -3 0 3
v -2 0 3
v 2 0 3
v 3 0 3
v -2 0 2
v 2 0 2
v -2 0 1
v 2 0 1
v -3 0 -1
v -2 0 -1
v 2 0 -1
v 3 0 -1
v -2 0 -2
v 2 0 -2
v -2 6 3
v 2 6 3
v -2 6 2
v 2 6 2
v -3 6 3
v -2 6 3
v 2 6 3
v 3 6 3
v -3 6 -1
v -2 6 -1
v 2 6 -1
v 3 6 -1
v -2 6 -2
v 2 6 -2
v -2 7 3
v 2 7 3
v -2 7 -1
v 2 7 -1

# faces
f 3/3/1 2/3/1 1/3/1
f 4/3/1 2/3/1 3/3/1
f 8/3/1 6/3/1 5/3/1
f 9/3/1 6/3/1 8/3/1
f 10/3/1 8/3/1 7/3/1
f 11/3/1 8/3/1 10/3/1
f 14/3/1 13/3/1 12/3/1
f 15/3/1 14/3/1 12/3/1
f 16/3/1 15/3/1 12/3/1
f 17/3/1 16/3/1 12/3/1
f 18/3/1 16/3/1 17/3/1
f 19/3/2 20/3/2 21/3/2
f 19/3/2 21/3/2 22/3/2
f 19/3/2 22/3/2 23/3/2
f 19/3/2 23/3/2 24/3/2
f 24/3/2 23/3/2 25/3/2
f 26/3/2 27/3/2 29/3/2
f 29/3/2 27/3/2 30/3/2
f 28/3/2 29/3/2 31/3/2
f 31/3/2 29/3/2 32/3/2
f 33/3/2 34/3/2 35/3/2
f 35/3/2 34/3/2 36/3/2
f 39/3/3 38/3/3 37/3/3
f 40/3/3 38/3/3 39/3/3
f 43/3/3 41/3/3 40/3/3
f 44/3/3 41/3/3 43/3/3
f 45/3/3 43/3/3 42/3/3
f 46/3/3 43/3/3 45/3/3
f 52/1/3 49/1/3 48/1/3
f 52/2/3 50/2/3 49/2/3
f 53/1/3 51/1/3 50/1/3
f 53/2/3 50/2/3 52/2/3
f 54/1/3 52/1/3 48/1/3
f 54/1/3 53/1/3 52/1/3
f 55/1/3 51/1/3 53/1/3
f 55/1/3 53/1/3 54/1/3
f 56/4/3 48/4/3 47/4/3
f 57/1/3 54/1/3 48/1/3
f 57/4/3 48/4/3 56/4/3
f 58/2/3 55/2/3 54/2/3
f 58/1/3 54/1/3 57/1/3
f 59/1/3 51/1/3 55/1/3
f 59/2/3 55/2/3 58/2/3
f 60/1/3 51/1/3 59/1/3
f 61/3/4 62/3/4 63/3/4
f 63/3/4 62/3/4 64/3/4
f 64/3/4 65/3/4 67/3/4
f 67/3/4 65/3/4 68/3/4
f 66/3/4 67/3/4 69/3/4
f 69/3/4 67/3/4 70/3/4
f 71/3/4 72/3/4 73/3/4
f 73/3/4 72/3/4 74/3/4
f 79/3/5 76/3/5 75/3/5
f 80/3/5 78/3/5 77/3/5
f 81/3/5 79/3/5 75/3/5
f 81/4/5 80/4/5 79/4/5
f 82/3/5 78/3/5 80/3/5
f 82/4/5 80/4/5 81/4/5
f 83/3/5 81/3/5 75/3/5
f 84/1/5 82/1/5 81/1/5
f 84/3/5 81/3/5 83/3/5
f 85/3/5 78/3/5 82/3/5
f 85/1/5 82/1/5 84/1/5
f 86/3/5 78/3/5 85/3/5
f 87/3/5 85/3/5 84/3/5
f 88/3/5 85/3/5 87/3/5
f 91/3/5 90/3/5 89/3/5
f 92/3/5 90/3/5 91/3/5
f 93/3/6 94/3/6 97/3/6
f 97/3/6 94/3/6 98/3/6
f 95/3/6 96/3/6 99/3/6
f 99/3/6 96/3/6 100/3/6
f 98/3/6 99/3/6 101/3/6
f 101/3/6 99/3/6 102/3/6
f 103/3/6 104/3/6 105/3/6
f 105/3/6 104/3/6 106/3/6
