# MagicaVoxel @ Ephtracy

# group
g FleshGolem-1

# material
mtllib FleshGolem-1.mtl
usemtl palette

# normals
vn -1 0 0
vn 1 0 0
vn 0 0 1
vn 0 0 -1
vn 0 -1 0
vn 0 1 0

# texcoords
vt 0.876953 0.5
vt 0.880859 0.5
vt 0.884766 0.5
vt 0.908203 0.5
vt 0.939453 0.5
vt 0.970703 0.5
vt 0.974609 0.5

# verts
v -6 1 1.5
v -6 1 -1.5
v -6 2 0.5
v -6 2 -0.5
v -6 3 0.5
v -6 3 -0.5
v -6 3 -1.5
v -6 4 1.5
v -6 4 -0.5
v -6 4 -1.5
v -3 3 -0.5
v -3 3 -1.5
v -3 4 -0.5
v -3 4 -1.5
v -2 3 0.5
v -2 3 -0.5
v -2 4 0.5
v -2 4 -0.5
v -1 2 1.5
v -1 2 0.5
v -1 3 0.5
v -1 4 1.5
v -1 4 0.5
v 0 0 1.5
v 0 0 -1.5
v 0 1 2.5
v 0 1 1.5
v 0 1 -1.5
v 0 1 -2.5
v 0 2 1.5
v 0 4 2.5
v 0 4 1.5
v 0 4 0.5
v 0 4 -1.5
v 0 4 -2.5
v 0 5 1.5
v 0 5 -1.5
v -5 3 -0.5
v -5 3 -1.5
v -5 4 -0.5
v -5 4 -1.5
v -4 3 0.5
v -4 3 -0.5
v -4 4 0.5
v -4 4 -0.5
v -3 2 1.5
v -3 2 0.5
v -3 3 1.5
v -3 3 0.5
v -3 4 1.5
v -3 4 0.5
v 4 0 0.5
v 4 0 -0.5
v 4 1 1.5
v 4 1 0.5
v 4 1 -0.5
v 4 1 -1.5
v 4 2 2.5
v 4 2 1.5
v 4 2 -1.5
v 4 2 -2.5
v 4 3 2.5
v 4 3 1.5
v 4 3 -1.5
v 4 3 -2.5
v 4 4 1.5
v 4 4 0.5
v 4 4 -0.5
v 4 4 -1.5
v 4 5 0.5
v 4 5 -0.5
v 6 0 1.5
v 6 0 0.5
v 6 0 -0.5
v 6 0 -1.5
v 6 1 2.5
v 6 1 1.5
v 6 1 0.5
v 6 1 -0.5
v 6 1 -1.5
v 6 1 -2.5
v 6 2 2.5
v 6 2 1.5
v 6 2 -1.5
v 6 2 -2.5
v 6 3 2.5
v 6 3 1.5
v 6 3 -1.5
v 6 3 -2.5
v 6 4 2.5
v 6 4 1.5
v 6 4 0.5
v 6 4 -0.5
v 6 4 -1.5
v 6 4 -2.5
v 6 5 1.5
v 6 5 0.5
v 6 5 -0.5
v 6 5 -1.5
v 0 1 2.5
v 0 4 2.5
v 1 1 2.5
v 1 4 2.5
v 4 1 2.5
v 4 2 2.5
v 4 3 2.5
v 4 4 2.5
v 5 1 2.5
v 5 2 2.5
v 5 3 2.5
v 5 4 2.5
v 6 1 2.5
v 6 2 2.5
v 6 3 2.5
v 6 4 2.5
v -6 1 1.5
v -6 4 1.5
v -4 3 1.5
v -4 4 1.5
v -3 1 1.5
v -3 2 1.5
v -3 3 1.5
v -3 4 1.5
v -1 1 1.5
v -1 2 1.5
v -1 4 1.5
v 0 0 1.5
v 0 1 1.5
v 0 2 1.5
v 0 4 1.5
v 0 5 1.5
v 1 0 1.5
v 1 1 1.5
v 1 4 1.5
v 1 5 1.5
v 4 0 1.5
v 4 1 1.5
v 4 4 1.5
v 4 5 1.5
v 5 0 1.5
v 5 1 1.5
v 5 4 1.5
v 5 5 1.5
v 6 0 1.5
v 6 1 1.5
v 6 4 1.5
v 6 5 1.5
v -3 2 0.5
v -3 3 0.5
v -2 3 0.5
v -2 4 0.5
v -1 2 0.5
v -1 3 0.5
v -1 4 0.5
v -3 3 -0.5
v -3 4 -0.5
v -2 3 -0.5
v -2 4 -0.5
v 4 0 -0.5
v 4 1 -0.5
v 4 4 -0.5
v 4 5 -0.5
v 5 0 -0.5
v 5 1 -0.5
v 5 4 -0.5
v 5 5 -0.5
v 6 0 -0.5
v 6 1 -0.5
v 6 4 -0.5
v 6 5 -0.5
v 4 1 -1.5
v 4 2 -1.5
v 4 3 -1.5
v 4 4 -1.5
v 5 1 -1.5
v 5 2 -1.5
v 5 3 -1.5
v 5 4 -1.5
v 6 1 -1.5
v 6 2 -1.5
v 6 3 -1.5
v 6 4 -1.5
v 4 1 1.5
v 4 2 1.5
v 4 3 1.5
v 4 4 1.5
v 5 1 1.5
v 5 2 1.5
v 5 3 1.5
v 5 4 1.5
v 6 1 1.5
v 6 2 1.5
v 6 3 1.5
v 6 4 1.5
v -4 3 0.5
v -4 4 0.5
v -3 3 0.5
v -3 4 0.5
v 4 0 0.5
v 4 1 0.5
v 4 4 0.5
v 4 5 0.5
v 5 0 0.5
v 5 1 0.5
v 5 4 0.5
v 5 5 0.5
v 6 0 0.5
v 6 1 0.5
v 6 4 0.5
v 6 5 0.5
v -5 3 -0.5
v -5 4 -0.5
v -4 3 -0.5
v -4 4 -0.5
v -6 1 -1.5
v -6 3 -1.5
v -6 4 -1.5
v -5 2 -1.5
v -5 3 -1.5
v -5 4 -1.5
v -3 2 -1.5
v -3 3 -1.5
v -3 4 -1.5
v -2 3 -1.5
v -2 4 -1.5
v 0 0 -1.5
v 0 1 -1.5
v 0 4 -1.5
v 0 5 -1.5
v 1 0 -1.5
v 1 1 -1.5
v 1 4 -1.5
v 1 5 -1.5
v 4 0 -1.5
v 4 1 -1.5
v 4 4 -1.5
v 4 5 -1.5
v 5 0 -1.5
v 5 1 -1.5
v 5 4 -1.5
v 5 5 -1.5
v 6 0 -1.5
v 6 1 -1.5
v 6 4 -1.5
v 6 5 -1.5
v 0 1 -2.5
v 0 4 -2.5
v 1 1 -2.5
v 1 4 -2.5
v 4 1 -2.5
v 4 2 -2.5
v 4 3 -2.5
v 4 4 -2.5
v 5 1 -2.5
v 5 2 -2.5
v 5 3 -2.5
v 5 4 -2.5
v 6 1 -2.5
v 6 2 -2.5
v 6 3 -2.5
v 6 4 -2.5
v 0 0 1.5
v 1 0 1.5
v 4 0 1.5
v 5 0 1.5
v 6 0 1.5
v 4 0 0.5
v 5 0 0.5
v 6 0 0.5
v 4 0 -0.5
v 5 0 -0.5
v 6 0 -0.5
v 0 0 -1.5
v 1 0 -1.5
v 4 0 -1.5
v 5 0 -1.5
v 6 0 -1.5
v 0 1 2.5
v 1 1 2.5
v 4 1 2.5
v 5 1 2.5
v 6 1 2.5
v -6 1 1.5
v -3 1 1.5
v -1 1 1.5
v 0 1 1.5
v 1 1 1.5
v 4 1 1.5
v 5 1 1.5
v 6 1 1.5
v -3 1 0.5
v -1 1 0.5
v -6 1 -1.5
v 0 1 -1.5
v 1 1 -1.5
v 4 1 -1.5
v 5 1 -1.5
v 6 1 -1.5
v 0 1 -2.5
v 1 1 -2.5
v 4 1 -2.5
v 5 1 -2.5
v 6 1 -2.5
v 4 3 2.5
v 5 3 2.5
v 6 3 2.5
v 4 3 1.5
v 5 3 1.5
v 6 3 1.5
v 4 3 -1.5
v 5 3 -1.5
v 6 3 -1.5
v 4 3 -2.5
v 5 3 -2.5
v 6 3 -2.5
v 4 4 1.5
v 5 4 1.5
v 6 4 1.5
v 4 4 0.5
v 5 4 0.5
v 6 4 0.5
v 4 4 -0.5
v 5 4 -0.5
v 6 4 -0.5
v 4 4 -1.5
v 5 4 -1.5
v 6 4 -1.5
v 4 1 1.5
v 5 1 1.5
v 6 1 1.5
v 4 1 0.5
v 5 1 0.5
v 6 1 0.5
v 4 1 -0.5
v 5 1 -0.5
v 6 1 -0.5
v 4 1 -1.5
v 5 1 -1.5
v 6 1 -1.5
v 4 2 2.5
v 5 2 2.5
v 6 2 2.5
v -3 2 1.5
v -1 2 1.5
v 4 2 1.5
v 5 2 1.5
v 6 2 1.5
v -3 2 0.5
v -1 2 0.5
v 4 2 -1.5
v 5 2 -1.5
v 6 2 -1.5
v 4 2 -2.5
v 5 2 -2.5
v 6 2 -2.5
v -4 3 0.5
v -3 3 0.5
v -2 3 0.5
v -5 3 -0.5
v -4 3 -0.5
v -3 3 -0.5
v -2 3 -0.5
v -5 3 -1.5
v -3 3 -1.5
v 0 4 2.5
v 1 4 2.5
v 4 4 2.5
v 5 4 2.5
v 6 4 2.5
v -6 4 1.5
v -4 4 1.5
v -3 4 1.5
v -1 4 1.5
v 0 4 1.5
v 1 4 1.5
v 4 4 1.5
v 5 4 1.5
v 6 4 1.5
v -5 4 0.5
v -4 4 0.5
v -3 4 0.5
v -2 4 0.5
v -1 4 0.5
v 0 4 0.5
v -6 4 -0.5
v -5 4 -0.5
v -4 4 -0.5
v -3 4 -0.5
v -2 4 -0.5
v -1 4 -0.5
v -6 4 -1.5
v -5 4 -1.5
v -3 4 -1.5
v -2 4 -1.5
v 0 4 -1.5
v 1 4 -1.5
v 4 4 -1.5
v 5 4 -1.5
v 6 4 -1.5
v 0 4 -2.5
v 1 4 -2.5
v 4 4 -2.5
v 5 4 -2.5
v 6 4 -2.5
v 0 5 1.5
v 1 5 1.5
v 4 5 1.5
v 5 5 1.5
v 6 5 1.5
v 4 5 0.5
v 5 5 0.5
v 6 5 0.5
v 4 5 -0.5
v 5 5 -0.5
v 6 5 -0.5
v 0 5 -1.5
v 1 5 -1.5
v 4 5 -1.5
v 5 5 -1.5
v 6 5 -1.5

# faces
f 3/6/1 2/6/1 1/6/1
f 4/6/1 2/6/1 3/6/1
f 5/6/1 3/6/1 1/6/1
f 5/7/1 4/7/1 3/7/1
f 6/6/1 2/6/1 4/6/1
f 6/7/1 4/7/1 5/7/1
f 7/6/1 2/6/1 6/6/1
f 8/6/1 5/6/1 1/6/1
f 8/6/1 6/6/1 5/6/1
f 9/1/1 7/1/1 6/1/1
f 9/6/1 6/6/1 8/6/1
f 10/1/1 7/1/1 9/1/1
f 13/1/1 12/1/1 11/1/1
f 14/1/1 12/1/1 13/1/1
f 17/1/1 16/1/1 15/1/1
f 18/1/1 16/1/1 17/1/1
f 21/1/1 20/1/1 19/1/1
f 22/1/1 21/1/1 19/1/1
f 23/1/1 21/1/1 22/1/1
f 27/3/1 25/3/1 24/3/1
f 28/3/1 25/3/1 27/3/1
f 30/3/1 27/3/1 26/3/1
f 31/3/1 30/3/1 26/3/1
f 32/3/1 30/3/1 31/3/1
f 34/3/1 29/3/1 28/3/1
f 35/3/1 29/3/1 34/3/1
f 36/3/1 33/3/1 32/3/1
f 36/3/1 34/3/1 33/3/1
f 37/3/1 34/3/1 36/3/1
f 38/1/2 39/1/2 40/1/2
f 40/1/2 39/1/2 41/1/2
f 42/1/2 43/1/2 44/1/2
f 44/1/2 43/1/2 45/1/2
f 46/6/2 47/6/2 48/6/2
f 48/6/2 47/6/2 49/6/2
f 48/1/2 49/1/2 50/1/2
f 50/1/2 49/1/2 51/1/2
f 52/2/2 53/2/2 55/2/2
f 55/2/2 53/2/2 56/2/2
f 54/5/2 55/5/2 59/5/2
f 56/5/2 57/5/2 59/5/2
f 55/5/2 56/5/2 59/5/2
f 59/5/2 57/5/2 60/5/2
f 58/2/2 59/2/2 62/2/2
f 59/5/2 60/5/2 63/5/2
f 62/2/2 59/2/2 63/2/2
f 60/2/2 61/2/2 64/2/2
f 63/5/2 60/5/2 64/5/2
f 64/2/2 61/2/2 65/2/2
f 63/5/2 64/5/2 66/5/2
f 66/5/2 64/5/2 67/5/2
f 67/5/2 64/5/2 68/5/2
f 68/5/2 64/5/2 69/5/2
f 67/2/2 68/2/2 70/2/2
f 70/2/2 68/2/2 71/2/2
f 72/2/2 73/2/2 77/2/2
f 77/2/2 73/2/2 78/2/2
f 74/2/2 75/2/2 79/2/2
f 79/2/2 75/2/2 80/2/2
f 76/2/2 77/2/2 82/2/2
f 82/2/2 77/2/2 83/2/2
f 80/2/2 81/2/2 84/2/2
f 84/2/2 81/2/2 85/2/2
f 86/2/2 87/2/2 90/2/2
f 90/2/2 87/2/2 91/2/2
f 88/2/2 89/2/2 94/2/2
f 94/2/2 89/2/2 95/2/2
f 91/2/2 92/2/2 96/2/2
f 96/2/2 92/2/2 97/2/2
f 93/2/2 94/2/2 98/2/2
f 98/2/2 94/2/2 99/2/2
f 102/3/3 101/3/3 100/3/3
f 103/3/3 101/3/3 102/3/3
f 104/2/3 103/2/3 102/2/3
f 105/2/3 103/2/3 104/2/3
f 106/2/3 103/2/3 105/2/3
f 107/2/3 103/2/3 106/2/3
f 108/3/3 105/3/3 104/3/3
f 109/3/3 105/3/3 108/3/3
f 110/3/3 107/3/3 106/3/3
f 111/3/3 107/3/3 110/3/3
f 112/2/3 109/2/3 108/2/3
f 113/2/3 109/2/3 112/2/3
f 114/2/3 111/2/3 110/2/3
f 115/2/3 111/2/3 114/2/3
f 118/6/3 117/6/3 116/6/3
f 119/6/3 117/6/3 118/6/3
f 120/6/3 118/6/3 116/6/3
f 121/6/3 118/6/3 120/6/3
f 122/1/3 119/1/3 118/1/3
f 122/6/3 118/6/3 121/6/3
f 123/1/3 119/1/3 122/1/3
f 124/1/3 121/1/3 120/1/3
f 125/1/3 121/1/3 124/1/3
f 128/6/3 125/6/3 124/6/3
f 129/1/3 126/1/3 125/1/3
f 129/6/3 125/6/3 128/6/3
f 130/1/3 126/1/3 129/1/3
f 132/3/3 128/3/3 127/3/3
f 133/3/3 128/3/3 132/3/3
f 134/3/3 131/3/3 130/3/3
f 135/3/3 131/3/3 134/3/3
f 136/2/3 133/2/3 132/2/3
f 137/2/3 133/2/3 136/2/3
f 138/2/3 135/2/3 134/2/3
f 139/2/3 135/2/3 138/2/3
f 140/3/3 137/3/3 136/3/3
f 141/3/3 137/3/3 140/3/3
f 142/3/3 139/3/3 138/3/3
f 143/3/3 139/3/3 142/3/3
f 144/2/3 141/2/3 140/2/3
f 145/2/3 141/2/3 144/2/3
f 146/2/3 143/2/3 142/2/3
f 147/2/3 143/2/3 146/2/3
f 150/7/3 149/7/3 148/7/3
f 152/7/3 150/7/3 148/7/3
f 153/1/3 151/1/3 150/1/3
f 153/7/3 150/7/3 152/7/3
f 154/1/3 151/1/3 153/1/3
f 157/1/3 156/1/3 155/1/3
f 158/1/3 156/1/3 157/1/3
f 163/3/3 160/3/3 159/3/3
f 164/3/3 160/3/3 163/3/3
f 165/3/3 162/3/3 161/3/3
f 166/3/3 162/3/3 165/3/3
f 167/2/3 164/2/3 163/2/3
f 168/2/3 164/2/3 167/2/3
f 169/2/3 166/2/3 165/2/3
f 170/2/3 166/2/3 169/2/3
f 175/3/3 172/3/3 171/3/3
f 176/3/3 172/3/3 175/3/3
f 177/3/3 174/3/3 173/3/3
f 178/3/3 174/3/3 177/3/3
f 179/2/3 176/2/3 175/2/3
f 180/2/3 176/2/3 179/2/3
f 181/2/3 178/2/3 177/2/3
f 182/2/3 178/2/3 181/2/3
f 183/3/4 184/3/4 187/3/4
f 187/3/4 184/3/4 188/3/4
f 185/3/4 186/3/4 189/3/4
f 189/3/4 186/3/4 190/3/4
f 187/2/4 188/2/4 191/2/4
f 191/2/4 188/2/4 192/2/4
f 189/2/4 190/2/4 193/2/4
f 193/2/4 190/2/4 194/2/4
f 195/1/4 196/1/4 197/1/4
f 197/1/4 196/1/4 198/1/4
f 199/3/4 200/3/4 203/3/4
f 203/3/4 200/3/4 204/3/4
f 201/3/4 202/3/4 205/3/4
f 205/3/4 202/3/4 206/3/4
f 203/2/4 204/2/4 207/2/4
f 207/2/4 204/2/4 208/2/4
f 205/2/4 206/2/4 209/2/4
f 209/2/4 206/2/4 210/2/4
f 211/1/4 212/1/4 213/1/4
f 213/1/4 212/1/4 214/1/4
f 215/6/4 216/6/4 218/6/4
f 216/1/4 217/1/4 219/1/4
f 218/6/4 216/6/4 219/6/4
f 219/1/4 217/1/4 220/1/4
f 215/6/4 218/6/4 221/6/4
f 218/1/4 219/1/4 221/1/4
f 221/1/4 219/1/4 222/1/4
f 221/6/4 222/6/4 224/6/4
f 222/1/4 223/1/4 224/1/4
f 224/1/4 223/1/4 225/1/4
f 215/6/4 221/6/4 227/6/4
f 221/6/4 224/6/4 227/6/4
f 224/6/4 225/6/4 227/6/4
f 227/6/4 225/6/4 228/6/4
f 226/3/4 227/3/4 230/3/4
f 230/3/4 227/3/4 231/3/4
f 228/3/4 229/3/4 232/3/4
f 232/3/4 229/3/4 233/3/4
f 230/2/4 231/2/4 234/2/4
f 234/2/4 231/2/4 235/2/4
f 232/2/4 233/2/4 236/2/4
f 236/2/4 233/2/4 237/2/4
f 234/3/4 235/3/4 238/3/4
f 238/3/4 235/3/4 239/3/4
f 236/3/4 237/3/4 240/3/4
f 240/3/4 237/3/4 241/3/4
f 238/2/4 239/2/4 242/2/4
f 242/2/4 239/2/4 243/2/4
f 240/2/4 241/2/4 244/2/4
f 244/2/4 241/2/4 245/2/4
f 246/3/4 247/3/4 248/3/4
f 248/3/4 247/3/4 249/3/4
f 248/2/4 249/2/4 250/2/4
f 250/2/4 249/2/4 251/2/4
f 251/2/4 249/2/4 252/2/4
f 252/2/4 249/2/4 253/2/4
f 250/3/4 251/3/4 254/3/4
f 254/3/4 251/3/4 255/3/4
f 252/3/4 253/3/4 256/3/4
f 256/3/4 253/3/4 257/3/4
f 254/2/4 255/2/4 258/2/4
f 258/2/4 255/2/4 259/2/4
f 256/2/4 257/2/4 260/2/4
f 260/2/4 257/2/4 261/2/4
f 267/2/5 264/2/5 263/2/5
f 267/3/5 265/3/5 264/3/5
f 268/2/5 266/2/5 265/2/5
f 268/3/5 265/3/5 267/3/5
f 269/2/5 266/2/5 268/2/5
f 270/2/5 267/2/5 263/2/5
f 273/3/5 263/3/5 262/3/5
f 274/2/5 270/2/5 263/2/5
f 274/3/5 263/3/5 273/3/5
f 275/3/5 271/3/5 270/3/5
f 275/2/5 270/2/5 274/2/5
f 276/2/5 272/2/5 271/2/5
f 276/3/5 271/3/5 275/3/5
f 277/2/5 272/2/5 276/2/5
f 286/3/5 279/3/5 278/3/5
f 287/2/5 280/2/5 279/2/5
f 287/3/5 279/3/5 286/3/5
f 288/3/5 281/3/5 280/3/5
f 288/2/5 280/2/5 287/2/5
f 289/2/5 282/2/5 281/2/5
f 289/3/5 281/3/5 288/3/5
f 290/2/5 282/2/5 289/2/5
f 291/1/5 285/1/5 284/1/5
f 291/6/5 284/6/5 283/6/5
f 292/6/5 286/6/5 285/6/5
f 292/1/5 285/1/5 291/1/5
f 293/6/5 291/6/5 283/6/5
f 293/6/5 292/6/5 291/6/5
f 294/6/5 286/6/5 292/6/5
f 294/6/5 292/6/5 293/6/5
f 299/3/5 295/3/5 294/3/5
f 300/2/5 296/2/5 295/2/5
f 300/3/5 295/3/5 299/3/5
f 301/3/5 297/3/5 296/3/5
f 301/2/5 296/2/5 300/2/5
f 302/2/5 298/2/5 297/2/5
f 302/3/5 297/3/5 301/3/5
f 303/2/5 298/2/5 302/2/5
f 307/3/5 305/3/5 304/3/5
f 308/2/5 306/2/5 305/2/5
f 308/3/5 305/3/5 307/3/5
f 309/2/5 306/2/5 308/2/5
f 313/3/5 311/3/5 310/3/5
f 314/2/5 312/2/5 311/2/5
f 314/3/5 311/3/5 313/3/5
f 315/2/5 312/2/5 314/2/5
f 319/3/5 317/3/5 316/3/5
f 320/2/5 318/2/5 317/2/5
f 320/3/5 317/3/5 319/3/5
f 321/2/5 318/2/5 320/2/5
f 325/3/5 323/3/5 322/3/5
f 326/2/5 324/2/5 323/2/5
f 326/3/5 323/3/5 325/3/5
f 327/2/5 324/2/5 326/2/5
f 328/3/6 329/3/6 331/3/6
f 329/2/6 330/2/6 332/2/6
f 331/3/6 329/3/6 332/3/6
f 332/2/6 330/2/6 333/2/6
f 334/3/6 335/3/6 337/3/6
f 335/2/6 336/2/6 338/2/6
f 337/3/6 335/3/6 338/3/6
f 338/2/6 336/2/6 339/2/6
f 340/3/6 341/3/6 345/3/6
f 341/2/6 342/2/6 346/2/6
f 345/3/6 341/3/6 346/3/6
f 346/2/6 342/2/6 347/2/6
f 343/1/6 344/1/6 348/1/6
f 348/1/6 344/1/6 349/1/6
f 350/3/6 351/3/6 353/3/6
f 351/2/6 352/2/6 354/2/6
f 353/3/6 351/3/6 354/3/6
f 354/2/6 352/2/6 355/2/6
f 356/7/6 357/7/6 360/7/6
f 357/7/6 358/7/6 360/7/6
f 360/7/6 358/7/6 361/7/6
f 361/7/6 358/7/6 362/7/6
f 359/1/6 360/1/6 363/1/6
f 360/1/6 361/1/6 363/1/6
f 363/1/6 361/1/6 364/1/6
f 365/3/6 366/3/6 374/3/6
f 366/2/6 367/2/6 375/2/6
f 374/3/6 366/3/6 375/3/6
f 367/3/6 368/3/6 376/3/6
f 375/2/6 367/2/6 376/2/6
f 368/2/6 369/2/6 377/2/6
f 376/3/6 368/3/6 377/3/6
f 377/2/6 369/2/6 378/2/6
f 370/6/6 371/6/6 379/6/6
f 371/1/6 372/1/6 380/1/6
f 379/6/6 371/6/6 380/6/6
f 380/1/6 372/1/6 381/1/6
f 373/1/6 374/1/6 383/1/6
f 383/1/6 374/1/6 384/1/6
f 370/6/6 379/6/6 385/6/6
f 379/1/6 380/1/6 386/1/6
f 385/6/6 379/6/6 386/6/6
f 386/1/6 380/1/6 387/1/6
f 382/1/6 383/1/6 389/1/6
f 383/6/6 384/6/6 390/6/6
f 389/1/6 383/1/6 390/1/6
f 385/1/6 386/1/6 391/1/6
f 391/1/6 386/1/6 392/1/6
f 388/1/6 389/1/6 393/1/6
f 389/6/6 390/6/6 394/6/6
f 393/1/6 389/1/6 394/1/6
f 390/6/6 384/6/6 395/6/6
f 394/6/6 390/6/6 395/6/6
f 395/3/6 396/3/6 400/3/6
f 396/2/6 397/2/6 401/2/6
f 400/3/6 396/3/6 401/3/6
f 397/3/6 398/3/6 402/3/6
f 401/2/6 397/2/6 402/2/6
f 398/2/6 399/2/6 403/2/6
f 402/3/6 398/3/6 403/3/6
f 403/2/6 399/2/6 404/2/6
f 406/2/6 407/2/6 410/2/6
f 407/3/6 408/3/6 410/3/6
f 408/2/6 409/2/6 411/2/6
f 410/3/6 408/3/6 411/3/6
f 411/2/6 409/2/6 412/2/6
f 406/2/6 410/2/6 413/2/6
f 405/3/6 406/3/6 416/3/6
f 406/2/6 413/2/6 417/2/6
f 416/3/6 406/3/6 417/3/6
f 413/3/6 414/3/6 418/3/6
f 417/2/6 413/2/6 418/2/6
f 414/2/6 415/2/6 419/2/6
f 418/3/6 414/3/6 419/3/6
f 419/2/6 415/2/6 420/2/6
