# MagicaVoxel @ Ephtracy

# group
g CyberSkeleton-1

# material
mtllib CyberSkeleton-1.mtl
usemtl palette

# normals
vn -1 0 0
vn 1 0 0
vn 0 0 1
vn 0 0 -1
vn 0 -1 0
vn 0 1 0

# texcoords
vt 0.845703 0.5
vt 0.970703 0.5

# verts
v -4 1 0.5
v -4 1 -1.5
v -4 2 0.5
v -4 2 -0.5
v -4 3 -0.5
v -4 3 -1.5
v -3 0 1.5
v -3 0 0.5
v -3 0 -1.5
v -3 1 1.5
v -3 1 0.5
v -3 1 -1.5
v -2 1 1.5
v -2 1 0.5
v -2 2 1.5
v -2 2 0.5
v 1 0 -0.5
v 1 0 -1.5
v 1 1 0.5
v 1 1 -0.5
v 1 1 -1.5
v 1 2 0.5
v 1 2 -0.5
v 2 0 0.5
v 2 0 -0.5
v 2 1 0.5
v 2 1 -0.5
v 2 2 -0.5
v 2 2 -1.5
v 2 3 -0.5
v 2 3 -1.5
v 3 1 0.5
v 3 1 -0.5
v 3 2 0.5
v 3 2 -0.5
v -3 1 0.5
v -3 1 -0.5
v -3 2 0.5
v -3 2 -0.5
v -2 0 0.5
v -2 0 -0.5
v -2 1 0.5
v -2 1 -0.5
v -2 2 -0.5
v -2 2 -1.5
v -2 3 -0.5
v -2 3 -1.5
v -1 0 -0.5
v -1 0 -1.5
v -1 1 -0.5
v -1 1 -1.5
v 1 1 1.5
v 1 1 0.5
v 1 2 1.5
v 1 2 0.5
v 2 1 0.5
v 2 1 -0.5
v 2 2 0.5
v 2 2 -0.5
v 3 0 1.5
v 3 0 0.5
v 3 0 -0.5
v 3 0 -1.5
v 3 1 1.5
v 3 1 0.5
v 3 1 -0.5
v 3 1 -1.5
v 4 1 0.5
v 4 1 -0.5
v 4 1 -1.5
v 4 2 0.5
v 4 2 -0.5
v 4 3 -0.5
v 4 3 -1.5
v -3 0 1.5
v -3 1 1.5
v -2 0 1.5
v -2 1 1.5
v -2 2 1.5
v 1 1 1.5
v 1 2 1.5
v 3 0 1.5
v 3 1 1.5
v -4 1 0.5
v -4 2 0.5
v -3 1 0.5
v -3 2 0.5
v 1 1 0.5
v 1 2 0.5
v 2 1 0.5
v 2 2 0.5
v 3 1 0.5
v 3 2 0.5
v 4 1 0.5
v 4 2 0.5
v -4 2 -0.5
v -4 3 -0.5
v -3 1 -0.5
v -3 2 -0.5
v -2 0 -0.5
v -2 1 -0.5
v -2 2 -0.5
v -2 3 -0.5
v -1 0 -0.5
v -1 1 -0.5
v 1 0 -0.5
v 1 1 -0.5
v 1 2 -0.5
v 2 0 -0.5
v 2 1 -0.5
v 2 2 -0.5
v 2 3 -0.5
v 3 1 -0.5
v 3 2 -0.5
v 4 2 -0.5
v 4 3 -0.5
v -2 0 0.5
v -2 1 0.5
v -2 2 0.5
v 1 1 0.5
v 1 2 0.5
v 2 0 0.5
v 2 1 0.5
v -4 1 -1.5
v -4 3 -1.5
v -3 0 -1.5
v -3 1 -1.5
v -2 2 -1.5
v -2 3 -1.5
v -1 0 -1.5
v -1 1 -1.5
v 1 0 -1.5
v 1 1 -1.5
v 2 2 -1.5
v 2 3 -1.5
v 3 0 -1.5
v 3 1 -1.5
v 4 1 -1.5
v 4 3 -1.5
v -3 0 1.5
v -2 0 1.5
v 3 0 1.5
v -3 0 0.5
v -2 0 0.5
v 2 0 0.5
v 3 0 0.5
v -2 0 -0.5
v -1 0 -0.5
v 1 0 -0.5
v 2 0 -0.5
v 3 0 -0.5
v -3 0 -1.5
v -1 0 -1.5
v 1 0 -1.5
v 3 0 -1.5
v -4 1 0.5
v -3 1 0.5
v 1 1 0.5
v 2 1 0.5
v 3 1 0.5
v 4 1 0.5
v -1 1 -0.5
v 1 1 -0.5
v 2 1 -0.5
v 3 1 -0.5
v 4 1 -0.5
v -4 1 -1.5
v -3 1 -1.5
v -1 1 -1.5
v 1 1 -1.5
v 3 1 -1.5
v 4 1 -1.5
v -3 1 1.5
v -2 1 1.5
v 1 1 1.5
v 3 1 1.5
v -3 1 0.5
v -2 1 0.5
v 1 1 0.5
v 2 1 0.5
v 3 1 0.5
v -3 1 -0.5
v -2 1 -0.5
v 2 1 -0.5
v 3 1 -0.5
v -2 2 1.5
v 1 2 1.5
v -4 2 0.5
v -3 2 0.5
v -2 2 0.5
v 1 2 0.5
v 2 2 0.5
v 3 2 0.5
v 4 2 0.5
v -4 2 -0.5
v -3 2 -0.5
v -2 2 -0.5
v 1 2 -0.5
v 2 2 -0.5
v 3 2 -0.5
v 4 2 -0.5
v -2 2 -1.5
v 2 2 -1.5
v -4 3 -0.5
v -2 3 -0.5
v 2 3 -0.5
v 4 3 -0.5
v -4 3 -1.5
v -2 3 -1.5
v 2 3 -1.5
v 4 3 -1.5

# faces
f 3/2/1 2/2/1 1/2/1
f 4/2/1 2/2/1 3/2/1
f 5/2/1 2/2/1 4/2/1
f 6/2/1 2/2/1 5/2/1
f 10/1/1 8/1/1 7/1/1
f 11/2/1 9/2/1 8/2/1
f 11/1/1 8/1/1 10/1/1
f 12/2/1 9/2/1 11/2/1
f 15/1/1 14/1/1 13/1/1
f 16/1/1 14/1/1 15/1/1
f 20/2/1 18/2/1 17/2/1
f 21/2/1 18/2/1 20/2/1
f 22/1/1 20/1/1 19/1/1
f 23/1/1 20/1/1 22/1/1
f 26/1/1 25/1/1 24/1/1
f 27/1/1 25/1/1 26/1/1
f 30/2/1 29/2/1 28/2/1
f 31/2/1 29/2/1 30/2/1
f 34/1/1 33/1/1 32/1/1
f 35/1/1 33/1/1 34/1/1
f 36/2/2 37/2/2 38/2/2
f 38/2/2 37/2/2 39/2/2
f 40/2/2 41/2/2 42/2/2
f 42/2/2 41/2/2 43/2/2
f 44/2/2 45/2/2 46/2/2
f 46/2/2 45/2/2 47/2/2
f 48/2/2 49/2/2 50/2/2
f 50/2/2 49/2/2 51/2/2
f 52/1/2 53/1/2 54/1/2
f 54/1/2 53/1/2 55/1/2
f 56/1/2 57/1/2 58/1/2
f 58/1/2 57/1/2 59/1/2
f 60/2/2 61/2/2 64/2/2
f 61/1/2 62/1/2 65/1/2
f 64/2/2 61/2/2 65/2/2
f 62/2/2 63/2/2 66/2/2
f 65/1/2 62/1/2 66/1/2
f 66/2/2 63/2/2 67/2/2
f 68/1/2 69/1/2 71/1/2
f 69/2/2 70/2/2 72/2/2
f 71/1/2 69/1/2 72/1/2
f 72/2/2 70/2/2 73/2/2
f 73/2/2 70/2/2 74/2/2
f 77/1/3 76/1/3 75/1/3
f 78/1/3 76/1/3 77/1/3
f 80/2/3 78/2/3 77/2/3
f 80/1/3 79/1/3 78/1/3
f 81/1/3 79/1/3 80/1/3
f 82/2/3 80/2/3 77/2/3
f 83/2/3 80/2/3 82/2/3
f 86/2/3 85/2/3 84/2/3
f 87/2/3 85/2/3 86/2/3
f 90/1/3 89/1/3 88/1/3
f 91/1/3 89/1/3 90/1/3
f 94/1/3 93/1/3 92/1/3
f 95/1/3 93/1/3 94/1/3
f 99/2/3 97/2/3 96/2/3
f 101/2/3 99/2/3 98/2/3
f 102/2/3 97/2/3 99/2/3
f 102/2/3 99/2/3 101/2/3
f 103/2/3 97/2/3 102/2/3
f 104/2/3 101/2/3 100/2/3
f 104/2/3 102/2/3 101/2/3
f 105/2/3 102/2/3 104/2/3
f 107/2/3 102/2/3 105/2/3
f 108/2/3 102/2/3 107/2/3
f 109/2/3 107/2/3 106/2/3
f 110/2/3 107/2/3 109/2/3
f 113/2/3 111/2/3 110/2/3
f 113/2/3 112/2/3 111/2/3
f 114/2/3 112/2/3 113/2/3
f 115/2/3 112/2/3 114/2/3
f 116/2/3 112/2/3 115/2/3
f 117/2/4 118/2/4 120/2/4
f 118/1/4 119/1/4 120/1/4
f 120/1/4 119/1/4 121/1/4
f 117/2/4 120/2/4 122/2/4
f 122/2/4 120/2/4 123/2/4
f 124/2/4 125/2/4 127/2/4
f 127/2/4 125/2/4 128/2/4
f 126/2/4 127/2/4 128/2/4
f 128/2/4 125/2/4 129/2/4
f 126/2/4 128/2/4 130/2/4
f 130/2/4 128/2/4 131/2/4
f 131/2/4 128/2/4 133/2/4
f 133/2/4 128/2/4 134/2/4
f 132/2/4 133/2/4 134/2/4
f 132/2/4 134/2/4 136/2/4
f 134/2/4 135/2/4 136/2/4
f 136/2/4 135/2/4 137/2/4
f 137/2/4 135/2/4 138/2/4
f 138/2/4 135/2/4 139/2/4
f 143/1/5 141/1/5 140/1/5
f 144/2/5 142/2/5 141/2/5
f 144/1/5 141/1/5 143/1/5
f 145/2/5 142/2/5 144/2/5
f 146/2/5 142/2/5 145/2/5
f 147/2/5 144/2/5 143/2/5
f 150/1/5 146/1/5 145/1/5
f 151/1/5 146/1/5 150/1/5
f 152/2/5 148/2/5 147/2/5
f 152/2/5 147/2/5 143/2/5
f 153/2/5 148/2/5 152/2/5
f 154/2/5 151/2/5 150/2/5
f 154/2/5 150/2/5 149/2/5
f 155/2/5 151/2/5 154/2/5
f 163/1/5 159/1/5 158/1/5
f 164/1/5 159/1/5 163/1/5
f 165/1/5 161/1/5 160/1/5
f 166/1/5 161/1/5 165/1/5
f 167/2/5 157/2/5 156/2/5
f 168/2/5 157/2/5 167/2/5
f 169/2/5 163/2/5 162/2/5
f 170/2/5 163/2/5 169/2/5
f 171/2/5 166/2/5 165/2/5
f 172/2/5 166/2/5 171/2/5
f 173/1/6 174/1/6 177/1/6
f 177/1/6 174/1/6 178/1/6
f 175/2/6 176/2/6 179/2/6
f 179/2/6 176/2/6 180/2/6
f 180/2/6 176/2/6 181/2/6
f 177/2/6 178/2/6 182/2/6
f 182/2/6 178/2/6 183/2/6
f 180/1/6 181/1/6 184/1/6
f 184/1/6 181/1/6 185/1/6
f 186/1/6 187/1/6 190/1/6
f 190/1/6 187/1/6 191/1/6
f 188/2/6 189/2/6 195/2/6
f 195/2/6 189/2/6 196/2/6
f 191/1/6 192/1/6 198/1/6
f 198/1/6 192/1/6 199/1/6
f 193/1/6 194/1/6 200/1/6
f 200/1/6 194/1/6 201/1/6
f 198/2/6 199/2/6 202/2/6
f 197/2/6 198/2/6 202/2/6
f 202/2/6 199/2/6 203/2/6
f 204/2/6 205/2/6 208/2/6
f 208/2/6 205/2/6 209/2/6
f 206/2/6 207/2/6 210/2/6
f 210/2/6 207/2/6 211/2/6
