# MagicaVoxel @ Ephtracy

# group
g Dungeon-4

# material
mtllib Dungeon-4.mtl
usemtl palette

# normals
vn -1 0 0
vn 1 0 0
vn 0 0 1
vn 0 0 -1
vn 0 -1 0
vn 0 1 0

# texcoords
vt 0.939453 0.5
vt 0.978516 0.5
vt 0.982422 0.5
vt 0.986328 0.5

# verts
v -4 0 0.5
v -4 0 -0.5
v -4 2 0.5
v -4 2 -0.5
v -4 3 0.5
v -4 3 -0.5
v -4 5 0.5
v -4 5 -0.5
v -4 6 0.5
v -4 6 -0.5
v -4 9 0.5
v -4 9 -0.5
v -4 10 0.5
v -4 10 -0.5
v -4 12 0.5
v -4 12 -0.5
v 4 0 0.5
v 4 0 -0.5
v 4 2 0.5
v 4 2 -0.5
v 4 3 0.5
v 4 3 -0.5
v 4 9 0.5
v 4 9 -0.5
v 4 10 0.5
v 4 10 -0.5
v 4 12 0.5
v 4 12 -0.5
v -4 0 0.5
v -4 2 0.5
v -4 3 0.5
v -4 5 0.5
v -4 6 0.5
v -4 9 0.5
v -4 10 0.5
v -4 12 0.5
v -3 5 0.5
v -3 6 0.5
v -2 0 0.5
v -2 2 0.5
v -2 3 0.5
v -2 9 0.5
v -2 10 0.5
v -2 12 0.5
v -1 0 0.5
v -1 2 0.5
v -1 3 0.5
v -1 9 0.5
v -1 10 0.5
v -1 12 0.5
v 1 0 0.5
v 1 2 0.5
v 1 3 0.5
v 1 9 0.5
v 1 10 0.5
v 1 12 0.5
v 2 0 0.5
v 2 2 0.5
v 2 3 0.5
v 2 9 0.5
v 2 10 0.5
v 2 12 0.5
v 4 0 0.5
v 4 2 0.5
v 4 3 0.5
v 4 9 0.5
v 4 10 0.5
v 4 12 0.5
v -4 0 -0.5
v -4 2 -0.5
v -4 3 -0.5
v -4 5 -0.5
v -4 6 -0.5
v -4 9 -0.5
v -4 10 -0.5
v -4 12 -0.5
v -3 5 -0.5
v -3 6 -0.5
v -2 0 -0.5
v -2 2 -0.5
v -2 3 -0.5
v -2 9 -0.5
v -2 10 -0.5
v -2 12 -0.5
v -1 0 -0.5
v -1 2 -0.5
v -1 3 -0.5
v -1 9 -0.5
v -1 10 -0.5
v -1 12 -0.5
v 1 0 -0.5
v 1 2 -0.5
v 1 3 -0.5
v 1 9 -0.5
v 1 10 -0.5
v 1 12 -0.5
v 2 0 -0.5
v 2 2 -0.5
v 2 3 -0.5
v 2 9 -0.5
v 2 10 -0.5
v 2 12 -0.5
v 4 0 -0.5
v 4 2 -0.5
v 4 3 -0.5
v 4 9 -0.5
v 4 10 -0.5
v 4 12 -0.5
v -4 0 0.5
v -2 0 0.5
v -1 0 0.5
v 1 0 0.5
v 2 0 0.5
v 4 0 0.5
v -4 0 -0.5
v -2 0 -0.5
v -1 0 -0.5
v 1 0 -0.5
v 2 0 -0.5
v 4 0 -0.5
v -4 12 0.5
v -2 12 0.5
v -1 12 0.5
v 1 12 0.5
v 2 12 0.5
v 4 12 0.5
v -4 12 -0.5
v -2 12 -0.5
v -1 12 -0.5
v 1 12 -0.5
v 2 12 -0.5
v 4 12 -0.5

# faces
f 3/2/1 2/2/1 1/2/1
f 4/2/1 2/2/1 3/2/1
f 5/1/1 4/1/1 3/1/1
f 6/1/1 4/1/1 5/1/1
f 7/2/1 6/2/1 5/2/1
f 8/2/1 6/2/1 7/2/1
f 9/4/1 8/4/1 7/4/1
f 10/4/1 8/4/1 9/4/1
f 11/2/1 10/2/1 9/2/1
f 12/2/1 10/2/1 11/2/1
f 13/1/1 12/1/1 11/1/1
f 14/1/1 12/1/1 13/1/1
f 15/2/1 14/2/1 13/2/1
f 16/2/1 14/2/1 15/2/1
f 17/2/2 18/2/2 19/2/2
f 19/2/2 18/2/2 20/2/2
f 19/1/2 20/1/2 21/1/2
f 21/1/2 20/1/2 22/1/2
f 21/2/2 22/2/2 23/2/2
f 23/2/2 22/2/2 24/2/2
f 23/1/2 24/1/2 25/1/2
f 25/1/2 24/1/2 26/1/2
f 25/2/2 26/2/2 27/2/2
f 27/2/2 26/2/2 28/2/2
f 37/2/3 32/2/3 31/2/3
f 37/4/3 33/4/3 32/4/3
f 38/2/3 34/2/3 33/2/3
f 38/4/3 33/4/3 37/4/3
f 39/2/3 30/2/3 29/2/3
f 40/1/3 31/1/3 30/1/3
f 40/2/3 30/2/3 39/2/3
f 41/2/3 37/2/3 31/2/3
f 41/1/3 31/1/3 40/1/3
f 41/2/3 38/2/3 37/2/3
f 42/2/3 34/2/3 38/2/3
f 42/2/3 38/2/3 41/2/3
f 42/1/3 35/1/3 34/1/3
f 43/2/3 36/2/3 35/2/3
f 43/1/3 35/1/3 42/1/3
f 44/2/3 36/2/3 43/2/3
f 45/3/3 40/3/3 39/3/3
f 46/1/3 41/1/3 40/1/3
f 46/3/3 40/3/3 45/3/3
f 47/3/3 42/3/3 41/3/3
f 47/1/3 41/1/3 46/1/3
f 48/1/3 43/1/3 42/1/3
f 48/3/3 42/3/3 47/3/3
f 49/3/3 44/3/3 43/3/3
f 49/1/3 43/1/3 48/1/3
f 50/3/3 44/3/3 49/3/3
f 51/2/3 46/2/3 45/2/3
f 52/1/3 47/1/3 46/1/3
f 52/2/3 46/2/3 51/2/3
f 53/2/3 48/2/3 47/2/3
f 53/1/3 47/1/3 52/1/3
f 54/1/3 49/1/3 48/1/3
f 54/2/3 48/2/3 53/2/3
f 55/2/3 50/2/3 49/2/3
f 55/1/3 49/1/3 54/1/3
f 56/2/3 50/2/3 55/2/3
f 57/3/3 52/3/3 51/3/3
f 58/1/3 53/1/3 52/1/3
f 58/3/3 52/3/3 57/3/3
f 59/3/3 54/3/3 53/3/3
f 59/1/3 53/1/3 58/1/3
f 60/1/3 55/1/3 54/1/3
f 60/3/3 54/3/3 59/3/3
f 61/3/3 56/3/3 55/3/3
f 61/1/3 55/1/3 60/1/3
f 62/3/3 56/3/3 61/3/3
f 63/2/3 58/2/3 57/2/3
f 64/1/3 59/1/3 58/1/3
f 64/2/3 58/2/3 63/2/3
f 65/2/3 60/2/3 59/2/3
f 65/1/3 59/1/3 64/1/3
f 66/1/3 61/1/3 60/1/3
f 66/2/3 60/2/3 65/2/3
f 67/2/3 62/2/3 61/2/3
f 67/1/3 61/1/3 66/1/3
f 68/2/3 62/2/3 67/2/3
f 71/2/4 72/2/4 77/2/4
f 72/4/4 73/4/4 77/4/4
f 73/2/4 74/2/4 78/2/4
f 77/4/4 73/4/4 78/4/4
f 69/2/4 70/2/4 79/2/4
f 70/1/4 71/1/4 80/1/4
f 79/2/4 70/2/4 80/2/4
f 71/2/4 77/2/4 81/2/4
f 80/1/4 71/1/4 81/1/4
f 77/2/4 78/2/4 81/2/4
f 78/2/4 74/2/4 82/2/4
f 81/2/4 78/2/4 82/2/4
f 74/1/4 75/1/4 82/1/4
f 75/2/4 76/2/4 83/2/4
f 82/1/4 75/1/4 83/1/4
f 83/2/4 76/2/4 84/2/4
f 79/3/4 80/3/4 85/3/4
f 80/1/4 81/1/4 86/1/4
f 85/3/4 80/3/4 86/3/4
f 81/3/4 82/3/4 87/3/4
f 86/1/4 81/1/4 87/1/4
f 82/1/4 83/1/4 88/1/4
f 87/3/4 82/3/4 88/3/4
f 83/3/4 84/3/4 89/3/4
f 88/1/4 83/1/4 89/1/4
f 89/3/4 84/3/4 90/3/4
f 85/2/4 86/2/4 91/2/4
f 86/1/4 87/1/4 92/1/4
f 91/2/4 86/2/4 92/2/4
f 87/2/4 88/2/4 93/2/4
f 92/1/4 87/1/4 93/1/4
f 88/1/4 89/1/4 94/1/4
f 93/2/4 88/2/4 94/2/4
f 89/2/4 90/2/4 95/2/4
f 94/1/4 89/1/4 95/1/4
f 95/2/4 90/2/4 96/2/4
f 91/3/4 92/3/4 97/3/4
f 92/1/4 93/1/4 98/1/4
f 97/3/4 92/3/4 98/3/4
f 93/3/4 94/3/4 99/3/4
f 98/1/4 93/1/4 99/1/4
f 94/1/4 95/1/4 100/1/4
f 99/3/4 94/3/4 100/3/4
f 95/3/4 96/3/4 101/3/4
f 100/1/4 95/1/4 101/1/4
f 101/3/4 96/3/4 102/3/4
f 97/2/4 98/2/4 103/2/4
f 98/1/4 99/1/4 104/1/4
f 103/2/4 98/2/4 104/2/4
f 99/2/4 100/2/4 105/2/4
f 104/1/4 99/1/4 105/1/4
f 100/1/4 101/1/4 106/1/4
f 105/2/4 100/2/4 106/2/4
f 101/2/4 102/2/4 107/2/4
f 106/1/4 101/1/4 107/1/4
f 107/2/4 102/2/4 108/2/4
f 115/2/5 110/2/5 109/2/5
f 116/3/5 111/3/5 110/3/5
f 116/2/5 110/2/5 115/2/5
f 117/2/5 112/2/5 111/2/5
f 117/3/5 111/3/5 116/3/5
f 118/3/5 113/3/5 112/3/5
f 118/2/5 112/2/5 117/2/5
f 119/2/5 114/2/5 113/2/5
f 119/3/5 113/3/5 118/3/5
f 120/2/5 114/2/5 119/2/5
f 121/2/6 122/2/6 127/2/6
f 122/3/6 123/3/6 128/3/6
f 127/2/6 122/2/6 128/2/6
f 123/2/6 124/2/6 129/2/6
f 128/3/6 123/3/6 129/3/6
f 124/3/6 125/3/6 130/3/6
f 129/2/6 124/2/6 130/2/6
f 125/2/6 126/2/6 131/2/6
f 130/3/6 125/3/6 131/3/6
f 131/2/6 126/2/6 132/2/6
