# MagicaVoxel @ Ephtracy

# group
g CyberSkeleton-2

# material
mtllib CyberSkeleton-2.mtl
usemtl palette

# normals
vn -1 0 0
vn 1 0 0
vn 0 0 1
vn 0 0 -1
vn 0 -1 0
vn 0 1 0

# texcoords
vt 0.845703 0.5
vt 0.880859 0.5
vt 0.970703 0.5

# verts
v -3.5 0 1.5
v -3.5 0 0.5
v -3.5 1 1.5
v -3.5 1 0.5
v -2.5 0 0.5
v -2.5 0 -0.5
v -2.5 1 0.5
v -2.5 1 -0.5
v -1.5 0 -0.5
v -1.5 0 -1.5
v -1.5 1 -0.5
v -1.5 1 -1.5
v 0.5 0 0.5
v 0.5 0 -0.5
v 0.5 1 0.5
v 0.5 1 -0.5
v -1.5 0 0.5
v -1.5 0 -0.5
v -1.5 1 0.5
v -1.5 1 -0.5
v 0.5 0 -0.5
v 0.5 0 -1.5
v 0.5 1 -0.5
v 0.5 1 -1.5
v 2.5 0 0.5
v 2.5 0 -0.5
v 2.5 1 0.5
v 2.5 1 -0.5
v 3.5 0 1.5
v 3.5 0 0.5
v 3.5 1 1.5
v 3.5 1 0.5
v -3.5 0 1.5
v -3.5 1 1.5
v -2.5 0 1.5
v -2.5 1 1.5
v 2.5 0 1.5
v 2.5 1 1.5
v 3.5 0 1.5
v 3.5 1 1.5
v -1.5 0 -0.5
v -1.5 1 -0.5
v 0.5 0 -0.5
v 0.5 1 -0.5
v -3.5 0 0.5
v -3.5 1 0.5
v -2.5 0 0.5
v -2.5 1 0.5
v -1.5 0 0.5
v -1.5 1 0.5
v 0.5 0 0.5
v 0.5 1 0.5
v 2.5 0 0.5
v 2.5 1 0.5
v 3.5 0 0.5
v 3.5 1 0.5
v -2.5 0 -0.5
v -2.5 1 -0.5
v -1.5 0 -0.5
v -1.5 1 -0.5
v 0.5 0 -0.5
v 0.5 1 -0.5
v 2.5 0 -0.5
v 2.5 1 -0.5
v -1.5 0 -1.5
v -1.5 1 -1.5
v 0.5 0 -1.5
v 0.5 1 -1.5
v -3.5 0 1.5
v -2.5 0 1.5
v 2.5 0 1.5
v 3.5 0 1.5
v -3.5 0 0.5
v -2.5 0 0.5
v -1.5 0 0.5
v 0.5 0 0.5
v 2.5 0 0.5
v 3.5 0 0.5
v -2.5 0 -0.5
v -1.5 0 -0.5
v 0.5 0 -0.5
v 2.5 0 -0.5
v -1.5 0 -1.5
v 0.5 0 -1.5
v -3.5 1 1.5
v -2.5 1 1.5
v 2.5 1 1.5
v 3.5 1 1.5
v -3.5 1 0.5
v -2.5 1 0.5
v -1.5 1 0.5
v 0.5 1 0.5
v 2.5 1 0.5
v 3.5 1 0.5
v -2.5 1 -0.5
v -1.5 1 -0.5
v 0.5 1 -0.5
v 2.5 1 -0.5
v -1.5 1 -1.5
v 0.5 1 -1.5

# faces
f 3/1/1 2/1/1 1/1/1
f 4/1/1 2/1/1 3/1/1
f 7/1/1 6/1/1 5/1/1
f 8/1/1 6/1/1 7/1/1
f 11/2/1 10/2/1 9/2/1
f 12/2/1 10/2/1 11/2/1
f 15/1/1 14/1/1 13/1/1
f 16/1/1 14/1/1 15/1/1
f 17/1/2 18/1/2 19/1/2
f 19/1/2 18/1/2 20/1/2
f 21/2/2 22/2/2 23/2/2
f 23/2/2 22/2/2 24/2/2
f 25/1/2 26/1/2 27/1/2
f 27/1/2 26/1/2 28/1/2
f 29/1/2 30/1/2 31/1/2
f 31/1/2 30/1/2 32/1/2
f 35/1/3 34/1/3 33/1/3
f 36/1/3 34/1/3 35/1/3
f 37/3/3 36/3/3 35/3/3
f 38/3/3 36/3/3 37/3/3
f 39/1/3 38/1/3 37/1/3
f 40/1/3 38/1/3 39/1/3
f 43/2/3 42/2/3 41/2/3
f 44/2/3 42/2/3 43/2/3
f 45/1/4 46/1/4 47/1/4
f 47/1/4 46/1/4 48/1/4
f 49/3/4 50/3/4 51/3/4
f 51/3/4 50/3/4 52/3/4
f 53/1/4 54/1/4 55/1/4
f 55/1/4 54/1/4 56/1/4
f 57/1/4 58/1/4 59/1/4
f 59/1/4 58/1/4 60/1/4
f 61/1/4 62/1/4 63/1/4
f 63/1/4 62/1/4 64/1/4
f 65/2/4 66/2/4 67/2/4
f 67/2/4 66/2/4 68/2/4
f 73/1/5 70/1/5 69/1/5
f 74/3/5 71/3/5 70/3/5
f 74/1/5 70/1/5 73/1/5
f 75/3/5 71/3/5 74/3/5
f 76/3/5 71/3/5 75/3/5
f 77/1/5 72/1/5 71/1/5
f 77/3/5 71/3/5 76/3/5
f 78/1/5 72/1/5 77/1/5
f 79/1/5 75/1/5 74/1/5
f 80/1/5 75/1/5 79/1/5
f 81/1/5 77/1/5 76/1/5
f 82/1/5 77/1/5 81/1/5
f 83/2/5 81/2/5 80/2/5
f 84/2/5 81/2/5 83/2/5
f 85/1/6 86/1/6 89/1/6
f 86/3/6 87/3/6 90/3/6
f 89/1/6 86/1/6 90/1/6
f 90/3/6 87/3/6 91/3/6
f 91/3/6 87/3/6 92/3/6
f 87/1/6 88/1/6 93/1/6
f 92/3/6 87/3/6 93/3/6
f 93/1/6 88/1/6 94/1/6
f 90/1/6 91/1/6 95/1/6
f 95/1/6 91/1/6 96/1/6
f 92/1/6 93/1/6 97/1/6
f 97/1/6 93/1/6 98/1/6
f 96/2/6 97/2/6 99/2/6
f 99/2/6 97/2/6 100/2/6
