# MagicaVoxel @ Ephtracy

# group
g CyberSkeleton-6

# material
mtllib CyberSkeleton-6.mtl
usemtl palette

# normals
vn -1 0 0
vn 1 0 0
vn 0 0 1
vn 0 0 -1
vn 0 -1 0
vn 0 1 0

# texcoords
vt 0.845703 0.5
vt 0.880859 0.5
vt 0.970703 0.5

# verts
v -1.5 3 0.5
v -1.5 3 -0.5
v -1.5 4 0.5
v -1.5 4 -0.5
v -1.5 6 0.5
v -1.5 6 -0.5
v -1.5 7 0.5
v -1.5 7 -0.5
v -0.5 0 1.5
v -0.5 0 0.5
v -0.5 0 -0.5
v -0.5 2 1.5
v -0.5 2 0.5
v -0.5 3 1.5
v -0.5 3 0.5
v -0.5 3 -0.5
v -0.5 3 -1.5
v -0.5 4 1.5
v -0.5 4 0.5
v -0.5 4 -0.5
v -0.5 4 -1.5
v -0.5 6 1.5
v -0.5 6 0.5
v -0.5 6 -0.5
v -0.5 6 -1.5
v -0.5 7 1.5
v -0.5 7 0.5
v -0.5 7 -0.5
v -0.5 7 -1.5
v -0.5 8 0.5
v -0.5 8 -0.5
v -0.5 8 -1.5
v 0.5 0 1.5
v 0.5 0 0.5
v 0.5 0 -0.5
v 0.5 2 1.5
v 0.5 2 0.5
v 0.5 2 -0.5
v 0.5 3 1.5
v 0.5 3 0.5
v 0.5 3 -0.5
v 0.5 3 -1.5
v 0.5 4 1.5
v 0.5 4 0.5
v 0.5 4 -0.5
v 0.5 4 -1.5
v 0.5 6 1.5
v 0.5 6 0.5
v 0.5 6 -0.5
v 0.5 6 -1.5
v 0.5 7 1.5
v 0.5 7 0.5
v 0.5 7 -0.5
v 0.5 7 -1.5
v 0.5 8 0.5
v 0.5 8 -0.5
v 0.5 8 -1.5
v 1.5 2 0.5
v 1.5 2 -0.5
v 1.5 3 0.5
v 1.5 3 -0.5
v 1.5 4 0.5
v 1.5 4 -0.5
v 1.5 6 0.5
v 1.5 6 -0.5
v 1.5 7 0.5
v 1.5 7 -0.5
v -0.5 0 1.5
v -0.5 2 1.5
v -0.5 3 1.5
v -0.5 4 1.5
v -0.5 6 1.5
v -0.5 7 1.5
v 0.5 0 1.5
v 0.5 2 1.5
v 0.5 3 1.5
v 0.5 4 1.5
v 0.5 6 1.5
v 0.5 7 1.5
v -1.5 3 0.5
v -1.5 4 0.5
v -1.5 6 0.5
v -1.5 7 0.5
v -0.5 2 0.5
v -0.5 3 0.5
v -0.5 4 0.5
v -0.5 6 0.5
v -0.5 7 0.5
v -0.5 8 0.5
v 0.5 2 0.5
v 0.5 3 0.5
v 0.5 4 0.5
v 0.5 6 0.5
v 0.5 7 0.5
v 0.5 8 0.5
v 1.5 2 0.5
v 1.5 3 0.5
v 1.5 4 0.5
v 1.5 6 0.5
v 1.5 7 0.5
v -1.5 3 -0.5
v -1.5 4 -0.5
v -1.5 6 -0.5
v -1.5 7 -0.5
v -0.5 0 -0.5
v -0.5 3 -0.5
v -0.5 4 -0.5
v -0.5 6 -0.5
v -0.5 7 -0.5
v 0.5 0 -0.5
v 0.5 2 -0.5
v 0.5 3 -0.5
v 0.5 4 -0.5
v 0.5 6 -0.5
v 0.5 7 -0.5
v 1.5 2 -0.5
v 1.5 3 -0.5
v 1.5 4 -0.5
v 1.5 6 -0.5
v 1.5 7 -0.5
v -0.5 3 -1.5
v -0.5 4 -1.5
v -0.5 6 -1.5
v -0.5 7 -1.5
v -0.5 8 -1.5
v 0.5 3 -1.5
v 0.5 4 -1.5
v 0.5 6 -1.5
v 0.5 7 -1.5
v 0.5 8 -1.5
v -0.5 0 1.5
v 0.5 0 1.5
v -0.5 0 0.5
v 0.5 0 0.5
v -0.5 0 -0.5
v 0.5 0 -0.5
v 0.5 2 0.5
v 1.5 2 0.5
v 0.5 2 -0.5
v 1.5 2 -0.5
v -0.5 3 1.5
v 0.5 3 1.5
v -1.5 3 0.5
v -0.5 3 0.5
v 0.5 3 0.5
v -1.5 3 -0.5
v -0.5 3 -0.5
v 0.5 3 -0.5
v -0.5 3 -1.5
v 0.5 3 -1.5
v -0.5 2 1.5
v 0.5 2 1.5
v -0.5 2 0.5
v 0.5 2 0.5
v -0.5 7 1.5
v 0.5 7 1.5
v -1.5 7 0.5
v -0.5 7 0.5
v 0.5 7 0.5
v 1.5 7 0.5
v -1.5 7 -0.5
v -0.5 7 -0.5
v 0.5 7 -0.5
v 1.5 7 -0.5
v -0.5 8 0.5
v 0.5 8 0.5
v -0.5 8 -0.5
v 0.5 8 -0.5
v -0.5 8 -1.5
v 0.5 8 -1.5

# faces
f 3/2/1 2/2/1 1/2/1
f 4/2/1 2/2/1 3/2/1
f 5/1/1 4/1/1 3/1/1
f 6/1/1 4/1/1 5/1/1
f 7/2/1 6/2/1 5/2/1
f 8/2/1 6/2/1 7/2/1
f 12/1/1 10/1/1 9/1/1
f 13/3/1 11/3/1 10/3/1
f 13/1/1 10/1/1 12/1/1
f 15/3/1 11/3/1 13/3/1
f 16/3/1 11/3/1 15/3/1
f 18/2/1 15/2/1 14/2/1
f 19/2/1 15/2/1 18/2/1
f 20/2/1 17/2/1 16/2/1
f 21/2/1 17/2/1 20/2/1
f 22/1/1 19/1/1 18/1/1
f 23/1/1 19/1/1 22/1/1
f 24/1/1 21/1/1 20/1/1
f 25/1/1 21/1/1 24/1/1
f 26/2/1 23/2/1 22/2/1
f 27/2/1 23/2/1 26/2/1
f 28/2/1 25/2/1 24/2/1
f 29/2/1 25/2/1 28/2/1
f 30/3/1 28/3/1 27/3/1
f 31/1/1 29/1/1 28/1/1
f 31/3/1 28/3/1 30/3/1
f 32/1/1 29/1/1 31/1/1
f 33/1/2 34/1/2 36/1/2
f 34/3/2 35/3/2 37/3/2
f 36/1/2 34/1/2 37/1/2
f 37/3/2 35/3/2 38/3/2
f 39/2/2 40/2/2 43/2/2
f 43/2/2 40/2/2 44/2/2
f 41/2/2 42/2/2 45/2/2
f 45/2/2 42/2/2 46/2/2
f 43/1/2 44/1/2 47/1/2
f 47/1/2 44/1/2 48/1/2
f 45/1/2 46/1/2 49/1/2
f 49/1/2 46/1/2 50/1/2
f 47/2/2 48/2/2 51/2/2
f 51/2/2 48/2/2 52/2/2
f 49/2/2 50/2/2 53/2/2
f 53/2/2 50/2/2 54/2/2
f 52/3/2 53/3/2 55/3/2
f 53/1/2 54/1/2 56/1/2
f 55/3/2 53/3/2 56/3/2
f 56/1/2 54/1/2 57/1/2
f 58/1/2 59/1/2 60/1/2
f 60/1/2 59/1/2 61/1/2
f 60/2/2 61/2/2 62/2/2
f 62/2/2 61/2/2 63/2/2
f 62/1/2 63/1/2 64/1/2
f 64/1/2 63/1/2 65/1/2
f 64/2/2 65/2/2 66/2/2
f 66/2/2 65/2/2 67/2/2
f 74/1/3 69/1/3 68/1/3
f 75/1/3 69/1/3 74/1/3
f 76/2/3 71/2/3 70/2/3
f 77/1/3 72/1/3 71/1/3
f 77/2/3 71/2/3 76/2/3
f 78/2/3 73/2/3 72/2/3
f 78/1/3 72/1/3 77/1/3
f 79/2/3 73/2/3 78/2/3
f 85/2/3 81/2/3 80/2/3
f 86/1/3 82/1/3 81/1/3
f 86/2/3 81/2/3 85/2/3
f 87/2/3 83/2/3 82/2/3
f 87/1/3 82/1/3 86/1/3
f 88/2/3 83/2/3 87/2/3
f 90/3/3 85/3/3 84/3/3
f 91/3/3 85/3/3 90/3/3
f 94/3/3 89/3/3 88/3/3
f 95/3/3 89/3/3 94/3/3
f 96/1/3 91/1/3 90/1/3
f 97/2/3 92/2/3 91/2/3
f 97/1/3 91/1/3 96/1/3
f 98/1/3 93/1/3 92/1/3
f 98/2/3 92/2/3 97/2/3
f 99/2/3 94/2/3 93/2/3
f 99/1/3 93/1/3 98/1/3
f 100/2/3 94/2/3 99/2/3
f 101/2/4 102/2/4 106/2/4
f 102/1/4 103/1/4 107/1/4
f 106/2/4 102/2/4 107/2/4
f 103/2/4 104/2/4 108/2/4
f 107/1/4 103/1/4 108/1/4
f 108/2/4 104/2/4 109/2/4
f 105/3/4 106/3/4 110/3/4
f 110/3/4 106/3/4 111/3/4
f 111/3/4 106/3/4 112/3/4
f 111/1/4 112/1/4 116/1/4
f 112/2/4 113/2/4 117/2/4
f 116/1/4 112/1/4 117/1/4
f 113/1/4 114/1/4 118/1/4
f 117/2/4 113/2/4 118/2/4
f 114/2/4 115/2/4 119/2/4
f 118/1/4 114/1/4 119/1/4
f 119/2/4 115/2/4 120/2/4
f 121/2/4 122/2/4 126/2/4
f 122/1/4 123/1/4 127/1/4
f 126/2/4 122/2/4 127/2/4
f 123/2/4 124/2/4 128/2/4
f 127/1/4 123/1/4 128/1/4
f 124/1/4 125/1/4 129/1/4
f 128/2/4 124/2/4 129/2/4
f 129/1/4 125/1/4 130/1/4
f 133/1/5 132/1/5 131/1/5
f 134/1/5 132/1/5 133/1/5
f 135/3/5 134/3/5 133/3/5
f 136/3/5 134/3/5 135/3/5
f 139/1/5 138/1/5 137/1/5
f 140/1/5 138/1/5 139/1/5
f 144/2/5 142/2/5 141/2/5
f 145/2/5 142/2/5 144/2/5
f 146/2/5 144/2/5 143/2/5
f 147/2/5 144/2/5 146/2/5
f 149/2/5 148/2/5 147/2/5
f 150/2/5 148/2/5 149/2/5
f 151/1/6 152/1/6 153/1/6
f 153/1/6 152/1/6 154/1/6
f 155/2/6 156/2/6 158/2/6
f 158/2/6 156/2/6 159/2/6
f 157/2/6 158/2/6 161/2/6
f 161/2/6 158/2/6 162/2/6
f 159/2/6 160/2/6 163/2/6
f 163/2/6 160/2/6 164/2/6
f 165/3/6 166/3/6 167/3/6
f 167/3/6 166/3/6 168/3/6
f 167/1/6 168/1/6 169/1/6
f 169/1/6 168/1/6 170/1/6
