# MagicaVoxel @ Ephtracy

# group
g DungeonProps-3

# material
mtllib DungeonProps-3.mtl
usemtl palette

# normals
vn -1 0 0
vn 1 0 0
vn 0 0 1
vn 0 0 -1
vn 0 -1 0
vn 0 1 0

# texcoords
vt 0.908203 0.5
vt 0.912109 0.5

# verts
v -5 0 5
v -5 0 4
v -5 0 -4
v -5 0 -5
v -5 8 4
v -5 8 -4
v -5 9 5
v -5 9 -4
v -5 18 -4
v -5 18 -5
v 4 0 5
v 4 0 4
v 4 0 -4
v 4 0 -5
v 4 8 5
v 4 8 4
v 4 8 -4
v 4 8 -5
v 4 9 -4
v 4 9 -5
v 4 13 -4
v 4 13 -5
v 4 17 -4
v 4 17 -5
v 4 18 -4
v 4 18 -5
v -4 0 5
v -4 0 4
v -4 0 -4
v -4 0 -5
v -4 8 5
v -4 8 4
v -4 8 -4
v -4 8 -5
v -4 9 -4
v -4 9 -5
v -4 13 -4
v -4 13 -5
v -4 17 -4
v -4 17 -5
v -4 18 -4
v -4 18 -5
v 5 0 5
v 5 0 4
v 5 0 -4
v 5 0 -5
v 5 8 4
v 5 8 -4
v 5 9 5
v 5 9 -4
v 5 18 -4
v 5 18 -5
v -5 0 5
v -5 9 5
v -4 0 5
v -4 8 5
v 4 0 5
v 4 8 5
v 5 0 5
v 5 9 5
v -5 0 -4
v -5 8 -4
v -5 9 -4
v -5 18 -4
v -4 0 -4
v -4 8 -4
v -4 9 -4
v -4 13 -4
v -4 17 -4
v -4 18 -4
v 4 0 -4
v 4 8 -4
v 4 9 -4
v 4 13 -4
v 4 17 -4
v 4 18 -4
v 5 0 -4
v 5 8 -4
v 5 9 -4
v 5 18 -4
v -5 0 4
v -5 8 4
v -4 0 4
v -4 8 4
v 4 0 4
v 4 8 4
v 5 0 4
v 5 8 4
v -5 0 -5
v -5 18 -5
v -4 0 -5
v -4 8 -5
v -4 9 -5
v -4 13 -5
v -4 17 -5
v -4 18 -5
v 4 0 -5
v 4 8 -5
v 4 9 -5
v 4 13 -5
v 4 17 -5
v 4 18 -5
v 5 0 -5
v 5 18 -5
v -5 0 5
v -4 0 5
v 4 0 5
v 5 0 5
v -5 0 4
v -4 0 4
v 4 0 4
v 5 0 4
v -5 0 -4
v -4 0 -4
v 4 0 -4
v 5 0 -4
v -5 0 -5
v -4 0 -5
v 4 0 -5
v 5 0 -5
v -4 8 5
v 4 8 5
v -5 8 4
v -4 8 4
v 4 8 4
v 5 8 4
v -5 8 -4
v -4 8 -4
v 4 8 -4
v 5 8 -4
v -4 8 -5
v 4 8 -5
v -4 13 -4
v 4 13 -4
v -4 13 -5
v 4 13 -5
v -5 9 5
v 5 9 5
v -4 9 4
v 4 9 4
v -5 9 -4
v -4 9 -4
v 4 9 -4
v 5 9 -4
v -4 9 -5
v 4 9 -5
v -4 17 -4
v 4 17 -4
v -4 17 -5
v 4 17 -5
v -5 18 -4
v -4 18 -4
v 4 18 -4
v 5 18 -4
v -5 18 -5
v -4 18 -5
v 4 18 -5
v 5 18 -5

# faces
f 5/2/1 2/2/1 1/2/1
f 6/2/1 4/2/1 3/2/1
f 7/2/1 5/2/1 1/2/1
f 7/2/1 6/2/1 5/2/1
f 8/2/1 4/2/1 6/2/1
f 8/2/1 6/2/1 7/2/1
f 9/2/1 4/2/1 8/2/1
f 10/2/1 4/2/1 9/2/1
f 15/2/1 12/2/1 11/2/1
f 16/2/1 12/2/1 15/2/1
f 17/2/1 14/2/1 13/2/1
f 18/2/1 14/2/1 17/2/1
f 21/2/1 20/2/1 19/2/1
f 22/2/1 20/2/1 21/2/1
f 25/2/1 24/2/1 23/2/1
f 26/2/1 24/2/1 25/2/1
f 27/2/2 28/2/2 31/2/2
f 31/2/2 28/2/2 32/2/2
f 29/2/2 30/2/2 33/2/2
f 33/2/2 30/2/2 34/2/2
f 35/2/2 36/2/2 37/2/2
f 37/2/2 36/2/2 38/2/2
f 39/2/2 40/2/2 41/2/2
f 41/2/2 40/2/2 42/2/2
f 43/2/2 44/2/2 47/2/2
f 45/2/2 46/2/2 48/2/2
f 43/2/2 47/2/2 49/2/2
f 47/2/2 48/2/2 49/2/2
f 48/2/2 46/2/2 50/2/2
f 49/2/2 48/2/2 50/2/2
f 50/2/2 46/2/2 51/2/2
f 51/2/2 46/2/2 52/2/2
f 55/2/3 54/2/3 53/2/3
f 56/2/3 54/2/3 55/2/3
f 58/2/3 54/2/3 56/2/3
f 59/2/3 58/2/3 57/2/3
f 60/2/3 54/2/3 58/2/3
f 60/2/3 58/2/3 59/2/3
f 65/2/3 62/2/3 61/2/3
f 66/2/3 62/2/3 65/2/3
f 67/2/3 64/2/3 63/2/3
f 68/2/3 64/2/3 67/2/3
f 69/2/3 64/2/3 68/2/3
f 70/2/3 64/2/3 69/2/3
f 74/1/3 69/1/3 68/1/3
f 75/1/3 69/1/3 74/1/3
f 77/2/3 72/2/3 71/2/3
f 78/2/3 72/2/3 77/2/3
f 79/2/3 76/2/3 75/2/3
f 79/2/3 74/2/3 73/2/3
f 79/2/3 75/2/3 74/2/3
f 80/2/3 76/2/3 79/2/3
f 81/2/4 82/2/4 83/2/4
f 83/2/4 82/2/4 84/2/4
f 85/2/4 86/2/4 87/2/4
f 87/2/4 86/2/4 88/2/4
f 89/2/4 90/2/4 91/2/4
f 91/2/4 90/2/4 92/2/4
f 92/2/4 90/2/4 93/2/4
f 93/2/4 90/2/4 94/2/4
f 94/2/4 90/2/4 95/2/4
f 95/2/4 90/2/4 96/2/4
f 92/2/4 93/2/4 98/2/4
f 98/2/4 93/2/4 99/2/4
f 94/1/4 95/1/4 100/1/4
f 100/1/4 95/1/4 101/1/4
f 98/2/4 99/2/4 103/2/4
f 101/2/4 102/2/4 103/2/4
f 100/2/4 101/2/4 103/2/4
f 99/2/4 100/2/4 103/2/4
f 97/2/4 98/2/4 103/2/4
f 103/2/4 102/2/4 104/2/4
f 109/2/5 106/2/5 105/2/5
f 110/2/5 106/2/5 109/2/5
f 111/2/5 108/2/5 107/2/5
f 112/2/5 108/2/5 111/2/5
f 117/2/5 114/2/5 113/2/5
f 118/2/5 114/2/5 117/2/5
f 119/2/5 116/2/5 115/2/5
f 120/2/5 116/2/5 119/2/5
f 124/2/5 122/2/5 121/2/5
f 125/2/5 122/2/5 124/2/5
f 127/2/5 124/2/5 123/2/5
f 128/1/5 125/1/5 124/1/5
f 128/2/5 124/2/5 127/2/5
f 129/2/5 126/2/5 125/2/5
f 129/1/5 125/1/5 128/1/5
f 130/2/5 126/2/5 129/2/5
f 131/2/5 129/2/5 128/2/5
f 132/2/5 129/2/5 131/2/5
f 135/1/5 134/1/5 133/1/5
f 136/1/5 134/1/5 135/1/5
f 137/2/6 138/2/6 139/2/6
f 139/2/6 138/2/6 140/2/6
f 137/2/6 139/2/6 141/2/6
f 139/1/6 140/1/6 142/1/6
f 141/2/6 139/2/6 142/2/6
f 140/2/6 138/2/6 143/2/6
f 142/1/6 140/1/6 143/1/6
f 143/2/6 138/2/6 144/2/6
f 142/2/6 143/2/6 145/2/6
f 145/2/6 143/2/6 146/2/6
f 147/1/6 148/1/6 149/1/6
f 149/1/6 148/1/6 150/1/6
f 151/2/6 152/2/6 155/2/6
f 155/2/6 152/2/6 156/2/6
f 153/2/6 154/2/6 157/2/6
f 157/2/6 154/2/6 158/2/6
