# MagicaVoxel @ Ephtracy

# group
g DungeonProps-6

# material
mtllib DungeonProps-6.mtl
usemtl palette

# normals
vn -1 0 0
vn 1 0 0
vn 0 0 1
vn 0 0 -1
vn 0 -1 0
vn 0 1 0

# texcoords
vt 0.908203 0.5
vt 0.916016 0.5

# verts
v -9 0 5
v -9 0 -5
v -9 1 4
v -9 1 -4
v -9 2 4
v -9 2 -4
v -9 3 5
v -9 3 -5
v 8 0 4
v 8 0 -4
v 8 1 4
v 8 1 -4
v 8 2 4
v 8 2 -4
v -8 0 4
v -8 0 -4
v -8 1 4
v -8 1 -4
v -8 2 4
v -8 2 -4
v 9 0 5
v 9 0 -5
v 9 1 4
v 9 1 -4
v 9 2 4
v 9 2 -4
v 9 3 5
v 9 3 -5
v -9 0 5
v -9 3 5
v -8 1 5
v -8 2 5
v -1 1 5
v -1 2 5
v 1 1 5
v 1 2 5
v 8 1 5
v 8 2 5
v 9 0 5
v 9 3 5
v -8 0 -4
v -8 1 -4
v -8 2 -4
v 8 0 -4
v 8 1 -4
v 8 2 -4
v -8 0 4
v -8 1 4
v -8 2 4
v -1 1 4
v -1 2 4
v 1 1 4
v 1 2 4
v 8 0 4
v 8 1 4
v 8 2 4
v -9 0 -5
v -9 3 -5
v -8 1 -5
v -8 2 -5
v 8 1 -5
v 8 2 -5
v 9 0 -5
v 9 3 -5
v -9 0 5
v 9 0 5
v -8 0 4
v 8 0 4
v -8 0 -4
v 8 0 -4
v -9 0 -5
v 9 0 -5
v -8 2 4
v -1 2 4
v 1 2 4
v 8 2 4
v -8 2 -4
v 8 2 -4
v -9 3 5
v 9 3 5
v -8 3 4
v 8 3 4
v -8 3 -4
v 8 3 -4
v -9 3 -5
v 9 3 -5

# faces
f 3/2/1 2/2/1 1/2/1
f 4/2/1 2/2/1 3/2/1
f 5/2/1 3/2/1 1/2/1
f 5/1/1 4/1/1 3/1/1
f 6/2/1 2/2/1 4/2/1
f 6/1/1 4/1/1 5/1/1
f 7/2/1 5/2/1 1/2/1
f 7/2/1 6/2/1 5/2/1
f 8/2/1 2/2/1 6/2/1
f 8/2/1 6/2/1 7/2/1
f 11/2/1 10/2/1 9/2/1
f 12/2/1 10/2/1 11/2/1
f 13/1/1 12/1/1 11/1/1
f 14/1/1 12/1/1 13/1/1
f 15/2/2 16/2/2 17/2/2
f 17/2/2 16/2/2 18/2/2
f 17/1/2 18/1/2 19/1/2
f 19/1/2 18/1/2 20/1/2
f 21/2/2 22/2/2 23/2/2
f 23/2/2 22/2/2 24/2/2
f 21/2/2 23/2/2 25/2/2
f 23/1/2 24/1/2 25/1/2
f 24/2/2 22/2/2 26/2/2
f 25/1/2 24/1/2 26/1/2
f 21/2/2 25/2/2 27/2/2
f 25/2/2 26/2/2 27/2/2
f 26/2/2 22/2/2 28/2/2
f 27/2/2 26/2/2 28/2/2
f 31/2/3 30/2/3 29/2/3
f 32/2/3 30/2/3 31/2/3
f 33/2/3 31/2/3 29/2/3
f 33/1/3 32/1/3 31/1/3
f 34/2/3 30/2/3 32/2/3
f 34/1/3 32/1/3 33/1/3
f 35/2/3 33/2/3 29/2/3
f 35/2/3 34/2/3 33/2/3
f 36/2/3 30/2/3 34/2/3
f 36/2/3 34/2/3 35/2/3
f 37/2/3 35/2/3 29/2/3
f 37/1/3 36/1/3 35/1/3
f 38/2/3 30/2/3 36/2/3
f 38/1/3 36/1/3 37/1/3
f 39/2/3 37/2/3 29/2/3
f 39/2/3 38/2/3 37/2/3
f 40/2/3 30/2/3 38/2/3
f 40/2/3 38/2/3 39/2/3
f 44/2/3 42/2/3 41/2/3
f 45/1/3 43/1/3 42/1/3
f 45/2/3 42/2/3 44/2/3
f 46/1/3 43/1/3 45/1/3
f 47/2/4 48/2/4 50/2/4
f 48/1/4 49/1/4 50/1/4
f 50/1/4 49/1/4 51/1/4
f 47/2/4 50/2/4 52/2/4
f 50/2/4 51/2/4 52/2/4
f 52/2/4 51/2/4 53/2/4
f 47/2/4 52/2/4 54/2/4
f 52/1/4 53/1/4 55/1/4
f 54/2/4 52/2/4 55/2/4
f 55/1/4 53/1/4 56/1/4
f 57/2/4 58/2/4 59/2/4
f 59/2/4 58/2/4 60/2/4
f 57/2/4 59/2/4 61/2/4
f 59/1/4 60/1/4 61/1/4
f 60/2/4 58/2/4 62/2/4
f 61/1/4 60/1/4 62/1/4
f 57/2/4 61/2/4 63/2/4
f 61/2/4 62/2/4 63/2/4
f 62/2/4 58/2/4 64/2/4
f 63/2/4 62/2/4 64/2/4
f 67/2/5 66/2/5 65/2/5
f 68/2/5 66/2/5 67/2/5
f 69/2/5 67/2/5 65/2/5
f 70/2/5 66/2/5 68/2/5
f 71/2/5 69/2/5 65/2/5
f 71/2/5 70/2/5 69/2/5
f 72/2/5 66/2/5 70/2/5
f 72/2/5 70/2/5 71/2/5
f 77/1/5 74/1/5 73/1/5
f 77/1/5 76/1/5 75/1/5
f 77/1/5 75/1/5 74/1/5
f 78/1/5 76/1/5 77/1/5
f 79/2/6 80/2/6 81/2/6
f 81/2/6 80/2/6 82/2/6
f 79/2/6 81/2/6 83/2/6
f 81/1/6 82/1/6 83/1/6
f 82/2/6 80/2/6 84/2/6
f 83/1/6 82/1/6 84/1/6
f 79/2/6 83/2/6 85/2/6
f 83/2/6 84/2/6 85/2/6
f 84/2/6 80/2/6 86/2/6
f 85/2/6 84/2/6 86/2/6
