# MagicaVoxel @ Ephtracy

# group
g DungeonProps-1

# material
mtllib DungeonProps-1.mtl
usemtl palette

# normals
vn -1 0 0
vn 1 0 0
vn 0 0 1
vn 0 0 -1
vn 0 -1 0
vn 0 1 0

# texcoords
vt 0.939453 0.5
vt 0.943359 0.5
vt 0.947266 0.5
vt 0.951172 0.5

# verts
v -5 25 1
v -5 25 -0
v -5 26 1
v -5 26 -0
v -4 0 1
v -4 0 -0
v -4 1 1
v -4 1 -0
v -4 22 1
v -4 22 -0
v -4 25 2
v -4 25 1
v -4 25 -0
v -4 25 -1
v -4 26 2
v -4 26 1
v -4 26 -0
v -4 26 -1
v -4 29 1
v -4 29 -0
v -4 30 1
v -4 30 -0
v -3 1 1
v -3 1 -0
v -3 2 1
v -3 2 -0
v -2 13 1
v -2 13 -0
v -2 17 1
v -2 17 -0
v -2 25 4
v -2 25 3
v -2 26 4
v -2 26 3
v -2 27 -3
v -2 27 -4
v -2 28 -3
v -2 28 -4
v -2 29 1
v -2 29 -0
v -2 30 1
v -2 30 -0
v -1 0 4
v -1 0 1
v -1 0 -0
v -1 0 -3
v -1 1 4
v -1 1 3
v -1 1 -2
v -1 1 -3
v -1 2 3
v -1 2 1
v -1 2 -0
v -1 2 -2
v -1 13 2
v -1 13 1
v -1 13 -0
v -1 13 -1
v -1 17 2
v -1 17 1
v -1 17 -0
v -1 17 -1
v -1 22 4
v -1 22 1
v -1 22 -0
v -1 23 3
v -1 23 1
v -1 23 -0
v -1 24 -0
v -1 24 -4
v -1 25 5
v -1 25 4
v -1 25 3
v -1 25 2
v -1 25 -0
v -1 25 -3
v -1 26 5
v -1 26 4
v -1 26 3
v -1 26 2
v -1 27 -2
v -1 27 -3
v -1 27 -4
v -1 27 -5
v -1 28 -2
v -1 28 -3
v -1 28 -4
v -1 28 -5
v -1 29 4
v -1 29 3
v -1 29 2
v -1 29 1
v -1 29 -0
v -1 29 -1
v -1 30 4
v -1 30 3
v -1 30 2
v -1 30 1
v -1 30 -0
v -1 30 -1
v -1 31 -3
v -1 31 -4
v -1 32 -3
v -1 32 -4
v -1 33 1
v -1 33 -0
v -1 34 1
v -1 34 -0
v 2 27 1
v 2 27 -0
v 2 28 1
v 2 28 -0
v 3 25 1
v 3 25 -0
v 3 27 2
v 3 27 1
v 3 27 -0
v 3 27 -1
v 3 28 2
v 3 28 1
v 3 28 -0
v 3 28 -1
v 3 31 1
v 3 31 -0
v 3 32 1
v 3 32 -0
v -3 23 1
v -3 23 -0
v -3 25 2
v -3 25 1
v -3 25 -0
v -3 25 -1
v -3 26 2
v -3 26 1
v -3 26 -0
v -3 26 -1
v -3 29 1
v -3 29 -0
v -3 30 1
v -3 30 -0
v -2 25 1
v -2 25 -0
v -2 26 1
v -2 26 -0
v 0 0 4
v 0 0 1
v 0 0 -0
v 0 0 -3
v 0 1 4
v 0 1 3
v 0 1 -2
v 0 1 -3
v 0 2 3
v 0 2 1
v 0 2 -0
v 0 2 -2
v 0 13 2
v 0 13 1
v 0 13 -0
v 0 13 -1
v 0 17 2
v 0 17 1
v 0 17 -0
v 0 17 -1
v 0 22 4
v 0 22 1
v 0 23 3
v 0 23 1
v 0 24 1
v 0 24 -0
v 0 24 -4
v 0 25 5
v 0 25 4
v 0 25 3
v 0 25 2
v 0 25 1
v 0 25 -0
v 0 25 -3
v 0 26 5
v 0 26 4
v 0 26 3
v 0 26 2
v 0 27 -2
v 0 27 -3
v 0 27 -4
v 0 27 -5
v 0 28 -2
v 0 28 -3
v 0 28 -4
v 0 28 -5
v 0 29 4
v 0 29 3
v 0 29 2
v 0 29 1
v 0 29 -0
v 0 29 -1
v 0 30 4
v 0 30 3
v 0 30 2
v 0 30 1
v 0 30 -0
v 0 30 -1
v 0 31 -3
v 0 31 -4
v 0 32 -3
v 0 32 -4
v 0 33 1
v 0 33 -0
v 0 34 1
v 0 34 -0
v 1 13 1
v 1 13 -0
v 1 17 1
v 1 17 -0
v 1 25 4
v 1 25 3
v 1 26 4
v 1 26 3
v 1 27 -3
v 1 27 -4
v 1 28 -3
v 1 28 -4
v 1 29 1
v 1 29 -0
v 1 30 1
v 1 30 -0
v 2 1 1
v 2 1 -0
v 2 2 1
v 2 2 -0
v 3 0 1
v 3 0 -0
v 3 1 1
v 3 1 -0
v 4 24 1
v 4 24 -0
v 4 27 2
v 4 27 1
v 4 27 -0
v 4 27 -1
v 4 28 2
v 4 28 1
v 4 28 -0
v 4 28 -1
v 4 31 1
v 4 31 -0
v 4 32 1
v 4 32 -0
v 5 27 1
v 5 27 -0
v 5 28 1
v 5 28 -0
v -1 25 5
v -1 26 5
v 0 25 5
v 0 26 5
v -2 25 4
v -2 26 4
v -1 0 4
v -1 1 4
v -1 22 4
v -1 25 4
v -1 26 4
v -1 29 4
v -1 30 4
v 0 0 4
v 0 1 4
v 0 22 4
v 0 25 4
v 0 26 4
v 0 29 4
v 0 30 4
v 1 25 4
v 1 26 4
v -1 1 3
v -1 2 3
v 0 1 3
v 0 2 3
v -4 25 2
v -4 26 2
v -3 25 2
v -3 26 2
v -1 13 2
v -1 17 2
v -1 29 2
v -1 30 2
v 0 13 2
v 0 17 2
v 0 29 2
v 0 30 2
v 3 27 2
v 3 28 2
v 4 27 2
v 4 28 2
v -5 25 1
v -5 26 1
v -4 0 1
v -4 1 1
v -4 22 1
v -4 25 1
v -4 26 1
v -4 29 1
v -4 30 1
v -3 1 1
v -3 2 1
v -3 23 1
v -3 25 1
v -3 26 1
v -3 29 1
v -3 30 1
v -2 13 1
v -2 17 1
v -2 25 1
v -2 26 1
v -2 29 1
v -2 30 1
v -1 0 1
v -1 2 1
v -1 13 1
v -1 17 1
v -1 22 1
v -1 23 1
v -1 29 1
v -1 30 1
v -1 33 1
v -1 34 1
v 0 0 1
v 0 2 1
v 0 13 1
v 0 17 1
v 0 22 1
v 0 23 1
v 0 24 1
v 0 25 1
v 0 29 1
v 0 30 1
v 0 33 1
v 0 34 1
v 1 13 1
v 1 17 1
v 1 29 1
v 1 30 1
v 2 1 1
v 2 2 1
v 2 27 1
v 2 28 1
v 3 0 1
v 3 1 1
v 3 25 1
v 3 27 1
v 3 28 1
v 3 31 1
v 3 32 1
v 4 24 1
v 4 27 1
v 4 28 1
v 4 31 1
v 4 32 1
v 5 27 1
v 5 28 1
v -1 27 -2
v -1 28 -2
v 0 27 -2
v 0 28 -2
v -2 27 -3
v -2 28 -3
v -1 25 -3
v -1 27 -3
v -1 28 -3
v -1 31 -3
v -1 32 -3
v 0 25 -3
v 0 27 -3
v 0 28 -3
v 0 31 -3
v 0 32 -3
v 1 27 -3
v 1 28 -3
v -2 25 3
v -2 26 3
v -1 23 3
v -1 25 3
v -1 26 3
v -1 29 3
v -1 30 3
v 0 23 3
v 0 25 3
v 0 26 3
v 0 29 3
v 0 30 3
v 1 25 3
v 1 26 3
v -1 25 2
v -1 26 2
v 0 25 2
v 0 26 2
v -5 25 -0
v -5 26 -0
v -4 0 -0
v -4 1 -0
v -4 22 -0
v -4 25 -0
v -4 26 -0
v -4 29 -0
v -4 30 -0
v -3 1 -0
v -3 2 -0
v -3 23 -0
v -3 25 -0
v -3 26 -0
v -3 29 -0
v -3 30 -0
v -2 13 -0
v -2 17 -0
v -2 25 -0
v -2 26 -0
v -2 29 -0
v -2 30 -0
v -1 0 -0
v -1 2 -0
v -1 13 -0
v -1 17 -0
v -1 22 -0
v -1 23 -0
v -1 24 -0
v -1 25 -0
v -1 29 -0
v -1 30 -0
v -1 33 -0
v -1 34 -0
v 0 0 -0
v 0 2 -0
v 0 13 -0
v 0 17 -0
v 0 24 -0
v 0 25 -0
v 0 29 -0
v 0 30 -0
v 0 33 -0
v 0 34 -0
v 1 13 -0
v 1 17 -0
v 1 29 -0
v 1 30 -0
v 2 1 -0
v 2 2 -0
v 2 27 -0
v 2 28 -0
v 3 0 -0
v 3 1 -0
v 3 25 -0
v 3 27 -0
v 3 28 -0
v 3 31 -0
v 3 32 -0
v 4 24 -0
v 4 27 -0
v 4 28 -0
v 4 31 -0
v 4 32 -0
v 5 27 -0
v 5 28 -0
v -4 25 -1
v -4 26 -1
v -3 25 -1
v -3 26 -1
v -1 13 -1
v -1 17 -1
v -1 29 -1
v -1 30 -1
v 0 13 -1
v 0 17 -1
v 0 29 -1
v 0 30 -1
v 3 27 -1
v 3 28 -1
v 4 27 -1
v 4 28 -1
v -1 1 -2
v -1 2 -2
v 0 1 -2
v 0 2 -2
v -1 0 -3
v -1 1 -3
v 0 0 -3
v 0 1 -3
v -2 27 -4
v -2 28 -4
v -1 24 -4
v -1 27 -4
v -1 28 -4
v -1 31 -4
v -1 32 -4
v 0 24 -4
v 0 27 -4
v 0 28 -4
v 0 31 -4
v 0 32 -4
v 1 27 -4
v 1 28 -4
v -1 27 -5
v -1 28 -5
v 0 27 -5
v 0 28 -5
v -1 0 4
v 0 0 4
v -4 0 1
v -1 0 1
v 0 0 1
v 3 0 1
v -4 0 -0
v -1 0 -0
v 0 0 -0
v 3 0 -0
v -1 0 -3
v 0 0 -3
v -1 13 2
v 0 13 2
v -2 13 1
v -1 13 1
v 0 13 1
v 1 13 1
v -2 13 -0
v -1 13 -0
v 0 13 -0
v 1 13 -0
v -1 13 -1
v 0 13 -1
v -1 22 4
v 0 22 4
v -4 22 1
v -1 22 1
v 0 22 1
v -4 22 -0
v -1 22 -0
v 0 24 1
v 4 24 1
v -1 24 -0
v 0 24 -0
v 4 24 -0
v -1 24 -4
v 0 24 -4
v -1 25 5
v 0 25 5
v -2 25 4
v -1 25 4
v 0 25 4
v 1 25 4
v -2 25 3
v -1 25 3
v 0 25 3
v 1 25 3
v -4 25 2
v -3 25 2
v -1 25 2
v 0 25 2
v -5 25 1
v -4 25 1
v -3 25 1
v -2 25 1
v -5 25 -0
v -4 25 -0
v -3 25 -0
v -2 25 -0
v -4 25 -1
v -3 25 -1
v 3 27 2
v 4 27 2
v 2 27 1
v 3 27 1
v 4 27 1
v 5 27 1
v 2 27 -0
v 3 27 -0
v 4 27 -0
v 5 27 -0
v 3 27 -1
v 4 27 -1
v -1 27 -2
v 0 27 -2
v -2 27 -3
v -1 27 -3
v 0 27 -3
v 1 27 -3
v -2 27 -4
v -1 27 -4
v 0 27 -4
v 1 27 -4
v -1 27 -5
v 0 27 -5
v -1 29 2
v 0 29 2
v -2 29 1
v -1 29 1
v 0 29 1
v 1 29 1
v -2 29 -0
v -1 29 -0
v 0 29 -0
v 1 29 -0
v -1 29 -1
v 0 29 -1
v -1 1 4
v 0 1 4
v -1 1 3
v 0 1 3
v -4 1 1
v -3 1 1
v 2 1 1
v 3 1 1
v -4 1 -0
v -3 1 -0
v 2 1 -0
v 3 1 -0
v -1 1 -2
v 0 1 -2
v -1 1 -3
v 0 1 -3
v -1 2 3
v 0 2 3
v -3 2 1
v -1 2 1
v 0 2 1
v 2 2 1
v -3 2 -0
v -1 2 -0
v 0 2 -0
v 2 2 -0
v -1 2 -2
v 0 2 -2
v -1 17 2
v 0 17 2
v -2 17 1
v -1 17 1
v 0 17 1
v 1 17 1
v -2 17 -0
v -1 17 -0
v 0 17 -0
v 1 17 -0
v -1 17 -1
v 0 17 -1
v -1 23 3
v 0 23 3
v -3 23 1
v -1 23 1
v 0 23 1
v -3 23 -0
v -1 23 -0
v 0 25 1
v 3 25 1
v -1 25 -0
v 0 25 -0
v 3 25 -0
v -1 25 -3
v 0 25 -3
v -1 26 5
v 0 26 5
v -2 26 4
v -1 26 4
v 0 26 4
v 1 26 4
v -2 26 3
v -1 26 3
v 0 26 3
v 1 26 3
v -4 26 2
v -3 26 2
v -1 26 2
v 0 26 2
v -5 26 1
v -4 26 1
v -3 26 1
v -2 26 1
v -5 26 -0
v -4 26 -0
v -3 26 -0
v -2 26 -0
v -4 26 -1
v -3 26 -1
v 3 28 2
v 4 28 2
v 2 28 1
v 3 28 1
v 4 28 1
v 5 28 1
v 2 28 -0
v 3 28 -0
v 4 28 -0
v 5 28 -0
v 3 28 -1
v 4 28 -1
v -1 28 -2
v 0 28 -2
v -2 28 -3
v -1 28 -3
v 0 28 -3
v 1 28 -3
v -2 28 -4
v -1 28 -4
v 0 28 -4
v 1 28 -4
v -1 28 -5
v 0 28 -5
v -1 30 4
v 0 30 4
v -1 30 3
v 0 30 3
v -1 30 2
v 0 30 2
v -4 30 1
v -3 30 1
v -2 30 1
v -1 30 1
v 0 30 1
v 1 30 1
v -4 30 -0
v -3 30 -0
v -2 30 -0
v -1 30 -0
v 0 30 -0
v 1 30 -0
v -1 30 -1
v 0 30 -1
v 3 32 1
v 4 32 1
v 3 32 -0
v 4 32 -0
v -1 32 -3
v 0 32 -3
v -1 32 -4
v 0 32 -4
v -1 34 1
v 0 34 1
v -1 34 -0
v 0 34 -0

# faces
f 3/1/1 2/1/1 1/1/1
f 4/1/1 2/1/1 3/1/1
f 7/1/1 6/1/1 5/1/1
f 8/1/1 6/1/1 7/1/1
f 12/2/1 10/2/1 9/2/1
f 13/2/1 10/2/1 12/2/1
f 15/1/1 12/1/1 11/1/1
f 16/1/1 12/1/1 15/1/1
f 17/1/1 14/1/1 13/1/1
f 18/1/1 14/1/1 17/1/1
f 19/4/1 17/4/1 16/4/1
f 20/4/1 17/4/1 19/4/1
f 21/3/1 20/3/1 19/3/1
f 22/3/1 20/3/1 21/3/1
f 25/1/1 24/1/1 23/1/1
f 26/1/1 24/1/1 25/1/1
f 29/1/1 28/1/1 27/1/1
f 30/1/1 28/1/1 29/1/1
f 33/1/1 32/1/1 31/1/1
f 34/1/1 32/1/1 33/1/1
f 37/1/1 36/1/1 35/1/1
f 38/1/1 36/1/1 37/1/1
f 41/1/1 40/1/1 39/1/1
f 42/1/1 40/1/1 41/1/1
f 47/1/1 44/1/1 43/1/1
f 48/1/1 44/1/1 47/1/1
f 49/1/1 46/1/1 45/1/1
f 50/1/1 46/1/1 49/1/1
f 51/1/1 44/1/1 48/1/1
f 52/1/1 44/1/1 51/1/1
f 53/1/1 49/1/1 45/1/1
f 54/1/1 49/1/1 53/1/1
f 56/2/1 53/2/1 52/2/1
f 57/2/1 53/2/1 56/2/1
f 59/1/1 56/1/1 55/1/1
f 60/1/1 56/1/1 59/1/1
f 61/1/1 58/1/1 57/1/1
f 62/1/1 58/1/1 61/1/1
f 64/2/1 61/2/1 60/2/1
f 65/2/1 61/2/1 64/2/1
f 66/2/1 64/2/1 63/2/1
f 67/2/1 64/2/1 66/2/1
f 69/2/1 68/2/1 67/2/1
f 72/2/1 66/2/1 63/2/1
f 73/2/1 66/2/1 72/2/1
f 75/2/1 69/2/1 67/2/1
f 75/2/1 70/2/1 69/2/1
f 76/2/1 70/2/1 75/2/1
f 77/1/1 72/1/1 71/1/1
f 78/1/1 72/1/1 77/1/1
f 79/1/1 74/1/1 73/1/1
f 80/1/1 74/1/1 79/1/1
f 82/2/1 70/2/1 76/2/1
f 83/2/1 70/2/1 82/2/1
f 85/1/1 82/1/1 81/1/1
f 86/1/1 82/1/1 85/1/1
f 87/1/1 84/1/1 83/1/1
f 88/1/1 84/1/1 87/1/1
f 89/4/1 79/4/1 78/4/1
f 90/4/1 79/4/1 89/4/1
f 92/2/1 75/2/1 67/2/1
f 93/2/1 75/2/1 92/2/1
f 95/3/1 90/3/1 89/3/1
f 96/3/1 90/3/1 95/3/1
f 97/1/1 92/1/1 91/1/1
f 98/1/1 92/1/1 97/1/1
f 99/1/1 94/1/1 93/1/1
f 100/1/1 94/1/1 99/1/1
f 101/4/1 87/4/1 86/4/1
f 102/4/1 87/4/1 101/4/1
f 103/3/1 102/3/1 101/3/1
f 104/3/1 102/3/1 103/3/1
f 105/4/1 99/4/1 98/4/1
f 106/4/1 99/4/1 105/4/1
f 107/3/1 106/3/1 105/3/1
f 108/3/1 106/3/1 107/3/1
f 111/1/1 110/1/1 109/1/1
f 112/1/1 110/1/1 111/1/1
f 116/2/1 114/2/1 113/2/1
f 117/2/1 114/2/1 116/2/1
f 119/1/1 116/1/1 115/1/1
f 120/1/1 116/1/1 119/1/1
f 121/1/1 118/1/1 117/1/1
f 122/1/1 118/1/1 121/1/1
f 123/4/1 121/4/1 120/4/1
f 124/4/1 121/4/1 123/4/1
f 125/3/1 124/3/1 123/3/1
f 126/3/1 124/3/1 125/3/1
f 127/2/2 128/2/2 130/2/2
f 130/2/2 128/2/2 131/2/2
f 129/1/2 130/1/2 133/1/2
f 133/1/2 130/1/2 134/1/2
f 131/1/2 132/1/2 135/1/2
f 135/1/2 132/1/2 136/1/2
f 134/4/2 135/4/2 137/4/2
f 137/4/2 135/4/2 138/4/2
f 137/3/2 138/3/2 139/3/2
f 139/3/2 138/3/2 140/3/2
f 141/1/2 142/1/2 143/1/2
f 143/1/2 142/1/2 144/1/2
f 145/1/2 146/1/2 149/1/2
f 149/1/2 146/1/2 150/1/2
f 147/1/2 148/1/2 151/1/2
f 151/1/2 148/1/2 152/1/2
f 150/1/2 146/1/2 153/1/2
f 153/1/2 146/1/2 154/1/2
f 147/1/2 151/1/2 155/1/2
f 155/1/2 151/1/2 156/1/2
f 154/2/2 155/2/2 158/2/2
f 158/2/2 155/2/2 159/2/2
f 157/1/2 158/1/2 161/1/2
f 161/1/2 158/1/2 162/1/2
f 159/1/2 160/1/2 163/1/2
f 163/1/2 160/1/2 164/1/2
f 162/2/2 163/2/2 166/2/2
f 165/2/2 166/2/2 167/2/2
f 166/2/2 163/2/2 168/2/2
f 167/2/2 166/2/2 168/2/2
f 168/2/2 163/2/2 169/2/2
f 169/2/2 163/2/2 170/2/2
f 165/2/2 167/2/2 173/2/2
f 173/2/2 167/2/2 174/2/2
f 170/2/2 171/2/2 177/2/2
f 177/2/2 171/2/2 178/2/2
f 172/1/2 173/1/2 179/1/2
f 179/1/2 173/1/2 180/1/2
f 174/1/2 175/1/2 181/1/2
f 181/1/2 175/1/2 182/1/2
f 178/2/2 171/2/2 184/2/2
f 184/2/2 171/2/2 185/2/2
f 183/1/2 184/1/2 187/1/2
f 187/1/2 184/1/2 188/1/2
f 185/1/2 186/1/2 189/1/2
f 189/1/2 186/1/2 190/1/2
f 180/4/2 181/4/2 191/4/2
f 191/4/2 181/4/2 192/4/2
f 176/2/2 177/2/2 194/2/2
f 194/2/2 177/2/2 195/2/2
f 191/3/2 192/3/2 197/3/2
f 197/3/2 192/3/2 198/3/2
f 193/1/2 194/1/2 199/1/2
f 199/1/2 194/1/2 200/1/2
f 195/1/2 196/1/2 201/1/2
f 201/1/2 196/1/2 202/1/2
f 188/4/2 189/4/2 203/4/2
f 203/4/2 189/4/2 204/4/2
f 203/3/2 204/3/2 205/3/2
f 205/3/2 204/3/2 206/3/2
f 200/4/2 201/4/2 207/4/2
f 207/4/2 201/4/2 208/4/2
f 207/3/2 208/3/2 209/3/2
f 209/3/2 208/3/2 210/3/2
f 211/1/2 212/1/2 213/1/2
f 213/1/2 212/1/2 214/1/2
f 215/1/2 216/1/2 217/1/2
f 217/1/2 216/1/2 218/1/2
f 219/1/2 220/1/2 221/1/2
f 221/1/2 220/1/2 222/1/2
f 223/1/2 224/1/2 225/1/2
f 225/1/2 224/1/2 226/1/2
f 227/1/2 228/1/2 229/1/2
f 229/1/2 228/1/2 230/1/2
f 231/1/2 232/1/2 233/1/2
f 233/1/2 232/1/2 234/1/2
f 235/2/2 236/2/2 238/2/2
f 238/2/2 236/2/2 239/2/2
f 237/1/2 238/1/2 241/1/2
f 241/1/2 238/1/2 242/1/2
f 239/1/2 240/1/2 243/1/2
f 243/1/2 240/1/2 244/1/2
f 242/4/2 243/4/2 245/4/2
f 245/4/2 243/4/2 246/4/2
f 245/3/2 246/3/2 247/3/2
f 247/3/2 246/3/2 248/3/2
f 249/1/2 250/1/2 251/1/2
f 251/1/2 250/1/2 252/1/2
f 255/1/3 254/1/3 253/1/3
f 256/1/3 254/1/3 255/1/3
f 262/1/3 258/1/3 257/1/3
f 263/1/3 258/1/3 262/1/3
f 266/1/3 260/1/3 259/1/3
f 267/1/3 260/1/3 266/1/3
f 268/2/3 262/2/3 261/2/3
f 269/2/3 262/2/3 268/2/3
f 270/4/3 264/4/3 263/4/3
f 271/3/3 265/3/3 264/3/3
f 271/4/3 264/4/3 270/4/3
f 272/3/3 265/3/3 271/3/3
f 273/1/3 270/1/3 269/1/3
f 274/1/3 270/1/3 273/1/3
f 277/1/3 276/1/3 275/1/3
f 278/1/3 276/1/3 277/1/3
f 281/1/3 280/1/3 279/1/3
f 282/1/3 280/1/3 281/1/3
f 287/1/3 284/1/3 283/1/3
f 288/1/3 284/1/3 287/1/3
f 289/1/3 286/1/3 285/1/3
f 290/1/3 286/1/3 289/1/3
f 293/1/3 292/1/3 291/1/3
f 294/1/3 292/1/3 293/1/3
f 300/1/3 296/1/3 295/1/3
f 301/1/3 296/1/3 300/1/3
f 304/1/3 298/1/3 297/1/3
f 306/2/3 300/2/3 299/2/3
f 307/2/3 300/2/3 306/2/3
f 308/4/3 302/4/3 301/4/3
f 309/3/3 303/3/3 302/3/3
f 309/4/3 302/4/3 308/4/3
f 310/3/3 303/3/3 309/3/3
f 313/1/3 308/1/3 307/1/3
f 314/1/3 308/1/3 313/1/3
f 317/1/3 305/1/3 304/1/3
f 317/1/3 304/1/3 297/1/3
f 318/1/3 305/1/3 317/1/3
f 319/1/3 312/1/3 311/1/3
f 320/1/3 312/1/3 319/1/3
f 321/2/3 306/2/3 299/2/3
f 322/2/3 306/2/3 321/2/3
f 323/1/3 316/1/3 315/1/3
f 324/1/3 316/1/3 323/1/3
f 328/2/3 319/2/3 318/2/3
f 329/2/3 319/2/3 328/2/3
f 330/2/3 321/2/3 320/2/3
f 331/2/3 321/2/3 330/2/3
f 332/2/3 323/2/3 322/2/3
f 333/2/3 323/2/3 332/2/3
f 334/2/3 323/2/3 333/2/3
f 335/2/3 323/2/3 334/2/3
f 336/4/3 325/4/3 324/4/3
f 337/3/3 326/3/3 325/3/3
f 337/4/3 325/4/3 336/4/3
f 338/3/3 326/3/3 337/3/3
f 339/1/3 330/1/3 329/1/3
f 340/1/3 330/1/3 339/1/3
f 341/1/3 336/1/3 335/1/3
f 342/1/3 336/1/3 341/1/3
f 343/1/3 328/1/3 327/1/3
f 344/1/3 328/1/3 343/1/3
f 347/1/3 343/1/3 327/1/3
f 348/1/3 343/1/3 347/1/3
f 349/2/3 334/2/3 333/2/3
f 350/1/3 346/1/3 345/1/3
f 351/1/3 346/1/3 350/1/3
f 354/2/3 349/2/3 333/2/3
f 354/2/3 350/2/3 349/2/3
f 355/2/3 350/2/3 354/2/3
f 356/4/3 352/4/3 351/4/3
f 357/3/3 353/3/3 352/3/3
f 357/4/3 352/4/3 356/4/3
f 358/3/3 353/3/3 357/3/3
f 359/1/3 356/1/3 355/1/3
f 360/1/3 356/1/3 359/1/3
f 363/1/3 362/1/3 361/1/3
f 364/1/3 362/1/3 363/1/3
f 368/1/3 366/1/3 365/1/3
f 369/1/3 366/1/3 368/1/3
f 372/2/3 368/2/3 367/2/3
f 373/2/3 368/2/3 372/2/3
f 374/4/3 370/4/3 369/4/3
f 375/3/3 371/3/3 370/3/3
f 375/4/3 370/4/3 374/4/3
f 376/3/3 371/3/3 375/3/3
f 377/1/3 374/1/3 373/1/3
f 378/1/3 374/1/3 377/1/3
f 379/1/4 380/1/4 382/1/4
f 382/1/4 380/1/4 383/1/4
f 381/2/4 382/2/4 386/2/4
f 386/2/4 382/2/4 387/2/4
f 383/4/4 384/4/4 388/4/4
f 384/3/4 385/3/4 389/3/4
f 388/4/4 384/4/4 389/4/4
f 389/3/4 385/3/4 390/3/4
f 387/1/4 388/1/4 391/1/4
f 391/1/4 388/1/4 392/1/4
f 393/1/4 394/1/4 395/1/4
f 395/1/4 394/1/4 396/1/4
f 397/1/4 398/1/4 402/1/4
f 402/1/4 398/1/4 403/1/4
f 399/1/4 400/1/4 406/1/4
f 401/2/4 402/2/4 408/2/4
f 408/2/4 402/2/4 409/2/4
f 403/4/4 404/4/4 410/4/4
f 404/3/4 405/3/4 411/3/4
f 410/4/4 404/4/4 411/4/4
f 411/3/4 405/3/4 412/3/4
f 409/1/4 410/1/4 415/1/4
f 415/1/4 410/1/4 416/1/4
f 406/1/4 407/1/4 419/1/4
f 399/1/4 406/1/4 419/1/4
f 419/1/4 407/1/4 420/1/4
f 413/1/4 414/1/4 421/1/4
f 421/1/4 414/1/4 422/1/4
f 401/2/4 408/2/4 423/2/4
f 423/2/4 408/2/4 424/2/4
f 417/1/4 418/1/4 427/1/4
f 427/1/4 418/1/4 428/1/4
f 420/2/4 421/2/4 432/2/4
f 432/2/4 421/2/4 433/2/4
f 424/2/4 425/2/4 434/2/4
f 422/2/4 423/2/4 434/2/4
f 423/2/4 424/2/4 434/2/4
f 434/2/4 425/2/4 435/2/4
f 426/2/4 427/2/4 436/2/4
f 436/2/4 427/2/4 437/2/4
f 428/4/4 429/4/4 438/4/4
f 429/3/4 430/3/4 439/3/4
f 438/4/4 429/4/4 439/4/4
f 439/3/4 430/3/4 440/3/4
f 433/1/4 434/1/4 441/1/4
f 441/1/4 434/1/4 442/1/4
f 437/1/4 438/1/4 443/1/4
f 443/1/4 438/1/4 444/1/4
f 431/1/4 432/1/4 445/1/4
f 445/1/4 432/1/4 446/1/4
f 431/1/4 445/1/4 449/1/4
f 449/1/4 445/1/4 450/1/4
f 435/2/4 436/2/4 451/2/4
f 447/1/4 448/1/4 452/1/4
f 452/1/4 448/1/4 453/1/4
f 435/2/4 451/2/4 456/2/4
f 451/2/4 452/2/4 456/2/4
f 456/2/4 452/2/4 457/2/4
f 453/4/4 454/4/4 458/4/4
f 454/3/4 455/3/4 459/3/4
f 458/4/4 454/4/4 459/4/4
f 459/3/4 455/3/4 460/3/4
f 457/1/4 458/1/4 461/1/4
f 461/1/4 458/1/4 462/1/4
f 463/1/4 464/1/4 465/1/4
f 465/1/4 464/1/4 466/1/4
f 467/1/4 468/1/4 471/1/4
f 471/1/4 468/1/4 472/1/4
f 469/1/4 470/1/4 473/1/4
f 473/1/4 470/1/4 474/1/4
f 475/1/4 476/1/4 477/1/4
f 477/1/4 476/1/4 478/1/4
f 479/1/4 480/1/4 481/1/4
f 481/1/4 480/1/4 482/1/4
f 483/1/4 484/1/4 485/1/4
f 485/1/4 484/1/4 486/1/4
f 487/1/4 488/1/4 490/1/4
f 490/1/4 488/1/4 491/1/4
f 489/2/4 490/2/4 494/2/4
f 494/2/4 490/2/4 495/2/4
f 491/4/4 492/4/4 496/4/4
f 492/3/4 493/3/4 497/3/4
f 496/4/4 492/4/4 497/4/4
f 497/3/4 493/3/4 498/3/4
f 495/1/4 496/1/4 499/1/4
f 499/1/4 496/1/4 500/1/4
f 501/1/4 502/1/4 503/1/4
f 503/1/4 502/1/4 504/1/4
f 508/1/5 506/1/5 505/1/5
f 509/1/5 506/1/5 508/1/5
f 511/1/5 508/1/5 507/1/5
f 511/1/5 510/1/5 509/1/5
f 511/1/5 509/1/5 508/1/5
f 512/1/5 510/1/5 511/1/5
f 513/1/5 510/1/5 512/1/5
f 514/1/5 510/1/5 513/1/5
f 515/1/5 513/1/5 512/1/5
f 516/1/5 513/1/5 515/1/5
f 520/1/5 518/1/5 517/1/5
f 521/1/5 518/1/5 520/1/5
f 523/1/5 520/1/5 519/1/5
f 524/1/5 520/1/5 523/1/5
f 525/1/5 522/1/5 521/1/5
f 526/1/5 522/1/5 525/1/5
f 527/1/5 525/1/5 524/1/5
f 528/1/5 525/1/5 527/1/5
f 532/2/5 530/2/5 529/2/5
f 533/2/5 530/2/5 532/2/5
f 534/2/5 532/2/5 531/2/5
f 535/2/5 532/2/5 534/2/5
f 539/2/5 537/2/5 536/2/5
f 540/2/5 537/2/5 539/2/5
f 541/2/5 539/2/5 538/2/5
f 542/2/5 539/2/5 541/2/5
f 546/1/5 544/1/5 543/1/5
f 547/1/5 544/1/5 546/1/5
f 549/1/5 546/1/5 545/1/5
f 550/1/5 546/1/5 549/1/5
f 551/1/5 548/1/5 547/1/5
f 552/1/5 548/1/5 551/1/5
f 555/1/5 551/1/5 550/1/5
f 556/1/5 551/1/5 555/1/5
f 558/1/5 554/1/5 553/1/5
f 559/1/5 554/1/5 558/1/5
f 561/1/5 558/1/5 557/1/5
f 562/1/5 558/1/5 561/1/5
f 563/1/5 560/1/5 559/1/5
f 564/1/5 560/1/5 563/1/5
f 565/1/5 563/1/5 562/1/5
f 566/1/5 563/1/5 565/1/5
f 570/1/5 568/1/5 567/1/5
f 571/1/5 568/1/5 570/1/5
f 573/1/5 570/1/5 569/1/5
f 574/1/5 570/1/5 573/1/5
f 575/1/5 572/1/5 571/1/5
f 576/1/5 572/1/5 575/1/5
f 577/1/5 575/1/5 574/1/5
f 578/1/5 575/1/5 577/1/5
f 582/1/5 580/1/5 579/1/5
f 583/1/5 580/1/5 582/1/5
f 585/1/5 582/1/5 581/1/5
f 586/1/5 582/1/5 585/1/5
f 587/1/5 584/1/5 583/1/5
f 588/1/5 584/1/5 587/1/5
f 589/1/5 587/1/5 586/1/5
f 590/1/5 587/1/5 589/1/5
f 594/1/5 592/1/5 591/1/5
f 595/1/5 592/1/5 594/1/5
f 597/1/5 594/1/5 593/1/5
f 598/1/5 594/1/5 597/1/5
f 599/1/5 596/1/5 595/1/5
f 600/1/5 596/1/5 599/1/5
f 601/1/5 599/1/5 598/1/5
f 602/1/5 599/1/5 601/1/5
f 603/1/6 604/1/6 605/1/6
f 605/1/6 604/1/6 606/1/6
f 607/1/6 608/1/6 611/1/6
f 611/1/6 608/1/6 612/1/6
f 609/1/6 610/1/6 613/1/6
f 613/1/6 610/1/6 614/1/6
f 615/1/6 616/1/6 617/1/6
f 617/1/6 616/1/6 618/1/6
f 619/1/6 620/1/6 622/1/6
f 622/1/6 620/1/6 623/1/6
f 621/1/6 622/1/6 625/1/6
f 625/1/6 622/1/6 626/1/6
f 623/1/6 624/1/6 627/1/6
f 627/1/6 624/1/6 628/1/6
f 626/1/6 627/1/6 629/1/6
f 629/1/6 627/1/6 630/1/6
f 631/1/6 632/1/6 634/1/6
f 634/1/6 632/1/6 635/1/6
f 633/1/6 634/1/6 637/1/6
f 637/1/6 634/1/6 638/1/6
f 635/1/6 636/1/6 639/1/6
f 639/1/6 636/1/6 640/1/6
f 638/1/6 639/1/6 641/1/6
f 641/1/6 639/1/6 642/1/6
f 643/2/6 644/2/6 646/2/6
f 646/2/6 644/2/6 647/2/6
f 645/2/6 646/2/6 648/2/6
f 648/2/6 646/2/6 649/2/6
f 650/2/6 651/2/6 653/2/6
f 653/2/6 651/2/6 654/2/6
f 652/2/6 653/2/6 655/2/6
f 655/2/6 653/2/6 656/2/6
f 657/1/6 658/1/6 660/1/6
f 660/1/6 658/1/6 661/1/6
f 659/1/6 660/1/6 663/1/6
f 663/1/6 660/1/6 664/1/6
f 661/1/6 662/1/6 665/1/6
f 665/1/6 662/1/6 666/1/6
f 664/1/6 665/1/6 669/1/6
f 669/1/6 665/1/6 670/1/6
f 667/1/6 668/1/6 672/1/6
f 672/1/6 668/1/6 673/1/6
f 671/1/6 672/1/6 675/1/6
f 675/1/6 672/1/6 676/1/6
f 673/1/6 674/1/6 677/1/6
f 677/1/6 674/1/6 678/1/6
f 676/1/6 677/1/6 679/1/6
f 679/1/6 677/1/6 680/1/6
f 681/1/6 682/1/6 684/1/6
f 684/1/6 682/1/6 685/1/6
f 683/1/6 684/1/6 687/1/6
f 687/1/6 684/1/6 688/1/6
f 685/1/6 686/1/6 689/1/6
f 689/1/6 686/1/6 690/1/6
f 688/1/6 689/1/6 691/1/6
f 691/1/6 689/1/6 692/1/6
f 693/1/6 694/1/6 696/1/6
f 696/1/6 694/1/6 697/1/6
f 695/1/6 696/1/6 699/1/6
f 699/1/6 696/1/6 700/1/6
f 697/1/6 698/1/6 701/1/6
f 701/1/6 698/1/6 702/1/6
f 700/1/6 701/1/6 703/1/6
f 703/1/6 701/1/6 704/1/6
f 705/3/6 706/3/6 707/3/6
f 707/3/6 706/3/6 708/3/6
f 709/1/6 710/1/6 714/1/6
f 714/1/6 710/1/6 715/1/6
f 711/3/6 712/3/6 717/3/6
f 717/3/6 712/3/6 718/3/6
f 713/1/6 714/1/6 719/1/6
f 719/1/6 714/1/6 720/1/6
f 715/1/6 716/1/6 721/1/6
f 721/1/6 716/1/6 722/1/6
f 720/1/6 721/1/6 723/1/6
f 723/1/6 721/1/6 724/1/6
f 725/3/6 726/3/6 727/3/6
f 727/3/6 726/3/6 728/3/6
f 729/3/6 730/3/6 731/3/6
f 731/3/6 730/3/6 732/3/6
f 733/3/6 734/3/6 735/3/6
f 735/3/6 734/3/6 736/3/6
