# MagicaVoxel @ Ephtracy

# group
g DungeonProps-5

# material
mtllib DungeonProps-5.mtl
usemtl palette

# normals
vn -1 0 0
vn 1 0 0
vn 0 0 1
vn 0 0 -1
vn 0 -1 0
vn 0 1 0

# texcoords
vt 0.908203 0.5
vt 0.916016 0.5

# verts
v -9 0 5
v -9 0 -5
v -9 1 4
v -9 1 -4
v -9 7 5
v -9 7 4
v -9 7 -4
v -9 7 -5
v 8 1 4
v 8 1 -4
v 8 7 4
v 8 7 -4
v -8 1 4
v -8 1 -4
v -8 7 4
v -8 7 -4
v 9 0 5
v 9 0 -5
v 9 1 4
v 9 1 -4
v 9 7 5
v 9 7 4
v 9 7 -4
v 9 7 -5
v -9 0 5
v -9 7 5
v -8 1 5
v -8 7 5
v -5 2 5
v -5 6 5
v -4 2 5
v -4 6 5
v -1 2 5
v -1 5 5
v -1 6 5
v -1 7 5
v 1 2 5
v 1 5 5
v 1 6 5
v 1 7 5
v 4 2 5
v 4 6 5
v 5 2 5
v 5 6 5
v 8 1 5
v 8 7 5
v 9 0 5
v 9 7 5
v -8 1 -4
v -8 7 -4
v -5 2 -4
v -5 6 -4
v -4 2 -4
v -4 6 -4
v -1 2 -4
v -1 6 -4
v 1 2 -4
v 1 6 -4
v 4 2 -4
v 4 6 -4
v 5 2 -4
v 5 6 -4
v 8 1 -4
v 8 7 -4
v -8 1 4
v -8 7 4
v -5 2 4
v -5 6 4
v -4 2 4
v -4 6 4
v -1 2 4
v -1 5 4
v -1 6 4
v -1 7 4
v 1 2 4
v 1 5 4
v 1 6 4
v 1 7 4
v 4 2 4
v 4 6 4
v 5 2 4
v 5 6 4
v 8 1 4
v 8 7 4
v -9 0 -5
v -9 7 -5
v -8 1 -5
v -8 7 -5
v -5 2 -5
v -5 6 -5
v -4 2 -5
v -4 6 -5
v -1 2 -5
v -1 6 -5
v 1 2 -5
v 1 6 -5
v 4 2 -5
v 4 6 -5
v 5 2 -5
v 5 6 -5
v 8 1 -5
v 8 7 -5
v 9 0 -5
v 9 7 -5
v -9 0 5
v 9 0 5
v -8 0 4
v 8 0 4
v -8 0 -4
v 8 0 -4
v -9 0 -5
v 9 0 -5
v -8 1 4
v 8 1 4
v -8 1 -4
v 8 1 -4
v -9 7 5
v -8 7 5
v -1 7 5
v 1 7 5
v 8 7 5
v 9 7 5
v -9 7 4
v -8 7 4
v -1 7 4
v 1 7 4
v 8 7 4
v 9 7 4
v -9 7 -4
v -8 7 -4
v 8 7 -4
v 9 7 -4
v -9 7 -5
v -8 7 -5
v 8 7 -5
v 9 7 -5

# faces
f 3/2/1 2/2/1 1/2/1
f 4/2/1 2/2/1 3/2/1
f 5/2/1 3/2/1 1/2/1
f 6/1/1 4/1/1 3/1/1
f 6/2/1 3/2/1 5/2/1
f 7/2/1 2/2/1 4/2/1
f 7/1/1 4/1/1 6/1/1
f 8/2/1 2/2/1 7/2/1
f 11/1/1 10/1/1 9/1/1
f 12/1/1 10/1/1 11/1/1
f 13/1/2 14/1/2 15/1/2
f 15/1/2 14/1/2 16/1/2
f 17/2/2 18/2/2 19/2/2
f 19/2/2 18/2/2 20/2/2
f 17/2/2 19/2/2 21/2/2
f 19/1/2 20/1/2 22/1/2
f 21/2/2 19/2/2 22/2/2
f 20/2/2 18/2/2 23/2/2
f 22/1/2 20/1/2 23/1/2
f 23/2/2 18/2/2 24/2/2
f 27/2/3 26/2/3 25/2/3
f 28/2/3 26/2/3 27/2/3
f 29/1/3 28/1/3 27/1/3
f 30/1/3 28/1/3 29/1/3
f 31/1/3 29/1/3 27/1/3
f 31/2/3 30/2/3 29/2/3
f 32/1/3 28/1/3 30/1/3
f 32/2/3 30/2/3 31/2/3
f 33/1/3 31/1/3 27/1/3
f 33/1/3 32/1/3 31/1/3
f 34/1/3 32/1/3 33/1/3
f 35/1/3 28/1/3 32/1/3
f 35/1/3 32/1/3 34/1/3
f 36/1/3 28/1/3 35/1/3
f 37/2/3 34/2/3 33/2/3
f 37/1/3 33/1/3 27/1/3
f 38/1/3 35/1/3 34/1/3
f 38/2/3 34/2/3 37/2/3
f 39/2/3 36/2/3 35/2/3
f 39/1/3 35/1/3 38/1/3
f 40/2/3 36/2/3 39/2/3
f 41/1/3 38/1/3 37/1/3
f 41/1/3 37/1/3 27/1/3
f 41/1/3 40/1/3 39/1/3
f 41/1/3 39/1/3 38/1/3
f 42/1/3 40/1/3 41/1/3
f 43/1/3 41/1/3 27/1/3
f 43/2/3 42/2/3 41/2/3
f 44/1/3 40/1/3 42/1/3
f 44/2/3 42/2/3 43/2/3
f 45/2/3 27/2/3 25/2/3
f 45/1/3 43/1/3 27/1/3
f 45/1/3 44/1/3 43/1/3
f 46/1/3 40/1/3 44/1/3
f 46/1/3 44/1/3 45/1/3
f 47/2/3 45/2/3 25/2/3
f 47/2/3 46/2/3 45/2/3
f 48/2/3 46/2/3 47/2/3
f 51/1/3 50/1/3 49/1/3
f 52/1/3 50/1/3 51/1/3
f 53/1/3 51/1/3 49/1/3
f 53/2/3 52/2/3 51/2/3
f 54/1/3 50/1/3 52/1/3
f 54/2/3 52/2/3 53/2/3
f 55/1/3 53/1/3 49/1/3
f 55/1/3 54/1/3 53/1/3
f 56/1/3 50/1/3 54/1/3
f 56/1/3 54/1/3 55/1/3
f 57/1/3 55/1/3 49/1/3
f 57/2/3 56/2/3 55/2/3
f 58/1/3 50/1/3 56/1/3
f 58/2/3 56/2/3 57/2/3
f 59/1/3 57/1/3 49/1/3
f 59/1/3 58/1/3 57/1/3
f 60/1/3 50/1/3 58/1/3
f 60/1/3 58/1/3 59/1/3
f 61/1/3 59/1/3 49/1/3
f 61/2/3 60/2/3 59/2/3
f 62/1/3 50/1/3 60/1/3
f 62/2/3 60/2/3 61/2/3
f 63/1/3 61/1/3 49/1/3
f 63/1/3 62/1/3 61/1/3
f 64/1/3 50/1/3 62/1/3
f 64/1/3 62/1/3 63/1/3
f 65/1/4 66/1/4 67/1/4
f 67/1/4 66/1/4 68/1/4
f 65/1/4 67/1/4 69/1/4
f 67/2/4 68/2/4 69/2/4
f 68/1/4 66/1/4 70/1/4
f 69/2/4 68/2/4 70/2/4
f 65/1/4 69/1/4 71/1/4
f 69/1/4 70/1/4 71/1/4
f 71/1/4 70/1/4 72/1/4
f 70/1/4 66/1/4 73/1/4
f 72/1/4 70/1/4 73/1/4
f 73/1/4 66/1/4 74/1/4
f 71/2/4 72/2/4 75/2/4
f 65/1/4 71/1/4 75/1/4
f 72/1/4 73/1/4 76/1/4
f 75/2/4 72/2/4 76/2/4
f 73/2/4 74/2/4 77/2/4
f 76/1/4 73/1/4 77/1/4
f 77/2/4 74/2/4 78/2/4
f 75/1/4 76/1/4 79/1/4
f 65/1/4 75/1/4 79/1/4
f 77/1/4 78/1/4 79/1/4
f 76/1/4 77/1/4 79/1/4
f 79/1/4 78/1/4 80/1/4
f 65/1/4 79/1/4 81/1/4
f 79/2/4 80/2/4 81/2/4
f 80/1/4 78/1/4 82/1/4
f 81/2/4 80/2/4 82/2/4
f 65/1/4 81/1/4 83/1/4
f 81/1/4 82/1/4 83/1/4
f 82/1/4 78/1/4 84/1/4
f 83/1/4 82/1/4 84/1/4
f 85/2/4 86/2/4 87/2/4
f 87/2/4 86/2/4 88/2/4
f 87/1/4 88/1/4 89/1/4
f 89/1/4 88/1/4 90/1/4
f 87/1/4 89/1/4 91/1/4
f 89/2/4 90/2/4 91/2/4
f 90/1/4 88/1/4 92/1/4
f 91/2/4 90/2/4 92/2/4
f 87/1/4 91/1/4 93/1/4
f 91/1/4 92/1/4 93/1/4
f 92/1/4 88/1/4 94/1/4
f 93/1/4 92/1/4 94/1/4
f 87/1/4 93/1/4 95/1/4
f 93/2/4 94/2/4 95/2/4
f 94/1/4 88/1/4 96/1/4
f 95/2/4 94/2/4 96/2/4
f 87/1/4 95/1/4 97/1/4
f 95/1/4 96/1/4 97/1/4
f 96/1/4 88/1/4 98/1/4
f 97/1/4 96/1/4 98/1/4
f 87/1/4 97/1/4 99/1/4
f 97/2/4 98/2/4 99/2/4
f 98/1/4 88/1/4 100/1/4
f 99/2/4 98/2/4 100/2/4
f 85/2/4 87/2/4 101/2/4
f 87/1/4 99/1/4 101/1/4
f 99/1/4 100/1/4 101/1/4
f 100/1/4 88/1/4 102/1/4
f 101/1/4 100/1/4 102/1/4
f 85/2/4 101/2/4 103/2/4
f 101/2/4 102/2/4 103/2/4
f 103/2/4 102/2/4 104/2/4
f 107/2/5 106/2/5 105/2/5
f 108/2/5 106/2/5 107/2/5
f 109/2/5 107/2/5 105/2/5
f 109/1/5 108/1/5 107/1/5
f 110/2/5 106/2/5 108/2/5
f 110/1/5 108/1/5 109/1/5
f 111/2/5 109/2/5 105/2/5
f 111/2/5 110/2/5 109/2/5
f 112/2/5 106/2/5 110/2/5
f 112/2/5 110/2/5 111/2/5
f 113/1/6 114/1/6 115/1/6
f 115/1/6 114/1/6 116/1/6
f 117/2/6 118/2/6 123/2/6
f 118/1/6 119/1/6 124/1/6
f 123/2/6 118/2/6 124/2/6
f 119/2/6 120/2/6 125/2/6
f 124/1/6 119/1/6 125/1/6
f 120/1/6 121/1/6 126/1/6
f 125/2/6 120/2/6 126/2/6
f 121/2/6 122/2/6 127/2/6
f 126/1/6 121/1/6 127/1/6
f 127/2/6 122/2/6 128/2/6
f 123/1/6 124/1/6 129/1/6
f 129/1/6 124/1/6 130/1/6
f 127/1/6 128/1/6 131/1/6
f 131/1/6 128/1/6 132/1/6
f 129/2/6 130/2/6 133/2/6
f 130/1/6 131/1/6 134/1/6
f 133/2/6 130/2/6 134/2/6
f 131/2/6 132/2/6 135/2/6
f 134/1/6 131/1/6 135/1/6
f 135/2/6 132/2/6 136/2/6
