# MagicaVoxel @ Ephtracy

# group
g DemonSoldier-2

# material
mtllib DemonSoldier-2.mtl
usemtl palette

# normals
vn -1 0 0
vn 1 0 0
vn 0 0 1
vn 0 0 -1
vn 0 -1 0
vn 0 1 0

# texcoords
vt 0.943359 0.5
vt 0.970703 0.5
vt 0.974609 0.5
vt 0.978516 0.5

# verts
v -9 0 1
v -9 0 -0
v -9 1 1
v -9 1 -0
v -8 0 2
v -8 0 1
v -8 0 -0
v -8 0 -1
v -8 1 2
v -8 1 1
v -8 1 -0
v -8 1 -1
v -7 0 3
v -7 0 2
v -7 0 1
v -7 0 -0
v -7 0 -1
v -7 0 -2
v -7 1 3
v -7 1 2
v -7 1 1
v -7 1 -0
v -7 1 -1
v -7 1 -2
v -5 0 -2
v -5 0 -3
v -5 1 -2
v -5 1 -3
v -3 0 3
v -3 0 2
v -3 0 1
v -3 0 -1
v -3 1 3
v -3 1 2
v -3 1 1
v -3 1 -1
v 0 0 -0
v 0 0 -1
v 0 1 -0
v 0 1 -1
v 2 0 1
v 2 0 -0
v 2 1 1
v 2 1 -0
v 3 0 2
v 3 0 1
v 3 1 2
v 3 1 1
v 4 0 3
v 4 0 2
v 4 1 3
v 4 1 2
v 5 0 4
v 5 0 3
v 5 1 4
v 5 1 3
v -8 0 1
v -8 0 -0
v -8 1 1
v -8 1 -0
v -6 0 3
v -6 0 2
v -6 0 1
v -6 0 -0
v -6 1 3
v -6 1 2
v -6 1 1
v -6 1 -0
v -5 0 -0
v -5 0 -1
v -5 1 -0
v -5 1 -1
v -2 0 3
v -2 0 2
v -2 0 1
v -2 0 -1
v -2 1 3
v -2 1 2
v -2 1 1
v -2 1 -1
v -1 0 2
v -1 0 1
v -1 1 2
v -1 1 1
v 1 0 -2
v 1 0 -3
v 1 1 -2
v 1 1 -3
v 3 0 -1
v 3 0 -2
v 3 1 -1
v 3 1 -2
v 4 0 -0
v 4 0 -1
v 4 1 -0
v 4 1 -1
v 5 0 2
v 5 0 -0
v 5 1 2
v 5 1 -0
v 6 0 4
v 6 0 2
v 6 1 4
v 6 1 2
v 5 0 4
v 5 1 4
v 6 0 4
v 6 1 4
v -7 0 3
v -7 1 3
v -6 0 3
v -6 1 3
v -3 0 3
v -3 1 3
v -2 0 3
v -2 1 3
v 4 0 3
v 4 1 3
v 5 0 3
v 5 1 3
v -8 0 2
v -8 1 2
v -7 0 2
v -7 1 2
v -6 0 2
v -6 1 2
v -3 0 2
v -3 1 2
v -2 0 2
v -2 1 2
v -1 0 2
v -1 1 2
v 3 0 2
v 3 1 2
v 4 0 2
v 4 1 2
v -9 0 1
v -9 1 1
v -8 0 1
v -8 1 1
v 2 0 1
v 2 1 1
v 3 0 1
v 3 1 1
v -8 0 -0
v -8 1 -0
v -7 0 -0
v -7 1 -0
v -6 0 -0
v -6 1 -0
v -5 0 -0
v -5 1 -0
v 0 0 -0
v 0 1 -0
v 2 0 -0
v 2 1 -0
v -5 0 -1
v -5 1 -1
v -3 0 -1
v -3 1 -1
v -2 0 -1
v -2 1 -1
v 0 0 -1
v 0 1 -1
v 5 0 2
v 5 1 2
v 6 0 2
v 6 1 2
v -8 0 1
v -8 1 1
v -7 0 1
v -7 1 1
v -6 0 1
v -6 1 1
v -3 0 1
v -3 1 1
v -2 0 1
v -2 1 1
v -1 0 1
v -1 1 1
v -9 0 -0
v -9 1 -0
v -8 0 -0
v -8 1 -0
v 4 0 -0
v 4 1 -0
v 5 0 -0
v 5 1 -0
v -8 0 -1
v -8 1 -1
v -7 0 -1
v -7 1 -1
v 3 0 -1
v 3 1 -1
v 4 0 -1
v 4 1 -1
v -7 0 -2
v -7 1 -2
v -6 0 -2
v -6 1 -2
v -5 0 -2
v -5 1 -2
v 1 0 -2
v 1 1 -2
v 3 0 -2
v 3 1 -2
v -5 0 -3
v -5 1 -3
v -3 0 -3
v -3 1 -3
v -2 0 -3
v -2 1 -3
v 1 0 -3
v 1 1 -3
v 5 0 4
v 6 0 4
v -7 0 3
v -6 0 3
v -3 0 3
v -2 0 3
v 4 0 3
v 5 0 3
v -8 0 2
v -7 0 2
v -6 0 2
v -3 0 2
v -2 0 2
v -1 0 2
v 3 0 2
v 4 0 2
v 5 0 2
v 6 0 2
v -9 0 1
v -8 0 1
v -7 0 1
v -6 0 1
v -3 0 1
v -2 0 1
v -1 0 1
v 2 0 1
v 3 0 1
v -9 0 -0
v -8 0 -0
v -7 0 -0
v -6 0 -0
v -5 0 -0
v 0 0 -0
v 2 0 -0
v 3 0 -0
v 4 0 -0
v 5 0 -0
v -8 0 -1
v -7 0 -1
v -5 0 -1
v -3 0 -1
v -2 0 -1
v 0 0 -1
v 1 0 -1
v 3 0 -1
v 4 0 -1
v -7 0 -2
v -6 0 -2
v -5 0 -2
v -2 0 -2
v 1 0 -2
v 3 0 -2
v -5 0 -3
v -3 0 -3
v -2 0 -3
v 1 0 -3
v 5 1 4
v 6 1 4
v -7 1 3
v -6 1 3
v -3 1 3
v -2 1 3
v 4 1 3
v 5 1 3
v -8 1 2
v -7 1 2
v -6 1 2
v -3 1 2
v -2 1 2
v -1 1 2
v 3 1 2
v 4 1 2
v 5 1 2
v 6 1 2
v -9 1 1
v -8 1 1
v -7 1 1
v -6 1 1
v -3 1 1
v -2 1 1
v -1 1 1
v 2 1 1
v 3 1 1
v -9 1 -0
v -8 1 -0
v -7 1 -0
v -6 1 -0
v -5 1 -0
v 0 1 -0
v 2 1 -0
v 3 1 -0
v 4 1 -0
v 5 1 -0
v -8 1 -1
v -7 1 -1
v -5 1 -1
v -3 1 -1
v -2 1 -1
v 0 1 -1
v 1 1 -1
v 3 1 -1
v 4 1 -1
v -7 1 -2
v -6 1 -2
v -5 1 -2
v -2 1 -2
v 1 1 -2
v 3 1 -2
v -5 1 -3
v -3 1 -3
v -2 1 -3
v 1 1 -3

# faces
f 3/3/1 2/3/1 1/3/1
f 4/3/1 2/3/1 3/3/1
f 9/2/1 6/2/1 5/2/1
f 10/2/1 6/2/1 9/2/1
f 11/3/1 8/3/1 7/3/1
f 12/3/1 8/3/1 11/3/1
f 19/1/1 14/1/1 13/1/1
f 20/1/1 14/1/1 19/1/1
f 21/1/1 16/1/1 15/1/1
f 22/1/1 16/1/1 21/1/1
f 23/1/1 18/1/1 17/1/1
f 24/1/1 18/1/1 23/1/1
f 27/3/1 26/3/1 25/3/1
f 28/3/1 26/3/1 27/3/1
f 33/1/1 30/1/1 29/1/1
f 34/1/1 30/1/1 33/1/1
f 35/1/1 32/1/1 31/1/1
f 36/1/1 32/1/1 35/1/1
f 39/3/1 38/3/1 37/3/1
f 40/3/1 38/3/1 39/3/1
f 43/3/1 42/3/1 41/3/1
f 44/3/1 42/3/1 43/3/1
f 47/3/1 46/3/1 45/3/1
f 48/3/1 46/3/1 47/3/1
f 51/3/1 50/3/1 49/3/1
f 52/3/1 50/3/1 51/3/1
f 55/4/1 54/4/1 53/4/1
f 56/4/1 54/4/1 55/4/1
f 57/3/2 58/3/2 59/3/2
f 59/3/2 58/3/2 60/3/2
f 61/1/2 62/1/2 65/1/2
f 65/1/2 62/1/2 66/1/2
f 63/1/2 64/1/2 67/1/2
f 67/1/2 64/1/2 68/1/2
f 69/3/2 70/3/2 71/3/2
f 71/3/2 70/3/2 72/3/2
f 73/1/2 74/1/2 77/1/2
f 77/1/2 74/1/2 78/1/2
f 75/1/2 76/1/2 79/1/2
f 79/1/2 76/1/2 80/1/2
f 81/2/2 82/2/2 83/2/2
f 83/2/2 82/2/2 84/2/2
f 85/4/2 86/4/2 87/4/2
f 87/4/2 86/4/2 88/4/2
f 89/4/2 90/4/2 91/4/2
f 91/4/2 90/4/2 92/4/2
f 93/4/2 94/4/2 95/4/2
f 95/4/2 94/4/2 96/4/2
f 97/4/2 98/4/2 99/4/2
f 99/4/2 98/4/2 100/4/2
f 101/4/2 102/4/2 103/4/2
f 103/4/2 102/4/2 104/4/2
f 107/4/3 106/4/3 105/4/3
f 108/4/3 106/4/3 107/4/3
f 111/1/3 110/1/3 109/1/3
f 112/1/3 110/1/3 111/1/3
f 115/1/3 114/1/3 113/1/3
f 116/1/3 114/1/3 115/1/3
f 119/3/3 118/3/3 117/3/3
f 120/3/3 118/3/3 119/3/3
f 123/2/3 122/2/3 121/2/3
f 124/2/3 122/2/3 123/2/3
f 127/2/3 126/2/3 125/2/3
f 128/2/3 126/2/3 127/2/3
f 131/2/3 130/2/3 129/2/3
f 132/2/3 130/2/3 131/2/3
f 135/3/3 134/3/3 133/3/3
f 136/3/3 134/3/3 135/3/3
f 139/3/3 138/3/3 137/3/3
f 140/3/3 138/3/3 139/3/3
f 143/3/3 142/3/3 141/3/3
f 144/3/3 142/3/3 143/3/3
f 147/3/3 146/3/3 145/3/3
f 148/3/3 146/3/3 147/3/3
f 151/3/3 150/3/3 149/3/3
f 152/3/3 150/3/3 151/3/3
f 155/3/3 154/3/3 153/3/3
f 156/3/3 154/3/3 155/3/3
f 159/3/3 158/3/3 157/3/3
f 160/3/3 158/3/3 159/3/3
f 163/3/3 162/3/3 161/3/3
f 164/3/3 162/3/3 163/3/3
f 165/4/4 166/4/4 167/4/4
f 167/4/4 166/4/4 168/4/4
f 169/2/4 170/2/4 171/2/4
f 171/2/4 170/2/4 172/2/4
f 173/2/4 174/2/4 175/2/4
f 175/2/4 174/2/4 176/2/4
f 177/2/4 178/2/4 179/2/4
f 179/2/4 178/2/4 180/2/4
f 181/3/4 182/3/4 183/3/4
f 183/3/4 182/3/4 184/3/4
f 185/4/4 186/4/4 187/4/4
f 187/4/4 186/4/4 188/4/4
f 189/3/4 190/3/4 191/3/4
f 191/3/4 190/3/4 192/3/4
f 193/4/4 194/4/4 195/4/4
f 195/4/4 194/4/4 196/4/4
f 197/1/4 198/1/4 199/1/4
f 199/1/4 198/1/4 200/1/4
f 199/3/4 200/3/4 201/3/4
f 201/3/4 200/3/4 202/3/4
f 203/4/4 204/4/4 205/4/4
f 205/4/4 204/4/4 206/4/4
f 207/3/4 208/3/4 209/3/4
f 209/3/4 208/3/4 210/3/4
f 209/1/4 210/1/4 211/1/4
f 211/1/4 210/1/4 212/1/4
f 211/4/4 212/4/4 213/4/4
f 213/4/4 212/4/4 214/4/4
f 222/4/5 216/4/5 215/4/5
f 224/1/5 218/1/5 217/1/5
f 225/1/5 218/1/5 224/1/5
f 226/1/5 220/1/5 219/1/5
f 227/1/5 220/1/5 226/1/5
f 230/3/5 222/3/5 221/3/5
f 231/4/5 216/4/5 222/4/5
f 231/3/5 222/3/5 230/3/5
f 232/4/5 216/4/5 231/4/5
f 234/2/5 224/2/5 223/2/5
f 235/1/5 225/1/5 224/1/5
f 235/2/5 224/2/5 234/2/5
f 236/2/5 226/2/5 225/2/5
f 236/1/5 225/1/5 235/1/5
f 237/1/5 227/1/5 226/1/5
f 237/2/5 226/2/5 236/2/5
f 238/2/5 228/2/5 227/2/5
f 238/1/5 227/1/5 237/1/5
f 239/2/5 228/2/5 238/2/5
f 241/3/5 230/3/5 229/3/5
f 242/3/5 234/3/5 233/3/5
f 243/3/5 234/3/5 242/3/5
f 244/1/5 236/1/5 235/1/5
f 245/1/5 236/1/5 244/1/5
f 248/3/5 241/3/5 240/3/5
f 249/3/5 230/3/5 241/3/5
f 249/3/5 241/3/5 248/3/5
f 250/4/5 231/4/5 230/4/5
f 250/3/5 230/3/5 249/3/5
f 251/4/5 231/4/5 250/4/5
f 252/3/5 244/3/5 243/3/5
f 253/1/5 245/1/5 244/1/5
f 253/3/5 244/3/5 252/3/5
f 254/3/5 246/3/5 245/3/5
f 255/1/5 238/1/5 237/1/5
f 256/1/5 238/1/5 255/1/5
f 257/3/5 248/3/5 247/3/5
f 257/3/5 249/3/5 248/3/5
f 258/3/5 249/3/5 257/3/5
f 259/4/5 250/4/5 249/4/5
f 259/3/5 249/3/5 258/3/5
f 260/4/5 250/4/5 259/4/5
f 261/1/5 245/1/5 253/1/5
f 262/3/5 254/3/5 245/3/5
f 262/1/5 245/1/5 261/1/5
f 262/3/5 255/3/5 254/3/5
f 263/3/5 255/3/5 262/3/5
f 264/1/5 256/1/5 255/1/5
f 264/3/5 257/3/5 256/3/5
f 264/3/5 258/3/5 257/3/5
f 265/4/5 259/4/5 258/4/5
f 265/3/5 258/3/5 264/3/5
f 266/4/5 259/4/5 265/4/5
f 267/3/5 255/3/5 263/3/5
f 268/1/5 264/1/5 255/1/5
f 268/3/5 255/3/5 267/3/5
f 269/4/5 265/4/5 264/4/5
f 269/1/5 264/1/5 268/1/5
f 270/4/5 265/4/5 269/4/5
f 271/4/6 272/4/6 278/4/6
f 273/1/6 274/1/6 280/1/6
f 280/1/6 274/1/6 281/1/6
f 275/1/6 276/1/6 282/1/6
f 282/1/6 276/1/6 283/1/6
f 277/3/6 278/3/6 286/3/6
f 278/4/6 272/4/6 287/4/6
f 286/3/6 278/3/6 287/3/6
f 287/4/6 272/4/6 288/4/6
f 279/2/6 280/2/6 290/2/6
f 280/1/6 281/1/6 291/1/6
f 290/2/6 280/2/6 291/2/6
f 281/2/6 282/2/6 292/2/6
f 291/1/6 281/1/6 292/1/6
f 282/1/6 283/1/6 293/1/6
f 292/2/6 282/2/6 293/2/6
f 283/2/6 284/2/6 294/2/6
f 293/1/6 283/1/6 294/1/6
f 294/2/6 284/2/6 295/2/6
f 285/3/6 286/3/6 297/3/6
f 289/3/6 290/3/6 298/3/6
f 298/3/6 290/3/6 299/3/6
f 291/1/6 292/1/6 300/1/6
f 300/1/6 292/1/6 301/1/6
f 296/3/6 297/3/6 304/3/6
f 297/3/6 286/3/6 305/3/6
f 304/3/6 297/3/6 305/3/6
f 286/4/6 287/4/6 306/4/6
f 305/3/6 286/3/6 306/3/6
f 306/4/6 287/4/6 307/4/6
f 299/3/6 300/3/6 308/3/6
f 300/1/6 301/1/6 309/1/6
f 308/3/6 300/3/6 309/3/6
f 301/3/6 302/3/6 310/3/6
f 293/1/6 294/1/6 311/1/6
f 311/1/6 294/1/6 312/1/6
f 303/3/6 304/3/6 313/3/6
f 304/3/6 305/3/6 313/3/6
f 313/3/6 305/3/6 314/3/6
f 305/4/6 306/4/6 315/4/6
f 314/3/6 305/3/6 315/3/6
f 315/4/6 306/4/6 316/4/6
f 309/1/6 301/1/6 317/1/6
f 301/3/6 310/3/6 318/3/6
f 317/1/6 301/1/6 318/1/6
f 310/3/6 311/3/6 318/3/6
f 318/3/6 311/3/6 319/3/6
f 311/1/6 312/1/6 320/1/6
f 312/3/6 313/3/6 320/3/6
f 313/3/6 314/3/6 320/3/6
f 314/4/6 315/4/6 321/4/6
f 320/3/6 314/3/6 321/3/6
f 321/4/6 315/4/6 322/4/6
f 319/3/6 311/3/6 323/3/6
f 311/1/6 320/1/6 324/1/6
f 323/3/6 311/3/6 324/3/6
f 320/4/6 321/4/6 325/4/6
f 324/1/6 320/1/6 325/1/6
f 325/4/6 321/4/6 326/4/6
